<?xml version="1.0" encoding="UTF-8"?>
<svg xmlns="http://www.w3.org/2000/svg" xmlns:xlink="http://www.w3.org/1999/xlink" version="1.1" viewBox="0 0 500 300">
  <defs>
    <style>
      .cls-1 {
        opacity: .5;
        stroke: gray;
        stroke-dasharray: 5 5;
      }

      .cls-1, .cls-2, .cls-3, .cls-4, .cls-5, .cls-6, .cls-7 {
        fill: none;
      }

      .cls-1, .cls-8, .cls-9, .cls-10, .cls-3, .cls-11, .cls-12, .cls-13, .cls-14, .cls-15, .cls-16, .cls-17 {
        isolation: isolate;
      }

      .cls-2 {
        stroke: #ff2600;
      }

      .cls-2, .cls-4, .cls-5, .cls-7 {
        stroke-width: .5px;
      }

      .cls-18 {
        fill: url(#linear-gradient-8);
      }

      .cls-19 {
        fill: url(#linear-gradient-7);
      }

      .cls-20 {
        fill: url(#linear-gradient-5);
      }

      .cls-21 {
        fill: url(#linear-gradient-6);
      }

      .cls-22 {
        fill: url(#linear-gradient-4);
      }

      .cls-23 {
        fill: url(#linear-gradient-3);
      }

      .cls-24 {
        fill: url(#linear-gradient-2);
      }

      .cls-25, .cls-16 {
        fill: #aa7942;
      }

      .cls-26, .cls-8 {
        fill: #0433ff;
      }

      .cls-27 {
        fill: url(#linear-gradient);
      }

      .cls-28, .cls-12 {
        fill: #ff2600;
      }

      .cls-8, .cls-9, .cls-3, .cls-12, .cls-13, .cls-14, .cls-16, .cls-17 {
        font-family: Helvetica, Helvetica;
      }

      .cls-8, .cls-10, .cls-3, .cls-12, .cls-13, .cls-14, .cls-16 {
        font-size: 8px;
      }

      .cls-9 {
        font-size: 10px;
      }

      .cls-10 {
        font-family: Helvetica-Bold, Helvetica;
        font-weight: 700;
      }

      .cls-3 {
        stroke-width: .1px;
      }

      .cls-3, .cls-29, .cls-6 {
        stroke: #000;
      }

      .cls-30, .cls-14 {
        fill: #00f900;
      }

      .cls-29, .cls-31 {
        fill: #fff;
      }

      .cls-32 {
        fill: #2e8bb9;
        stroke: #03647a;
        stroke-width: 3px;
      }

      .cls-15, .cls-33 {
        display: none;
      }

      .cls-4 {
        stroke: #0433ff;
      }

      .cls-5 {
        stroke: #00f900;
      }

      .cls-17 {
        font-size: 14px;
      }

      .cls-7 {
        stroke: #aa7942;
      }
    </style>
    <linearGradient id="linear-gradient" x1="-54.3" y1="546" x2="-54.3" y2="545" gradientTransform="translate(13755 111666.6) scale(250 -204.5)" gradientUnits="userSpaceOnUse">
      <stop offset="0" stop-color="#0433ff" stop-opacity="0"/>
      <stop offset="1" stop-color="#0433ff" stop-opacity="0"/>
    </linearGradient>
    <linearGradient id="linear-gradient-2" x1="-54.3" y1="332.5" x2="-54.3" y2="332.5" gradientTransform="translate(13755 567) scale(250 -1)" xlink:href="#linear-gradient"/>
    <linearGradient id="linear-gradient-3" x1="-54.3" y1="545.1" x2="-54.3" y2="544.1" gradientTransform="translate(13755 98335.5) scale(250 -180.1)" gradientUnits="userSpaceOnUse">
      <stop offset="0" stop-color="#aa7942" stop-opacity="0"/>
      <stop offset="1" stop-color="#aa7942" stop-opacity="0"/>
    </linearGradient>
    <linearGradient id="linear-gradient-4" x1="-54.3" y1="545.3" x2="-54.3" y2="544.3" gradientTransform="translate(13755 100835.1) scale(250 -184.6)" gradientUnits="userSpaceOnUse">
      <stop offset="0" stop-color="#00f900" stop-opacity="0"/>
      <stop offset="1" stop-color="#00f900" stop-opacity="0"/>
    </linearGradient>
    <linearGradient id="linear-gradient-5" x1="-54.3" y1="233.2" x2="-54.3" y2="233.2" gradientTransform="translate(13755 567) scale(250 -1)" xlink:href="#linear-gradient-4"/>
    <linearGradient id="linear-gradient-6" x1="-54.3" y1="545.5" x2="-54.3" y2="544.5" gradientTransform="translate(13755 105001.1) scale(250 -192.3)" gradientUnits="userSpaceOnUse">
      <stop offset="0" stop-color="#ff2600" stop-opacity="0"/>
      <stop offset="1" stop-color="#ff2600" stop-opacity="0"/>
    </linearGradient>
    <linearGradient id="linear-gradient-7" x1="-54.3" y1="264" x2="-54.3" y2="264" gradientTransform="translate(13755 567) scale(250 -1)" xlink:href="#linear-gradient-6"/>
    <linearGradient id="linear-gradient-8" x1="-1466.5" y1="-456.6" x2="-1466.5" y2="-456.6" gradientTransform="translate(363156 24) scale(247.5 -1)" xlink:href="#linear-gradient"/>
  </defs>
  <!-- Generator: Adobe Illustrator 28.7.2, SVG Export Plug-In . SVG Version: 1.2.0 Build 154)  -->
  <g>
    <g id="Layer_1">
      <g>
        <g>
          <path class="cls-27" d="M60,234.5V91l.5,9.2.5,9.2.5-18.3.5-4.6.5-12.2.5-3.1.5-12.2.5,7.6.5-7.6.5,7.6.5-6.1.5,16.8.5-10.7.5,18.3.5-9.2.5,6.1.5-9.2.5,7.6h.5l.5-3.1.5,6.1.5-4.6.5-3.1.5,7.6h.5l.5-9.2.5,1.5.5,3.1.5-25.9.5,1.5.5,4.6.5-7.6h.5l.5,19.8.5,12.2.5-6.1.5,3.1.5,12.2.5-3.1.5-4.6.5-7.6.5,7.6.5-15.3.5-4.6.5-1.5.5,4.6.5,3.1.5,4.6.5,3.1.5,13.7.5-4.6.5,1.5h1l.5-19.8.5,10.7.5-1.5.5,4.6.5-6.1.5,16.8.5,1.5.5-7.6.5-7.6.5,9.2.5-15.3.5,7.6.5-4.6.5-1.5.5-9.2.5,4.6.5-7.6.5,7.6.5,12.2.5,3.1.5-7.6h.5l.5,16.8.5-16.8h.5l.5,1.5.5-3.1.5-10.7.5,7.6.5-7.6.5,15.3.5-4.6.5-1.5.5-6.1.5,10.7.5-16.8.5,9.2.5-7.6.5,15.3.5-7.6.5,18.3.5-1.5.5,12.2.5-10.7.5,7.6.5-19.8.5,10.7.5-21.4.5,18.3h.5l.5,21.4.5-18.3.5,3.1.5-10.7.5-13.7.5-30.5.5,12.2.5,4.6.5-3.1.5,19.8.5,12.2.5-1.5.5,1.5.5,7.6.5-15.3.5,1.5.5-7.6.5,9.2.5-9.2.5,4.6.5,12.2.5,7.6.5-13.7h.5l.5-4.6.5-4.6.5-12.2.5,6.1.5-7.6.5,16.8.5-15.3.5,19.8.5,9.2.5,13.7.5-22.9.5,10.7.5-21.4.5-9.2.5-10.7.5,6.1.5,6.1.5,9.2.5-1.5.5-4.6.5,4.6.5-3.1.5-15.3h.5l.5,9.2h.5l.5-1.5.5,6.1.5-6.1.5,6.1.5,9.2.5,7.6.5,15.3.5,15.3.5-9.2h1l.5-24.4.5-3.1.5-13.7h.5l.5-12.2.5,24.4.5-10.7.5,24.4.5-18.3.5-3.1.5,1.5.5,4.6.5-1.5.5,18.3.5,10.7.5-13.7.5-1.5.5-6.1.5-6.1.5-4.6.5,15.3.5-3.1.5-7.6.5,3.1.5-9.2.5-3.1h.5l.5,6.1h.5l.5,4.6.5-24.4.5,1.5.5,3.1.5-4.6.5-3.1.5,3.1.5,4.6h.5l.5-4.6.5,16.8.5,10.7.5,1.5.5-13.7.5,6.1.5-6.1.5-3.1.5,7.6.5,4.6.5-1.5.5-10.7.5,12.2.5-15.3.5,7.6.5-6.1.5,6.1.5-6.1.5,1.5.5-4.6.5,15.3.5,3.1.5-4.6.5,9.2.5,7.6.5,24.4.5,30.5.5,36.6.5,27.5.5,29h17.5l.5-33.6.5-44.3.5-30.5.5-38.2.5-29,.5-3.1.5,19.8.5,3.1.5,10.7.5-19.8.5,1.5.5-7.6.5,1.5.5,1.5.5,7.6.5-4.6.5-6.1.5-19.8.5-1.5.5,16.8.5,1.5h.5l.5,3.1.5-18.3.5-15.3.5,4.6.5,6.1.5,15.3.5,24.4.5,12.2h.5l.5,1.5h.5l.5-13.7.5,4.6.5,1.5.5-6.1.5-10.7.5,3.1.5-13.7.5,1.5.5,4.6.5-1.5.5-6.1.5,10.7.5-6.1.5-7.6.5,6.1.5-3.1.5-4.6.5,13.7.5-1.5.5,12.2.5-1.5.5,1.5.5-6.1.5,7.6.5-15.3.5,12.2h.5l.5-13.7.5,1.5.5,1.5.5,1.5.5,1.5.5,9.2.5,9.2.5-6.1.5,4.6.5-1.5.5-1.5.5-21.4.5,7.6.5-10.7.5-6.1.5,3.1.5,19.8.5-6.1h.5l.5,7.6.5-10.7.5-12.2.5,1.5.5,3.1.5-4.6.5,12.2.5,6.1.5-1.5.5,1.5.5,3.1.5,1.5.5-3.1.5,4.6.5-10.7.5,3.1.5-10.7h.5l.5,9.2.5,1.5h.5l.5,4.6.5-3.1.5-4.6.5,9.2.5-6.1.5-6.1.5,1.5h1.5l.5,15.3.5,7.6.5-9.2.5,6.1.5,3.1.5-10.7.5,7.6.5,9.2.5-10.7.5-9.2.5,1.5.5,6.1.5-4.6.5,1.5.5,1.5.5,6.1.5-18.3.5,6.1.5-9.2.5,7.6h.5l.5-13.7.5-3.1.5,19.8.5-9.2h.5l.5,21.4h.5l.5-16.8.5,9.2.5-3.1.5,3.1.5,1.5.5,16.8.5-13.7.5,3.1.5-13.7.5,15.3.5-10.7.5,15.3.5-7.6.5,7.6.5-21.4.5,1.5.5,3.1.5,12.2.5-3.1.5,1.5.5,3.1.5-10.7.5-9.2.5-1.5.5,4.6.5-1.5h.5l.5,1.5h.5l.5,12.2.5-6.1.5-3.1.5,4.6.5-18.3.5-12.2.5-6.1.5,1.5.5-6.1.5,4.6.5-1.5.5,1.5.5,6.1.5,1.5.5,18.3.5,6.1.5,10.7.5,10.7.5,1.5.5-12.2.5-4.6.5-16.8.5-3.1.5-3.1.5,9.2.5-6.1.5,16.8.5-10.7.5-6.1.5-3.1.5-1.5.5,3.1.5-4.6.5-4.6.5-3.1.5,12.2.5,4.6.5,1.5.5,7.6.5,1.5.5-19.8h.5l.5,4.6.5-4.6.5,7.6.5,9.2.5-15.3.5,1.5.5-3.1.5-7.6.5-4.6.5,10.7.5-6.1.5,9.2.5,1.5.5,15.3.5-9.2.5,7.6.5-9.2.5-3.1h.5l.5-3.1.5-4.6.5,9.2.5-4.6v175.5"/>
          <path class="cls-4" d="M60,91l.5,9.2.5,9.2.5-18.3.5-4.6.5-12.2.5-3.1.5-12.2.5,7.6.5-7.6.5,7.6.5-6.1.5,16.8.5-10.7.5,18.3.5-9.2.5,6.1.5-9.2.5,7.6h.5l.5-3.1.5,6.1.5-4.6.5-3.1.5,7.6h.5l.5-9.2.5,1.5.5,3.1.5-25.9.5,1.5.5,4.6.5-7.6h.5l.5,19.8.5,12.2.5-6.1.5,3.1.5,12.2.5-3.1.5-4.6.5-7.6.5,7.6.5-15.3.5-4.6.5-1.5.5,4.6.5,3.1.5,4.6.5,3.1.5,13.7.5-4.6.5,1.5h1l.5-19.8.5,10.7.5-1.5.5,4.6.5-6.1.5,16.8.5,1.5.5-7.6.5-7.6.5,9.2.5-15.3.5,7.6.5-4.6.5-1.5.5-9.2.5,4.6.5-7.6.5,7.6.5,12.2.5,3.1.5-7.6h.5l.5,16.8.5-16.8h.5l.5,1.5.5-3.1.5-10.7.5,7.6.5-7.6.5,15.3.5-4.6.5-1.5.5-6.1.5,10.7.5-16.8.5,9.2.5-7.6.5,15.3.5-7.6.5,18.3.5-1.5.5,12.2.5-10.7.5,7.6.5-19.8.5,10.7.5-21.4.5,18.3h.5l.5,21.4.5-18.3.5,3.1.5-10.7.5-13.7.5-30.5.5,12.2.5,4.6.5-3.1.5,19.8.5,12.2.5-1.5.5,1.5.5,7.6.5-15.3.5,1.5.5-7.6.5,9.2.5-9.2.5,4.6.5,12.2.5,7.6.5-13.7h.5l.5-4.6.5-4.6.5-12.2.5,6.1.5-7.6.5,16.8.5-15.3.5,19.8.5,9.2.5,13.7.5-22.9.5,10.7.5-21.4.5-9.2.5-10.7.5,6.1.5,6.1.5,9.2.5-1.5.5-4.6.5,4.6.5-3.1.5-15.3h.5l.5,9.2h.5l.5-1.5.5,6.1.5-6.1.5,6.1.5,9.2.5,7.6.5,15.3.5,15.3.5-9.2h1l.5-24.4.5-3.1.5-13.7h.5l.5-12.2.5,24.4.5-10.7.5,24.4.5-18.3.5-3.1.5,1.5.5,4.6.5-1.5.5,18.3.5,10.7.5-13.7.5-1.5.5-6.1.5-6.1.5-4.6.5,15.3.5-3.1.5-7.6.5,3.1.5-9.2.5-3.1h.5l.5,6.1h.5l.5,4.6.5-24.4.5,1.5.5,3.1.5-4.6.5-3.1.5,3.1.5,4.6h.5l.5-4.6.5,16.8.5,10.7.5,1.5.5-13.7.5,6.1.5-6.1.5-3.1.5,7.6.5,4.6.5-1.5.5-10.7.5,12.2.5-15.3.5,7.6.5-6.1.5,6.1.5-6.1.5,1.5.5-4.6.5,15.3.5,3.1.5-4.6.5,9.2.5,7.6.5,24.4.5,30.5.5,36.6.5,27.5.5,29h17.5l.5-33.6.5-44.3.5-30.5.5-38.2.5-29,.5-3.1.5,19.8.5,3.1.5,10.7.5-19.8.5,1.5.5-7.6.5,1.5.5,1.5.5,7.6.5-4.6.5-6.1.5-19.8.5-1.5.5,16.8.5,1.5h.5l.5,3.1.5-18.3.5-15.3.5,4.6.5,6.1.5,15.3.5,24.4.5,12.2h.5l.5,1.5h.5l.5-13.7.5,4.6.5,1.5.5-6.1.5-10.7.5,3.1.5-13.7.5,1.5.5,4.6.5-1.5.5-6.1.5,10.7.5-6.1.5-7.6.5,6.1.5-3.1.5-4.6.5,13.7.5-1.5.5,12.2.5-1.5.5,1.5.5-6.1.5,7.6.5-15.3.5,12.2h.5l.5-13.7.5,1.5.5,1.5.5,1.5.5,1.5.5,9.2.5,9.2.5-6.1.5,4.6.5-1.5.5-1.5.5-21.4.5,7.6.5-10.7.5-6.1.5,3.1.5,19.8.5-6.1h.5l.5,7.6.5-10.7.5-12.2.5,1.5.5,3.1.5-4.6.5,12.2.5,6.1.5-1.5.5,1.5.5,3.1.5,1.5.5-3.1.5,4.6.5-10.7.5,3.1.5-10.7h.5l.5,9.2.5,1.5h.5l.5,4.6.5-3.1.5-4.6.5,9.2.5-6.1.5-6.1.5,1.5h1.5l.5,15.3.5,7.6.5-9.2.5,6.1.5,3.1.5-10.7.5,7.6.5,9.2.5-10.7.5-9.2.5,1.5.5,6.1.5-4.6.5,1.5.5,1.5.5,6.1.5-18.3.5,6.1.5-9.2.5,7.6h.5l.5-13.7.5-3.1.5,19.8.5-9.2h.5l.5,21.4h.5l.5-16.8.5,9.2.5-3.1.5,3.1.5,1.5.5,16.8.5-13.7.5,3.1.5-13.7.5,15.3.5-10.7.5,15.3.5-7.6.5,7.6.5-21.4.5,1.5.5,3.1.5,12.2.5-3.1.5,1.5.5,3.1.5-10.7.5-9.2.5-1.5.5,4.6.5-1.5h.5l.5,1.5h.5l.5,12.2.5-6.1.5-3.1.5,4.6.5-18.3.5-12.2.5-6.1.5,1.5.5-6.1.5,4.6.5-1.5.5,1.5.5,6.1.5,1.5.5,18.3.5,6.1.5,10.7.5,10.7.5,1.5.5-12.2.5-4.6.5-16.8.5-3.1.5-3.1.5,9.2.5-6.1.5,16.8.5-10.7.5-6.1.5-3.1.5-1.5.5,3.1.5-4.6.5-4.6.5-3.1.5,12.2.5,4.6.5,1.5.5,7.6.5,1.5.5-19.8h.5l.5,4.6.5-4.6.5,7.6.5,9.2.5-15.3.5,1.5.5-3.1.5-7.6.5-4.6.5,10.7.5-6.1.5,9.2.5,1.5.5,15.3.5-9.2.5,7.6.5-9.2.5-3.1h.5l.5-3.1.5-4.6.5,9.2.5-4.6"/>
          <path class="cls-24" d="M60,234.5h250"/>
        </g>
        <g>
          <path class="cls-23" d="M60,364.7v-123.6l.5-1.5.5-19.8.5,15.3.5-6.1.5,6.1.5,3.1.5,13.7.5-13.7.5-1.5.5,3.1.5,12.2.5-18.3.5,10.7.5-6.1.5,1.5.5-22.9.5,16.8.5-12.2.5,12.2.5-13.7.5,7.6.5-3.1.5-1.5.5,6.1.5,3.1.5-1.5.5,3.1.5,9.2.5-6.1.5,7.6.5-3.1.5,4.6.5,4.6.5-6.1h.5l.5,7.6.5-6.1.5-15.3.5,6.1.5-12.2.5-13.7.5,6.1.5,24.4.5-12.2.5,6.1.5,3.1h.5l.5-18.3.5,9.2.5,4.6.5-1.5.5-6.1.5-13.7.5-1.5.5-10.7.5,10.7.5-9.2.5,10.7.5,4.6.5,6.1.5-4.6.5,15.3.5,12.2.5,3.1.5-3.1h.5l.5-16.8.5-12.2h.5l.5,7.6.5-6.1.5,19.8.5-12.2.5-3.1.5-9.2.5,21.4.5-7.6.5,9.2.5,4.6.5-1.5.5-9.2.5-10.7.5,6.1.5-6.1.5,12.2.5-1.5.5,7.6.5,1.5h.5l.5-9.2.5-1.5.5-6.1.5,4.6h.5l.5,6.1.5-3.1.5,9.2.5-9.2.5-3.1.5,4.6.5,3.1.5-1.5.5,10.7.5-6.1.5-15.3.5-3.1.5,1.5.5-19.8.5,9.2.5,3.1.5,1.5.5-6.1.5,6.1.5-1.5h.5l.5,1.5.5,3.1.5,1.5.5-4.6.5,9.2.5-7.6.5,1.5.5,10.7.5,6.1.5-6.1.5-15.3.5-4.6.5,1.5.5-3.1.5,3.1.5,24.4.5-4.6.5-9.2.5-6.1.5-10.7.5-7.6.5,6.1.5,7.6.5-7.6.5,15.3.5-4.6.5-3.1.5-1.5.5,7.6.5-7.6.5,4.6h.5l.5-6.1.5-3.1.5-4.6.5-9.2.5,6.1.5-3.1.5,7.6.5,10.7.5,22.9.5-18.3.5,4.6.5,7.6h.5l.5-19.8.5,16.8h.5l.5-6.1.5-4.6.5,1.5.5,4.6.5-12.2.5-3.1h.5l.5,12.2.5-6.1.5,9.2.5,3.1.5-1.5.5-13.7.5,1.5h.5l.5,3.1.5,4.6.5,1.5.5-4.6.5,6.1.5-24.4.5,4.6.5,4.6.5,6.1.5-9.2.5,21.4.5-7.6.5,1.5.5-6.1.5,9.2.5,6.1.5-7.6.5-1.5h.5l.5,7.6.5-19.8.5,13.7.5,4.6h.5l.5-6.1.5,15.3.5-19.8.5-15.3.5,3.1.5-12.2.5-4.6.5,22.9.5,9.2.5-6.1.5,4.6.5-9.2h.5l.5-3.1.5,1.5.5,4.6.5,3.1.5-4.6.5,4.6.5,3.1.5-7.6.5,13.7.5-9.2.5-1.5.5,1.5.5-3.1.5,22.9.5,33.6.5,32,.5,29,.5,38.1h17.5l.5-35.1.5-29,.5-33.6.5-27.5.5-30.5.5,3.1.5-4.6.5,4.6.5,9.2.5-6.1.5,16.8.5-4.6.5-3.1.5-7.6.5,1.5.5-12.2.5-1.5.5,9.2.5-10.7.5,16.8.5-4.6.5,21.4.5-3.1.5-3.1h.5l.5,1.5.5-12.2.5,3.1.5,7.6.5-12.2.5-1.5.5-1.5.5,6.1h.5l.5,1.5.5,9.2.5,4.6.5-10.7.5,15.3.5,10.7.5-4.6.5-6.1.5,9.2.5-9.2.5-16.8.5,3.1h1l.5,10.7.5,15.3.5-3.1.5,4.6.5-7.6.5-15.3h.5l.5-1.5.5,6.1.5,10.7.5-9.2.5-12.2.5,7.6.5-4.6.5-7.6.5,18.3.5,13.7.5-4.6.5-3.1.5-6.1.5-1.5.5-4.6.5-13.7.5,1.5.5,1.5.5-9.2.5-7.6.5,12.2.5,1.5.5-7.6.5,6.1.5-4.6.5-4.6.5,6.1.5,15.3.5-6.1.5,15.3.5-4.6.5-1.5.5-9.2.5,16.8.5-19.8.5,1.5.5-9.2.5-7.6.5-15.3.5,10.7.5,4.6.5,7.6.5,15.3.5-4.6.5,4.6.5-4.6h.5l.5-6.1.5,6.1.5-4.6.5,7.6.5-3.1.5-6.1.5-7.6.5,12.2.5-10.7.5,6.1h.5l.5,13.7.5-6.1.5,6.1h.5l.5-4.6.5,1.5.5-3.1.5,12.2.5-3.1.5,1.5.5-7.6.5-1.5.5,1.5.5-7.6.5,13.7.5,12.2.5-3.1.5-16.8.5,10.7.5-6.1.5-13.7.5,12.2.5,16.8.5-16.8.5-3.1.5,1.5.5-6.1.5-10.7.5,15.3.5,3.1h.5l.5-1.5.5,3.1.5-4.6.5,7.6.5-4.6.5,3.1.5-3.1.5-4.6.5-4.6.5,12.2.5-9.2.5,4.6.5,4.6.5,7.6.5-10.7.5,3.1.5-1.5h.5l.5-6.1.5,9.2h.5l.5,1.5.5-3.1.5,9.2.5-16.8.5-10.7.5-4.6.5,3.1.5-10.7.5,4.6.5,4.6h.5l.5,1.5.5-1.5.5-3.1.5,9.2h.5l.5-6.1.5,13.7.5-1.5.5,10.7.5-3.1.5-3.1.5-15.3.5,15.3.5-18.3.5,4.6.5-4.6.5,1.5.5-9.2.5,18.3.5-6.1.5,16.8.5-9.2.5,10.7.5-9.2.5,7.6.5-1.5.5,16.8.5-16.8.5-9.2.5-6.1h.5l.5-7.6.5,15.3.5,1.5.5,4.6.5,4.6.5-7.6.5-4.6.5,4.6.5,1.5.5-9.2.5,6.1h.5l.5-4.6.5-1.5.5,12.2.5-12.2.5,3.1.5,12.2.5,1.5.5-15.3.5,18.3.5-16.8.5-1.5.5-10.7.5,9.2v146.5"/>
          <path class="cls-7" d="M60,241.1l.5-1.5.5-19.8.5,15.3.5-6.1.5,6.1.5,3.1.5,13.7.5-13.7.5-1.5.5,3.1.5,12.2.5-18.3.5,10.7.5-6.1.5,1.5.5-22.9.5,16.8.5-12.2.5,12.2.5-13.7.5,7.6.5-3.1.5-1.5.5,6.1.5,3.1.5-1.5.5,3.1.5,9.2.5-6.1.5,7.6.5-3.1.5,4.6.5,4.6.5-6.1h.5l.5,7.6.5-6.1.5-15.3.5,6.1.5-12.2.5-13.7.5,6.1.5,24.4.5-12.2.5,6.1.5,3.1h.5l.5-18.3.5,9.2.5,4.6.5-1.5.5-6.1.5-13.7.5-1.5.5-10.7.5,10.7.5-9.2.5,10.7.5,4.6.5,6.1.5-4.6.5,15.3.5,12.2.5,3.1.5-3.1h.5l.5-16.8.5-12.2h.5l.5,7.6.5-6.1.5,19.8.5-12.2.5-3.1.5-9.2.5,21.4.5-7.6.5,9.2.5,4.6.5-1.5.5-9.2.5-10.7.5,6.1.5-6.1.5,12.2.5-1.5.5,7.6.5,1.5h.5l.5-9.2.5-1.5.5-6.1.5,4.6h.5l.5,6.1.5-3.1.5,9.2.5-9.2.5-3.1.5,4.6.5,3.1.5-1.5.5,10.7.5-6.1.5-15.3.5-3.1.5,1.5.5-19.8.5,9.2.5,3.1.5,1.5.5-6.1.5,6.1.5-1.5h.5l.5,1.5.5,3.1.5,1.5.5-4.6.5,9.2.5-7.6.5,1.5.5,10.7.5,6.1.5-6.1.5-15.3.5-4.6.5,1.5.5-3.1.5,3.1.5,24.4.5-4.6.5-9.2.5-6.1.5-10.7.5-7.6.5,6.1.5,7.6.5-7.6.5,15.3.5-4.6.5-3.1.5-1.5.5,7.6.5-7.6.5,4.6h.5l.5-6.1.5-3.1.5-4.6.5-9.2.5,6.1.5-3.1.5,7.6.5,10.7.5,22.9.5-18.3.5,4.6.5,7.6h.5l.5-19.8.5,16.8h.5l.5-6.1.5-4.6.5,1.5.5,4.6.5-12.2.5-3.1h.5l.5,12.2.5-6.1.5,9.2.5,3.1.5-1.5.5-13.7.5,1.5h.5l.5,3.1.5,4.6.5,1.5.5-4.6.5,6.1.5-24.4.5,4.6.5,4.6.5,6.1.5-9.2.5,21.4.5-7.6.5,1.5.5-6.1.5,9.2.5,6.1.5-7.6.5-1.5h.5l.5,7.6.5-19.8.5,13.7.5,4.6h.5l.5-6.1.5,15.3.5-19.8.5-15.3.5,3.1.5-12.2.5-4.6.5,22.9.5,9.2.5-6.1.5,4.6.5-9.2h.5l.5-3.1.5,1.5.5,4.6.5,3.1.5-4.6.5,4.6.5,3.1.5-7.6.5,13.7.5-9.2.5-1.5.5,1.5.5-3.1.5,22.9.5,33.6.5,32,.5,29,.5,38.1h17.5l.5-35.1.5-29,.5-33.6.5-27.5.5-30.5.5,3.1.5-4.6.5,4.6.5,9.2.5-6.1.5,16.8.5-4.6.5-3.1.5-7.6.5,1.5.5-12.2.5-1.5.5,9.2.5-10.7.5,16.8.5-4.6.5,21.4.5-3.1.5-3.1h.5l.5,1.5.5-12.2.5,3.1.5,7.6.5-12.2.5-1.5.5-1.5.5,6.1h.5l.5,1.5.5,9.2.5,4.6.5-10.7.5,15.3.5,10.7.5-4.6.5-6.1.5,9.2.5-9.2.5-16.8.5,3.1h1l.5,10.7.5,15.3.5-3.1.5,4.6.5-7.6.5-15.3h.5l.5-1.5.5,6.1.5,10.7.5-9.2.5-12.2.5,7.6.5-4.6.5-7.6.5,18.3.5,13.7.5-4.6.5-3.1.5-6.1.5-1.5.5-4.6.5-13.7.5,1.5.5,1.5.5-9.2.5-7.6.5,12.2.5,1.5.5-7.6.5,6.1.5-4.6.5-4.6.5,6.1.5,15.3.5-6.1.5,15.3.5-4.6.5-1.5.5-9.2.5,16.8.5-19.8.5,1.5.5-9.2.5-7.6.5-15.3.5,10.7.5,4.6.5,7.6.5,15.3.5-4.6.5,4.6.5-4.6h.5l.5-6.1.5,6.1.5-4.6.5,7.6.5-3.1.5-6.1.5-7.6.5,12.2.5-10.7.5,6.1h.5l.5,13.7.5-6.1.5,6.1h.5l.5-4.6.5,1.5.5-3.1.5,12.2.5-3.1.5,1.5.5-7.6.5-1.5.5,1.5.5-7.6.5,13.7.5,12.2.5-3.1.5-16.8.5,10.7.5-6.1.5-13.7.5,12.2.5,16.8.5-16.8.5-3.1.5,1.5.5-6.1.5-10.7.5,15.3.5,3.1h.5l.5-1.5.5,3.1.5-4.6.5,7.6.5-4.6.5,3.1.5-3.1.5-4.6.5-4.6.5,12.2.5-9.2.5,4.6.5,4.6.5,7.6.5-10.7.5,3.1.5-1.5h.5l.5-6.1.5,9.2h.5l.5,1.5.5-3.1.5,9.2.5-16.8.5-10.7.5-4.6.5,3.1.5-10.7.5,4.6.5,4.6h.5l.5,1.5.5-1.5.5-3.1.5,9.2h.5l.5-6.1.5,13.7.5-1.5.5,10.7.5-3.1.5-3.1.5-15.3.5,15.3.5-18.3.5,4.6.5-4.6.5,1.5.5-9.2.5,18.3.5-6.1.5,16.8.5-9.2.5,10.7.5-9.2.5,7.6.5-1.5.5,16.8.5-16.8.5-9.2.5-6.1h.5l.5-7.6.5,15.3.5,1.5.5,4.6.5,4.6.5-7.6.5-4.6.5,4.6.5,1.5.5-9.2.5,6.1h.5l.5-4.6.5-1.5.5,12.2.5-12.2.5,3.1.5,12.2.5,1.5.5-15.3.5,18.3.5-16.8.5-1.5.5-10.7.5,9.2"/>
        </g>
        <g>
          <path class="cls-22" d="M60,333.8v-149.5l.5,6.1.5,1.5.5,9.2.5-21.4.5,4.6.5-3.1.5-1.5.5-3.1.5,15.3.5-22.9.5,9.2.5-6.1.5,13.7.5-10.7.5,18.3.5-12.2.5,13.7.5-4.6.5-3.1.5-4.6.5,4.6.5,9.2.5-18.3.5,18.3.5-12.2.5,3.1.5-13.7.5-1.5.5-10.7.5,3.1h.5l.5-3.1.5,13.7.5,1.5.5,9.2h.5l.5,3.1.5,1.5.5,9.2.5-3.1.5,4.6.5,1.5.5,1.5.5-16.8.5-1.5.5,9.2.5-9.2.5,6.1.5,4.6.5-1.5.5-16.8.5,19.8.5-13.7.5,15.3.5,3.1.5,7.6.5-7.6.5-1.5.5-4.6.5-7.6.5-10.7.5-9.2h.5l.5-6.1.5,7.6.5,19.8h.5l.5,9.2.5,6.1.5,4.6.5-13.7.5,1.5.5-3.1.5-1.5.5,1.5.5-3.1.5,6.1.5,3.1.5-10.7.5-3.1.5,1.5.5-12.2.5,3.1h.5l.5-9.2.5,6.1.5,7.6.5-9.2.5,4.6.5,6.1.5-4.6.5,3.1.5,9.2.5-1.5.5,6.1.5-1.5.5,1.5.5-10.7.5-4.6.5-3.1.5,3.1.5-4.6.5,16.8.5,10.7.5,9.2.5-6.1.5,7.6.5-4.6.5-1.5.5-13.7.5,6.1.5-6.1h.5l.5,3.1.5,4.6.5-3.1.5-1.5.5-4.6.5-7.6.5,7.6.5,12.2.5,9.2.5,4.6.5,1.5h.5l.5,4.6.5-9.2.5-16.8.5,1.5.5-13.7.5-7.6.5-9.2.5,15.3.5-4.6.5,13.7.5-3.1.5,7.6.5,1.5h.5l.5-6.1.5-12.2.5,10.7.5-6.1.5,15.3.5,1.5.5-1.5h.5l.5,3.1.5-12.2h.5l.5,13.7.5-13.7.5-7.6.5,13.7.5-16.8.5-3.1.5,18.3.5-1.5.5-18.3.5,7.6.5-7.6.5-12.2.5,6.1.5,4.6.5,6.1.5,7.6.5,9.2.5-1.5.5,12.2.5-6.1.5,1.5.5-4.6.5-1.5.5-19.8.5,7.6h.5l.5-4.6.5,3.1.5,13.7.5-7.6h.5l.5-4.6.5-3.1.5,3.1.5,6.1.5,3.1.5,15.3.5-3.1.5,1.5.5-6.1.5-7.6.5-4.6.5,4.6.5-1.5.5,7.6.5,7.6.5-10.7.5,3.1.5-7.6.5-10.7.5-10.7.5,13.7.5-13.7h.5l.5,16.8.5,10.7.5,3.1.5,10.7.5,10.7.5-12.2.5-4.6.5-10.7h.5l.5-9.2.5,7.6.5-1.5.5,10.7.5,3.1.5,6.1.5-4.6.5-1.5.5-6.1.5-1.5.5-3.1.5-6.1.5,12.2.5-6.1.5,7.6.5,24.4.5,35.1.5,18.3.5,29,.5,19.8h17.5l.5-32,.5-24.4.5-30.5.5-30.5.5-29,.5-6.1.5,4.6.5-1.5h.5l.5-3.1.5,19.8.5-6.1.5,6.1.5,4.6.5,1.5.5-6.1.5-7.6.5-1.5.5-7.6.5,13.7.5-3.1.5,13.7.5,4.6.5,15.3.5-10.7.5-12.2.5-6.1.5-4.6.5-12.2.5,1.5.5,4.6.5-1.5.5-13.7.5,3.1.5-10.7.5,7.6.5-10.7.5,9.2.5,3.1.5,16.8.5-4.6.5,10.7.5,4.6.5-13.7.5,1.5.5-6.1.5,3.1.5-4.6.5,9.2.5-1.5.5,12.2.5,7.6h.5l.5,1.5.5-9.2.5-13.7.5-13.7.5,1.5.5,4.6.5,9.2.5,13.7.5-4.6.5-3.1.5-4.6.5-6.1.5-15.3.5,10.7.5,10.7h.5l.5-7.6.5,19.8.5,3.1.5-13.7.5,4.6.5,6.1.5-10.7.5,1.5.5-1.5.5,3.1.5-3.1.5,6.1.5,1.5.5,6.1.5-13.7.5,13.7h.5l.5-4.6.5-3.1.5,13.7.5-9.2.5,7.6.5,3.1.5,12.2.5-4.6.5,3.1.5-10.7.5-3.1.5,1.5.5-1.5.5-6.1.5,7.6.5-7.6.5-12.2.5-7.6.5-9.2.5-6.1.5,3.1.5,13.7.5,1.5.5,18.3.5-18.3.5,6.1.5,1.5.5,3.1.5-10.7.5,16.8.5-9.2.5-7.6.5-1.5.5,4.6.5-9.2h.5l.5-6.1.5,1.5.5-10.7.5,4.6.5-3.1.5,9.2.5-4.6.5,15.3.5,9.2.5,4.6.5-12.2.5,4.6.5-16.8.5-7.6.5,6.1.5,10.7.5,3.1.5,6.1.5-1.5.5,3.1h1l.5,9.2.5,6.1.5-13.7.5-21.4.5-4.6.5-15.3.5-4.6.5,1.5.5,15.3.5-13.7.5,15.3h.5l.5,1.5.5-4.6.5,12.2.5-7.6.5-4.6h.5l.5,12.2.5-1.5.5,1.5.5,6.1.5-6.1.5-10.7.5,6.1.5-9.2.5,3.1.5,9.2.5,4.6.5,3.1.5,7.6.5-3.1.5-10.7.5-1.5.5-7.6.5,6.1.5-1.5.5,10.7.5-4.6.5,6.1.5-15.3.5-1.5.5-9.2h.5l.5-4.6.5,7.6.5,10.7.5,6.1.5-1.5.5-7.6.5-3.1.5-7.6.5-3.1.5,10.7.5-6.1.5,12.2.5-7.6.5,6.1.5-16.8.5,18.3.5-3.1.5,10.7.5-9.2.5,10.7.5-18.3.5-6.1.5-12.2.5,10.7.5-1.5.5,21.4.5-1.5.5,10.7.5-10.7.5,7.6.5,1.5.5,6.1.5,1.5.5,1.5h.5l.5-9.2.5-6.1.5-4.6.5-6.1.5,3.1.5,7.6.5,1.5.5-7.6.5,15.3v143.4"/>
          <path class="cls-5" d="M60,184.3l.5,6.1.5,1.5.5,9.2.5-21.4.5,4.6.5-3.1.5-1.5.5-3.1.5,15.3.5-22.9.5,9.2.5-6.1.5,13.7.5-10.7.5,18.3.5-12.2.5,13.7.5-4.6.5-3.1.5-4.6.5,4.6.5,9.2.5-18.3.5,18.3.5-12.2.5,3.1.5-13.7.5-1.5.5-10.7.5,3.1h.5l.5-3.1.5,13.7.5,1.5.5,9.2h.5l.5,3.1.5,1.5.5,9.2.5-3.1.5,4.6.5,1.5.5,1.5.5-16.8.5-1.5.5,9.2.5-9.2.5,6.1.5,4.6.5-1.5.5-16.8.5,19.8.5-13.7.5,15.3.5,3.1.5,7.6.5-7.6.5-1.5.5-4.6.5-7.6.5-10.7.5-9.2h.5l.5-6.1.5,7.6.5,19.8h.5l.5,9.2.5,6.1.5,4.6.5-13.7.5,1.5.5-3.1.5-1.5.5,1.5.5-3.1.5,6.1.5,3.1.5-10.7.5-3.1.5,1.5.5-12.2.5,3.1h.5l.5-9.2.5,6.1.5,7.6.5-9.2.5,4.6.5,6.1.5-4.6.5,3.1.5,9.2.5-1.5.5,6.1.5-1.5.5,1.5.5-10.7.5-4.6.5-3.1.5,3.1.5-4.6.5,16.8.5,10.7.5,9.2.5-6.1.5,7.6.5-4.6.5-1.5.5-13.7.5,6.1.5-6.1h.5l.5,3.1.5,4.6.5-3.1.5-1.5.5-4.6.5-7.6.5,7.6.5,12.2.5,9.2.5,4.6.5,1.5h.5l.5,4.6.5-9.2.5-16.8.5,1.5.5-13.7.5-7.6.5-9.2.5,15.3.5-4.6.5,13.7.5-3.1.5,7.6.5,1.5h.5l.5-6.1.5-12.2.5,10.7.5-6.1.5,15.3.5,1.5.5-1.5h.5l.5,3.1.5-12.2h.5l.5,13.7.5-13.7.5-7.6.5,13.7.5-16.8.5-3.1.5,18.3.5-1.5.5-18.3.5,7.6.5-7.6.5-12.2.5,6.1.5,4.6.5,6.1.5,7.6.5,9.2.5-1.5.5,12.2.5-6.1.5,1.5.5-4.6.5-1.5.5-19.8.5,7.6h.5l.5-4.6.5,3.1.5,13.7.5-7.6h.5l.5-4.6.5-3.1.5,3.1.5,6.1.5,3.1.5,15.3.5-3.1.5,1.5.5-6.1.5-7.6.5-4.6.5,4.6.5-1.5.5,7.6.5,7.6.5-10.7.5,3.1.5-7.6.5-10.7.5-10.7.5,13.7.5-13.7h.5l.5,16.8.5,10.7.5,3.1.5,10.7.5,10.7.5-12.2.5-4.6.5-10.7h.5l.5-9.2.5,7.6.5-1.5.5,10.7.5,3.1.5,6.1.5-4.6.5-1.5.5-6.1.5-1.5.5-3.1.5-6.1.5,12.2.5-6.1.5,7.6.5,24.4.5,35.1.5,18.3.5,29,.5,19.8h17.5l.5-32,.5-24.4.5-30.5.5-30.5.5-29,.5-6.1.5,4.6.5-1.5h.5l.5-3.1.5,19.8.5-6.1.5,6.1.5,4.6.5,1.5.5-6.1.5-7.6.5-1.5.5-7.6.5,13.7.5-3.1.5,13.7.5,4.6.5,15.3.5-10.7.5-12.2.5-6.1.5-4.6.5-12.2.5,1.5.5,4.6.5-1.5.5-13.7.5,3.1.5-10.7.5,7.6.5-10.7.5,9.2.5,3.1.5,16.8.5-4.6.5,10.7.5,4.6.5-13.7.5,1.5.5-6.1.5,3.1.5-4.6.5,9.2.5-1.5.5,12.2.5,7.6h.5l.5,1.5.5-9.2.5-13.7.5-13.7.5,1.5.5,4.6.5,9.2.5,13.7.5-4.6.5-3.1.5-4.6.5-6.1.5-15.3.5,10.7.5,10.7h.5l.5-7.6.5,19.8.5,3.1.5-13.7.5,4.6.5,6.1.5-10.7.5,1.5.5-1.5.5,3.1.5-3.1.5,6.1.5,1.5.5,6.1.5-13.7.5,13.7h.5l.5-4.6.5-3.1.5,13.7.5-9.2.5,7.6.5,3.1.5,12.2.5-4.6.5,3.1.5-10.7.5-3.1.5,1.5.5-1.5.5-6.1.5,7.6.5-7.6.5-12.2.5-7.6.5-9.2.5-6.1.5,3.1.5,13.7.5,1.5.5,18.3.5-18.3.5,6.1.5,1.5.5,3.1.5-10.7.5,16.8.5-9.2.5-7.6.5-1.5.5,4.6.5-9.2h.5l.5-6.1.5,1.5.5-10.7.5,4.6.5-3.1.5,9.2.5-4.6.5,15.3.5,9.2.5,4.6.5-12.2.5,4.6.5-16.8.5-7.6.5,6.1.5,10.7.5,3.1.5,6.1.5-1.5.5,3.1h1l.5,9.2.5,6.1.5-13.7.5-21.4.5-4.6.5-15.3.5-4.6.5,1.5.5,15.3.5-13.7.5,15.3h.5l.5,1.5.5-4.6.5,12.2.5-7.6.5-4.6h.5l.5,12.2.5-1.5.5,1.5.5,6.1.5-6.1.5-10.7.5,6.1.5-9.2.5,3.1.5,9.2.5,4.6.5,3.1.5,7.6.5-3.1.5-10.7.5-1.5.5-7.6.5,6.1.5-1.5.5,10.7.5-4.6.5,6.1.5-15.3.5-1.5.5-9.2h.5l.5-4.6.5,7.6.5,10.7.5,6.1.5-1.5.5-7.6.5-3.1.5-7.6.5-3.1.5,10.7.5-6.1.5,12.2.5-7.6.5,6.1.5-16.8.5,18.3.5-3.1.5,10.7.5-9.2.5,10.7.5-18.3.5-6.1.5-12.2.5,10.7.5-1.5.5,21.4.5-1.5.5,10.7.5-10.7.5,7.6.5,1.5.5,6.1.5,1.5.5,1.5h.5l.5-9.2.5-6.1.5-4.6.5-6.1.5,3.1.5,7.6.5,1.5.5-7.6.5,15.3"/>
          <path class="cls-20" d="M60,333.8h250"/>
        </g>
        <g>
          <path class="cls-21" d="M60,303v-160.2l.5-19.8.5,4.6.5,4.6.5,9.2.5,6.1.5,15.3.5-9.2.5,1.5.5-4.6h.5l.5-13.7.5,4.6.5-15.3.5,6.1.5-3.1.5,12.2.5-6.1.5,6.1.5-15.3h.5l.5-13.7.5,6.1.5-1.5.5,9.2.5-9.2.5,16.8.5-6.1.5,7.6.5,12.2.5,9.2.5-9.2.5,10.7.5,4.6.5-13.7.5,4.6.5,7.6.5-6.1.5-6.1h1l.5-1.5.5,10.7.5,3.1.5-6.1.5-3.1.5,1.5.5-15.3h1l.5-1.5.5,1.5.5-7.6.5-10.7.5,12.2.5,6.1.5-4.6.5,10.7.5,7.6.5-1.5.5-10.7.5-3.1.5,6.1.5,4.6.5,1.5.5,4.6.5,4.6h.5l.5,3.1.5-4.6h.5l.5-3.1.5-6.1.5-21.4.5,7.6.5,7.6.5,13.7.5-10.7.5,13.7.5-6.1.5-4.6.5-9.2.5,10.7.5,3.1.5-7.6.5,1.5.5-3.1.5,7.6.5,3.1.5,6.1.5,3.1.5-3.1.5-3.1.5-7.6.5-3.1.5-6.1.5-6.1.5,1.5.5-4.6.5,1.5.5,3.1.5,16.8.5,3.1h.5l.5-1.5.5-15.3.5-1.5.5-3.1h.5l.5,12.2.5,16.8.5-7.6.5-7.6.5,10.7.5-30.5.5-1.5.5,7.6.5,4.6.5-4.6.5,21.4h.5l.5-3.1.5-4.6.5-13.7.5,7.6.5-15.3.5-1.5.5-1.5.5,12.2.5-6.1.5,22.9.5-1.5h1l.5,4.6.5-12.2.5-6.1.5,7.6.5,7.6.5-9.2.5,9.2h.5l.5-3.1.5-16.8.5-1.5.5-16.8.5,4.6.5-4.6.5,22.9.5,9.2.5,4.6.5,7.6.5-3.1.5-12.2.5-7.6.5,15.3.5-6.1.5,1.5.5-4.6.5-3.1.5-18.3.5-6.1.5,9.2.5-3.1.5-4.6.5-4.6h1l.5,3.1.5,9.2.5,3.1.5,7.6.5-12.2.5,10.7h.5l.5,7.6h.5l.5,16.8.5-18.3.5,6.1.5-7.6.5,4.6.5-12.2.5,1.5.5,3.1.5,3.1.5,1.5.5,4.6.5,10.7.5-6.1.5,6.1.5-10.7.5,6.1.5-7.6.5-7.6.5,1.5.5,18.3.5-10.7.5-3.1.5,7.6h.5l.5-10.7.5,4.6h.5l.5-12.2.5,3.1.5-13.7.5-1.5.5,12.2.5,10.7.5-13.7.5,3.1.5,1.5.5,4.6.5-6.1.5,10.7.5,3.1.5-4.6.5,1.5.5-1.5.5,10.7.5-6.1.5,7.6.5-15.3.5,1.5.5-25.9.5,16.8.5-15.3.5,4.6.5,36.6.5,45.8.5,24.4.5,44.3.5,35.1h17.5l.5-22.9.5-29,.5-33.6.5-38.1.5-29,.5-13.7.5-6.1.5-12.2.5,7.6.5-6.1.5,4.6.5,7.6.5,9.2.5,3.1.5,6.1.5-6.1.5-3.1.5,12.2.5-16.8.5-9.2.5,10.7.5-1.5.5-6.1.5,21.4.5,12.2.5-12.2.5-1.5h.5l.5-21.4.5-10.7.5,4.6.5-6.1.5,4.6h.5l.5,1.5.5,3.1.5,12.2h.5l.5,10.7h1l.5-4.6.5-3.1.5,10.7.5,1.5.5,1.5.5,3.1.5,10.7.5-6.1.5-4.6.5-3.1.5,4.6.5-12.2.5-4.6.5,18.3.5-6.1.5-6.1.5,6.1.5-3.1.5-10.7.5,12.2.5-3.1.5,1.5.5,3.1.5,1.5.5-12.2.5-3.1.5,3.1.5-10.7.5,1.5.5,7.6.5,16.8.5-21.4.5,21.4.5-7.6.5,9.2.5-32,.5,16.8.5-21.4.5,6.1.5-9.2.5,33.6.5,4.6.5,10.7.5,3.1.5-7.6.5-10.7.5-1.5.5,13.7.5-4.6.5,3.1.5-1.5.5-9.2.5-19.8.5,4.6.5,10.7h.5l.5-1.5.5,10.7.5-10.7.5-3.1.5-1.5.5-1.5.5-6.1.5,3.1.5,3.1.5-3.1.5,7.6.5-3.1.5,4.6.5-21.4.5,7.6.5-15.3.5,13.7.5-6.1.5,12.2.5-9.2.5,3.1.5,1.5.5-3.1.5,1.5.5-7.6.5,10.7.5-10.7.5,9.2.5,7.6.5,1.5.5-7.6.5,4.6.5-10.7.5-9.2.5,12.2.5-1.5.5,1.5.5,10.7.5,7.6.5-12.2.5,6.1.5-12.2.5-3.1.5-13.7.5,6.1.5-3.1h.5l.5-6.1.5,13.7.5,1.5h.5l.5-9.2.5,4.6.5,4.6.5,7.6.5,6.1.5,16.8.5-9.2.5-4.6.5-10.7.5,4.6.5-1.5.5,10.7.5-4.6.5,4.6.5-9.2.5,3.1.5-4.6.5-6.1.5-1.5.5-10.7.5,1.5.5,1.5.5,13.7.5,13.7.5,12.2.5-1.5h.5l.5-3.1.5-4.6.5,9.2h.5l.5,3.1.5-19.8.5,1.5.5-24.4.5-4.6.5,3.1.5,3.1.5-7.6.5,18.3.5-6.1.5-12.2.5,6.1.5-1.5.5-3.1.5,7.6.5,4.6.5,3.1.5,3.1.5-6.1.5-4.6.5,12.2h.5l.5,9.2.5-3.1.5-1.5.5-15.3.5-4.6.5,1.5.5-1.5.5,6.1.5,6.1.5,13.7.5-25.9.5,15.3h.5l.5,1.5h.5l.5,10.7.5-9.2.5-7.6.5-4.6.5,3.1.5,1.5.5-6.1.5,12.2.5-7.6.5,4.6.5-7.6.5,7.6.5-3.1.5,13.7.5-15.3.5,19.8v151.1"/>
          <path class="cls-2" d="M60,142.8l.5-19.8.5,4.6.5,4.6.5,9.2.5,6.1.5,15.3.5-9.2.5,1.5.5-4.6h.5l.5-13.7.5,4.6.5-15.3.5,6.1.5-3.1.5,12.2.5-6.1.5,6.1.5-15.3h.5l.5-13.7.5,6.1.5-1.5.5,9.2.5-9.2.5,16.8.5-6.1.5,7.6.5,12.2.5,9.2.5-9.2.5,10.7.5,4.6.5-13.7.5,4.6.5,7.6.5-6.1.5-6.1h1l.5-1.5.5,10.7.5,3.1.5-6.1.5-3.1.5,1.5.5-15.3h1l.5-1.5.5,1.5.5-7.6.5-10.7.5,12.2.5,6.1.5-4.6.5,10.7.5,7.6.5-1.5.5-10.7.5-3.1.5,6.1.5,4.6.5,1.5.5,4.6.5,4.6h.5l.5,3.1.5-4.6h.5l.5-3.1.5-6.1.5-21.4.5,7.6.5,7.6.5,13.7.5-10.7.5,13.7.5-6.1.5-4.6.5-9.2.5,10.7.5,3.1.5-7.6.5,1.5.5-3.1.5,7.6.5,3.1.5,6.1.5,3.1.5-3.1.5-3.1.5-7.6.5-3.1.5-6.1.5-6.1.5,1.5.5-4.6.5,1.5.5,3.1.5,16.8.5,3.1h.5l.5-1.5.5-15.3.5-1.5.5-3.1h.5l.5,12.2.5,16.8.5-7.6.5-7.6.5,10.7.5-30.5.5-1.5.5,7.6.5,4.6.5-4.6.5,21.4h.5l.5-3.1.5-4.6.5-13.7.5,7.6.5-15.3.5-1.5.5-1.5.5,12.2.5-6.1.5,22.9.5-1.5h1l.5,4.6.5-12.2.5-6.1.5,7.6.5,7.6.5-9.2.5,9.2h.5l.5-3.1.5-16.8.5-1.5.5-16.8.5,4.6.5-4.6.5,22.9.5,9.2.5,4.6.5,7.6.5-3.1.5-12.2.5-7.6.5,15.3.5-6.1.5,1.5.5-4.6.5-3.1.5-18.3.5-6.1.5,9.2.5-3.1.5-4.6.5-4.6h1l.5,3.1.5,9.2.5,3.1.5,7.6.5-12.2.5,10.7h.5l.5,7.6h.5l.5,16.8.5-18.3.5,6.1.5-7.6.5,4.6.5-12.2.5,1.5.5,3.1.5,3.1.5,1.5.5,4.6.5,10.7.5-6.1.5,6.1.5-10.7.5,6.1.5-7.6.5-7.6.5,1.5.5,18.3.5-10.7.5-3.1.5,7.6h.5l.5-10.7.5,4.6h.5l.5-12.2.5,3.1.5-13.7.5-1.5.5,12.2.5,10.7.5-13.7.5,3.1.5,1.5.5,4.6.5-6.1.5,10.7.5,3.1.5-4.6.5,1.5.5-1.5.5,10.7.5-6.1.5,7.6.5-15.3.5,1.5.5-25.9.5,16.8.5-15.3.5,4.6.5,36.6.5,45.8.5,24.4.5,44.3.5,35.1h17.5l.5-22.9.5-29,.5-33.6.5-38.1.5-29,.5-13.7.5-6.1.5-12.2.5,7.6.5-6.1.5,4.6.5,7.6.5,9.2.5,3.1.5,6.1.5-6.1.5-3.1.5,12.2.5-16.8.5-9.2.5,10.7.5-1.5.5-6.1.5,21.4.5,12.2.5-12.2.5-1.5h.5l.5-21.4.5-10.7.5,4.6.5-6.1.5,4.6h.5l.5,1.5.5,3.1.5,12.2h.5l.5,10.7h1l.5-4.6.5-3.1.5,10.7.5,1.5.5,1.5.5,3.1.5,10.7.5-6.1.5-4.6.5-3.1.5,4.6.5-12.2.5-4.6.5,18.3.5-6.1.5-6.1.5,6.1.5-3.1.5-10.7.5,12.2.5-3.1.5,1.5.5,3.1.5,1.5.5-12.2.5-3.1.5,3.1.5-10.7.5,1.5.5,7.6.5,16.8.5-21.4.5,21.4.5-7.6.5,9.2.5-32,.5,16.8.5-21.4.5,6.1.5-9.2.5,33.6.5,4.6.5,10.7.5,3.1.5-7.6.5-10.7.5-1.5.5,13.7.5-4.6.5,3.1.5-1.5.5-9.2.5-19.8.5,4.6.5,10.7h.5l.5-1.5.5,10.7.5-10.7.5-3.1.5-1.5.5-1.5.5-6.1.5,3.1.5,3.1.5-3.1.5,7.6.5-3.1.5,4.6.5-21.4.5,7.6.5-15.3.5,13.7.5-6.1.5,12.2.5-9.2.5,3.1.5,1.5.5-3.1.5,1.5.5-7.6.5,10.7.5-10.7.5,9.2.5,7.6.5,1.5.5-7.6.5,4.6.5-10.7.5-9.2.5,12.2.5-1.5.5,1.5.5,10.7.5,7.6.5-12.2.5,6.1.5-12.2.5-3.1.5-13.7.5,6.1.5-3.1h.5l.5-6.1.5,13.7.5,1.5h.5l.5-9.2.5,4.6.5,4.6.5,7.6.5,6.1.5,16.8.5-9.2.5-4.6.5-10.7.5,4.6.5-1.5.5,10.7.5-4.6.5,4.6.5-9.2.5,3.1.5-4.6.5-6.1.5-1.5.5-10.7.5,1.5.5,1.5.5,13.7.5,13.7.5,12.2.5-1.5h.5l.5-3.1.5-4.6.5,9.2h.5l.5,3.1.5-19.8.5,1.5.5-24.4.5-4.6.5,3.1.5,3.1.5-7.6.5,18.3.5-6.1.5-12.2.5,6.1.5-1.5.5-3.1.5,7.6.5,4.6.5,3.1.5,3.1.5-6.1.5-4.6.5,12.2h.5l.5,9.2.5-3.1.5-1.5.5-15.3.5-4.6.5,1.5.5-1.5.5,6.1.5,6.1.5,13.7.5-25.9.5,15.3h.5l.5,1.5h.5l.5,10.7.5-9.2.5-7.6.5-4.6.5,3.1.5,1.5.5-6.1.5,12.2.5-7.6.5,4.6.5-7.6.5,7.6.5-3.1.5,13.7.5-15.3.5,19.8"/>
          <path class="cls-19" d="M60,303h250"/>
        </g>
      </g>
      <g>
        <g id="Layer_1-2" data-name="Layer_1">
          <g id="main-plot">
            <path class="cls-18" d="M61,480.6h247.5"/>
            <g>
              <path class="cls-6" d="M60,259v6h250v-6"/>
              <line class="cls-6" x1="60" y1="265" x2="60" y2="259"/>
              <line class="cls-6" x1="85" y1="265" x2="85" y2="259"/>
              <line class="cls-6" x1="110" y1="265" x2="110" y2="259"/>
              <line class="cls-6" x1="135" y1="265" x2="135" y2="259"/>
              <line class="cls-6" x1="160" y1="265" x2="160" y2="259"/>
              <line class="cls-6" x1="185" y1="265" x2="185" y2="259"/>
              <line class="cls-6" x1="210" y1="265" x2="210" y2="259"/>
              <line class="cls-6" x1="235" y1="265" x2="235" y2="259"/>
              <line class="cls-6" x1="260" y1="265" x2="260" y2="259"/>
              <line class="cls-6" x1="285" y1="265" x2="285" y2="259"/>
              <line class="cls-6" x1="310" y1="265" x2="310" y2="259"/>
            </g>
            <g>
              <path class="cls-6" d="M60,36v-6h250v6"/>
              <line class="cls-6" x1="60" y1="30" x2="60" y2="36"/>
              <line class="cls-6" x1="85" y1="30" x2="85" y2="36"/>
              <line class="cls-6" x1="110" y1="30" x2="110" y2="36"/>
              <line class="cls-6" x1="135" y1="30" x2="135" y2="36"/>
              <line class="cls-6" x1="160" y1="30" x2="160" y2="36"/>
              <line class="cls-6" x1="185" y1="30" x2="185" y2="36"/>
              <line class="cls-6" x1="210" y1="30" x2="210" y2="36"/>
              <line class="cls-6" x1="235" y1="30" x2="235" y2="36"/>
              <line class="cls-6" x1="260" y1="30" x2="260" y2="36"/>
              <line class="cls-6" x1="285" y1="30" x2="285" y2="36"/>
              <line class="cls-6" x1="310" y1="30" x2="310" y2="36"/>
            </g>
            <g>
              <path class="cls-6" d="M66,265h-6V30h6"/>
              <line class="cls-6" x1="60" y1="265" x2="66" y2="265"/>
              <line class="cls-6" x1="60" y1="241.5" x2="66" y2="241.5"/>
              <line class="cls-6" x1="60" y1="218" x2="66" y2="218"/>
              <line class="cls-6" x1="60" y1="194.5" x2="66" y2="194.5"/>
              <line class="cls-6" x1="60" y1="171" x2="66" y2="171"/>
              <line class="cls-6" x1="60" y1="147.5" x2="66" y2="147.5"/>
              <line class="cls-6" x1="60" y1="124" x2="66" y2="124"/>
              <line class="cls-6" x1="60" y1="100.5" x2="66" y2="100.5"/>
              <line class="cls-6" x1="60" y1="77" x2="66" y2="77"/>
              <line class="cls-6" x1="60" y1="53.5" x2="66" y2="53.5"/>
              <line class="cls-6" x1="60" y1="30" x2="66" y2="30"/>
            </g>
            <g>
              <path class="cls-6" d="M304,265h6V30h-6"/>
              <line class="cls-6" x1="310" y1="265" x2="304" y2="265"/>
              <line class="cls-6" x1="310" y1="241.5" x2="304" y2="241.5"/>
              <line class="cls-6" x1="310" y1="218" x2="304" y2="218"/>
              <line class="cls-6" x1="310" y1="194.5" x2="304" y2="194.5"/>
              <line class="cls-6" x1="310" y1="171" x2="304" y2="171"/>
              <line class="cls-6" x1="310" y1="147.5" x2="304" y2="147.5"/>
              <line class="cls-6" x1="310" y1="124" x2="304" y2="124"/>
              <line class="cls-6" x1="310" y1="100.5" x2="304" y2="100.5"/>
              <line class="cls-6" x1="310" y1="77" x2="304" y2="77"/>
              <line class="cls-6" x1="310" y1="53.5" x2="304" y2="53.5"/>
              <line class="cls-6" x1="310" y1="30" x2="304" y2="30"/>
            </g>
            <g class="cls-11">
              <g class="cls-11">
                <text class="cls-17" transform="translate(46 280)"><tspan x="0" y="0">-250</tspan></text>
              </g>
            </g>
            <g class="cls-11">
              <g class="cls-11">
                <text class="cls-17" transform="translate(298.3 280)"><tspan x="0" y="0">250</tspan></text>
              </g>
            </g>
            <g class="cls-11">
              <g class="cls-11">
                <text class="cls-17" transform="translate(41.5 265)"><tspan x="0" y="0">0</tspan></text>
              </g>
            </g>
            <g class="cls-11">
              <g class="cls-11">
                <text class="cls-17" transform="translate(30.5 40)"><tspan x="0" y="0">0.2</tspan></text>
              </g>
            </g>
            <g class="cls-11">
              <g class="cls-11">
                <text class="cls-17" transform="translate(42 196.9) rotate(-90)"><tspan x="0" y="0">Frequency (AU)</tspan></text>
              </g>
            </g>
            <g id="composite-legend" class="cls-33">
              <g>
                <polygon class="cls-28" points="335 30 350 30 350 45 335 45 335 30"/>
                <polygon class="cls-28" points="350 30 350 45 335 45 350 30"/>
                <rect class="cls-6" x="335" y="30" width="15" height="15"/>
                <g class="cls-11">
                  <g class="cls-11">
                    <text class="cls-9" transform="translate(355 40)"><tspan x="0" y="0">Composite 0</tspan></text>
                  </g>
                </g>
              </g>
              <g>
                <polygon class="cls-26" points="335 54 350 54 350 69 335 69 335 54"/>
                <polygon class="cls-26" points="350 54 350 69 335 69 350 54"/>
                <rect class="cls-6" x="335" y="54" width="15" height="15"/>
                <g class="cls-11">
                  <g class="cls-11">
                    <text class="cls-9" transform="translate(355 64)"><tspan x="0" y="0">Composite 1</tspan></text>
                  </g>
                </g>
              </g>
              <g>
                <polygon class="cls-30" points="335 78 350 78 350 93 335 93 335 78"/>
                <polygon class="cls-30" points="350 78 350 93 335 93 350 78"/>
                <rect class="cls-6" x="335" y="78" width="15" height="15"/>
                <g class="cls-11">
                  <g class="cls-11">
                    <text class="cls-9" transform="translate(355 88)"><tspan x="0" y="0">Composite 2</tspan></text>
                  </g>
                </g>
              </g>
              <g>
                <polygon class="cls-25" points="335 102 350 102 350 117 335 117 335 102"/>
                <polygon class="cls-25" points="350 102 350 117 335 117 350 102"/>
                <rect class="cls-6" x="335" y="102" width="15" height="15"/>
                <g class="cls-11">
                  <g class="cls-11">
                    <text class="cls-9" transform="translate(355 112)"><tspan x="0" y="0">Composite 3</tspan></text>
                  </g>
                </g>
              </g>
            </g>
            <g class="cls-33">
              <path class="cls-29" d="M132.4,35.7h100.5l5-5,5,5h100.5v64.5h-211V35.7Z"/>
              <g>
                <g class="cls-11">
                  <g class="cls-11">
                    <g class="cls-11">
                      <text class="cls-10" transform="translate(142.4 53.1)"><tspan x="0" y="0">Distance from phase aligned CTCF motif (bp): 106</tspan></text>
                    </g>
                  </g>
                </g>
                <g class="cls-15">
                  <g class="cls-15">
                    <g class="cls-15">
                      <text class="cls-13" transform="translate(142.4 61.9)"><tspan x="0" y="0">Composite 0:</tspan></text>
                    </g>
                  </g>
                  <g class="cls-15">
                    <g class="cls-15">
                      <text class="cls-3" transform="translate(142.4 61.9)"><tspan x="0" y="0">Composite 0:</tspan></text>
                    </g>
                  </g>
                  <g class="cls-15">
                    <g class="cls-15">
                      <text class="cls-12" transform="translate(191.7 61.9)"><tspan x="0" y="0">0.148</tspan></text>
                    </g>
                  </g>
                  <g class="cls-15">
                    <g class="cls-15">
                      <text class="cls-3" transform="translate(191.7 61.9)"><tspan x="0" y="0">0.148</tspan></text>
                    </g>
                  </g>
                  <g class="cls-15">
                    <g class="cls-15">
                      <text class="cls-13" transform="translate(211.7 61.9)"><tspan x="0" y="0">;</tspan></text>
                    </g>
                  </g>
                  <g class="cls-15">
                    <g class="cls-15">
                      <text class="cls-3" transform="translate(211.7 61.9)"><tspan x="0" y="0">;</tspan></text>
                    </g>
                  </g>
                  <g class="cls-15">
                    <g class="cls-15">
                      <text class="cls-12" transform="translate(216.2 61.9)"><tspan x="0" y="0">0</tspan></text>
                    </g>
                  </g>
                  <g class="cls-15">
                    <g class="cls-15">
                      <text class="cls-3" transform="translate(216.2 61.9)"><tspan x="0" y="0">0</tspan></text>
                    </g>
                  </g>
                </g>
                <g class="cls-11">
                  <g class="cls-11">
                    <g class="cls-11">
                      <text class="cls-13" transform="translate(142.4 70.7)"><tspan x="0" y="0">Composite 1:</tspan></text>
                    </g>
                  </g>
                  <g class="cls-11">
                    <g class="cls-11">
                      <text class="cls-3" transform="translate(142.4 70.7)"><tspan x="0" y="0">Composite 1:</tspan></text>
                    </g>
                  </g>
                  <g class="cls-11">
                    <g class="cls-11">
                      <text class="cls-8" transform="translate(191.7 70.7)"><tspan x="0" y="0">0.176</tspan></text>
                    </g>
                  </g>
                  <g class="cls-11">
                    <g class="cls-11">
                      <text class="cls-3" transform="translate(191.7 70.7)"><tspan x="0" y="0">0.176</tspan></text>
                    </g>
                  </g>
                  <g class="cls-11">
                    <g class="cls-11">
                      <text class="cls-13" transform="translate(211.7 70.7)"><tspan x="0" y="0">;</tspan></text>
                    </g>
                  </g>
                  <g class="cls-11">
                    <g class="cls-11">
                      <text class="cls-3" transform="translate(211.7 70.7)"><tspan x="0" y="0">;</tspan></text>
                    </g>
                  </g>
                  <g class="cls-11">
                    <g class="cls-11">
                      <text class="cls-8" transform="translate(216.2 70.7)"><tspan x="0" y="0">0</tspan></text>
                    </g>
                  </g>
                  <g class="cls-11">
                    <g class="cls-11">
                      <text class="cls-3" transform="translate(216.2 70.7)"><tspan x="0" y="0">0</tspan></text>
                    </g>
                  </g>
                </g>
                <g class="cls-11">
                  <g class="cls-11">
                    <g class="cls-11">
                      <text class="cls-13" transform="translate(142.4 79.5)"><tspan x="0" y="0">Composite 2:</tspan></text>
                    </g>
                  </g>
                  <g class="cls-11">
                    <g class="cls-11">
                      <text class="cls-3" transform="translate(142.4 79.5)"><tspan x="0" y="0">Composite 2:</tspan></text>
                    </g>
                  </g>
                  <g class="cls-11">
                    <g class="cls-11">
                      <text class="cls-14" transform="translate(191.7 79.5)"><tspan x="0" y="0">0.145</tspan></text>
                    </g>
                  </g>
                  <g class="cls-11">
                    <g class="cls-11">
                      <text class="cls-3" transform="translate(191.7 79.5)"><tspan x="0" y="0">0.145</tspan></text>
                    </g>
                  </g>
                  <g class="cls-11">
                    <g class="cls-11">
                      <text class="cls-13" transform="translate(211.7 79.5)"><tspan x="0" y="0">;</tspan></text>
                    </g>
                  </g>
                  <g class="cls-11">
                    <g class="cls-11">
                      <text class="cls-3" transform="translate(211.7 79.5)"><tspan x="0" y="0">;</tspan></text>
                    </g>
                  </g>
                  <g class="cls-11">
                    <g class="cls-11">
                      <text class="cls-14" transform="translate(216.2 79.5)"><tspan x="0" y="0">0</tspan></text>
                    </g>
                  </g>
                  <g class="cls-11">
                    <g class="cls-11">
                      <text class="cls-3" transform="translate(216.2 79.5)"><tspan x="0" y="0">0</tspan></text>
                    </g>
                  </g>
                </g>
                <g class="cls-11">
                  <g class="cls-11">
                    <g class="cls-11">
                      <text class="cls-13" transform="translate(142.4 88.3)"><tspan x="0" y="0">Composite 3:</tspan></text>
                    </g>
                  </g>
                  <g class="cls-11">
                    <g class="cls-11">
                      <text class="cls-3" transform="translate(142.4 88.3)"><tspan x="0" y="0">Composite 3:</tspan></text>
                    </g>
                  </g>
                  <g class="cls-11">
                    <g class="cls-11">
                      <text class="cls-16" transform="translate(191.7 88.3)"><tspan x="0" y="0">0.153</tspan></text>
                    </g>
                  </g>
                  <g class="cls-11">
                    <g class="cls-11">
                      <text class="cls-3" transform="translate(191.7 88.3)"><tspan x="0" y="0">0.153</tspan></text>
                    </g>
                  </g>
                  <g class="cls-11">
                    <g class="cls-11">
                      <text class="cls-13" transform="translate(211.7 88.3)"><tspan x="0" y="0">;</tspan></text>
                    </g>
                  </g>
                  <g class="cls-11">
                    <g class="cls-11">
                      <text class="cls-3" transform="translate(211.7 88.3)"><tspan x="0" y="0">;</tspan></text>
                    </g>
                  </g>
                  <g class="cls-11">
                    <g class="cls-11">
                      <text class="cls-16" transform="translate(216.2 88.3)"><tspan x="0" y="0">0</tspan></text>
                    </g>
                  </g>
                  <g class="cls-11">
                    <g class="cls-11">
                      <text class="cls-3" transform="translate(216.2 88.3)"><tspan x="0" y="0">0</tspan></text>
                    </g>
                  </g>
                </g>
              </g>
            </g>
            <g class="cls-33">
              <rect id="nucleosome-rect" class="cls-32" x="185" y="491" width="36.5" height="18"/>
            </g>
            <rect class="cls-31" x="160" y="265.5" width="60.7" height="267.7"/>
            <line class="cls-1" x1="184.8" y1="265.5" x2="184.8" y2="30.5"/>
            <g class="cls-11">
              <g class="cls-11">
                <text class="cls-17" transform="translate(181.5 280)"><tspan x="0" y="0">0</tspan></text>
              </g>
            </g>
          </g>
        </g>
        <rect class="cls-31" x="176.4" y="233.6" width="17" height="1.9"/>
      </g>
    </g>
  </g>
</svg>