<?xml version="1.0" encoding="utf-8" standalone="no"?>
<!DOCTYPE svg PUBLIC "-//W3C//DTD SVG 1.1//EN"
  "http://www.w3.org/Graphics/SVG/1.1/DTD/svg11.dtd">
<svg xmlns:xlink="http://www.w3.org/1999/xlink" width="576pt" height="288pt" viewBox="0 0 576 288" xmlns="http://www.w3.org/2000/svg" version="1.1">
 <metadata>
  <rdf:RDF xmlns:dc="http://purl.org/dc/elements/1.1/" xmlns:cc="http://creativecommons.org/ns#" xmlns:rdf="http://www.w3.org/1999/02/22-rdf-syntax-ns#">
   <cc:Work>
    <dc:type rdf:resource="http://purl.org/dc/dcmitype/StillImage"/>
    <dc:date>2024-11-20T12:42:14.657544</dc:date>
    <dc:format>image/svg+xml</dc:format>
    <dc:creator>
     <cc:Agent>
      <dc:title>Matplotlib v3.5.3, https://matplotlib.org/</dc:title>
     </cc:Agent>
    </dc:creator>
   </cc:Work>
  </rdf:RDF>
 </metadata>
 <defs>
  <style type="text/css">*{stroke-linejoin: round; stroke-linecap: butt}</style>
 </defs>
 <g id="figure_1">
  <g id="patch_1">
   <path d="M 0 288 
L 576 288 
L 576 0 
L 0 0 
L 0 288 
z
" style="fill: none"/>
  </g>
  <g id="axes_1">
   <g id="patch_2">
    <path d="M 72 256.32 
L 518.4 256.32 
L 518.4 34.56 
L 72 34.56 
L 72 256.32 
z
" style="fill: none"/>
   </g>
   <g id="PolyCollection_1">
    <defs>
     <path id="m7be895df4b" d="M 109.237213 -64.1981 
L 109.162787 -64.1981 
L 109.139739 -65.99632 
L 109.104726 -67.794541 
L 109.053266 -69.592761 
L 108.979577 -71.390982 
L 108.875228 -73.189202 
L 108.72819 -74.987423 
L 108.525959 -76.785644 
L 108.266292 -78.583864 
L 107.972751 -80.382085 
L 107.702763 -82.180305 
L 107.534162 -83.978526 
L 107.53019 -85.776746 
L 107.703625 -87.574967 
L 108.006707 -89.373187 
L 108.355344 -91.171408 
L 108.669757 -92.969629 
L 108.904186 -94.767849 
L 109.051668 -96.56607 
L 109.129982 -98.36429 
L 109.163752 -100.162511 
L 109.173145 -101.960731 
L 109.170727 -103.758952 
L 109.162998 -105.557172 
L 109.152997 -107.355393 
L 109.142195 -109.153614 
L 109.131405 -110.951834 
L 109.120948 -112.750055 
L 109.110315 -114.548275 
L 109.097332 -116.346496 
L 109.076361 -118.144716 
L 109.033869 -119.942937 
L 108.938265 -121.741157 
L 108.721217 -123.539378 
L 108.253991 -125.337599 
L 107.337132 -127.135819 
L 105.737802 -128.93404 
L 103.303999 -130.73226 
L 100.135221 -132.530481 
L 96.708238 -134.328701 
L 93.818464 -136.126922 
L 92.28366 -137.925142 
L 92.544036 -139.723363 
L 94.420165 -141.521584 
L 97.206827 -143.319804 
L 100.035286 -145.118025 
L 102.251356 -146.916245 
L 103.590759 -148.714466 
L 104.120419 -150.512686 
L 104.066618 -152.310907 
L 103.665618 -154.109127 
L 103.095541 -155.907348 
L 102.474951 -157.705569 
L 101.888566 -159.503789 
L 101.410232 -161.30201 
L 101.110641 -163.10023 
L 101.049795 -164.898451 
L 101.261451 -166.696671 
L 101.739608 -168.494892 
L 102.434372 -170.293113 
L 103.257615 -172.091333 
L 104.093347 -173.889554 
L 104.809494 -175.687774 
L 105.275664 -177.485995 
L 105.395193 -179.284215 
L 105.148326 -181.082436 
L 104.620642 -182.880656 
L 103.981008 -184.678877 
L 103.400743 -186.477098 
L 102.958027 -188.275318 
L 102.597244 -190.073539 
L 102.174293 -191.871759 
L 101.54698 -193.66998 
L 100.637628 -195.4682 
L 99.432832 -197.266421 
L 97.945655 -199.064641 
L 96.186547 -200.862862 
L 94.164408 -202.661083 
L 91.907482 -204.459303 
L 89.484177 -206.257524 
L 87.012339 -208.055744 
L 84.655474 -209.853965 
L 82.608803 -211.652185 
L 81.078288 -213.450406 
L 80.254723 -215.248626 
L 80.284299 -217.046847 
L 81.238487 -218.845068 
L 83.089908 -220.643288 
L 85.704311 -222.441509 
L 88.856878 -224.239729 
L 92.271839 -226.03795 
L 95.673109 -227.83617 
L 98.82884 -229.634391 
L 101.577929 -231.432611 
L 103.836591 -233.230832 
L 105.590324 -235.029053 
L 106.87787 -236.827273 
L 107.771883 -238.625494 
L 108.359546 -240.423714 
L 108.726102 -242.221935 
L 109.673898 -242.221935 
L 109.673898 -242.221935 
L 110.040454 -240.423714 
L 110.628117 -238.625494 
L 111.52213 -236.827273 
L 112.809676 -235.029053 
L 114.563409 -233.230832 
L 116.822071 -231.432611 
L 119.57116 -229.634391 
L 122.726891 -227.83617 
L 126.128161 -226.03795 
L 129.543122 -224.239729 
L 132.695689 -222.441509 
L 135.310092 -220.643288 
L 137.161513 -218.845068 
L 138.115701 -217.046847 
L 138.145277 -215.248626 
L 137.321712 -213.450406 
L 135.791197 -211.652185 
L 133.744526 -209.853965 
L 131.387661 -208.055744 
L 128.915823 -206.257524 
L 126.492518 -204.459303 
L 124.235592 -202.661083 
L 122.213453 -200.862862 
L 120.454345 -199.064641 
L 118.967168 -197.266421 
L 117.762372 -195.4682 
L 116.85302 -193.66998 
L 116.225707 -191.871759 
L 115.802756 -190.073539 
L 115.441973 -188.275318 
L 114.999257 -186.477098 
L 114.418992 -184.678877 
L 113.779358 -182.880656 
L 113.251674 -181.082436 
L 113.004807 -179.284215 
L 113.124336 -177.485995 
L 113.590506 -175.687774 
L 114.306653 -173.889554 
L 115.142385 -172.091333 
L 115.965628 -170.293113 
L 116.660392 -168.494892 
L 117.138549 -166.696671 
L 117.350205 -164.898451 
L 117.289359 -163.10023 
L 116.989768 -161.30201 
L 116.511434 -159.503789 
L 115.925049 -157.705569 
L 115.304459 -155.907348 
L 114.734382 -154.109127 
L 114.333382 -152.310907 
L 114.279581 -150.512686 
L 114.809241 -148.714466 
L 116.148644 -146.916245 
L 118.364714 -145.118025 
L 121.193173 -143.319804 
L 123.979835 -141.521584 
L 125.855964 -139.723363 
L 126.11634 -137.925142 
L 124.581536 -136.126922 
L 121.691762 -134.328701 
L 118.264779 -132.530481 
L 115.096001 -130.73226 
L 112.662198 -128.93404 
L 111.062868 -127.135819 
L 110.146009 -125.337599 
L 109.678783 -123.539378 
L 109.461735 -121.741157 
L 109.366131 -119.942937 
L 109.323639 -118.144716 
L 109.302668 -116.346496 
L 109.289685 -114.548275 
L 109.279052 -112.750055 
L 109.268595 -110.951834 
L 109.257805 -109.153614 
L 109.247003 -107.355393 
L 109.237002 -105.557172 
L 109.229273 -103.758952 
L 109.226855 -101.960731 
L 109.236248 -100.162511 
L 109.270018 -98.36429 
L 109.348332 -96.56607 
L 109.495814 -94.767849 
L 109.730243 -92.969629 
L 110.044656 -91.171408 
L 110.393293 -89.373187 
L 110.696375 -87.574967 
L 110.86981 -85.776746 
L 110.865838 -83.978526 
L 110.697237 -82.180305 
L 110.427249 -80.382085 
L 110.133708 -78.583864 
L 109.874041 -76.785644 
L 109.67181 -74.987423 
L 109.524772 -73.189202 
L 109.420423 -71.390982 
L 109.346734 -69.592761 
L 109.295274 -67.794541 
L 109.260261 -65.99632 
L 109.237213 -64.1981 
z
" style="stroke: #4c4c4c; stroke-width: 0.5"/>
    </defs>
    <g clip-path="url(#p375f5d910b)">
     <use xlink:href="#m7be895df4b" x="0" y="288" style="fill: #2020df; stroke: #4c4c4c; stroke-width: 0.5"/>
    </g>
   </g>
   <g id="PolyCollection_2">
    <defs>
     <path id="m540c775bd6" d="M 183.606736 -49.961946 
L 183.593264 -49.961946 
L 183.593653 -51.915462 
L 183.594639 -53.868978 
L 183.595607 -55.822493 
L 183.595702 -57.776009 
L 183.593847 -59.729525 
L 183.588552 -61.68304 
L 183.577533 -63.636556 
L 183.557256 -65.590072 
L 183.522544 -67.543588 
L 183.466222 -69.497103 
L 183.378353 -71.450619 
L 183.244964 -73.404135 
L 183.048611 -75.35765 
L 182.77639 -77.311166 
L 182.438556 -79.264682 
L 182.088172 -81.218197 
L 181.819413 -83.171713 
L 181.730026 -85.125229 
L 181.865373 -87.078744 
L 182.18666 -89.03226 
L 182.591356 -90.985776 
L 182.969774 -92.939292 
L 183.254232 -94.892807 
L 183.4316 -96.846323 
L 183.524414 -98.799839 
L 183.564432 -100.753354 
L 183.576314 -102.70687 
L 183.574053 -104.660386 
L 183.564267 -106.613901 
L 183.550448 -108.567417 
L 183.535407 -110.520933 
L 183.521535 -112.474449 
L 183.50953 -114.427964 
L 183.496442 -116.38148 
L 183.472834 -118.334996 
L 183.4163 -120.288511 
L 183.27627 -122.242027 
L 182.948166 -124.195543 
L 182.249827 -126.149058 
L 180.937253 -128.102574 
L 178.806387 -130.05609 
L 175.883525 -132.009605 
L 172.602399 -133.963121 
L 169.785498 -135.916637 
L 168.325171 -137.870153 
L 168.706373 -139.823668 
L 170.709924 -141.777184 
L 173.537439 -143.7307 
L 176.259444 -145.684215 
L 178.244336 -147.637731 
L 179.305986 -149.591247 
L 179.57945 -151.544762 
L 179.310289 -153.498278 
L 178.714313 -155.451794 
L 177.941514 -157.405309 
L 177.097622 -159.358825 
L 176.272293 -161.312341 
L 175.552324 -163.265857 
L 175.020658 -165.219372 
L 174.747596 -167.172888 
L 174.778189 -169.126404 
L 175.117705 -171.079919 
L 175.717794 -173.033435 
L 176.469506 -174.986951 
L 177.214728 -176.940466 
L 177.788023 -178.893982 
L 178.084484 -180.847498 
L 178.117336 -182.801013 
L 178.012523 -184.754529 
L 177.922715 -186.708045 
L 177.915727 -188.661561 
L 177.927264 -190.615076 
L 177.81362 -192.568592 
L 177.447555 -194.522108 
L 176.771696 -196.475623 
L 175.782064 -198.429139 
L 174.482763 -200.382655 
L 172.861948 -202.33617 
L 170.902192 -204.289686 
L 168.607897 -206.243202 
L 166.030547 -208.196718 
L 163.28428 -210.150233 
L 160.551072 -212.103749 
L 158.073139 -214.057265 
L 156.127617 -216.01078 
L 154.982537 -217.964296 
L 154.842691 -219.917812 
L 155.801505 -221.871327 
L 157.814246 -223.824843 
L 160.700339 -225.778359 
L 164.173639 -227.731874 
L 167.893109 -229.68539 
L 171.522571 -231.638906 
L 174.786139 -233.592422 
L 177.50614 -235.545937 
L 179.614661 -237.499453 
L 181.138567 -239.452969 
L 182.167135 -241.406484 
L 182.81593 -243.36 
L 184.38407 -243.36 
L 184.38407 -243.36 
L 185.032865 -241.406484 
L 186.061433 -239.452969 
L 187.585339 -237.499453 
L 189.69386 -235.545937 
L 192.413861 -233.592422 
L 195.677429 -231.638906 
L 199.306891 -229.68539 
L 203.026361 -227.731874 
L 206.499661 -225.778359 
L 209.385754 -223.824843 
L 211.398495 -221.871327 
L 212.357309 -219.917812 
L 212.217463 -217.964296 
L 211.072383 -216.01078 
L 209.126861 -214.057265 
L 206.648928 -212.103749 
L 203.91572 -210.150233 
L 201.169453 -208.196718 
L 198.592103 -206.243202 
L 196.297808 -204.289686 
L 194.338052 -202.33617 
L 192.717237 -200.382655 
L 191.417936 -198.429139 
L 190.428304 -196.475623 
L 189.752445 -194.522108 
L 189.38638 -192.568592 
L 189.272736 -190.615076 
L 189.284273 -188.661561 
L 189.277285 -186.708045 
L 189.187477 -184.754529 
L 189.082664 -182.801013 
L 189.115516 -180.847498 
L 189.411977 -178.893982 
L 189.985272 -176.940466 
L 190.730494 -174.986951 
L 191.482206 -173.033435 
L 192.082295 -171.079919 
L 192.421811 -169.126404 
L 192.452404 -167.172888 
L 192.179342 -165.219372 
L 191.647676 -163.265857 
L 190.927707 -161.312341 
L 190.102378 -159.358825 
L 189.258486 -157.405309 
L 188.485687 -155.451794 
L 187.889711 -153.498278 
L 187.62055 -151.544762 
L 187.894014 -149.591247 
L 188.955664 -147.637731 
L 190.940556 -145.684215 
L 193.662561 -143.7307 
L 196.490076 -141.777184 
L 198.493627 -139.823668 
L 198.874829 -137.870153 
L 197.414502 -135.916637 
L 194.597601 -133.963121 
L 191.316475 -132.009605 
L 188.393613 -130.05609 
L 186.262747 -128.102574 
L 184.950173 -126.149058 
L 184.251834 -124.195543 
L 183.92373 -122.242027 
L 183.7837 -120.288511 
L 183.727166 -118.334996 
L 183.703558 -116.38148 
L 183.69047 -114.427964 
L 183.678465 -112.474449 
L 183.664593 -110.520933 
L 183.649552 -108.567417 
L 183.635733 -106.613901 
L 183.625947 -104.660386 
L 183.623686 -102.70687 
L 183.635568 -100.753354 
L 183.675586 -98.799839 
L 183.7684 -96.846323 
L 183.945768 -94.892807 
L 184.230226 -92.939292 
L 184.608644 -90.985776 
L 185.01334 -89.03226 
L 185.334627 -87.078744 
L 185.469974 -85.125229 
L 185.380587 -83.171713 
L 185.111828 -81.218197 
L 184.761444 -79.264682 
L 184.42361 -77.311166 
L 184.151389 -75.35765 
L 183.955036 -73.404135 
L 183.821647 -71.450619 
L 183.733778 -69.497103 
L 183.677456 -67.543588 
L 183.642744 -65.590072 
L 183.622467 -63.636556 
L 183.611448 -61.68304 
L 183.606153 -59.729525 
L 183.604298 -57.776009 
L 183.604393 -55.822493 
L 183.605361 -53.868978 
L 183.606347 -51.915462 
L 183.606736 -49.961946 
z
" style="stroke: #4c4c4c; stroke-width: 0.5"/>
    </defs>
    <g clip-path="url(#p375f5d910b)">
     <use xlink:href="#m540c775bd6" x="0" y="288" style="fill: #df2020; stroke: #4c4c4c; stroke-width: 0.5"/>
    </g>
   </g>
   <g id="PolyCollection_3">
    <defs>
     <path id="m215e997717" d="M 258.081615 -64.1981 
L 257.918385 -64.1981 
L 257.867139 -65.946036 
L 257.789804 -67.693973 
L 257.675955 -69.441909 
L 257.511591 -71.189846 
L 257.277917 -72.937783 
L 256.952323 -74.685719 
L 256.516042 -76.433656 
L 255.971464 -78.181592 
L 255.363927 -79.929529 
L 254.792205 -81.677466 
L 254.390272 -83.425402 
L 254.278491 -85.173339 
L 254.507212 -86.921275 
L 255.028034 -88.669212 
L 255.713083 -90.417149 
L 256.410538 -92.165085 
L 257.002175 -93.913022 
L 257.432957 -95.660958 
L 257.706034 -97.408895 
L 257.857531 -99.156832 
L 257.930587 -100.904768 
L 257.959949 -102.652705 
L 257.96785 -104.400641 
L 257.966328 -106.148578 
L 257.96116 -107.896515 
L 257.954879 -109.644451 
L 257.948411 -111.392388 
L 257.941579 -113.140324 
L 257.932664 -114.888261 
L 257.91659 -116.636198 
L 257.880331 -118.384134 
L 257.79297 -120.132071 
L 257.587244 -121.880007 
L 257.132401 -123.627944 
L 256.208244 -125.375881 
L 254.50732 -127.123817 
L 251.704558 -128.871754 
L 247.617642 -130.61969 
L 242.420218 -132.367627 
L 236.787554 -134.115564 
L 231.824346 -135.8635 
L 228.716743 -137.611437 
L 228.24 -139.359373 
L 230.397499 -141.10731 
L 234.421382 -142.855246 
L 239.137349 -144.603183 
L 243.464036 -146.35112 
L 246.764677 -148.099056 
L 248.913501 -149.846993 
L 250.136888 -151.594929 
L 250.78817 -153.342866 
L 251.182947 -155.090803 
L 251.532083 -156.838739 
L 251.944208 -158.586676 
L 252.454993 -160.334612 
L 253.056347 -162.082549 
L 253.717326 -163.830486 
L 254.397983 -165.578422 
L 255.058927 -167.326359 
L 255.667847 -169.074295 
L 256.202741 -170.822232 
L 256.651121 -172.570169 
L 257.004756 -174.318105 
L 257.249748 -176.066042 
L 257.351807 -177.813978 
L 257.238532 -179.561915 
L 256.786531 -181.309852 
L 255.829896 -183.057788 
L 254.208568 -184.805725 
L 251.857567 -186.553661 
L 248.900097 -188.301598 
L 245.675282 -190.049535 
L 242.646577 -191.797471 
L 240.213338 -193.545408 
L 238.534849 -195.293344 
L 237.488601 -197.041281 
L 236.792984 -198.789218 
L 236.201704 -200.537154 
L 235.634315 -202.285091 
L 235.176684 -204.033027 
L 234.990669 -205.780964 
L 235.21828 -207.528901 
L 235.933565 -209.276837 
L 237.140341 -211.024774 
L 238.788392 -212.77271 
L 240.789026 -214.520647 
L 243.027104 -216.268584 
L 245.373059 -218.01652 
L 247.696371 -219.764457 
L 249.879196 -221.512393 
L 251.828198 -223.26033 
L 253.482895 -225.008267 
L 254.818904 -226.756203 
L 255.845171 -228.50414 
L 256.595886 -230.252076 
L 257.11958 -232.000013 
L 257.468557 -233.74795 
L 257.691064 -235.495886 
L 257.826995 -237.243823 
L 258.173005 -237.243823 
L 258.173005 -237.243823 
L 258.308936 -235.495886 
L 258.531443 -233.74795 
L 258.88042 -232.000013 
L 259.404114 -230.252076 
L 260.154829 -228.50414 
L 261.181096 -226.756203 
L 262.517105 -225.008267 
L 264.171802 -223.26033 
L 266.120804 -221.512393 
L 268.303629 -219.764457 
L 270.626941 -218.01652 
L 272.972896 -216.268584 
L 275.210974 -214.520647 
L 277.211608 -212.77271 
L 278.859659 -211.024774 
L 280.066435 -209.276837 
L 280.78172 -207.528901 
L 281.009331 -205.780964 
L 280.823316 -204.033027 
L 280.365685 -202.285091 
L 279.798296 -200.537154 
L 279.207016 -198.789218 
L 278.511399 -197.041281 
L 277.465151 -195.293344 
L 275.786662 -193.545408 
L 273.353423 -191.797471 
L 270.324718 -190.049535 
L 267.099903 -188.301598 
L 264.142433 -186.553661 
L 261.791432 -184.805725 
L 260.170104 -183.057788 
L 259.213469 -181.309852 
L 258.761468 -179.561915 
L 258.648193 -177.813978 
L 258.750252 -176.066042 
L 258.995244 -174.318105 
L 259.348879 -172.570169 
L 259.797259 -170.822232 
L 260.332153 -169.074295 
L 260.941073 -167.326359 
L 261.602017 -165.578422 
L 262.282674 -163.830486 
L 262.943653 -162.082549 
L 263.545007 -160.334612 
L 264.055792 -158.586676 
L 264.467917 -156.838739 
L 264.817053 -155.090803 
L 265.21183 -153.342866 
L 265.863112 -151.594929 
L 267.086499 -149.846993 
L 269.235323 -148.099056 
L 272.535964 -146.35112 
L 276.862651 -144.603183 
L 281.578618 -142.855246 
L 285.602501 -141.10731 
L 287.76 -139.359373 
L 287.283257 -137.611437 
L 284.175654 -135.8635 
L 279.212446 -134.115564 
L 273.579782 -132.367627 
L 268.382358 -130.61969 
L 264.295442 -128.871754 
L 261.49268 -127.123817 
L 259.791756 -125.375881 
L 258.867599 -123.627944 
L 258.412756 -121.880007 
L 258.20703 -120.132071 
L 258.119669 -118.384134 
L 258.08341 -116.636198 
L 258.067336 -114.888261 
L 258.058421 -113.140324 
L 258.051589 -111.392388 
L 258.045121 -109.644451 
L 258.03884 -107.896515 
L 258.033672 -106.148578 
L 258.03215 -104.400641 
L 258.040051 -102.652705 
L 258.069413 -100.904768 
L 258.142469 -99.156832 
L 258.293966 -97.408895 
L 258.567043 -95.660958 
L 258.997825 -93.913022 
L 259.589462 -92.165085 
L 260.286917 -90.417149 
L 260.971966 -88.669212 
L 261.492788 -86.921275 
L 261.721509 -85.173339 
L 261.609728 -83.425402 
L 261.207795 -81.677466 
L 260.636073 -79.929529 
L 260.028536 -78.181592 
L 259.483958 -76.433656 
L 259.047677 -74.685719 
L 258.722083 -72.937783 
L 258.488409 -71.189846 
L 258.324045 -69.441909 
L 258.210196 -67.693973 
L 258.132861 -65.946036 
L 258.081615 -64.1981 
z
" style="stroke: #4c4c4c; stroke-width: 0.5"/>
    </defs>
    <g clip-path="url(#p375f5d910b)">
     <use xlink:href="#m215e997717" x="0" y="288" style="fill: #2020df; stroke: #4c4c4c; stroke-width: 0.5"/>
    </g>
   </g>
   <g id="PolyCollection_4">
    <defs>
     <path id="m8c51b7c36c" d="M 332.40663 -49.961946 
L 332.39337 -49.961946 
L 332.393713 -51.853682 
L 332.394587 -53.745419 
L 332.395408 -55.637155 
L 332.395243 -57.528891 
L 332.392664 -59.420627 
L 332.385378 -61.312363 
L 332.369727 -63.204099 
L 332.34029 -65.095835 
L 332.289748 -66.987571 
L 332.208744 -68.879308 
L 332.084938 -70.771044 
L 331.900846 -72.66278 
L 331.632929 -74.554516 
L 331.258435 -76.446252 
L 330.775816 -78.337988 
L 330.232797 -80.229724 
L 329.739122 -82.12146 
L 329.438897 -84.013197 
L 329.444471 -85.904933 
L 329.77181 -87.796669 
L 330.326306 -89.688405 
L 330.951619 -91.580141 
L 331.505364 -93.471877 
L 331.91079 -95.363613 
L 332.161436 -97.255349 
L 332.292981 -99.147086 
L 332.350664 -101.038822 
L 332.370103 -102.930558 
L 332.372791 -104.822294 
L 332.369302 -106.71403 
L 332.363915 -108.605766 
L 332.357966 -110.497502 
L 332.351601 -112.389238 
L 332.344118 -114.280975 
L 332.332716 -116.172711 
L 332.308513 -118.064447 
L 332.247017 -119.956183 
L 332.08853 -121.847919 
L 331.706359 -123.739655 
L 330.873717 -125.631391 
L 329.265741 -127.523127 
L 326.552816 -129.414864 
L 322.613339 -131.3066 
L 317.791051 -133.198336 
L 313.000919 -135.090072 
L 309.492178 -136.981808 
L 308.295067 -138.873544 
L 309.671576 -140.76528 
L 312.964777 -142.657016 
L 316.966027 -144.548753 
L 320.528017 -146.440489 
L 323.009675 -148.332225 
L 324.34298 -150.223961 
L 324.818444 -152.115697 
L 324.820301 -154.007433 
L 324.665323 -155.899169 
L 324.559719 -157.790905 
L 324.616617 -159.682642 
L 324.883701 -161.574378 
L 325.363178 -163.466114 
L 326.025438 -165.35785 
L 326.820344 -167.249586 
L 327.687202 -169.141322 
L 328.563072 -171.033058 
L 329.388994 -172.924794 
L 330.112903 -174.816531 
L 330.686038 -176.708267 
L 331.049347 -178.600003 
L 331.112049 -180.491739 
L 330.737933 -182.383475 
L 329.767688 -184.275211 
L 328.097305 -186.166947 
L 325.787922 -188.058683 
L 323.124431 -189.95042 
L 320.535889 -191.842156 
L 318.385796 -193.733892 
L 316.771979 -195.625628 
L 315.501159 -197.517364 
L 314.264457 -199.4091 
L 312.866396 -201.300836 
L 311.33306 -203.192572 
L 309.858466 -205.084309 
L 308.682539 -206.976045 
L 308.003921 -208.867781 
L 307.9532 -210.759517 
L 308.594228 -212.651253 
L 309.924019 -214.542989 
L 311.869359 -216.434725 
L 314.291668 -218.326461 
L 317.005982 -220.218198 
L 319.8096 -222.109934 
L 322.511587 -224.00167 
L 324.956512 -225.893406 
L 327.03963 -227.785142 
L 328.712658 -229.676878 
L 329.979868 -231.568614 
L 330.885668 -233.460351 
L 331.497337 -235.352087 
L 331.888042 -237.243823 
L 332.911958 -237.243823 
L 332.911958 -237.243823 
L 333.302663 -235.352087 
L 333.914332 -233.460351 
L 334.820132 -231.568614 
L 336.087342 -229.676878 
L 337.76037 -227.785142 
L 339.843488 -225.893406 
L 342.288413 -224.00167 
L 344.9904 -222.109934 
L 347.794018 -220.218198 
L 350.508332 -218.326461 
L 352.930641 -216.434725 
L 354.875981 -214.542989 
L 356.205772 -212.651253 
L 356.8468 -210.759517 
L 356.796079 -208.867781 
L 356.117461 -206.976045 
L 354.941534 -205.084309 
L 353.46694 -203.192572 
L 351.933604 -201.300836 
L 350.535543 -199.4091 
L 349.298841 -197.517364 
L 348.028021 -195.625628 
L 346.414204 -193.733892 
L 344.264111 -191.842156 
L 341.675569 -189.95042 
L 339.012078 -188.058683 
L 336.702695 -186.166947 
L 335.032312 -184.275211 
L 334.062067 -182.383475 
L 333.687951 -180.491739 
L 333.750653 -178.600003 
L 334.113962 -176.708267 
L 334.687097 -174.816531 
L 335.411006 -172.924794 
L 336.236928 -171.033058 
L 337.112798 -169.141322 
L 337.979656 -167.249586 
L 338.774562 -165.35785 
L 339.436822 -163.466114 
L 339.916299 -161.574378 
L 340.183383 -159.682642 
L 340.240281 -157.790905 
L 340.134677 -155.899169 
L 339.979699 -154.007433 
L 339.981556 -152.115697 
L 340.45702 -150.223961 
L 341.790325 -148.332225 
L 344.271983 -146.440489 
L 347.833973 -144.548753 
L 351.835223 -142.657016 
L 355.128424 -140.76528 
L 356.504933 -138.873544 
L 355.307822 -136.981808 
L 351.799081 -135.090072 
L 347.008949 -133.198336 
L 342.186661 -131.3066 
L 338.247184 -129.414864 
L 335.534259 -127.523127 
L 333.926283 -125.631391 
L 333.093641 -123.739655 
L 332.71147 -121.847919 
L 332.552983 -119.956183 
L 332.491487 -118.064447 
L 332.467284 -116.172711 
L 332.455882 -114.280975 
L 332.448399 -112.389238 
L 332.442034 -110.497502 
L 332.436085 -108.605766 
L 332.430698 -106.71403 
L 332.427209 -104.822294 
L 332.429897 -102.930558 
L 332.449336 -101.038822 
L 332.507019 -99.147086 
L 332.638564 -97.255349 
L 332.88921 -95.363613 
L 333.294636 -93.471877 
L 333.848381 -91.580141 
L 334.473694 -89.688405 
L 335.02819 -87.796669 
L 335.355529 -85.904933 
L 335.361103 -84.013197 
L 335.060878 -82.12146 
L 334.567203 -80.229724 
L 334.024184 -78.337988 
L 333.541565 -76.446252 
L 333.167071 -74.554516 
L 332.899154 -72.66278 
L 332.715062 -70.771044 
L 332.591256 -68.879308 
L 332.510252 -66.987571 
L 332.45971 -65.095835 
L 332.430273 -63.204099 
L 332.414622 -61.312363 
L 332.407336 -59.420627 
L 332.404757 -57.528891 
L 332.404592 -55.637155 
L 332.405413 -53.745419 
L 332.406287 -51.853682 
L 332.40663 -49.961946 
z
" style="stroke: #4c4c4c; stroke-width: 0.5"/>
    </defs>
    <g clip-path="url(#p375f5d910b)">
     <use xlink:href="#m8c51b7c36c" x="0" y="288" style="fill: #df2020; stroke: #4c4c4c; stroke-width: 0.5"/>
    </g>
   </g>
   <g id="PolyCollection_5">
    <defs>
     <path id="mdd4af92518" d="M 406.958726 -68.986589 
L 406.641274 -68.986589 
L 406.560147 -70.656635 
L 406.444916 -72.32668 
L 406.27938 -73.996726 
L 406.041551 -75.666772 
L 405.711757 -77.336818 
L 405.2907 -79.006863 
L 404.820309 -80.676909 
L 404.390365 -82.346955 
L 404.115811 -84.017001 
L 404.088468 -85.687047 
L 404.329996 -87.357092 
L 404.777935 -89.027138 
L 405.315191 -90.697184 
L 405.822898 -92.36723 
L 406.223534 -94.037275 
L 406.493941 -95.707321 
L 406.651419 -97.377367 
L 406.729965 -99.047413 
L 406.761828 -100.717459 
L 406.769582 -102.387504 
L 406.766078 -104.05755 
L 406.757494 -105.727596 
L 406.746308 -107.397642 
L 406.733151 -109.067687 
L 406.717666 -110.737733 
L 406.698735 -112.407779 
L 406.674319 -114.077825 
L 406.640903 -115.74787 
L 406.592216 -117.417916 
L 406.516042 -119.087962 
L 406.386708 -120.758008 
L 406.150348 -122.428054 
L 405.702791 -124.098099 
L 404.86834 -125.768145 
L 403.400864 -127.438191 
L 401.038094 -129.108237 
L 397.62877 -130.778282 
L 393.306182 -132.448328 
L 388.614198 -134.118374 
L 384.459232 -135.78842 
L 381.828582 -137.458466 
L 381.375187 -139.128511 
L 383.10412 -140.798557 
L 386.368239 -142.468603 
L 390.181707 -144.138649 
L 393.64928 -145.808694 
L 396.261435 -147.47874 
L 397.938723 -149.148786 
L 398.885959 -150.818832 
L 399.398896 -152.488878 
L 399.730695 -154.158923 
L 400.044254 -155.828969 
L 400.421398 -157.499015 
L 400.890091 -159.169061 
L 401.447054 -160.839106 
L 402.071052 -162.509152 
L 402.730811 -164.179198 
L 403.391262 -165.849244 
L 404.018146 -167.519289 
L 404.578424 -169.189335 
L 405.034064 -170.859381 
L 405.329057 -172.529427 
L 405.373992 -174.199473 
L 405.039763 -175.869518 
L 404.178714 -177.539564 
L 402.686675 -179.20961 
L 400.592098 -180.879656 
L 398.118182 -182.549701 
L 395.648778 -184.219747 
L 393.577231 -185.889793 
L 392.112483 -187.559839 
L 391.17559 -189.229885 
L 390.468802 -190.89993 
L 389.667795 -192.569976 
L 388.596183 -194.240022 
L 387.274831 -195.910068 
L 385.853174 -197.580113 
L 384.509262 -199.250159 
L 383.391475 -200.920205 
L 382.611112 -202.590251 
L 382.253837 -204.260296 
L 382.382459 -205.930342 
L 383.027627 -207.600388 
L 384.177673 -209.270434 
L 385.777542 -210.94048 
L 387.738126 -212.610525 
L 389.950513 -214.280571 
L 392.298633 -215.950617 
L 394.667597 -217.620663 
L 396.949572 -219.290708 
L 399.050502 -220.960754 
L 400.898529 -222.6308 
L 402.451464 -224.300846 
L 403.69941 -225.970892 
L 404.660677 -227.640937 
L 405.372541 -229.310983 
L 405.880627 -230.981029 
L 406.23036 -232.651075 
L 406.462043 -234.32112 
L 407.137957 -234.32112 
L 407.137957 -234.32112 
L 407.36964 -232.651075 
L 407.719373 -230.981029 
L 408.227459 -229.310983 
L 408.939323 -227.640937 
L 409.90059 -225.970892 
L 411.148536 -224.300846 
L 412.701471 -222.6308 
L 414.549498 -220.960754 
L 416.650428 -219.290708 
L 418.932403 -217.620663 
L 421.301367 -215.950617 
L 423.649487 -214.280571 
L 425.861874 -212.610525 
L 427.822458 -210.94048 
L 429.422327 -209.270434 
L 430.572373 -207.600388 
L 431.217541 -205.930342 
L 431.346163 -204.260296 
L 430.988888 -202.590251 
L 430.208525 -200.920205 
L 429.090738 -199.250159 
L 427.746826 -197.580113 
L 426.325169 -195.910068 
L 425.003817 -194.240022 
L 423.932205 -192.569976 
L 423.131198 -190.89993 
L 422.42441 -189.229885 
L 421.487517 -187.559839 
L 420.022769 -185.889793 
L 417.951222 -184.219747 
L 415.481818 -182.549701 
L 413.007902 -180.879656 
L 410.913325 -179.20961 
L 409.421286 -177.539564 
L 408.560237 -175.869518 
L 408.226008 -174.199473 
L 408.270943 -172.529427 
L 408.565936 -170.859381 
L 409.021576 -169.189335 
L 409.581854 -167.519289 
L 410.208738 -165.849244 
L 410.869189 -164.179198 
L 411.528948 -162.509152 
L 412.152946 -160.839106 
L 412.709909 -159.169061 
L 413.178602 -157.499015 
L 413.555746 -155.828969 
L 413.869305 -154.158923 
L 414.201104 -152.488878 
L 414.714041 -150.818832 
L 415.661277 -149.148786 
L 417.338565 -147.47874 
L 419.95072 -145.808694 
L 423.418293 -144.138649 
L 427.231761 -142.468603 
L 430.49588 -140.798557 
L 432.224813 -139.128511 
L 431.771418 -137.458466 
L 429.140768 -135.78842 
L 424.985802 -134.118374 
L 420.293818 -132.448328 
L 415.97123 -130.778282 
L 412.561906 -129.108237 
L 410.199136 -127.438191 
L 408.73166 -125.768145 
L 407.897209 -124.098099 
L 407.449652 -122.428054 
L 407.213292 -120.758008 
L 407.083958 -119.087962 
L 407.007784 -117.417916 
L 406.959097 -115.74787 
L 406.925681 -114.077825 
L 406.901265 -112.407779 
L 406.882334 -110.737733 
L 406.866849 -109.067687 
L 406.853692 -107.397642 
L 406.842506 -105.727596 
L 406.833922 -104.05755 
L 406.830418 -102.387504 
L 406.838172 -100.717459 
L 406.870035 -99.047413 
L 406.948581 -97.377367 
L 407.106059 -95.707321 
L 407.376466 -94.037275 
L 407.777102 -92.36723 
L 408.284809 -90.697184 
L 408.822065 -89.027138 
L 409.270004 -87.357092 
L 409.511532 -85.687047 
L 409.484189 -84.017001 
L 409.209635 -82.346955 
L 408.779691 -80.676909 
L 408.3093 -79.006863 
L 407.888243 -77.336818 
L 407.558449 -75.666772 
L 407.32062 -73.996726 
L 407.155084 -72.32668 
L 407.039853 -70.656635 
L 406.958726 -68.986589 
z
" style="stroke: #4c4c4c; stroke-width: 0.5"/>
    </defs>
    <g clip-path="url(#p375f5d910b)">
     <use xlink:href="#mdd4af92518" x="0" y="288" style="fill: #2020df; stroke: #4c4c4c; stroke-width: 0.5"/>
    </g>
   </g>
   <g id="PolyCollection_6">
    <defs>
     <path id="m8048f313ff" d="M 481.206984 -41.76 
L 481.193016 -41.76 
L 481.193522 -43.72076 
L 481.194832 -45.681519 
L 481.196453 -47.642279 
L 481.1979 -49.603038 
L 481.198905 -51.563798 
L 481.199407 -53.524557 
L 481.199364 -55.485317 
L 481.198485 -57.446076 
L 481.195872 -59.406836 
L 481.189612 -61.367595 
L 481.176372 -63.328355 
L 481.151233 -65.289114 
L 481.107945 -67.249874 
L 481.039229 -69.210633 
L 480.935784 -71.171393 
L 480.782605 -73.132152 
L 480.555195 -75.092912 
L 480.225649 -77.053671 
L 479.789138 -79.014431 
L 479.302124 -80.97519 
L 478.894898 -82.93595 
L 478.722887 -84.896709 
L 478.874051 -86.857469 
L 479.305259 -88.818228 
L 479.866109 -90.778988 
L 480.389851 -92.739747 
L 480.775117 -94.700507 
L 481.005727 -96.661266 
L 481.118528 -98.622026 
L 481.161425 -100.582785 
L 481.16991 -102.543545 
L 481.163587 -104.504304 
L 481.151644 -106.465064 
L 481.138444 -108.425823 
L 481.126155 -110.386583 
L 481.114788 -112.347342 
L 481.100966 -114.308102 
L 481.076622 -116.268861 
L 481.027397 -118.229621 
L 480.926795 -120.19038 
L 480.717901 -122.15114 
L 480.276609 -124.111899 
L 479.369192 -126.072659 
L 477.653826 -128.033418 
L 474.801842 -129.994178 
L 470.768351 -131.954937 
L 466.087337 -133.915697 
L 461.906627 -135.876456 
L 459.549128 -137.837216 
L 459.774962 -139.797975 
L 462.290731 -141.758735 
L 465.932799 -143.719494 
L 469.376154 -145.680254 
L 471.79484 -147.641013 
L 473.051168 -149.601773 
L 473.461486 -151.562532 
L 473.455905 -153.523292 
L 473.367504 -155.484051 
L 473.382987 -157.444811 
L 473.578904 -159.40557 
L 473.972052 -161.36633 
L 474.552043 -163.327089 
L 475.291839 -165.287849 
L 476.144907 -167.248608 
L 477.04033 -169.209368 
L 477.880942 -171.170127 
L 478.540709 -173.130887 
L 478.859649 -175.091646 
L 478.654239 -177.052406 
L 477.777696 -179.013165 
L 476.234922 -180.973925 
L 474.273699 -182.934684 
L 472.324619 -184.895444 
L 470.761446 -186.856203 
L 469.653284 -188.816963 
L 468.741439 -190.777722 
L 467.668413 -192.738482 
L 466.234578 -194.699241 
L 464.467194 -196.660001 
L 462.518593 -198.62076 
L 460.556597 -200.58152 
L 458.738151 -202.542279 
L 457.229324 -204.503039 
L 456.209364 -206.463798 
L 455.845295 -208.424558 
L 456.255794 -210.385317 
L 457.480028 -212.346077 
L 459.458349 -214.306836 
L 462.031622 -216.267596 
L 464.96558 -218.228355 
L 467.997635 -220.189115 
L 470.890306 -222.149874 
L 473.470263 -224.110634 
L 475.641195 -226.071393 
L 477.374286 -228.032153 
L 478.689089 -229.992912 
L 479.635294 -231.953672 
L 480.278656 -233.914431 
L 480.689953 -235.875191 
L 481.710047 -235.875191 
L 481.710047 -235.875191 
L 482.121344 -233.914431 
L 482.764706 -231.953672 
L 483.710911 -229.992912 
L 485.025714 -228.032153 
L 486.758805 -226.071393 
L 488.929737 -224.110634 
L 491.509694 -222.149874 
L 494.402365 -220.189115 
L 497.43442 -218.228355 
L 500.368378 -216.267596 
L 502.941651 -214.306836 
L 504.919972 -212.346077 
L 506.144206 -210.385317 
L 506.554705 -208.424558 
L 506.190636 -206.463798 
L 505.170676 -204.503039 
L 503.661849 -202.542279 
L 501.843403 -200.58152 
L 499.881407 -198.62076 
L 497.932806 -196.660001 
L 496.165422 -194.699241 
L 494.731587 -192.738482 
L 493.658561 -190.777722 
L 492.746716 -188.816963 
L 491.638554 -186.856203 
L 490.075381 -184.895444 
L 488.126301 -182.934684 
L 486.165078 -180.973925 
L 484.622304 -179.013165 
L 483.745761 -177.052406 
L 483.540351 -175.091646 
L 483.859291 -173.130887 
L 484.519058 -171.170127 
L 485.35967 -169.209368 
L 486.255093 -167.248608 
L 487.108161 -165.287849 
L 487.847957 -163.327089 
L 488.427948 -161.36633 
L 488.821096 -159.40557 
L 489.017013 -157.444811 
L 489.032496 -155.484051 
L 488.944095 -153.523292 
L 488.938514 -151.562532 
L 489.348832 -149.601773 
L 490.60516 -147.641013 
L 493.023846 -145.680254 
L 496.467201 -143.719494 
L 500.109269 -141.758735 
L 502.625038 -139.797975 
L 502.850872 -137.837216 
L 500.493373 -135.876456 
L 496.312663 -133.915697 
L 491.631649 -131.954937 
L 487.598158 -129.994178 
L 484.746174 -128.033418 
L 483.030808 -126.072659 
L 482.123391 -124.111899 
L 481.682099 -122.15114 
L 481.473205 -120.19038 
L 481.372603 -118.229621 
L 481.323378 -116.268861 
L 481.299034 -114.308102 
L 481.285212 -112.347342 
L 481.273845 -110.386583 
L 481.261556 -108.425823 
L 481.248356 -106.465064 
L 481.236413 -104.504304 
L 481.23009 -102.543545 
L 481.238575 -100.582785 
L 481.281472 -98.622026 
L 481.394273 -96.661266 
L 481.624883 -94.700507 
L 482.010149 -92.739747 
L 482.533891 -90.778988 
L 483.094741 -88.818228 
L 483.525949 -86.857469 
L 483.677113 -84.896709 
L 483.505102 -82.93595 
L 483.097876 -80.97519 
L 482.610862 -79.014431 
L 482.174351 -77.053671 
L 481.844805 -75.092912 
L 481.617395 -73.132152 
L 481.464216 -71.171393 
L 481.360771 -69.210633 
L 481.292055 -67.249874 
L 481.248767 -65.289114 
L 481.223628 -63.328355 
L 481.210388 -61.367595 
L 481.204128 -59.406836 
L 481.201515 -57.446076 
L 481.200636 -55.485317 
L 481.200593 -53.524557 
L 481.201095 -51.563798 
L 481.2021 -49.603038 
L 481.203547 -47.642279 
L 481.205168 -45.681519 
L 481.206478 -43.72076 
L 481.206984 -41.76 
z
" style="stroke: #4c4c4c; stroke-width: 0.5"/>
    </defs>
    <g clip-path="url(#p375f5d910b)">
     <use xlink:href="#m8048f313ff" x="0" y="288" style="fill: #df2020; stroke: #4c4c4c; stroke-width: 0.5"/>
    </g>
   </g>
   <g id="matplotlib.axis_1">
    <g id="xtick_1">
     <g id="line2d_1">
      <defs>
       <path id="m51e0e245f7" d="M 0 0 
L 0 3.5 
" style="stroke: #000000; stroke-width: 0.8"/>
      </defs>
      <g>
       <use xlink:href="#m51e0e245f7" x="109.2" y="256.32" style="stroke: #000000; stroke-width: 0.8"/>
      </g>
     </g>
     <g id="text_1">
      <!-- H3K4me3-H3_Proximal -->
      <g transform="translate(111.820312 377.760625)rotate(-90)scale(0.1 -0.1)">
       <defs>
        <path id="DejaVuSans-48" d="M 628 4666 
L 1259 4666 
L 1259 2753 
L 3553 2753 
L 3553 4666 
L 4184 4666 
L 4184 0 
L 3553 0 
L 3553 2222 
L 1259 2222 
L 1259 0 
L 628 0 
L 628 4666 
z
" transform="scale(0.015625)"/>
        <path id="DejaVuSans-33" d="M 2597 2516 
Q 3050 2419 3304 2112 
Q 3559 1806 3559 1356 
Q 3559 666 3084 287 
Q 2609 -91 1734 -91 
Q 1441 -91 1130 -33 
Q 819 25 488 141 
L 488 750 
Q 750 597 1062 519 
Q 1375 441 1716 441 
Q 2309 441 2620 675 
Q 2931 909 2931 1356 
Q 2931 1769 2642 2001 
Q 2353 2234 1838 2234 
L 1294 2234 
L 1294 2753 
L 1863 2753 
Q 2328 2753 2575 2939 
Q 2822 3125 2822 3475 
Q 2822 3834 2567 4026 
Q 2313 4219 1838 4219 
Q 1578 4219 1281 4162 
Q 984 4106 628 3988 
L 628 4550 
Q 988 4650 1302 4700 
Q 1616 4750 1894 4750 
Q 2613 4750 3031 4423 
Q 3450 4097 3450 3541 
Q 3450 3153 3228 2886 
Q 3006 2619 2597 2516 
z
" transform="scale(0.015625)"/>
        <path id="DejaVuSans-4b" d="M 628 4666 
L 1259 4666 
L 1259 2694 
L 3353 4666 
L 4166 4666 
L 1850 2491 
L 4331 0 
L 3500 0 
L 1259 2247 
L 1259 0 
L 628 0 
L 628 4666 
z
" transform="scale(0.015625)"/>
        <path id="DejaVuSans-34" d="M 2419 4116 
L 825 1625 
L 2419 1625 
L 2419 4116 
z
M 2253 4666 
L 3047 4666 
L 3047 1625 
L 3713 1625 
L 3713 1100 
L 3047 1100 
L 3047 0 
L 2419 0 
L 2419 1100 
L 313 1100 
L 313 1709 
L 2253 4666 
z
" transform="scale(0.015625)"/>
        <path id="DejaVuSans-6d" d="M 3328 2828 
Q 3544 3216 3844 3400 
Q 4144 3584 4550 3584 
Q 5097 3584 5394 3201 
Q 5691 2819 5691 2113 
L 5691 0 
L 5113 0 
L 5113 2094 
Q 5113 2597 4934 2840 
Q 4756 3084 4391 3084 
Q 3944 3084 3684 2787 
Q 3425 2491 3425 1978 
L 3425 0 
L 2847 0 
L 2847 2094 
Q 2847 2600 2669 2842 
Q 2491 3084 2119 3084 
Q 1678 3084 1418 2786 
Q 1159 2488 1159 1978 
L 1159 0 
L 581 0 
L 581 3500 
L 1159 3500 
L 1159 2956 
Q 1356 3278 1631 3431 
Q 1906 3584 2284 3584 
Q 2666 3584 2933 3390 
Q 3200 3197 3328 2828 
z
" transform="scale(0.015625)"/>
        <path id="DejaVuSans-65" d="M 3597 1894 
L 3597 1613 
L 953 1613 
Q 991 1019 1311 708 
Q 1631 397 2203 397 
Q 2534 397 2845 478 
Q 3156 559 3463 722 
L 3463 178 
Q 3153 47 2828 -22 
Q 2503 -91 2169 -91 
Q 1331 -91 842 396 
Q 353 884 353 1716 
Q 353 2575 817 3079 
Q 1281 3584 2069 3584 
Q 2775 3584 3186 3129 
Q 3597 2675 3597 1894 
z
M 3022 2063 
Q 3016 2534 2758 2815 
Q 2500 3097 2075 3097 
Q 1594 3097 1305 2825 
Q 1016 2553 972 2059 
L 3022 2063 
z
" transform="scale(0.015625)"/>
        <path id="DejaVuSans-2d" d="M 313 2009 
L 1997 2009 
L 1997 1497 
L 313 1497 
L 313 2009 
z
" transform="scale(0.015625)"/>
        <path id="DejaVuSans-5f" d="M 3263 -1063 
L 3263 -1509 
L -63 -1509 
L -63 -1063 
L 3263 -1063 
z
" transform="scale(0.015625)"/>
        <path id="DejaVuSans-50" d="M 1259 4147 
L 1259 2394 
L 2053 2394 
Q 2494 2394 2734 2622 
Q 2975 2850 2975 3272 
Q 2975 3691 2734 3919 
Q 2494 4147 2053 4147 
L 1259 4147 
z
M 628 4666 
L 2053 4666 
Q 2838 4666 3239 4311 
Q 3641 3956 3641 3272 
Q 3641 2581 3239 2228 
Q 2838 1875 2053 1875 
L 1259 1875 
L 1259 0 
L 628 0 
L 628 4666 
z
" transform="scale(0.015625)"/>
        <path id="DejaVuSans-72" d="M 2631 2963 
Q 2534 3019 2420 3045 
Q 2306 3072 2169 3072 
Q 1681 3072 1420 2755 
Q 1159 2438 1159 1844 
L 1159 0 
L 581 0 
L 581 3500 
L 1159 3500 
L 1159 2956 
Q 1341 3275 1631 3429 
Q 1922 3584 2338 3584 
Q 2397 3584 2469 3576 
Q 2541 3569 2628 3553 
L 2631 2963 
z
" transform="scale(0.015625)"/>
        <path id="DejaVuSans-6f" d="M 1959 3097 
Q 1497 3097 1228 2736 
Q 959 2375 959 1747 
Q 959 1119 1226 758 
Q 1494 397 1959 397 
Q 2419 397 2687 759 
Q 2956 1122 2956 1747 
Q 2956 2369 2687 2733 
Q 2419 3097 1959 3097 
z
M 1959 3584 
Q 2709 3584 3137 3096 
Q 3566 2609 3566 1747 
Q 3566 888 3137 398 
Q 2709 -91 1959 -91 
Q 1206 -91 779 398 
Q 353 888 353 1747 
Q 353 2609 779 3096 
Q 1206 3584 1959 3584 
z
" transform="scale(0.015625)"/>
        <path id="DejaVuSans-78" d="M 3513 3500 
L 2247 1797 
L 3578 0 
L 2900 0 
L 1881 1375 
L 863 0 
L 184 0 
L 1544 1831 
L 300 3500 
L 978 3500 
L 1906 2253 
L 2834 3500 
L 3513 3500 
z
" transform="scale(0.015625)"/>
        <path id="DejaVuSans-69" d="M 603 3500 
L 1178 3500 
L 1178 0 
L 603 0 
L 603 3500 
z
M 603 4863 
L 1178 4863 
L 1178 4134 
L 603 4134 
L 603 4863 
z
" transform="scale(0.015625)"/>
        <path id="DejaVuSans-61" d="M 2194 1759 
Q 1497 1759 1228 1600 
Q 959 1441 959 1056 
Q 959 750 1161 570 
Q 1363 391 1709 391 
Q 2188 391 2477 730 
Q 2766 1069 2766 1631 
L 2766 1759 
L 2194 1759 
z
M 3341 1997 
L 3341 0 
L 2766 0 
L 2766 531 
Q 2569 213 2275 61 
Q 1981 -91 1556 -91 
Q 1019 -91 701 211 
Q 384 513 384 1019 
Q 384 1609 779 1909 
Q 1175 2209 1959 2209 
L 2766 2209 
L 2766 2266 
Q 2766 2663 2505 2880 
Q 2244 3097 1772 3097 
Q 1472 3097 1187 3025 
Q 903 2953 641 2809 
L 641 3341 
Q 956 3463 1253 3523 
Q 1550 3584 1831 3584 
Q 2591 3584 2966 3190 
Q 3341 2797 3341 1997 
z
" transform="scale(0.015625)"/>
        <path id="DejaVuSans-6c" d="M 603 4863 
L 1178 4863 
L 1178 0 
L 603 0 
L 603 4863 
z
" transform="scale(0.015625)"/>
       </defs>
       <use xlink:href="#DejaVuSans-48"/>
       <use xlink:href="#DejaVuSans-33" x="75.195312"/>
       <use xlink:href="#DejaVuSans-4b" x="138.818359"/>
       <use xlink:href="#DejaVuSans-34" x="204.394531"/>
       <use xlink:href="#DejaVuSans-6d" x="268.017578"/>
       <use xlink:href="#DejaVuSans-65" x="365.429688"/>
       <use xlink:href="#DejaVuSans-33" x="426.953125"/>
       <use xlink:href="#DejaVuSans-2d" x="490.576172"/>
       <use xlink:href="#DejaVuSans-48" x="526.660156"/>
       <use xlink:href="#DejaVuSans-33" x="601.855469"/>
       <use xlink:href="#DejaVuSans-5f" x="665.478516"/>
       <use xlink:href="#DejaVuSans-50" x="715.478516"/>
       <use xlink:href="#DejaVuSans-72" x="774.03125"/>
       <use xlink:href="#DejaVuSans-6f" x="812.894531"/>
       <use xlink:href="#DejaVuSans-78" x="870.951172"/>
       <use xlink:href="#DejaVuSans-69" x="930.130859"/>
       <use xlink:href="#DejaVuSans-6d" x="957.914062"/>
       <use xlink:href="#DejaVuSans-61" x="1055.326172"/>
       <use xlink:href="#DejaVuSans-6c" x="1116.605469"/>
      </g>
     </g>
    </g>
    <g id="xtick_2">
     <g id="line2d_2">
      <g>
       <use xlink:href="#m51e0e245f7" x="183.6" y="256.32" style="stroke: #000000; stroke-width: 0.8"/>
      </g>
     </g>
     <g id="text_2">
      <!-- H3K4me3-H3_Distal -->
      <g transform="translate(186.220312 363.384063)rotate(-90)scale(0.1 -0.1)">
       <defs>
        <path id="DejaVuSans-44" d="M 1259 4147 
L 1259 519 
L 2022 519 
Q 2988 519 3436 956 
Q 3884 1394 3884 2338 
Q 3884 3275 3436 3711 
Q 2988 4147 2022 4147 
L 1259 4147 
z
M 628 4666 
L 1925 4666 
Q 3281 4666 3915 4102 
Q 4550 3538 4550 2338 
Q 4550 1131 3912 565 
Q 3275 0 1925 0 
L 628 0 
L 628 4666 
z
" transform="scale(0.015625)"/>
        <path id="DejaVuSans-73" d="M 2834 3397 
L 2834 2853 
Q 2591 2978 2328 3040 
Q 2066 3103 1784 3103 
Q 1356 3103 1142 2972 
Q 928 2841 928 2578 
Q 928 2378 1081 2264 
Q 1234 2150 1697 2047 
L 1894 2003 
Q 2506 1872 2764 1633 
Q 3022 1394 3022 966 
Q 3022 478 2636 193 
Q 2250 -91 1575 -91 
Q 1294 -91 989 -36 
Q 684 19 347 128 
L 347 722 
Q 666 556 975 473 
Q 1284 391 1588 391 
Q 1994 391 2212 530 
Q 2431 669 2431 922 
Q 2431 1156 2273 1281 
Q 2116 1406 1581 1522 
L 1381 1569 
Q 847 1681 609 1914 
Q 372 2147 372 2553 
Q 372 3047 722 3315 
Q 1072 3584 1716 3584 
Q 2034 3584 2315 3537 
Q 2597 3491 2834 3397 
z
" transform="scale(0.015625)"/>
        <path id="DejaVuSans-74" d="M 1172 4494 
L 1172 3500 
L 2356 3500 
L 2356 3053 
L 1172 3053 
L 1172 1153 
Q 1172 725 1289 603 
Q 1406 481 1766 481 
L 2356 481 
L 2356 0 
L 1766 0 
Q 1100 0 847 248 
Q 594 497 594 1153 
L 594 3053 
L 172 3053 
L 172 3500 
L 594 3500 
L 594 4494 
L 1172 4494 
z
" transform="scale(0.015625)"/>
       </defs>
       <use xlink:href="#DejaVuSans-48"/>
       <use xlink:href="#DejaVuSans-33" x="75.195312"/>
       <use xlink:href="#DejaVuSans-4b" x="138.818359"/>
       <use xlink:href="#DejaVuSans-34" x="204.394531"/>
       <use xlink:href="#DejaVuSans-6d" x="268.017578"/>
       <use xlink:href="#DejaVuSans-65" x="365.429688"/>
       <use xlink:href="#DejaVuSans-33" x="426.953125"/>
       <use xlink:href="#DejaVuSans-2d" x="490.576172"/>
       <use xlink:href="#DejaVuSans-48" x="526.660156"/>
       <use xlink:href="#DejaVuSans-33" x="601.855469"/>
       <use xlink:href="#DejaVuSans-5f" x="665.478516"/>
       <use xlink:href="#DejaVuSans-44" x="715.478516"/>
       <use xlink:href="#DejaVuSans-69" x="792.480469"/>
       <use xlink:href="#DejaVuSans-73" x="820.263672"/>
       <use xlink:href="#DejaVuSans-74" x="872.363281"/>
       <use xlink:href="#DejaVuSans-61" x="911.572266"/>
       <use xlink:href="#DejaVuSans-6c" x="972.851562"/>
      </g>
     </g>
    </g>
    <g id="xtick_3">
     <g id="line2d_3">
      <g>
       <use xlink:href="#m51e0e245f7" x="258" y="256.32" style="stroke: #000000; stroke-width: 0.8"/>
      </g>
     </g>
     <g id="text_3">
      <!-- H3K9ac-H3_Proximal -->
      <g transform="translate(260.620313 367.130938)rotate(-90)scale(0.1 -0.1)">
       <defs>
        <path id="DejaVuSans-39" d="M 703 97 
L 703 672 
Q 941 559 1184 500 
Q 1428 441 1663 441 
Q 2288 441 2617 861 
Q 2947 1281 2994 2138 
Q 2813 1869 2534 1725 
Q 2256 1581 1919 1581 
Q 1219 1581 811 2004 
Q 403 2428 403 3163 
Q 403 3881 828 4315 
Q 1253 4750 1959 4750 
Q 2769 4750 3195 4129 
Q 3622 3509 3622 2328 
Q 3622 1225 3098 567 
Q 2575 -91 1691 -91 
Q 1453 -91 1209 -44 
Q 966 3 703 97 
z
M 1959 2075 
Q 2384 2075 2632 2365 
Q 2881 2656 2881 3163 
Q 2881 3666 2632 3958 
Q 2384 4250 1959 4250 
Q 1534 4250 1286 3958 
Q 1038 3666 1038 3163 
Q 1038 2656 1286 2365 
Q 1534 2075 1959 2075 
z
" transform="scale(0.015625)"/>
        <path id="DejaVuSans-63" d="M 3122 3366 
L 3122 2828 
Q 2878 2963 2633 3030 
Q 2388 3097 2138 3097 
Q 1578 3097 1268 2742 
Q 959 2388 959 1747 
Q 959 1106 1268 751 
Q 1578 397 2138 397 
Q 2388 397 2633 464 
Q 2878 531 3122 666 
L 3122 134 
Q 2881 22 2623 -34 
Q 2366 -91 2075 -91 
Q 1284 -91 818 406 
Q 353 903 353 1747 
Q 353 2603 823 3093 
Q 1294 3584 2113 3584 
Q 2378 3584 2631 3529 
Q 2884 3475 3122 3366 
z
" transform="scale(0.015625)"/>
       </defs>
       <use xlink:href="#DejaVuSans-48"/>
       <use xlink:href="#DejaVuSans-33" x="75.195312"/>
       <use xlink:href="#DejaVuSans-4b" x="138.818359"/>
       <use xlink:href="#DejaVuSans-39" x="204.394531"/>
       <use xlink:href="#DejaVuSans-61" x="268.017578"/>
       <use xlink:href="#DejaVuSans-63" x="329.296875"/>
       <use xlink:href="#DejaVuSans-2d" x="384.277344"/>
       <use xlink:href="#DejaVuSans-48" x="420.361328"/>
       <use xlink:href="#DejaVuSans-33" x="495.556641"/>
       <use xlink:href="#DejaVuSans-5f" x="559.179688"/>
       <use xlink:href="#DejaVuSans-50" x="609.179688"/>
       <use xlink:href="#DejaVuSans-72" x="667.732422"/>
       <use xlink:href="#DejaVuSans-6f" x="706.595703"/>
       <use xlink:href="#DejaVuSans-78" x="764.652344"/>
       <use xlink:href="#DejaVuSans-69" x="823.832031"/>
       <use xlink:href="#DejaVuSans-6d" x="851.615234"/>
       <use xlink:href="#DejaVuSans-61" x="949.027344"/>
       <use xlink:href="#DejaVuSans-6c" x="1010.306641"/>
      </g>
     </g>
    </g>
    <g id="xtick_4">
     <g id="line2d_4">
      <g>
       <use xlink:href="#m51e0e245f7" x="332.4" y="256.32" style="stroke: #000000; stroke-width: 0.8"/>
      </g>
     </g>
     <g id="text_4">
      <!-- H3K9ac-H3_Distal -->
      <g transform="translate(335.020312 352.754375)rotate(-90)scale(0.1 -0.1)">
       <use xlink:href="#DejaVuSans-48"/>
       <use xlink:href="#DejaVuSans-33" x="75.195312"/>
       <use xlink:href="#DejaVuSans-4b" x="138.818359"/>
       <use xlink:href="#DejaVuSans-39" x="204.394531"/>
       <use xlink:href="#DejaVuSans-61" x="268.017578"/>
       <use xlink:href="#DejaVuSans-63" x="329.296875"/>
       <use xlink:href="#DejaVuSans-2d" x="384.277344"/>
       <use xlink:href="#DejaVuSans-48" x="420.361328"/>
       <use xlink:href="#DejaVuSans-33" x="495.556641"/>
       <use xlink:href="#DejaVuSans-5f" x="559.179688"/>
       <use xlink:href="#DejaVuSans-44" x="609.179688"/>
       <use xlink:href="#DejaVuSans-69" x="686.181641"/>
       <use xlink:href="#DejaVuSans-73" x="713.964844"/>
       <use xlink:href="#DejaVuSans-74" x="766.064453"/>
       <use xlink:href="#DejaVuSans-61" x="805.273438"/>
       <use xlink:href="#DejaVuSans-6c" x="866.552734"/>
      </g>
     </g>
    </g>
    <g id="xtick_5">
     <g id="line2d_5">
      <g>
       <use xlink:href="#m51e0e245f7" x="406.8" y="256.32" style="stroke: #000000; stroke-width: 0.8"/>
      </g>
     </g>
     <g id="text_5">
      <!-- H3K27ac-H3_Proximal -->
      <g transform="translate(409.420312 373.493438)rotate(-90)scale(0.1 -0.1)">
       <defs>
        <path id="DejaVuSans-32" d="M 1228 531 
L 3431 531 
L 3431 0 
L 469 0 
L 469 531 
Q 828 903 1448 1529 
Q 2069 2156 2228 2338 
Q 2531 2678 2651 2914 
Q 2772 3150 2772 3378 
Q 2772 3750 2511 3984 
Q 2250 4219 1831 4219 
Q 1534 4219 1204 4116 
Q 875 4013 500 3803 
L 500 4441 
Q 881 4594 1212 4672 
Q 1544 4750 1819 4750 
Q 2544 4750 2975 4387 
Q 3406 4025 3406 3419 
Q 3406 3131 3298 2873 
Q 3191 2616 2906 2266 
Q 2828 2175 2409 1742 
Q 1991 1309 1228 531 
z
" transform="scale(0.015625)"/>
        <path id="DejaVuSans-37" d="M 525 4666 
L 3525 4666 
L 3525 4397 
L 1831 0 
L 1172 0 
L 2766 4134 
L 525 4134 
L 525 4666 
z
" transform="scale(0.015625)"/>
       </defs>
       <use xlink:href="#DejaVuSans-48"/>
       <use xlink:href="#DejaVuSans-33" x="75.195312"/>
       <use xlink:href="#DejaVuSans-4b" x="138.818359"/>
       <use xlink:href="#DejaVuSans-32" x="204.394531"/>
       <use xlink:href="#DejaVuSans-37" x="268.017578"/>
       <use xlink:href="#DejaVuSans-61" x="331.640625"/>
       <use xlink:href="#DejaVuSans-63" x="392.919922"/>
       <use xlink:href="#DejaVuSans-2d" x="447.900391"/>
       <use xlink:href="#DejaVuSans-48" x="483.984375"/>
       <use xlink:href="#DejaVuSans-33" x="559.179688"/>
       <use xlink:href="#DejaVuSans-5f" x="622.802734"/>
       <use xlink:href="#DejaVuSans-50" x="672.802734"/>
       <use xlink:href="#DejaVuSans-72" x="731.355469"/>
       <use xlink:href="#DejaVuSans-6f" x="770.21875"/>
       <use xlink:href="#DejaVuSans-78" x="828.275391"/>
       <use xlink:href="#DejaVuSans-69" x="887.455078"/>
       <use xlink:href="#DejaVuSans-6d" x="915.238281"/>
       <use xlink:href="#DejaVuSans-61" x="1012.650391"/>
       <use xlink:href="#DejaVuSans-6c" x="1073.929688"/>
      </g>
     </g>
    </g>
    <g id="xtick_6">
     <g id="line2d_6">
      <g>
       <use xlink:href="#m51e0e245f7" x="481.2" y="256.32" style="stroke: #000000; stroke-width: 0.8"/>
      </g>
     </g>
     <g id="text_6">
      <!-- H3K27ac-H3_Distal -->
      <g transform="translate(483.820312 359.116875)rotate(-90)scale(0.1 -0.1)">
       <use xlink:href="#DejaVuSans-48"/>
       <use xlink:href="#DejaVuSans-33" x="75.195312"/>
       <use xlink:href="#DejaVuSans-4b" x="138.818359"/>
       <use xlink:href="#DejaVuSans-32" x="204.394531"/>
       <use xlink:href="#DejaVuSans-37" x="268.017578"/>
       <use xlink:href="#DejaVuSans-61" x="331.640625"/>
       <use xlink:href="#DejaVuSans-63" x="392.919922"/>
       <use xlink:href="#DejaVuSans-2d" x="447.900391"/>
       <use xlink:href="#DejaVuSans-48" x="483.984375"/>
       <use xlink:href="#DejaVuSans-33" x="559.179688"/>
       <use xlink:href="#DejaVuSans-5f" x="622.802734"/>
       <use xlink:href="#DejaVuSans-44" x="672.802734"/>
       <use xlink:href="#DejaVuSans-69" x="749.804688"/>
       <use xlink:href="#DejaVuSans-73" x="777.587891"/>
       <use xlink:href="#DejaVuSans-74" x="829.6875"/>
       <use xlink:href="#DejaVuSans-61" x="868.896484"/>
       <use xlink:href="#DejaVuSans-6c" x="930.175781"/>
      </g>
     </g>
    </g>
    <g id="text_7">
     <!-- modification -->
     <g transform="translate(264.167188 389.359063)scale(0.1 -0.1)">
      <defs>
       <path id="DejaVuSans-64" d="M 2906 2969 
L 2906 4863 
L 3481 4863 
L 3481 0 
L 2906 0 
L 2906 525 
Q 2725 213 2448 61 
Q 2172 -91 1784 -91 
Q 1150 -91 751 415 
Q 353 922 353 1747 
Q 353 2572 751 3078 
Q 1150 3584 1784 3584 
Q 2172 3584 2448 3432 
Q 2725 3281 2906 2969 
z
M 947 1747 
Q 947 1113 1208 752 
Q 1469 391 1925 391 
Q 2381 391 2643 752 
Q 2906 1113 2906 1747 
Q 2906 2381 2643 2742 
Q 2381 3103 1925 3103 
Q 1469 3103 1208 2742 
Q 947 2381 947 1747 
z
" transform="scale(0.015625)"/>
       <path id="DejaVuSans-66" d="M 2375 4863 
L 2375 4384 
L 1825 4384 
Q 1516 4384 1395 4259 
Q 1275 4134 1275 3809 
L 1275 3500 
L 2222 3500 
L 2222 3053 
L 1275 3053 
L 1275 0 
L 697 0 
L 697 3053 
L 147 3053 
L 147 3500 
L 697 3500 
L 697 3744 
Q 697 4328 969 4595 
Q 1241 4863 1831 4863 
L 2375 4863 
z
" transform="scale(0.015625)"/>
       <path id="DejaVuSans-6e" d="M 3513 2113 
L 3513 0 
L 2938 0 
L 2938 2094 
Q 2938 2591 2744 2837 
Q 2550 3084 2163 3084 
Q 1697 3084 1428 2787 
Q 1159 2491 1159 1978 
L 1159 0 
L 581 0 
L 581 3500 
L 1159 3500 
L 1159 2956 
Q 1366 3272 1645 3428 
Q 1925 3584 2291 3584 
Q 2894 3584 3203 3211 
Q 3513 2838 3513 2113 
z
" transform="scale(0.015625)"/>
      </defs>
      <use xlink:href="#DejaVuSans-6d"/>
      <use xlink:href="#DejaVuSans-6f" x="97.412109"/>
      <use xlink:href="#DejaVuSans-64" x="158.59375"/>
      <use xlink:href="#DejaVuSans-69" x="222.070312"/>
      <use xlink:href="#DejaVuSans-66" x="249.853516"/>
      <use xlink:href="#DejaVuSans-69" x="285.058594"/>
      <use xlink:href="#DejaVuSans-63" x="312.841797"/>
      <use xlink:href="#DejaVuSans-61" x="367.822266"/>
      <use xlink:href="#DejaVuSans-74" x="429.101562"/>
      <use xlink:href="#DejaVuSans-69" x="468.310547"/>
      <use xlink:href="#DejaVuSans-6f" x="496.09375"/>
      <use xlink:href="#DejaVuSans-6e" x="557.275391"/>
     </g>
    </g>
   </g>
   <g id="matplotlib.axis_2">
    <g id="ytick_1">
     <g id="line2d_7">
      <defs>
       <path id="m613ddce506" d="M 0 0 
L -3.5 0 
" style="stroke: #000000; stroke-width: 0.8"/>
      </defs>
      <g>
       <use xlink:href="#m613ddce506" x="72" y="231.682284" style="stroke: #000000; stroke-width: 0.8"/>
      </g>
     </g>
     <g id="text_8">
      <!-- 10 -->
      <g transform="translate(43.895313 235.481503)scale(0.1 -0.1)">
       <defs>
        <path id="DejaVuSans-2212" d="M 678 2272 
L 4684 2272 
L 4684 1741 
L 678 1741 
L 678 2272 
z
" transform="scale(0.015625)"/>
        <path id="DejaVuSans-31" d="M 794 531 
L 1825 531 
L 1825 4091 
L 703 3866 
L 703 4441 
L 1819 4666 
L 2450 4666 
L 2450 531 
L 3481 531 
L 3481 0 
L 794 0 
L 794 531 
z
" transform="scale(0.015625)"/>
        <path id="DejaVuSans-30" d="M 2034 4250 
Q 1547 4250 1301 3770 
Q 1056 3291 1056 2328 
Q 1056 1369 1301 889 
Q 1547 409 2034 409 
Q 2525 409 2770 889 
Q 3016 1369 3016 2328 
Q 3016 3291 2770 3770 
Q 2525 4250 2034 4250 
z
M 2034 4750 
Q 2819 4750 3233 4129 
Q 3647 3509 3647 2328 
Q 3647 1150 3233 529 
Q 2819 -91 2034 -91 
Q 1250 -91 836 529 
Q 422 1150 422 2328 
Q 422 3509 836 4129 
Q 1250 4750 2034 4750 
z
" transform="scale(0.015625)"/>
       </defs>
       <use xlink:href="#DejaVuSans-2212"/>
       <use xlink:href="#DejaVuSans-31" x="83.789062"/>
       <use xlink:href="#DejaVuSans-30" x="147.412109"/>
      </g>
     </g>
    </g>
    <g id="ytick_2">
     <g id="line2d_8">
      <g>
       <use xlink:href="#m613ddce506" x="72" y="190.656142" style="stroke: #000000; stroke-width: 0.8"/>
      </g>
     </g>
     <g id="text_9">
      <!-- 5 -->
      <g transform="translate(50.257812 194.455361)scale(0.1 -0.1)">
       <defs>
        <path id="DejaVuSans-35" d="M 691 4666 
L 3169 4666 
L 3169 4134 
L 1269 4134 
L 1269 2991 
Q 1406 3038 1543 3061 
Q 1681 3084 1819 3084 
Q 2600 3084 3056 2656 
Q 3513 2228 3513 1497 
Q 3513 744 3044 326 
Q 2575 -91 1722 -91 
Q 1428 -91 1123 -41 
Q 819 9 494 109 
L 494 744 
Q 775 591 1075 516 
Q 1375 441 1709 441 
Q 2250 441 2565 725 
Q 2881 1009 2881 1497 
Q 2881 1984 2565 2268 
Q 2250 2553 1709 2553 
Q 1456 2553 1204 2497 
Q 953 2441 691 2322 
L 691 4666 
z
" transform="scale(0.015625)"/>
       </defs>
       <use xlink:href="#DejaVuSans-2212"/>
       <use xlink:href="#DejaVuSans-35" x="83.789062"/>
      </g>
     </g>
    </g>
    <g id="ytick_3">
     <g id="line2d_9">
      <g>
       <use xlink:href="#m613ddce506" x="72" y="149.63" style="stroke: #000000; stroke-width: 0.8"/>
      </g>
     </g>
     <g id="text_10">
      <!-- 0 -->
      <g transform="translate(58.6375 153.429219)scale(0.1 -0.1)">
       <use xlink:href="#DejaVuSans-30"/>
      </g>
     </g>
    </g>
    <g id="ytick_4">
     <g id="line2d_10">
      <g>
       <use xlink:href="#m613ddce506" x="72" y="108.603858" style="stroke: #000000; stroke-width: 0.8"/>
      </g>
     </g>
     <g id="text_11">
      <!-- 5 -->
      <g transform="translate(58.6375 112.403077)scale(0.1 -0.1)">
       <use xlink:href="#DejaVuSans-35"/>
      </g>
     </g>
    </g>
    <g id="ytick_5">
     <g id="line2d_11">
      <g>
       <use xlink:href="#m613ddce506" x="72" y="67.577716" style="stroke: #000000; stroke-width: 0.8"/>
      </g>
     </g>
     <g id="text_12">
      <!-- 10 -->
      <g transform="translate(52.275 71.376935)scale(0.1 -0.1)">
       <use xlink:href="#DejaVuSans-31"/>
       <use xlink:href="#DejaVuSans-30" x="63.623047"/>
      </g>
     </g>
    </g>
    <g id="text_13">
     <!-- Density (log2) -->
     <g transform="translate(37.815625 180.743125)rotate(-90)scale(0.1 -0.1)">
      <defs>
       <path id="DejaVuSans-79" d="M 2059 -325 
Q 1816 -950 1584 -1140 
Q 1353 -1331 966 -1331 
L 506 -1331 
L 506 -850 
L 844 -850 
Q 1081 -850 1212 -737 
Q 1344 -625 1503 -206 
L 1606 56 
L 191 3500 
L 800 3500 
L 1894 763 
L 2988 3500 
L 3597 3500 
L 2059 -325 
z
" transform="scale(0.015625)"/>
       <path id="DejaVuSans-20" transform="scale(0.015625)"/>
       <path id="DejaVuSans-28" d="M 1984 4856 
Q 1566 4138 1362 3434 
Q 1159 2731 1159 2009 
Q 1159 1288 1364 580 
Q 1569 -128 1984 -844 
L 1484 -844 
Q 1016 -109 783 600 
Q 550 1309 550 2009 
Q 550 2706 781 3412 
Q 1013 4119 1484 4856 
L 1984 4856 
z
" transform="scale(0.015625)"/>
       <path id="DejaVuSans-67" d="M 2906 1791 
Q 2906 2416 2648 2759 
Q 2391 3103 1925 3103 
Q 1463 3103 1205 2759 
Q 947 2416 947 1791 
Q 947 1169 1205 825 
Q 1463 481 1925 481 
Q 2391 481 2648 825 
Q 2906 1169 2906 1791 
z
M 3481 434 
Q 3481 -459 3084 -895 
Q 2688 -1331 1869 -1331 
Q 1566 -1331 1297 -1286 
Q 1028 -1241 775 -1147 
L 775 -588 
Q 1028 -725 1275 -790 
Q 1522 -856 1778 -856 
Q 2344 -856 2625 -561 
Q 2906 -266 2906 331 
L 2906 616 
Q 2728 306 2450 153 
Q 2172 0 1784 0 
Q 1141 0 747 490 
Q 353 981 353 1791 
Q 353 2603 747 3093 
Q 1141 3584 1784 3584 
Q 2172 3584 2450 3431 
Q 2728 3278 2906 2969 
L 2906 3500 
L 3481 3500 
L 3481 434 
z
" transform="scale(0.015625)"/>
       <path id="DejaVuSans-29" d="M 513 4856 
L 1013 4856 
Q 1481 4119 1714 3412 
Q 1947 2706 1947 2009 
Q 1947 1309 1714 600 
Q 1481 -109 1013 -844 
L 513 -844 
Q 928 -128 1133 580 
Q 1338 1288 1338 2009 
Q 1338 2731 1133 3434 
Q 928 4138 513 4856 
z
" transform="scale(0.015625)"/>
      </defs>
      <use xlink:href="#DejaVuSans-44"/>
      <use xlink:href="#DejaVuSans-65" x="77.001953"/>
      <use xlink:href="#DejaVuSans-6e" x="138.525391"/>
      <use xlink:href="#DejaVuSans-73" x="201.904297"/>
      <use xlink:href="#DejaVuSans-69" x="254.003906"/>
      <use xlink:href="#DejaVuSans-74" x="281.787109"/>
      <use xlink:href="#DejaVuSans-79" x="320.996094"/>
      <use xlink:href="#DejaVuSans-20" x="380.175781"/>
      <use xlink:href="#DejaVuSans-28" x="411.962891"/>
      <use xlink:href="#DejaVuSans-6c" x="450.976562"/>
      <use xlink:href="#DejaVuSans-6f" x="478.759766"/>
      <use xlink:href="#DejaVuSans-67" x="539.941406"/>
      <use xlink:href="#DejaVuSans-32" x="603.417969"/>
      <use xlink:href="#DejaVuSans-29" x="667.041016"/>
     </g>
    </g>
   </g>
   <g id="line2d_12">
    <path d="M 109.2 210.841824 
L 109.2 45.778065 
" clip-path="url(#p375f5d910b)" style="fill: none; stroke: #4c4c4c; stroke-width: 0.5; stroke-linecap: square"/>
   </g>
   <g id="line2d_13">
    <path d="M 109.2 128.341576 
L 109.2 70.935706 
" clip-path="url(#p375f5d910b)" style="fill: none; stroke: #4c4c4c; stroke-width: 1.5; stroke-linecap: square"/>
   </g>
   <g id="line2d_14">
    <path d="M 183.6 202.703633 
L 183.6 44.64 
" clip-path="url(#p375f5d910b)" style="fill: none; stroke: #4c4c4c; stroke-width: 0.5; stroke-linecap: square"/>
   </g>
   <g id="line2d_15">
    <path d="M 183.6 124.009338 
L 183.6 68.480619 
" clip-path="url(#p375f5d910b)" style="fill: none; stroke: #4c4c4c; stroke-width: 1.5; stroke-linecap: square"/>
   </g>
   <g id="line2d_16">
    <path d="M 258 223.8019 
L 258 50.756177 
" clip-path="url(#p375f5d910b)" style="fill: none; stroke: #4c4c4c; stroke-width: 0.5; stroke-linecap: square"/>
   </g>
   <g id="line2d_17">
    <path d="M 258 149.63 
L 258 81.384654 
" clip-path="url(#p375f5d910b)" style="fill: none; stroke: #4c4c4c; stroke-width: 1.5; stroke-linecap: square"/>
   </g>
   <g id="line2d_18">
    <path d="M 332.4 238.038054 
L 332.4 50.756177 
" clip-path="url(#p375f5d910b)" style="fill: none; stroke: #4c4c4c; stroke-width: 0.5; stroke-linecap: square"/>
   </g>
   <g id="line2d_19">
    <path d="M 332.4 149.63 
L 332.4 77.98851 
" clip-path="url(#p375f5d910b)" style="fill: none; stroke: #4c4c4c; stroke-width: 1.5; stroke-linecap: square"/>
   </g>
   <g id="line2d_20">
    <path d="M 406.8 219.013411 
L 406.8 53.67888 
" clip-path="url(#p375f5d910b)" style="fill: none; stroke: #4c4c4c; stroke-width: 0.5; stroke-linecap: square"/>
   </g>
   <g id="line2d_21">
    <path d="M 406.8 149.63 
L 406.8 82.450021 
" clip-path="url(#p375f5d910b)" style="fill: none; stroke: #4c4c4c; stroke-width: 1.5; stroke-linecap: square"/>
   </g>
   <g id="line2d_22">
    <path d="M 481.2 219.013411 
L 481.2 52.124809 
" clip-path="url(#p375f5d910b)" style="fill: none; stroke: #4c4c4c; stroke-width: 0.5; stroke-linecap: square"/>
   </g>
   <g id="line2d_23">
    <path d="M 481.2 143.66187 
L 481.2 80.298528 
" clip-path="url(#p375f5d910b)" style="fill: none; stroke: #4c4c4c; stroke-width: 1.5; stroke-linecap: square"/>
   </g>
   <g id="patch_3">
    <path d="M 72 256.32 
L 72 34.56 
" style="fill: none; stroke: #000000; stroke-width: 0.8; stroke-linejoin: miter; stroke-linecap: square"/>
   </g>
   <g id="patch_4">
    <path d="M 518.4 256.32 
L 518.4 34.56 
" style="fill: none; stroke: #000000; stroke-width: 0.8; stroke-linejoin: miter; stroke-linecap: square"/>
   </g>
   <g id="patch_5">
    <path d="M 72 256.32 
L 518.4 256.32 
" style="fill: none; stroke: #000000; stroke-width: 0.8; stroke-linejoin: miter; stroke-linecap: square"/>
   </g>
   <g id="patch_6">
    <path d="M 72 34.56 
L 518.4 34.56 
" style="fill: none; stroke: #000000; stroke-width: 0.8; stroke-linejoin: miter; stroke-linecap: square"/>
   </g>
   <g id="PathCollection_1">
    <defs>
     <path id="md7d4c42074" d="M 0 0.5 
C 0.132602 0.5 0.25979 0.447317 0.353553 0.353553 
C 0.447317 0.25979 0.5 0.132602 0.5 0 
C 0.5 -0.132602 0.447317 -0.25979 0.353553 -0.353553 
C 0.25979 -0.447317 0.132602 -0.5 0 -0.5 
C -0.132602 -0.5 -0.25979 -0.447317 -0.353553 -0.353553 
C -0.447317 -0.25979 -0.5 -0.132602 -0.5 0 
C -0.5 0.132602 -0.447317 0.25979 -0.353553 0.353553 
C -0.25979 0.447317 -0.132602 0.5 0 0.5 
z
" style="stroke: #4c4c4c"/>
    </defs>
    <g clip-path="url(#p375f5d910b)">
     <use xlink:href="#md7d4c42074" x="109.2" y="82.222161" style="fill: #ffffff; stroke: #4c4c4c"/>
    </g>
   </g>
   <g id="PathCollection_2">
    <g clip-path="url(#p375f5d910b)">
     <use xlink:href="#md7d4c42074" x="183.6" y="80.070586" style="fill: #ffffff; stroke: #4c4c4c"/>
    </g>
   </g>
   <g id="PathCollection_3">
    <g clip-path="url(#p375f5d910b)">
     <use xlink:href="#md7d4c42074" x="258" y="94.315683" style="fill: #ffffff; stroke: #4c4c4c"/>
    </g>
   </g>
   <g id="PathCollection_4">
    <g clip-path="url(#p375f5d910b)">
     <use xlink:href="#md7d4c42074" x="332.4" y="94.315683" style="fill: #ffffff; stroke: #4c4c4c"/>
    </g>
   </g>
   <g id="PathCollection_5">
    <g clip-path="url(#p375f5d910b)">
     <use xlink:href="#md7d4c42074" x="406.8" y="101.340672" style="fill: #ffffff; stroke: #4c4c4c"/>
    </g>
   </g>
   <g id="PathCollection_6">
    <g clip-path="url(#p375f5d910b)">
     <use xlink:href="#md7d4c42074" x="481.2" y="93.235957" style="fill: #ffffff; stroke: #4c4c4c"/>
    </g>
   </g>
   <g id="text_14">
    <!-- Density at +1 nucleosome -->
    <g transform="translate(215.5275 28.56)scale(0.12 -0.12)">
     <defs>
      <path id="DejaVuSans-2b" d="M 2944 4013 
L 2944 2272 
L 4684 2272 
L 4684 1741 
L 2944 1741 
L 2944 0 
L 2419 0 
L 2419 1741 
L 678 1741 
L 678 2272 
L 2419 2272 
L 2419 4013 
L 2944 4013 
z
" transform="scale(0.015625)"/>
      <path id="DejaVuSans-75" d="M 544 1381 
L 544 3500 
L 1119 3500 
L 1119 1403 
Q 1119 906 1312 657 
Q 1506 409 1894 409 
Q 2359 409 2629 706 
Q 2900 1003 2900 1516 
L 2900 3500 
L 3475 3500 
L 3475 0 
L 2900 0 
L 2900 538 
Q 2691 219 2414 64 
Q 2138 -91 1772 -91 
Q 1169 -91 856 284 
Q 544 659 544 1381 
z
M 1991 3584 
L 1991 3584 
z
" transform="scale(0.015625)"/>
     </defs>
     <use xlink:href="#DejaVuSans-44"/>
     <use xlink:href="#DejaVuSans-65" x="77.001953"/>
     <use xlink:href="#DejaVuSans-6e" x="138.525391"/>
     <use xlink:href="#DejaVuSans-73" x="201.904297"/>
     <use xlink:href="#DejaVuSans-69" x="254.003906"/>
     <use xlink:href="#DejaVuSans-74" x="281.787109"/>
     <use xlink:href="#DejaVuSans-79" x="320.996094"/>
     <use xlink:href="#DejaVuSans-20" x="380.175781"/>
     <use xlink:href="#DejaVuSans-61" x="411.962891"/>
     <use xlink:href="#DejaVuSans-74" x="473.242188"/>
     <use xlink:href="#DejaVuSans-20" x="512.451172"/>
     <use xlink:href="#DejaVuSans-2b" x="544.238281"/>
     <use xlink:href="#DejaVuSans-31" x="628.027344"/>
     <use xlink:href="#DejaVuSans-20" x="691.650391"/>
     <use xlink:href="#DejaVuSans-6e" x="723.4375"/>
     <use xlink:href="#DejaVuSans-75" x="786.816406"/>
     <use xlink:href="#DejaVuSans-63" x="850.195312"/>
     <use xlink:href="#DejaVuSans-6c" x="905.175781"/>
     <use xlink:href="#DejaVuSans-65" x="932.958984"/>
     <use xlink:href="#DejaVuSans-6f" x="994.482422"/>
     <use xlink:href="#DejaVuSans-73" x="1055.664062"/>
     <use xlink:href="#DejaVuSans-6f" x="1107.763672"/>
     <use xlink:href="#DejaVuSans-6d" x="1168.945312"/>
     <use xlink:href="#DejaVuSans-65" x="1266.357422"/>
    </g>
   </g>
  </g>
 </g>
 <defs>
  <clipPath id="p375f5d910b">
   <rect x="72" y="34.56" width="446.4" height="221.76"/>
  </clipPath>
 </defs>
</svg>
