<?xml version="1.0" encoding="utf-8" standalone="no"?>
<!DOCTYPE svg PUBLIC "-//W3C//DTD SVG 1.1//EN"
  "http://www.w3.org/Graphics/SVG/1.1/DTD/svg11.dtd">
<!-- Created with matplotlib (https://matplotlib.org/) -->
<svg height="288pt" version="1.1" viewBox="0 0 216 288" width="216pt" xmlns="http://www.w3.org/2000/svg" xmlns:xlink="http://www.w3.org/1999/xlink">
 <metadata>
  <rdf:RDF xmlns:cc="http://creativecommons.org/ns#" xmlns:dc="http://purl.org/dc/elements/1.1/" xmlns:rdf="http://www.w3.org/1999/02/22-rdf-syntax-ns#">
   <cc:Work>
    <dc:type rdf:resource="http://purl.org/dc/dcmitype/StillImage"/>
    <dc:date>2024-11-24T20:56:15.073031</dc:date>
    <dc:format>image/svg+xml</dc:format>
    <dc:creator>
     <cc:Agent>
      <dc:title>Matplotlib v3.3.4, https://matplotlib.org/</dc:title>
     </cc:Agent>
    </dc:creator>
   </cc:Work>
  </rdf:RDF>
 </metadata>
 <defs>
  <style type="text/css">*{stroke-linecap:butt;stroke-linejoin:round;}</style>
 </defs>
 <g id="figure_1">
  <g id="patch_1">
   <path d="M 0 288 
L 216 288 
L 216 0 
L 0 0 
z
" style="fill:none;"/>
  </g>
  <g id="axes_1">
   <g id="patch_2">
    <path d="M 27 256.32 
L 194.4 256.32 
L 194.4 34.56 
L 27 34.56 
z
" style="fill:none;"/>
   </g>
   <g id="PolyCollection_1">
    <defs>
     <path d="M 54.9 -61.987625 
L 54.899085 -61.987625 
L 54.89791 -63.806815 
L 54.895663 -65.626004 
L 54.891647 -67.445194 
L 54.884734 -69.264383 
L 54.873072 -71.083573 
L 54.853832 -72.902762 
L 54.823167 -74.721952 
L 54.776235 -76.541141 
L 54.706472 -78.36033 
L 54.603801 -80.17952 
L 54.454578 -81.998709 
L 54.249594 -83.817899 
L 54.002323 -85.637088 
L 53.764694 -87.456278 
L 53.617334 -89.275467 
L 53.627452 -91.094657 
L 53.802733 -92.913846 
L 54.082439 -94.733035 
L 54.375093 -96.552225 
L 54.609531 -98.371414 
L 54.760303 -100.190604 
L 54.839064 -102.009793 
L 54.871378 -103.828983 
L 54.879436 -105.648172 
L 54.876636 -107.467362 
L 54.869403 -109.286551 
L 54.860491 -111.10574 
L 54.851178 -112.92493 
L 54.842095 -114.744119 
L 54.833125 -116.563309 
L 54.822579 -118.382498 
L 54.805264 -120.201688 
L 54.767322 -122.020877 
L 54.673245 -123.840067 
L 54.440834 -125.659256 
L 53.911818 -127.478445 
L 52.852956 -129.297635 
L 51.043998 -131.116824 
L 48.472648 -132.936014 
L 45.536106 -134.755203 
L 43.036669 -136.574393 
L 41.838891 -138.393582 
L 42.35747 -140.212772 
L 44.278315 -142.031961 
L 46.761431 -143.851151 
L 48.948183 -145.67034 
L 50.361009 -147.489529 
L 50.962106 -149.308719 
L 50.964762 -151.127908 
L 50.622541 -152.947098 
L 50.125398 -154.766287 
L 49.594959 -156.585477 
L 49.117862 -158.404666 
L 48.771709 -160.223856 
L 48.627935 -162.043045 
L 48.735992 -163.862234 
L 49.103364 -165.681424 
L 49.685897 -167.500613 
L 50.392841 -169.319803 
L 51.100071 -171.138992 
L 51.666167 -172.958182 
L 51.958833 -174.777371 
L 51.902313 -176.596561 
L 51.530415 -178.41575 
L 50.993862 -180.234939 
L 50.481966 -182.054129 
L 50.097075 -183.873318 
L 49.78715 -185.692508 
L 49.398609 -187.511697 
L 48.791336 -189.330887 
L 47.905409 -191.150076 
L 46.742271 -192.969266 
L 45.315798 -194.788455 
L 43.634729 -196.607644 
L 41.722733 -198.426834 
L 39.647035 -200.246023 
L 37.532753 -202.065213 
L 35.558219 -203.884402 
L 33.935514 -205.703592 
L 32.88115 -207.522781 
L 32.58 -209.341971 
L 33.145449 -211.16116 
L 34.583128 -212.980349 
L 36.772724 -214.799539 
L 39.482803 -216.618728 
L 42.420314 -218.437918 
L 45.296586 -220.257107 
L 47.882884 -222.076297 
L 50.038486 -223.895486 
L 51.711536 -225.714676 
L 52.922626 -227.533865 
L 53.740562 -229.353054 
L 54.256488 -231.172244 
L 54.561344 -232.991433 
L 54.73092 -234.810623 
L 54.820133 -236.629812 
L 54.864566 -238.449002 
L 54.885401 -240.268191 
L 54.894488 -242.087381 
L 54.9 -242.087381 
L 54.9 -242.087381 
L 54.9 -240.268191 
L 54.9 -238.449002 
L 54.9 -236.629812 
L 54.9 -234.810623 
L 54.9 -232.991433 
L 54.9 -231.172244 
L 54.9 -229.353054 
L 54.9 -227.533865 
L 54.9 -225.714676 
L 54.9 -223.895486 
L 54.9 -222.076297 
L 54.9 -220.257107 
L 54.9 -218.437918 
L 54.9 -216.618728 
L 54.9 -214.799539 
L 54.9 -212.980349 
L 54.9 -211.16116 
L 54.9 -209.341971 
L 54.9 -207.522781 
L 54.9 -205.703592 
L 54.9 -203.884402 
L 54.9 -202.065213 
L 54.9 -200.246023 
L 54.9 -198.426834 
L 54.9 -196.607644 
L 54.9 -194.788455 
L 54.9 -192.969266 
L 54.9 -191.150076 
L 54.9 -189.330887 
L 54.9 -187.511697 
L 54.9 -185.692508 
L 54.9 -183.873318 
L 54.9 -182.054129 
L 54.9 -180.234939 
L 54.9 -178.41575 
L 54.9 -176.596561 
L 54.9 -174.777371 
L 54.9 -172.958182 
L 54.9 -171.138992 
L 54.9 -169.319803 
L 54.9 -167.500613 
L 54.9 -165.681424 
L 54.9 -163.862234 
L 54.9 -162.043045 
L 54.9 -160.223856 
L 54.9 -158.404666 
L 54.9 -156.585477 
L 54.9 -154.766287 
L 54.9 -152.947098 
L 54.9 -151.127908 
L 54.9 -149.308719 
L 54.9 -147.489529 
L 54.9 -145.67034 
L 54.9 -143.851151 
L 54.9 -142.031961 
L 54.9 -140.212772 
L 54.9 -138.393582 
L 54.9 -136.574393 
L 54.9 -134.755203 
L 54.9 -132.936014 
L 54.9 -131.116824 
L 54.9 -129.297635 
L 54.9 -127.478445 
L 54.9 -125.659256 
L 54.9 -123.840067 
L 54.9 -122.020877 
L 54.9 -120.201688 
L 54.9 -118.382498 
L 54.9 -116.563309 
L 54.9 -114.744119 
L 54.9 -112.92493 
L 54.9 -111.10574 
L 54.9 -109.286551 
L 54.9 -107.467362 
L 54.9 -105.648172 
L 54.9 -103.828983 
L 54.9 -102.009793 
L 54.9 -100.190604 
L 54.9 -98.371414 
L 54.9 -96.552225 
L 54.9 -94.733035 
L 54.9 -92.913846 
L 54.9 -91.094657 
L 54.9 -89.275467 
L 54.9 -87.456278 
L 54.9 -85.637088 
L 54.9 -83.817899 
L 54.9 -81.998709 
L 54.9 -80.17952 
L 54.9 -78.36033 
L 54.9 -76.541141 
L 54.9 -74.721952 
L 54.9 -72.902762 
L 54.9 -71.083573 
L 54.9 -69.264383 
L 54.9 -67.445194 
L 54.9 -65.626004 
L 54.9 -63.806815 
L 54.9 -61.987625 
z
" id="m8901cdcf8f" style="stroke:#4d4d4d;stroke-width:0.5;"/>
    </defs>
    <g clip-path="url(#pb2348fcce3)">
     <use style="fill:#808080;stroke:#4d4d4d;stroke-width:0.5;" x="0" xlink:href="#m8901cdcf8f" y="288"/>
    </g>
   </g>
   <g id="PolyCollection_2">
    <defs>
     <path d="M 54.900699 -48.832044 
L 54.9 -48.832044 
L 54.9 -50.796973 
L 54.9 -52.761901 
L 54.9 -54.72683 
L 54.9 -56.691759 
L 54.9 -58.656688 
L 54.9 -60.621617 
L 54.9 -62.586546 
L 54.9 -64.551475 
L 54.9 -66.516403 
L 54.9 -68.481332 
L 54.9 -70.446261 
L 54.9 -72.41119 
L 54.9 -74.376119 
L 54.9 -76.341048 
L 54.9 -78.305976 
L 54.9 -80.270905 
L 54.9 -82.235834 
L 54.9 -84.200763 
L 54.9 -86.165692 
L 54.9 -88.130621 
L 54.9 -90.09555 
L 54.9 -92.060478 
L 54.9 -94.025407 
L 54.9 -95.990336 
L 54.9 -97.955265 
L 54.9 -99.920194 
L 54.9 -101.885123 
L 54.9 -103.850052 
L 54.9 -105.81498 
L 54.9 -107.779909 
L 54.9 -109.744838 
L 54.9 -111.709767 
L 54.9 -113.674696 
L 54.9 -115.639625 
L 54.9 -117.604554 
L 54.9 -119.569482 
L 54.9 -121.534411 
L 54.9 -123.49934 
L 54.9 -125.464269 
L 54.9 -127.429198 
L 54.9 -129.394127 
L 54.9 -131.359055 
L 54.9 -133.323984 
L 54.9 -135.288913 
L 54.9 -137.253842 
L 54.9 -139.218771 
L 54.9 -141.1837 
L 54.9 -143.148629 
L 54.9 -145.113557 
L 54.9 -147.078486 
L 54.9 -149.043415 
L 54.9 -151.008344 
L 54.9 -152.973273 
L 54.9 -154.938202 
L 54.9 -156.903131 
L 54.9 -158.868059 
L 54.9 -160.832988 
L 54.9 -162.797917 
L 54.9 -164.762846 
L 54.9 -166.727775 
L 54.9 -168.692704 
L 54.9 -170.657632 
L 54.9 -172.622561 
L 54.9 -174.58749 
L 54.9 -176.552419 
L 54.9 -178.517348 
L 54.9 -180.482277 
L 54.9 -182.447206 
L 54.9 -184.412134 
L 54.9 -186.377063 
L 54.9 -188.341992 
L 54.9 -190.306921 
L 54.9 -192.27185 
L 54.9 -194.236779 
L 54.9 -196.201708 
L 54.9 -198.166636 
L 54.9 -200.131565 
L 54.9 -202.096494 
L 54.9 -204.061423 
L 54.9 -206.026352 
L 54.9 -207.991281 
L 54.9 -209.95621 
L 54.9 -211.921138 
L 54.9 -213.886067 
L 54.9 -215.850996 
L 54.9 -217.815925 
L 54.9 -219.780854 
L 54.9 -221.745783 
L 54.9 -223.710711 
L 54.9 -225.67564 
L 54.9 -227.640569 
L 54.9 -229.605498 
L 54.9 -231.570427 
L 54.9 -233.535356 
L 54.9 -235.500285 
L 54.9 -237.465213 
L 54.9 -239.430142 
L 54.9 -241.395071 
L 54.9 -243.36 
L 54.906782 -243.36 
L 54.906782 -243.36 
L 54.920725 -241.395071 
L 54.956927 -239.430142 
L 55.04155 -237.465213 
L 55.220918 -235.500285 
L 55.56791 -233.535356 
L 56.183637 -231.570427 
L 57.188573 -229.605498 
L 58.69769 -227.640569 
L 60.779725 -225.67564 
L 63.411454 -223.710711 
L 66.446927 -221.745783 
L 69.620022 -219.780854 
L 72.585386 -217.815925 
L 74.986976 -215.850996 
L 76.534245 -213.886067 
L 77.064959 -211.921138 
L 76.577288 -209.95621 
L 75.221128 -207.991281 
L 73.251074 -206.026352 
L 70.958688 -204.061423 
L 68.609776 -202.096494 
L 66.405234 -200.131565 
L 64.467855 -198.166636 
L 62.848237 -196.201708 
L 61.545699 -194.236779 
L 60.54185 -192.27185 
L 59.831285 -190.306921 
L 59.418212 -188.341992 
L 59.268329 -186.377063 
L 59.267734 -184.412134 
L 59.264969 -182.447206 
L 59.186516 -180.482277 
L 59.107411 -178.517348 
L 59.187644 -176.552419 
L 59.531901 -174.58749 
L 60.105197 -172.622561 
L 60.760031 -170.657632 
L 61.321956 -168.692704 
L 61.659156 -166.727775 
L 61.708558 -164.762846 
L 61.470906 -162.797917 
L 60.993688 -160.832988 
L 60.352604 -158.868059 
L 59.63591 -156.903131 
L 58.935167 -154.938202 
L 58.349818 -152.973273 
L 58.013724 -151.008344 
L 58.130262 -149.043415 
L 58.954864 -147.078486 
L 60.645278 -145.113557 
L 63.002188 -143.148629 
L 65.321704 -141.1837 
L 66.629871 -139.218771 
L 66.258939 -137.253842 
L 64.309768 -135.288913 
L 61.567756 -133.323984 
L 58.959717 -131.359055 
L 57.048325 -129.394127 
L 55.914079 -127.429198 
L 55.352109 -125.464269 
L 55.112471 -123.49934 
L 55.020933 -121.534411 
L 54.987505 -119.569482 
L 54.973442 -117.604554 
L 54.96335 -115.639625 
L 54.951979 -113.674696 
L 54.939218 -111.709767 
L 54.927368 -109.744838 
L 54.919368 -107.779909 
L 54.919065 -105.81498 
L 54.934529 -103.850052 
L 54.983482 -101.885123 
L 55.095531 -99.920194 
L 55.301458 -97.955265 
L 55.604688 -95.990336 
L 55.950942 -94.025407 
L 56.231523 -92.060478 
L 56.338408 -90.09555 
L 56.235338 -88.130621 
L 55.980248 -86.165692 
L 55.678374 -84.200763 
L 55.414296 -82.235834 
L 55.22081 -80.270905 
L 55.092249 -78.305976 
L 55.010705 -76.341048 
L 54.960659 -74.376119 
L 54.931342 -72.41119 
L 54.915266 -70.446261 
L 54.907244 -68.481332 
L 54.903913 -66.516403 
L 54.903211 -64.551475 
L 54.903805 -62.586546 
L 54.904704 -60.621617 
L 54.905173 -58.656688 
L 54.904857 -56.691759 
L 54.903857 -54.72683 
L 54.902586 -52.761901 
L 54.901463 -50.796973 
L 54.900699 -48.832044 
z
" id="m791d5be53c" style="stroke:#4d4d4d;stroke-width:0.5;"/>
    </defs>
    <g clip-path="url(#pb2348fcce3)">
     <use style="fill:#e6e6e6;stroke:#4d4d4d;stroke-width:0.5;" x="0" xlink:href="#m791d5be53c" y="288"/>
    </g>
   </g>
   <g id="PolyCollection_3">
    <defs>
     <path d="M 110.7 -61.505943 
L 110.69876 -61.505943 
L 110.697058 -63.289245 
L 110.693552 -65.072546 
L 110.686813 -66.855847 
L 110.674574 -68.639149 
L 110.653352 -70.42245 
L 110.617963 -72.205751 
L 110.56104 -73.989053 
L 110.472438 -75.772354 
L 110.338103 -77.555655 
L 110.138455 -79.338957 
L 109.849473 -81.122258 
L 109.453571 -82.905559 
L 108.964231 -84.688861 
L 108.45264 -86.472162 
L 108.047734 -88.255463 
L 107.889068 -90.038765 
L 108.051306 -91.822066 
L 108.494693 -93.605367 
L 109.083314 -95.388669 
L 109.658084 -97.17197 
L 110.109263 -98.955271 
L 110.403727 -100.738573 
L 110.565802 -102.521874 
L 110.640941 -104.305176 
L 110.669147 -106.088477 
L 110.675831 -107.871778 
L 110.673964 -109.65508 
L 110.669216 -111.438381 
L 110.663791 -113.221682 
L 110.658221 -115.004984 
L 110.651574 -116.788285 
L 110.639978 -118.571586 
L 110.611941 -120.354888 
L 110.536765 -122.138189 
L 110.340932 -123.92149 
L 109.871909 -125.704792 
L 108.867561 -127.488093 
L 106.980503 -129.271394 
L 103.919542 -131.054696 
L 99.711094 -132.837997 
L 94.943362 -134.621298 
L 90.748506 -136.4046 
L 88.38 -138.187901 
L 88.566412 -139.971202 
L 91.08848 -141.754504 
L 94.914034 -143.537805 
L 98.787124 -145.321106 
L 101.827328 -147.104408 
L 103.767692 -148.887709 
L 104.80895 -150.67101 
L 105.324211 -152.454312 
L 105.638127 -154.237613 
L 105.948097 -156.020914 
L 106.338518 -157.804216 
L 106.82177 -159.587517 
L 107.372389 -161.370819 
L 107.949215 -163.15412 
L 108.5097 -164.937421 
L 109.019266 -166.720723 
L 109.455636 -168.504024 
L 109.80702 -170.287325 
L 110.063439 -172.070627 
L 110.200829 -173.853928 
L 110.158674 -175.637229 
L 109.819015 -177.420531 
L 109.009454 -179.203832 
L 107.561216 -180.987133 
L 105.427152 -182.770435 
L 102.797303 -184.553736 
L 100.097932 -186.337037 
L 97.812856 -188.120339 
L 96.223308 -189.90364 
L 95.273225 -191.686941 
L 94.67882 -193.470243 
L 94.179409 -195.253544 
L 93.710894 -197.036845 
L 93.391536 -198.820147 
L 93.394026 -200.603448 
L 93.83723 -202.386749 
L 94.753348 -204.170051 
L 96.102553 -205.953352 
L 97.795025 -207.736653 
L 99.70798 -209.519955 
L 101.702064 -211.303256 
L 103.639656 -213.086557 
L 105.402871 -214.869859 
L 106.908046 -216.65316 
L 108.113846 -218.436462 
L 109.020729 -220.219763 
L 109.661813 -222.003064 
L 110.088607 -223.786366 
L 110.35683 -225.569667 
L 110.516318 -227.352968 
L 110.606208 -229.13627 
L 110.654305 -230.919571 
L 110.67877 -232.702872 
L 110.690614 -234.486174 
L 110.69607 -236.269475 
L 110.698453 -238.052776 
L 110.7 -238.052776 
L 110.7 -238.052776 
L 110.7 -236.269475 
L 110.7 -234.486174 
L 110.7 -232.702872 
L 110.7 -230.919571 
L 110.7 -229.13627 
L 110.7 -227.352968 
L 110.7 -225.569667 
L 110.7 -223.786366 
L 110.7 -222.003064 
L 110.7 -220.219763 
L 110.7 -218.436462 
L 110.7 -216.65316 
L 110.7 -214.869859 
L 110.7 -213.086557 
L 110.7 -211.303256 
L 110.7 -209.519955 
L 110.7 -207.736653 
L 110.7 -205.953352 
L 110.7 -204.170051 
L 110.7 -202.386749 
L 110.7 -200.603448 
L 110.7 -198.820147 
L 110.7 -197.036845 
L 110.7 -195.253544 
L 110.7 -193.470243 
L 110.7 -191.686941 
L 110.7 -189.90364 
L 110.7 -188.120339 
L 110.7 -186.337037 
L 110.7 -184.553736 
L 110.7 -182.770435 
L 110.7 -180.987133 
L 110.7 -179.203832 
L 110.7 -177.420531 
L 110.7 -175.637229 
L 110.7 -173.853928 
L 110.7 -172.070627 
L 110.7 -170.287325 
L 110.7 -168.504024 
L 110.7 -166.720723 
L 110.7 -164.937421 
L 110.7 -163.15412 
L 110.7 -161.370819 
L 110.7 -159.587517 
L 110.7 -157.804216 
L 110.7 -156.020914 
L 110.7 -154.237613 
L 110.7 -152.454312 
L 110.7 -150.67101 
L 110.7 -148.887709 
L 110.7 -147.104408 
L 110.7 -145.321106 
L 110.7 -143.537805 
L 110.7 -141.754504 
L 110.7 -139.971202 
L 110.7 -138.187901 
L 110.7 -136.4046 
L 110.7 -134.621298 
L 110.7 -132.837997 
L 110.7 -131.054696 
L 110.7 -129.271394 
L 110.7 -127.488093 
L 110.7 -125.704792 
L 110.7 -123.92149 
L 110.7 -122.138189 
L 110.7 -120.354888 
L 110.7 -118.571586 
L 110.7 -116.788285 
L 110.7 -115.004984 
L 110.7 -113.221682 
L 110.7 -111.438381 
L 110.7 -109.65508 
L 110.7 -107.871778 
L 110.7 -106.088477 
L 110.7 -104.305176 
L 110.7 -102.521874 
L 110.7 -100.738573 
L 110.7 -98.955271 
L 110.7 -97.17197 
L 110.7 -95.388669 
L 110.7 -93.605367 
L 110.7 -91.822066 
L 110.7 -90.038765 
L 110.7 -88.255463 
L 110.7 -86.472162 
L 110.7 -84.688861 
L 110.7 -82.905559 
L 110.7 -81.122258 
L 110.7 -79.338957 
L 110.7 -77.555655 
L 110.7 -75.772354 
L 110.7 -73.989053 
L 110.7 -72.205751 
L 110.7 -70.42245 
L 110.7 -68.639149 
L 110.7 -66.855847 
L 110.7 -65.072546 
L 110.7 -63.289245 
L 110.7 -61.505943 
z
" id="m945f17358a" style="stroke:#4d4d4d;stroke-width:0.5;"/>
    </defs>
    <g clip-path="url(#pb2348fcce3)">
     <use style="fill:#808080;stroke:#4d4d4d;stroke-width:0.5;" x="0" xlink:href="#m945f17358a" y="288"/>
    </g>
   </g>
   <g id="PolyCollection_4">
    <defs>
     <path d="M 110.700675 -48.68046 
L 110.7 -48.68046 
L 110.7 -50.592403 
L 110.7 -52.504346 
L 110.7 -54.416289 
L 110.7 -56.328232 
L 110.7 -58.240175 
L 110.7 -60.152118 
L 110.7 -62.064061 
L 110.7 -63.976004 
L 110.7 -65.887947 
L 110.7 -67.79989 
L 110.7 -69.711832 
L 110.7 -71.623775 
L 110.7 -73.535718 
L 110.7 -75.447661 
L 110.7 -77.359604 
L 110.7 -79.271547 
L 110.7 -81.18349 
L 110.7 -83.095433 
L 110.7 -85.007376 
L 110.7 -86.919319 
L 110.7 -88.831262 
L 110.7 -90.743205 
L 110.7 -92.655148 
L 110.7 -94.567091 
L 110.7 -96.479034 
L 110.7 -98.390977 
L 110.7 -100.30292 
L 110.7 -102.214863 
L 110.7 -104.126805 
L 110.7 -106.038748 
L 110.7 -107.950691 
L 110.7 -109.862634 
L 110.7 -111.774577 
L 110.7 -113.68652 
L 110.7 -115.598463 
L 110.7 -117.510406 
L 110.7 -119.422349 
L 110.7 -121.334292 
L 110.7 -123.246235 
L 110.7 -125.158178 
L 110.7 -127.070121 
L 110.7 -128.982064 
L 110.7 -130.894007 
L 110.7 -132.80595 
L 110.7 -134.717893 
L 110.7 -136.629836 
L 110.7 -138.541779 
L 110.7 -140.453721 
L 110.7 -142.365664 
L 110.7 -144.277607 
L 110.7 -146.18955 
L 110.7 -148.101493 
L 110.7 -150.013436 
L 110.7 -151.925379 
L 110.7 -153.837322 
L 110.7 -155.749265 
L 110.7 -157.661208 
L 110.7 -159.573151 
L 110.7 -161.485094 
L 110.7 -163.397037 
L 110.7 -165.30898 
L 110.7 -167.220923 
L 110.7 -169.132866 
L 110.7 -171.044809 
L 110.7 -172.956752 
L 110.7 -174.868695 
L 110.7 -176.780637 
L 110.7 -178.69258 
L 110.7 -180.604523 
L 110.7 -182.516466 
L 110.7 -184.428409 
L 110.7 -186.340352 
L 110.7 -188.252295 
L 110.7 -190.164238 
L 110.7 -192.076181 
L 110.7 -193.988124 
L 110.7 -195.900067 
L 110.7 -197.81201 
L 110.7 -199.723953 
L 110.7 -201.635896 
L 110.7 -203.547839 
L 110.7 -205.459782 
L 110.7 -207.371725 
L 110.7 -209.283668 
L 110.7 -211.19561 
L 110.7 -213.107553 
L 110.7 -215.019496 
L 110.7 -216.931439 
L 110.7 -218.843382 
L 110.7 -220.755325 
L 110.7 -222.667268 
L 110.7 -224.579211 
L 110.7 -226.491154 
L 110.7 -228.403097 
L 110.7 -230.31504 
L 110.7 -232.226983 
L 110.7 -234.138926 
L 110.7 -236.050869 
L 110.7 -237.962812 
L 110.70519 -237.962812 
L 110.70519 -237.962812 
L 110.714483 -236.050869 
L 110.736719 -234.138926 
L 110.785413 -232.226983 
L 110.883949 -230.31504 
L 111.069479 -228.403097 
L 111.395668 -226.491154 
L 111.931505 -224.579211 
L 112.752955 -222.667268 
L 113.926163 -220.755325 
L 115.48516 -218.843382 
L 117.411193 -216.931439 
L 119.62126 -215.019496 
L 121.969965 -213.107553 
L 124.265156 -211.19561 
L 126.296264 -209.283668 
L 127.871615 -207.371725 
L 128.854838 -205.459782 
L 129.187012 -203.547839 
L 128.889804 -201.635896 
L 128.061843 -199.723953 
L 126.880949 -197.81201 
L 125.5885 -195.900067 
L 124.401881 -193.988124 
L 123.363574 -192.076181 
L 122.266272 -190.164238 
L 120.797537 -188.252295 
L 118.829414 -186.340352 
L 116.580554 -184.428409 
L 114.48727 -182.516466 
L 112.920703 -180.604523 
L 112.00997 -178.69258 
L 111.671124 -176.780637 
L 111.741119 -174.868695 
L 112.081208 -172.956752 
L 112.603505 -171.044809 
L 113.250969 -169.132866 
L 113.972135 -167.220923 
L 114.708938 -165.30898 
L 115.396814 -163.397037 
L 115.971372 -161.485094 
L 116.378492 -159.573151 
L 116.586937 -157.661208 
L 116.602967 -155.749265 
L 116.488789 -153.837322 
L 116.39071 -151.925379 
L 116.573415 -150.013436 
L 117.414881 -148.101493 
L 119.271193 -146.18955 
L 122.173665 -144.277607 
L 125.52608 -142.365664 
L 128.146456 -140.453721 
L 128.828736 -138.541779 
L 127.098922 -136.629836 
L 123.538884 -134.717893 
L 119.388865 -132.80595 
L 115.794028 -130.894007 
L 113.30412 -128.982064 
L 111.878519 -127.070121 
L 111.189171 -125.158178 
L 110.901966 -123.246235 
L 110.79597 -121.334292 
L 110.759279 -119.422349 
L 110.745505 -117.510406 
L 110.738313 -115.598463 
L 110.732789 -113.68652 
L 110.727737 -111.774577 
L 110.723173 -109.862634 
L 110.720428 -107.950691 
L 110.724316 -106.038748 
L 110.747568 -104.126805 
L 110.81667 -102.214863 
L 110.973732 -100.30292 
L 111.263577 -98.390977 
L 111.699246 -96.479034 
L 112.221142 -94.567091 
L 112.690159 -92.655148 
L 112.944957 -90.743205 
L 112.896347 -88.831262 
L 112.582775 -86.919319 
L 112.137554 -85.007376 
L 111.700807 -83.095433 
L 111.352792 -81.18349 
L 111.107668 -79.271547 
L 110.945245 -77.359604 
L 110.840678 -75.447661 
L 110.775631 -73.535718 
L 110.737578 -71.623775 
L 110.717249 -69.711832 
L 110.707671 -67.79989 
L 110.70404 -65.887947 
L 110.703388 -63.976004 
L 110.703971 -62.064061 
L 110.704722 -60.152118 
L 110.704998 -58.240175 
L 110.704565 -56.328232 
L 110.703575 -54.416289 
L 110.702396 -52.504346 
L 110.701375 -50.592403 
L 110.700675 -48.68046 
z
" id="mfa6a78a23e" style="stroke:#4d4d4d;stroke-width:0.5;"/>
    </defs>
    <g clip-path="url(#pb2348fcce3)">
     <use style="fill:#e6e6e6;stroke:#4d4d4d;stroke-width:0.5;" x="0" xlink:href="#mfa6a78a23e" y="288"/>
    </g>
   </g>
   <g id="PolyCollection_5">
    <defs>
     <path d="M 166.5 -66.557386 
L 166.495729 -66.557386 
L 166.490179 -68.255735 
L 166.479464 -69.954085 
L 166.460524 -71.652435 
L 166.429442 -73.350785 
L 166.381315 -75.049135 
L 166.309475 -76.747485 
L 166.203159 -78.445835 
L 166.043875 -80.144185 
L 165.804941 -81.842535 
L 165.463195 -83.540885 
L 165.027099 -85.239235 
L 164.566164 -86.937585 
L 164.208826 -88.635935 
L 164.089064 -90.334285 
L 164.268207 -92.032635 
L 164.692378 -93.730985 
L 165.222744 -95.429335 
L 165.71362 -97.127684 
L 166.077713 -98.826034 
L 166.300576 -100.524384 
L 166.413856 -102.222734 
L 166.460264 -103.921084 
L 166.472829 -105.619434 
L 166.470545 -107.317784 
L 166.462159 -109.016134 
L 166.450901 -110.714484 
L 166.437435 -112.412834 
L 166.421108 -114.111184 
L 166.400179 -115.809534 
L 166.371358 -117.507884 
L 166.328502 -119.206234 
L 166.259065 -120.904584 
L 166.134609 -122.602934 
L 165.889914 -124.301283 
L 165.38951 -125.999633 
L 164.39743 -127.697983 
L 162.593356 -129.396333 
L 159.692291 -131.094683 
L 155.680685 -132.793033 
L 151.060243 -134.491383 
L 146.873271 -136.189733 
L 144.340862 -137.888083 
L 144.239964 -139.586433 
L 146.44367 -141.284783 
L 149.996887 -142.983133 
L 153.675196 -144.681483 
L 156.593465 -146.379833 
L 158.466904 -148.078183 
L 159.479136 -149.776533 
L 159.989244 -151.474883 
L 160.310104 -153.173232 
L 160.631214 -154.871582 
L 161.036072 -156.569932 
L 161.543507 -158.268282 
L 162.137529 -159.966632 
L 162.783471 -161.664982 
L 163.438557 -163.363332 
L 164.059906 -165.061682 
L 164.606239 -166.760032 
L 165.028512 -168.458382 
L 165.249277 -170.156732 
L 165.140758 -171.855082 
L 164.527463 -173.553432 
L 163.247601 -175.251782 
L 161.277789 -176.950132 
L 158.848783 -178.648482 
L 156.423035 -180.346831 
L 154.474517 -182.045181 
L 153.200121 -183.743531 
L 152.407128 -185.441881 
L 151.688154 -187.140231 
L 150.725448 -188.838581 
L 149.46401 -190.536931 
L 148.061438 -192.235281 
L 146.737353 -193.933631 
L 145.674895 -195.631981 
L 145.007471 -197.330331 
L 144.834396 -199.028681 
L 145.219594 -200.727031 
L 146.175253 -202.425381 
L 147.652489 -204.123731 
L 149.55016 -205.822081 
L 151.735639 -207.520431 
L 154.065015 -209.21878 
L 156.39634 -210.91713 
L 158.599019 -212.61548 
L 160.565026 -214.31383 
L 162.221899 -216.01218 
L 163.541194 -217.71053 
L 164.536361 -219.40888 
L 165.250377 -221.10723 
L 165.739406 -222.80558 
L 166.059386 -224.50393 
L 166.258716 -226.20228 
L 166.376065 -227.90063 
L 166.440739 -229.59898 
L 166.473798 -231.29733 
L 166.489347 -232.99568 
L 166.496036 -234.69403 
L 166.5 -234.69403 
L 166.5 -234.69403 
L 166.5 -232.99568 
L 166.5 -231.29733 
L 166.5 -229.59898 
L 166.5 -227.90063 
L 166.5 -226.20228 
L 166.5 -224.50393 
L 166.5 -222.80558 
L 166.5 -221.10723 
L 166.5 -219.40888 
L 166.5 -217.71053 
L 166.5 -216.01218 
L 166.5 -214.31383 
L 166.5 -212.61548 
L 166.5 -210.91713 
L 166.5 -209.21878 
L 166.5 -207.520431 
L 166.5 -205.822081 
L 166.5 -204.123731 
L 166.5 -202.425381 
L 166.5 -200.727031 
L 166.5 -199.028681 
L 166.5 -197.330331 
L 166.5 -195.631981 
L 166.5 -193.933631 
L 166.5 -192.235281 
L 166.5 -190.536931 
L 166.5 -188.838581 
L 166.5 -187.140231 
L 166.5 -185.441881 
L 166.5 -183.743531 
L 166.5 -182.045181 
L 166.5 -180.346831 
L 166.5 -178.648482 
L 166.5 -176.950132 
L 166.5 -175.251782 
L 166.5 -173.553432 
L 166.5 -171.855082 
L 166.5 -170.156732 
L 166.5 -168.458382 
L 166.5 -166.760032 
L 166.5 -165.061682 
L 166.5 -163.363332 
L 166.5 -161.664982 
L 166.5 -159.966632 
L 166.5 -158.268282 
L 166.5 -156.569932 
L 166.5 -154.871582 
L 166.5 -153.173232 
L 166.5 -151.474883 
L 166.5 -149.776533 
L 166.5 -148.078183 
L 166.5 -146.379833 
L 166.5 -144.681483 
L 166.5 -142.983133 
L 166.5 -141.284783 
L 166.5 -139.586433 
L 166.5 -137.888083 
L 166.5 -136.189733 
L 166.5 -134.491383 
L 166.5 -132.793033 
L 166.5 -131.094683 
L 166.5 -129.396333 
L 166.5 -127.697983 
L 166.5 -125.999633 
L 166.5 -124.301283 
L 166.5 -122.602934 
L 166.5 -120.904584 
L 166.5 -119.206234 
L 166.5 -117.507884 
L 166.5 -115.809534 
L 166.5 -114.111184 
L 166.5 -112.412834 
L 166.5 -110.714484 
L 166.5 -109.016134 
L 166.5 -107.317784 
L 166.5 -105.619434 
L 166.5 -103.921084 
L 166.5 -102.222734 
L 166.5 -100.524384 
L 166.5 -98.826034 
L 166.5 -97.127684 
L 166.5 -95.429335 
L 166.5 -93.730985 
L 166.5 -92.032635 
L 166.5 -90.334285 
L 166.5 -88.635935 
L 166.5 -86.937585 
L 166.5 -85.239235 
L 166.5 -83.540885 
L 166.5 -81.842535 
L 166.5 -80.144185 
L 166.5 -78.445835 
L 166.5 -76.747485 
L 166.5 -75.049135 
L 166.5 -73.350785 
L 166.5 -71.652435 
L 166.5 -69.954085 
L 166.5 -68.255735 
L 166.5 -66.557386 
z
" id="m314a2b1119" style="stroke:#4d4d4d;stroke-width:0.5;"/>
    </defs>
    <g clip-path="url(#pb2348fcce3)">
     <use style="fill:#808080;stroke:#4d4d4d;stroke-width:0.5;" x="0" xlink:href="#m314a2b1119" y="288"/>
    </g>
   </g>
   <g id="PolyCollection_6">
    <defs>
     <path d="M 166.500834 -41.76 
L 166.5 -41.76 
L 166.5 -43.724046 
L 166.5 -45.688092 
L 166.5 -47.652138 
L 166.5 -49.616185 
L 166.5 -51.580231 
L 166.5 -53.544277 
L 166.5 -55.508323 
L 166.5 -57.472369 
L 166.5 -59.436415 
L 166.5 -61.400461 
L 166.5 -63.364508 
L 166.5 -65.328554 
L 166.5 -67.2926 
L 166.5 -69.256646 
L 166.5 -71.220692 
L 166.5 -73.184738 
L 166.5 -75.148784 
L 166.5 -77.112831 
L 166.5 -79.076877 
L 166.5 -81.040923 
L 166.5 -83.004969 
L 166.5 -84.969015 
L 166.5 -86.933061 
L 166.5 -88.897107 
L 166.5 -90.861153 
L 166.5 -92.8252 
L 166.5 -94.789246 
L 166.5 -96.753292 
L 166.5 -98.717338 
L 166.5 -100.681384 
L 166.5 -102.64543 
L 166.5 -104.609476 
L 166.5 -106.573523 
L 166.5 -108.537569 
L 166.5 -110.501615 
L 166.5 -112.465661 
L 166.5 -114.429707 
L 166.5 -116.393753 
L 166.5 -118.357799 
L 166.5 -120.321846 
L 166.5 -122.285892 
L 166.5 -124.249938 
L 166.5 -126.213984 
L 166.5 -128.17803 
L 166.5 -130.142076 
L 166.5 -132.106122 
L 166.5 -134.070169 
L 166.5 -136.034215 
L 166.5 -137.998261 
L 166.5 -139.962307 
L 166.5 -141.926353 
L 166.5 -143.890399 
L 166.5 -145.854445 
L 166.5 -147.818492 
L 166.5 -149.782538 
L 166.5 -151.746584 
L 166.5 -153.71063 
L 166.5 -155.674676 
L 166.5 -157.638722 
L 166.5 -159.602768 
L 166.5 -161.566814 
L 166.5 -163.530861 
L 166.5 -165.494907 
L 166.5 -167.458953 
L 166.5 -169.422999 
L 166.5 -171.387045 
L 166.5 -173.351091 
L 166.5 -175.315137 
L 166.5 -177.279184 
L 166.5 -179.24323 
L 166.5 -181.207276 
L 166.5 -183.171322 
L 166.5 -185.135368 
L 166.5 -187.099414 
L 166.5 -189.06346 
L 166.5 -191.027507 
L 166.5 -192.991553 
L 166.5 -194.955599 
L 166.5 -196.919645 
L 166.5 -198.883691 
L 166.5 -200.847737 
L 166.5 -202.811783 
L 166.5 -204.77583 
L 166.5 -206.739876 
L 166.5 -208.703922 
L 166.5 -210.667968 
L 166.5 -212.632014 
L 166.5 -214.59606 
L 166.5 -216.560106 
L 166.5 -218.524153 
L 166.5 -220.488199 
L 166.5 -222.452245 
L 166.5 -224.416291 
L 166.5 -226.380337 
L 166.5 -228.344383 
L 166.5 -230.308429 
L 166.5 -232.272475 
L 166.5 -234.236522 
L 166.5 -236.200568 
L 166.506408 -236.200568 
L 166.506408 -236.200568 
L 166.519389 -234.236522 
L 166.552234 -232.272475 
L 166.626632 -230.308429 
L 166.778994 -228.344383 
L 167.063494 -226.380337 
L 167.551354 -224.416291 
L 168.324763 -222.452245 
L 169.465821 -220.488199 
L 171.041961 -218.524153 
L 173.087376 -216.560106 
L 175.57825 -214.59606 
L 178.405137 -212.632014 
L 181.358701 -210.667968 
L 184.150293 -208.703922 
L 186.472208 -206.739876 
L 188.074079 -204.77583 
L 188.82 -202.811783 
L 188.706697 -200.847737 
L 187.846453 -198.883691 
L 186.427144 -196.919645 
L 184.661043 -194.955599 
L 182.745911 -192.991553 
L 180.869338 -191.027507 
L 179.231383 -189.06346 
L 177.981673 -187.099414 
L 177.050307 -185.135368 
L 176.084844 -183.171322 
L 174.699504 -181.207276 
L 172.852454 -179.24323 
L 170.929753 -177.279184 
L 169.441375 -175.315137 
L 168.673501 -173.351091 
L 168.604917 -171.387045 
L 169.044426 -169.422999 
L 169.780374 -167.458953 
L 170.64074 -165.494907 
L 171.494972 -163.530861 
L 172.247931 -161.566814 
L 172.837398 -159.602768 
L 173.228138 -157.638722 
L 173.407199 -155.674676 
L 173.398686 -153.71063 
L 173.312739 -151.746584 
L 173.41733 -149.782538 
L 174.163933 -147.818492 
L 176.033112 -145.854445 
L 179.124608 -143.890399 
L 182.718547 -141.926353 
L 185.334473 -139.962307 
L 185.55172 -137.998261 
L 183.028262 -136.034215 
L 178.75535 -134.070169 
L 174.304525 -132.106122 
L 170.830332 -130.142076 
L 168.656116 -128.17803 
L 167.515696 -126.213984 
L 166.987777 -124.249938 
L 166.756052 -122.285892 
L 166.652985 -120.321846 
L 166.606195 -118.357799 
L 166.584544 -116.393753 
L 166.572153 -114.429707 
L 166.560919 -112.465661 
L 166.548402 -110.501615 
L 166.535885 -108.537569 
L 166.527276 -106.573523 
L 166.531146 -104.609476 
L 166.567451 -102.64543 
L 166.675821 -100.681384 
L 166.912283 -98.717338 
L 167.315986 -96.753292 
L 167.849584 -94.789246 
L 168.365345 -92.8252 
L 168.66186 -90.861153 
L 168.616035 -88.897107 
L 168.273296 -86.933061 
L 167.803269 -84.969015 
L 167.37112 -83.004969 
L 167.052018 -81.040923 
L 166.840637 -79.076877 
L 166.70395 -77.112831 
L 166.615513 -75.148784 
L 166.560227 -73.184738 
L 166.528351 -71.220692 
L 166.511897 -69.256646 
L 166.504417 -67.2926 
L 166.501474 -65.328554 
L 166.500558 -63.364508 
L 166.500551 -61.400461 
L 166.50112 -59.436415 
L 166.502227 -57.472369 
L 166.50374 -55.508323 
L 166.505236 -53.544277 
L 166.506101 -51.580231 
L 166.505917 -49.616185 
L 166.504775 -47.652138 
L 166.503207 -45.688092 
L 166.501793 -43.724046 
L 166.500834 -41.76 
z
" id="m9b29e904f6" style="stroke:#4d4d4d;stroke-width:0.5;"/>
    </defs>
    <g clip-path="url(#pb2348fcce3)">
     <use style="fill:#e6e6e6;stroke:#4d4d4d;stroke-width:0.5;" x="0" xlink:href="#m9b29e904f6" y="288"/>
    </g>
   </g>
   <g id="patch_3">
    <path clip-path="url(#pb2348fcce3)" d="M 54.9 149.425787 
L 54.9 149.425787 
L 54.9 149.425787 
L 54.9 149.425787 
z
" style="fill:#808080;stroke:#4d4d4d;stroke-linejoin:miter;stroke-width:0.25;"/>
   </g>
   <g id="patch_4">
    <path clip-path="url(#pb2348fcce3)" d="M 54.9 149.425787 
L 54.9 149.425787 
L 54.9 149.425787 
L 54.9 149.425787 
z
" style="fill:#e6e6e6;stroke:#4d4d4d;stroke-linejoin:miter;stroke-width:0.25;"/>
   </g>
   <g id="matplotlib.axis_1">
    <g id="xtick_1">
     <g id="line2d_1">
      <defs>
       <path d="M 0 0 
L 0 3.5 
" id="m66e2c5520d" style="stroke:#000000;stroke-width:0.8;"/>
      </defs>
      <g>
       <use style="stroke:#000000;stroke-width:0.8;" x="54.9" xlink:href="#m66e2c5520d" y="256.32"/>
      </g>
     </g>
     <g id="text_1">
      <!-- H3K4me3-H3 -->
      <g transform="translate(21.625 270.918437)scale(0.1 -0.1)">
       <defs>
        <path d="M 9.8125 72.90625 
L 19.671875 72.90625 
L 19.671875 43.015625 
L 55.515625 43.015625 
L 55.515625 72.90625 
L 65.375 72.90625 
L 65.375 0 
L 55.515625 0 
L 55.515625 34.71875 
L 19.671875 34.71875 
L 19.671875 0 
L 9.8125 0 
z
" id="DejaVuSans-72"/>
        <path d="M 40.578125 39.3125 
Q 47.65625 37.796875 51.625 33 
Q 55.609375 28.21875 55.609375 21.1875 
Q 55.609375 10.40625 48.1875 4.484375 
Q 40.765625 -1.421875 27.09375 -1.421875 
Q 22.515625 -1.421875 17.65625 -0.515625 
Q 12.796875 0.390625 7.625 2.203125 
L 7.625 11.71875 
Q 11.71875 9.328125 16.59375 8.109375 
Q 21.484375 6.890625 26.8125 6.890625 
Q 36.078125 6.890625 40.9375 10.546875 
Q 45.796875 14.203125 45.796875 21.1875 
Q 45.796875 27.640625 41.28125 31.265625 
Q 36.765625 34.90625 28.71875 34.90625 
L 20.21875 34.90625 
L 20.21875 43.015625 
L 29.109375 43.015625 
Q 36.375 43.015625 40.234375 45.921875 
Q 44.09375 48.828125 44.09375 54.296875 
Q 44.09375 59.90625 40.109375 62.90625 
Q 36.140625 65.921875 28.71875 65.921875 
Q 24.65625 65.921875 20.015625 65.03125 
Q 15.375 64.15625 9.8125 62.3125 
L 9.8125 71.09375 
Q 15.4375 72.65625 20.34375 73.4375 
Q 25.25 74.21875 29.59375 74.21875 
Q 40.828125 74.21875 47.359375 69.109375 
Q 53.90625 64.015625 53.90625 55.328125 
Q 53.90625 49.265625 50.4375 45.09375 
Q 46.96875 40.921875 40.578125 39.3125 
z
" id="DejaVuSans-51"/>
        <path d="M 9.8125 72.90625 
L 19.671875 72.90625 
L 19.671875 42.09375 
L 52.390625 72.90625 
L 65.09375 72.90625 
L 28.90625 38.921875 
L 67.671875 0 
L 54.6875 0 
L 19.671875 35.109375 
L 19.671875 0 
L 9.8125 0 
z
" id="DejaVuSans-75"/>
        <path d="M 37.796875 64.3125 
L 12.890625 25.390625 
L 37.796875 25.390625 
z
M 35.203125 72.90625 
L 47.609375 72.90625 
L 47.609375 25.390625 
L 58.015625 25.390625 
L 58.015625 17.1875 
L 47.609375 17.1875 
L 47.609375 0 
L 37.796875 0 
L 37.796875 17.1875 
L 4.890625 17.1875 
L 4.890625 26.703125 
z
" id="DejaVuSans-52"/>
        <path d="M 52 44.1875 
Q 55.375 50.25 60.0625 53.125 
Q 64.75 56 71.09375 56 
Q 79.640625 56 84.28125 50.015625 
Q 88.921875 44.046875 88.921875 33.015625 
L 88.921875 0 
L 79.890625 0 
L 79.890625 32.71875 
Q 79.890625 40.578125 77.09375 44.375 
Q 74.3125 48.1875 68.609375 48.1875 
Q 61.625 48.1875 57.5625 43.546875 
Q 53.515625 38.921875 53.515625 30.90625 
L 53.515625 0 
L 44.484375 0 
L 44.484375 32.71875 
Q 44.484375 40.625 41.703125 44.40625 
Q 38.921875 48.1875 33.109375 48.1875 
Q 26.21875 48.1875 22.15625 43.53125 
Q 18.109375 38.875 18.109375 30.90625 
L 18.109375 0 
L 9.078125 0 
L 9.078125 54.6875 
L 18.109375 54.6875 
L 18.109375 46.1875 
Q 21.1875 51.21875 25.484375 53.609375 
Q 29.78125 56 35.6875 56 
Q 41.65625 56 45.828125 52.96875 
Q 50 49.953125 52 44.1875 
z
" id="DejaVuSans-109"/>
        <path d="M 56.203125 29.59375 
L 56.203125 25.203125 
L 14.890625 25.203125 
Q 15.484375 15.921875 20.484375 11.0625 
Q 25.484375 6.203125 34.421875 6.203125 
Q 39.59375 6.203125 44.453125 7.46875 
Q 49.3125 8.734375 54.109375 11.28125 
L 54.109375 2.78125 
Q 49.265625 0.734375 44.1875 -0.34375 
Q 39.109375 -1.421875 33.890625 -1.421875 
Q 20.796875 -1.421875 13.15625 6.1875 
Q 5.515625 13.8125 5.515625 26.8125 
Q 5.515625 40.234375 12.765625 48.109375 
Q 20.015625 56 32.328125 56 
Q 43.359375 56 49.78125 48.890625 
Q 56.203125 41.796875 56.203125 29.59375 
z
M 47.21875 32.234375 
Q 47.125 39.59375 43.09375 43.984375 
Q 39.0625 48.390625 32.421875 48.390625 
Q 24.90625 48.390625 20.390625 44.140625 
Q 15.875 39.890625 15.1875 32.171875 
z
" id="DejaVuSans-101"/>
        <path d="M 4.890625 31.390625 
L 31.203125 31.390625 
L 31.203125 23.390625 
L 4.890625 23.390625 
z
" id="DejaVuSans-45"/>
       </defs>
       <use xlink:href="#DejaVuSans-72"/>
       <use x="75.195312" xlink:href="#DejaVuSans-51"/>
       <use x="138.818359" xlink:href="#DejaVuSans-75"/>
       <use x="204.394531" xlink:href="#DejaVuSans-52"/>
       <use x="268.017578" xlink:href="#DejaVuSans-109"/>
       <use x="365.429688" xlink:href="#DejaVuSans-101"/>
       <use x="426.953125" xlink:href="#DejaVuSans-51"/>
       <use x="490.576172" xlink:href="#DejaVuSans-45"/>
       <use x="526.660156" xlink:href="#DejaVuSans-72"/>
       <use x="601.855469" xlink:href="#DejaVuSans-51"/>
      </g>
     </g>
    </g>
    <g id="xtick_2">
     <g id="line2d_2">
      <g>
       <use style="stroke:#000000;stroke-width:0.8;" x="110.7" xlink:href="#m66e2c5520d" y="256.32"/>
      </g>
     </g>
     <g id="text_2">
      <!-- H3K9ac-H3 -->
      <g transform="translate(82.739844 270.918437)scale(0.1 -0.1)">
       <defs>
        <path d="M 10.984375 1.515625 
L 10.984375 10.5 
Q 14.703125 8.734375 18.5 7.8125 
Q 22.3125 6.890625 25.984375 6.890625 
Q 35.75 6.890625 40.890625 13.453125 
Q 46.046875 20.015625 46.78125 33.40625 
Q 43.953125 29.203125 39.59375 26.953125 
Q 35.25 24.703125 29.984375 24.703125 
Q 19.046875 24.703125 12.671875 31.3125 
Q 6.296875 37.9375 6.296875 49.421875 
Q 6.296875 60.640625 12.9375 67.421875 
Q 19.578125 74.21875 30.609375 74.21875 
Q 43.265625 74.21875 49.921875 64.515625 
Q 56.59375 54.828125 56.59375 36.375 
Q 56.59375 19.140625 48.40625 8.859375 
Q 40.234375 -1.421875 26.421875 -1.421875 
Q 22.703125 -1.421875 18.890625 -0.6875 
Q 15.09375 0.046875 10.984375 1.515625 
z
M 30.609375 32.421875 
Q 37.25 32.421875 41.125 36.953125 
Q 45.015625 41.5 45.015625 49.421875 
Q 45.015625 57.28125 41.125 61.84375 
Q 37.25 66.40625 30.609375 66.40625 
Q 23.96875 66.40625 20.09375 61.84375 
Q 16.21875 57.28125 16.21875 49.421875 
Q 16.21875 41.5 20.09375 36.953125 
Q 23.96875 32.421875 30.609375 32.421875 
z
" id="DejaVuSans-57"/>
        <path d="M 34.28125 27.484375 
Q 23.390625 27.484375 19.1875 25 
Q 14.984375 22.515625 14.984375 16.5 
Q 14.984375 11.71875 18.140625 8.90625 
Q 21.296875 6.109375 26.703125 6.109375 
Q 34.1875 6.109375 38.703125 11.40625 
Q 43.21875 16.703125 43.21875 25.484375 
L 43.21875 27.484375 
z
M 52.203125 31.203125 
L 52.203125 0 
L 43.21875 0 
L 43.21875 8.296875 
Q 40.140625 3.328125 35.546875 0.953125 
Q 30.953125 -1.421875 24.3125 -1.421875 
Q 15.921875 -1.421875 10.953125 3.296875 
Q 6 8.015625 6 15.921875 
Q 6 25.140625 12.171875 29.828125 
Q 18.359375 34.515625 30.609375 34.515625 
L 43.21875 34.515625 
L 43.21875 35.40625 
Q 43.21875 41.609375 39.140625 45 
Q 35.0625 48.390625 27.6875 48.390625 
Q 23 48.390625 18.546875 47.265625 
Q 14.109375 46.140625 10.015625 43.890625 
L 10.015625 52.203125 
Q 14.9375 54.109375 19.578125 55.046875 
Q 24.21875 56 28.609375 56 
Q 40.484375 56 46.34375 49.84375 
Q 52.203125 43.703125 52.203125 31.203125 
z
" id="DejaVuSans-97"/>
        <path d="M 48.78125 52.59375 
L 48.78125 44.1875 
Q 44.96875 46.296875 41.140625 47.34375 
Q 37.3125 48.390625 33.40625 48.390625 
Q 24.65625 48.390625 19.8125 42.84375 
Q 14.984375 37.3125 14.984375 27.296875 
Q 14.984375 17.28125 19.8125 11.734375 
Q 24.65625 6.203125 33.40625 6.203125 
Q 37.3125 6.203125 41.140625 7.25 
Q 44.96875 8.296875 48.78125 10.40625 
L 48.78125 2.09375 
Q 45.015625 0.34375 40.984375 -0.53125 
Q 36.96875 -1.421875 32.421875 -1.421875 
Q 20.0625 -1.421875 12.78125 6.34375 
Q 5.515625 14.109375 5.515625 27.296875 
Q 5.515625 40.671875 12.859375 48.328125 
Q 20.21875 56 33.015625 56 
Q 37.15625 56 41.109375 55.140625 
Q 45.0625 54.296875 48.78125 52.59375 
z
" id="DejaVuSans-99"/>
       </defs>
       <use xlink:href="#DejaVuSans-72"/>
       <use x="75.195312" xlink:href="#DejaVuSans-51"/>
       <use x="138.818359" xlink:href="#DejaVuSans-75"/>
       <use x="204.394531" xlink:href="#DejaVuSans-57"/>
       <use x="268.017578" xlink:href="#DejaVuSans-97"/>
       <use x="329.296875" xlink:href="#DejaVuSans-99"/>
       <use x="384.277344" xlink:href="#DejaVuSans-45"/>
       <use x="420.361328" xlink:href="#DejaVuSans-72"/>
       <use x="495.556641" xlink:href="#DejaVuSans-51"/>
      </g>
     </g>
    </g>
    <g id="xtick_3">
     <g id="line2d_3">
      <g>
       <use style="stroke:#000000;stroke-width:0.8;" x="166.5" xlink:href="#m66e2c5520d" y="256.32"/>
      </g>
     </g>
     <g id="text_3">
      <!-- H3K27ac-H3 -->
      <g transform="translate(135.358594 270.918437)scale(0.1 -0.1)">
       <defs>
        <path d="M 19.1875 8.296875 
L 53.609375 8.296875 
L 53.609375 0 
L 7.328125 0 
L 7.328125 8.296875 
Q 12.9375 14.109375 22.625 23.890625 
Q 32.328125 33.6875 34.8125 36.53125 
Q 39.546875 41.84375 41.421875 45.53125 
Q 43.3125 49.21875 43.3125 52.78125 
Q 43.3125 58.59375 39.234375 62.25 
Q 35.15625 65.921875 28.609375 65.921875 
Q 23.96875 65.921875 18.8125 64.3125 
Q 13.671875 62.703125 7.8125 59.421875 
L 7.8125 69.390625 
Q 13.765625 71.78125 18.9375 73 
Q 24.125 74.21875 28.421875 74.21875 
Q 39.75 74.21875 46.484375 68.546875 
Q 53.21875 62.890625 53.21875 53.421875 
Q 53.21875 48.921875 51.53125 44.890625 
Q 49.859375 40.875 45.40625 35.40625 
Q 44.1875 33.984375 37.640625 27.21875 
Q 31.109375 20.453125 19.1875 8.296875 
z
" id="DejaVuSans-50"/>
        <path d="M 8.203125 72.90625 
L 55.078125 72.90625 
L 55.078125 68.703125 
L 28.609375 0 
L 18.3125 0 
L 43.21875 64.59375 
L 8.203125 64.59375 
z
" id="DejaVuSans-55"/>
       </defs>
       <use xlink:href="#DejaVuSans-72"/>
       <use x="75.195312" xlink:href="#DejaVuSans-51"/>
       <use x="138.818359" xlink:href="#DejaVuSans-75"/>
       <use x="204.394531" xlink:href="#DejaVuSans-50"/>
       <use x="268.017578" xlink:href="#DejaVuSans-55"/>
       <use x="331.640625" xlink:href="#DejaVuSans-97"/>
       <use x="392.919922" xlink:href="#DejaVuSans-99"/>
       <use x="447.900391" xlink:href="#DejaVuSans-45"/>
       <use x="483.984375" xlink:href="#DejaVuSans-72"/>
       <use x="559.179688" xlink:href="#DejaVuSans-51"/>
      </g>
     </g>
    </g>
    <g id="text_4">
     <!-- modification -->
     <g transform="translate(79.667187 284.596563)scale(0.1 -0.1)">
      <defs>
       <path d="M 30.609375 48.390625 
Q 23.390625 48.390625 19.1875 42.75 
Q 14.984375 37.109375 14.984375 27.296875 
Q 14.984375 17.484375 19.15625 11.84375 
Q 23.34375 6.203125 30.609375 6.203125 
Q 37.796875 6.203125 41.984375 11.859375 
Q 46.1875 17.53125 46.1875 27.296875 
Q 46.1875 37.015625 41.984375 42.703125 
Q 37.796875 48.390625 30.609375 48.390625 
z
M 30.609375 56 
Q 42.328125 56 49.015625 48.375 
Q 55.71875 40.765625 55.71875 27.296875 
Q 55.71875 13.875 49.015625 6.21875 
Q 42.328125 -1.421875 30.609375 -1.421875 
Q 18.84375 -1.421875 12.171875 6.21875 
Q 5.515625 13.875 5.515625 27.296875 
Q 5.515625 40.765625 12.171875 48.375 
Q 18.84375 56 30.609375 56 
z
" id="DejaVuSans-111"/>
       <path d="M 45.40625 46.390625 
L 45.40625 75.984375 
L 54.390625 75.984375 
L 54.390625 0 
L 45.40625 0 
L 45.40625 8.203125 
Q 42.578125 3.328125 38.25 0.953125 
Q 33.9375 -1.421875 27.875 -1.421875 
Q 17.96875 -1.421875 11.734375 6.484375 
Q 5.515625 14.40625 5.515625 27.296875 
Q 5.515625 40.1875 11.734375 48.09375 
Q 17.96875 56 27.875 56 
Q 33.9375 56 38.25 53.625 
Q 42.578125 51.265625 45.40625 46.390625 
z
M 14.796875 27.296875 
Q 14.796875 17.390625 18.875 11.75 
Q 22.953125 6.109375 30.078125 6.109375 
Q 37.203125 6.109375 41.296875 11.75 
Q 45.40625 17.390625 45.40625 27.296875 
Q 45.40625 37.203125 41.296875 42.84375 
Q 37.203125 48.484375 30.078125 48.484375 
Q 22.953125 48.484375 18.875 42.84375 
Q 14.796875 37.203125 14.796875 27.296875 
z
" id="DejaVuSans-100"/>
       <path d="M 9.421875 54.6875 
L 18.40625 54.6875 
L 18.40625 0 
L 9.421875 0 
z
M 9.421875 75.984375 
L 18.40625 75.984375 
L 18.40625 64.59375 
L 9.421875 64.59375 
z
" id="DejaVuSans-105"/>
       <path d="M 37.109375 75.984375 
L 37.109375 68.5 
L 28.515625 68.5 
Q 23.6875 68.5 21.796875 66.546875 
Q 19.921875 64.59375 19.921875 59.515625 
L 19.921875 54.6875 
L 34.71875 54.6875 
L 34.71875 47.703125 
L 19.921875 47.703125 
L 19.921875 0 
L 10.890625 0 
L 10.890625 47.703125 
L 2.296875 47.703125 
L 2.296875 54.6875 
L 10.890625 54.6875 
L 10.890625 58.5 
Q 10.890625 67.625 15.140625 71.796875 
Q 19.390625 75.984375 28.609375 75.984375 
z
" id="DejaVuSans-102"/>
       <path d="M 18.3125 70.21875 
L 18.3125 54.6875 
L 36.8125 54.6875 
L 36.8125 47.703125 
L 18.3125 47.703125 
L 18.3125 18.015625 
Q 18.3125 11.328125 20.140625 9.421875 
Q 21.96875 7.515625 27.59375 7.515625 
L 36.8125 7.515625 
L 36.8125 0 
L 27.59375 0 
Q 17.1875 0 13.234375 3.875 
Q 9.28125 7.765625 9.28125 18.015625 
L 9.28125 47.703125 
L 2.6875 47.703125 
L 2.6875 54.6875 
L 9.28125 54.6875 
L 9.28125 70.21875 
z
" id="DejaVuSans-116"/>
       <path d="M 54.890625 33.015625 
L 54.890625 0 
L 45.90625 0 
L 45.90625 32.71875 
Q 45.90625 40.484375 42.875 44.328125 
Q 39.84375 48.1875 33.796875 48.1875 
Q 26.515625 48.1875 22.3125 43.546875 
Q 18.109375 38.921875 18.109375 30.90625 
L 18.109375 0 
L 9.078125 0 
L 9.078125 54.6875 
L 18.109375 54.6875 
L 18.109375 46.1875 
Q 21.34375 51.125 25.703125 53.5625 
Q 30.078125 56 35.796875 56 
Q 45.21875 56 50.046875 50.171875 
Q 54.890625 44.34375 54.890625 33.015625 
z
" id="DejaVuSans-110"/>
      </defs>
      <use xlink:href="#DejaVuSans-109"/>
      <use x="97.412109" xlink:href="#DejaVuSans-111"/>
      <use x="158.59375" xlink:href="#DejaVuSans-100"/>
      <use x="222.070312" xlink:href="#DejaVuSans-105"/>
      <use x="249.853516" xlink:href="#DejaVuSans-102"/>
      <use x="285.058594" xlink:href="#DejaVuSans-105"/>
      <use x="312.841797" xlink:href="#DejaVuSans-99"/>
      <use x="367.822266" xlink:href="#DejaVuSans-97"/>
      <use x="429.101562" xlink:href="#DejaVuSans-116"/>
      <use x="468.310547" xlink:href="#DejaVuSans-105"/>
      <use x="496.09375" xlink:href="#DejaVuSans-111"/>
      <use x="557.275391" xlink:href="#DejaVuSans-110"/>
     </g>
    </g>
   </g>
   <g id="matplotlib.axis_2">
    <g id="ytick_1">
     <g id="line2d_4">
      <defs>
       <path d="M 0 0 
L -3.5 0 
" id="m0e8bf96e9b" style="stroke:#000000;stroke-width:0.8;"/>
      </defs>
      <g>
       <use style="stroke:#000000;stroke-width:0.8;" x="27" xlink:href="#m0e8bf96e9b" y="223.86598"/>
      </g>
     </g>
     <g id="text_5">
      <!-- −10 -->
      <g transform="translate(-1.104688 227.665198)scale(0.1 -0.1)">
       <defs>
        <path d="M 10.59375 35.5 
L 73.1875 35.5 
L 73.1875 27.203125 
L 10.59375 27.203125 
z
" id="DejaVuSans-8722"/>
        <path d="M 12.40625 8.296875 
L 28.515625 8.296875 
L 28.515625 63.921875 
L 10.984375 60.40625 
L 10.984375 69.390625 
L 28.421875 72.90625 
L 38.28125 72.90625 
L 38.28125 8.296875 
L 54.390625 8.296875 
L 54.390625 0 
L 12.40625 0 
z
" id="DejaVuSans-49"/>
        <path d="M 31.78125 66.40625 
Q 24.171875 66.40625 20.328125 58.90625 
Q 16.5 51.421875 16.5 36.375 
Q 16.5 21.390625 20.328125 13.890625 
Q 24.171875 6.390625 31.78125 6.390625 
Q 39.453125 6.390625 43.28125 13.890625 
Q 47.125 21.390625 47.125 36.375 
Q 47.125 51.421875 43.28125 58.90625 
Q 39.453125 66.40625 31.78125 66.40625 
z
M 31.78125 74.21875 
Q 44.046875 74.21875 50.515625 64.515625 
Q 56.984375 54.828125 56.984375 36.375 
Q 56.984375 17.96875 50.515625 8.265625 
Q 44.046875 -1.421875 31.78125 -1.421875 
Q 19.53125 -1.421875 13.0625 8.265625 
Q 6.59375 17.96875 6.59375 36.375 
Q 6.59375 54.828125 13.0625 64.515625 
Q 19.53125 74.21875 31.78125 74.21875 
z
" id="DejaVuSans-48"/>
       </defs>
       <use xlink:href="#DejaVuSans-8722"/>
       <use x="83.789062" xlink:href="#DejaVuSans-49"/>
       <use x="147.412109" xlink:href="#DejaVuSans-48"/>
      </g>
     </g>
    </g>
    <g id="ytick_2">
     <g id="line2d_5">
      <g>
       <use style="stroke:#000000;stroke-width:0.8;" x="27" xlink:href="#m0e8bf96e9b" y="186.645883"/>
      </g>
     </g>
     <g id="text_6">
      <!-- −5 -->
      <g transform="translate(5.257812 190.445102)scale(0.1 -0.1)">
       <defs>
        <path d="M 10.796875 72.90625 
L 49.515625 72.90625 
L 49.515625 64.59375 
L 19.828125 64.59375 
L 19.828125 46.734375 
Q 21.96875 47.46875 24.109375 47.828125 
Q 26.265625 48.1875 28.421875 48.1875 
Q 40.625 48.1875 47.75 41.5 
Q 54.890625 34.8125 54.890625 23.390625 
Q 54.890625 11.625 47.5625 5.09375 
Q 40.234375 -1.421875 26.90625 -1.421875 
Q 22.3125 -1.421875 17.546875 -0.640625 
Q 12.796875 0.140625 7.71875 1.703125 
L 7.71875 11.625 
Q 12.109375 9.234375 16.796875 8.0625 
Q 21.484375 6.890625 26.703125 6.890625 
Q 35.15625 6.890625 40.078125 11.328125 
Q 45.015625 15.765625 45.015625 23.390625 
Q 45.015625 31 40.078125 35.4375 
Q 35.15625 39.890625 26.703125 39.890625 
Q 22.75 39.890625 18.8125 39.015625 
Q 14.890625 38.140625 10.796875 36.28125 
z
" id="DejaVuSans-53"/>
       </defs>
       <use xlink:href="#DejaVuSans-8722"/>
       <use x="83.789062" xlink:href="#DejaVuSans-53"/>
      </g>
     </g>
    </g>
    <g id="ytick_3">
     <g id="line2d_6">
      <g>
       <use style="stroke:#000000;stroke-width:0.8;" x="27" xlink:href="#m0e8bf96e9b" y="149.425787"/>
      </g>
     </g>
     <g id="text_7">
      <!-- 0 -->
      <g transform="translate(13.6375 153.225006)scale(0.1 -0.1)">
       <use xlink:href="#DejaVuSans-48"/>
      </g>
     </g>
    </g>
    <g id="ytick_4">
     <g id="line2d_7">
      <g>
       <use style="stroke:#000000;stroke-width:0.8;" x="27" xlink:href="#m0e8bf96e9b" y="112.205691"/>
      </g>
     </g>
     <g id="text_8">
      <!-- 5 -->
      <g transform="translate(13.6375 116.00491)scale(0.1 -0.1)">
       <use xlink:href="#DejaVuSans-53"/>
      </g>
     </g>
    </g>
    <g id="ytick_5">
     <g id="line2d_8">
      <g>
       <use style="stroke:#000000;stroke-width:0.8;" x="27" xlink:href="#m0e8bf96e9b" y="74.985595"/>
      </g>
     </g>
     <g id="text_9">
      <!-- 10 -->
      <g transform="translate(7.275 78.784814)scale(0.1 -0.1)">
       <use xlink:href="#DejaVuSans-49"/>
       <use x="63.623047" xlink:href="#DejaVuSans-48"/>
      </g>
     </g>
    </g>
    <g id="ytick_6">
     <g id="line2d_9">
      <g>
       <use style="stroke:#000000;stroke-width:0.8;" x="27" xlink:href="#m0e8bf96e9b" y="37.765499"/>
      </g>
     </g>
     <g id="text_10">
      <!-- 15 -->
      <g transform="translate(7.275 41.564718)scale(0.1 -0.1)">
       <use xlink:href="#DejaVuSans-49"/>
       <use x="63.623047" xlink:href="#DejaVuSans-53"/>
      </g>
     </g>
    </g>
    <g id="text_11">
     <!-- Density (log2) -->
     <g transform="translate(-7.184375 180.743125)rotate(-90)scale(0.1 -0.1)">
      <defs>
       <path d="M 19.671875 64.796875 
L 19.671875 8.109375 
L 31.59375 8.109375 
Q 46.6875 8.109375 53.6875 14.9375 
Q 60.6875 21.78125 60.6875 36.53125 
Q 60.6875 51.171875 53.6875 57.984375 
Q 46.6875 64.796875 31.59375 64.796875 
z
M 9.8125 72.90625 
L 30.078125 72.90625 
Q 51.265625 72.90625 61.171875 64.09375 
Q 71.09375 55.28125 71.09375 36.53125 
Q 71.09375 17.671875 61.125 8.828125 
Q 51.171875 0 30.078125 0 
L 9.8125 0 
z
" id="DejaVuSans-68"/>
       <path d="M 44.28125 53.078125 
L 44.28125 44.578125 
Q 40.484375 46.53125 36.375 47.5 
Q 32.28125 48.484375 27.875 48.484375 
Q 21.1875 48.484375 17.84375 46.4375 
Q 14.5 44.390625 14.5 40.28125 
Q 14.5 37.15625 16.890625 35.375 
Q 19.28125 33.59375 26.515625 31.984375 
L 29.59375 31.296875 
Q 39.15625 29.25 43.1875 25.515625 
Q 47.21875 21.78125 47.21875 15.09375 
Q 47.21875 7.46875 41.1875 3.015625 
Q 35.15625 -1.421875 24.609375 -1.421875 
Q 20.21875 -1.421875 15.453125 -0.5625 
Q 10.6875 0.296875 5.421875 2 
L 5.421875 11.28125 
Q 10.40625 8.6875 15.234375 7.390625 
Q 20.0625 6.109375 24.8125 6.109375 
Q 31.15625 6.109375 34.5625 8.28125 
Q 37.984375 10.453125 37.984375 14.40625 
Q 37.984375 18.0625 35.515625 20.015625 
Q 33.0625 21.96875 24.703125 23.78125 
L 21.578125 24.515625 
Q 13.234375 26.265625 9.515625 29.90625 
Q 5.8125 33.546875 5.8125 39.890625 
Q 5.8125 47.609375 11.28125 51.796875 
Q 16.75 56 26.8125 56 
Q 31.78125 56 36.171875 55.265625 
Q 40.578125 54.546875 44.28125 53.078125 
z
" id="DejaVuSans-115"/>
       <path d="M 32.171875 -5.078125 
Q 28.375 -14.84375 24.75 -17.8125 
Q 21.140625 -20.796875 15.09375 -20.796875 
L 7.90625 -20.796875 
L 7.90625 -13.28125 
L 13.1875 -13.28125 
Q 16.890625 -13.28125 18.9375 -11.515625 
Q 21 -9.765625 23.484375 -3.21875 
L 25.09375 0.875 
L 2.984375 54.6875 
L 12.5 54.6875 
L 29.59375 11.921875 
L 46.6875 54.6875 
L 56.203125 54.6875 
z
" id="DejaVuSans-121"/>
       <path id="DejaVuSans-32"/>
       <path d="M 31 75.875 
Q 24.46875 64.65625 21.28125 53.65625 
Q 18.109375 42.671875 18.109375 31.390625 
Q 18.109375 20.125 21.3125 9.0625 
Q 24.515625 -2 31 -13.1875 
L 23.1875 -13.1875 
Q 15.875 -1.703125 12.234375 9.375 
Q 8.59375 20.453125 8.59375 31.390625 
Q 8.59375 42.28125 12.203125 53.3125 
Q 15.828125 64.359375 23.1875 75.875 
z
" id="DejaVuSans-40"/>
       <path d="M 9.421875 75.984375 
L 18.40625 75.984375 
L 18.40625 0 
L 9.421875 0 
z
" id="DejaVuSans-108"/>
       <path d="M 45.40625 27.984375 
Q 45.40625 37.75 41.375 43.109375 
Q 37.359375 48.484375 30.078125 48.484375 
Q 22.859375 48.484375 18.828125 43.109375 
Q 14.796875 37.75 14.796875 27.984375 
Q 14.796875 18.265625 18.828125 12.890625 
Q 22.859375 7.515625 30.078125 7.515625 
Q 37.359375 7.515625 41.375 12.890625 
Q 45.40625 18.265625 45.40625 27.984375 
z
M 54.390625 6.78125 
Q 54.390625 -7.171875 48.1875 -13.984375 
Q 42 -20.796875 29.203125 -20.796875 
Q 24.46875 -20.796875 20.265625 -20.09375 
Q 16.0625 -19.390625 12.109375 -17.921875 
L 12.109375 -9.1875 
Q 16.0625 -11.328125 19.921875 -12.34375 
Q 23.78125 -13.375 27.78125 -13.375 
Q 36.625 -13.375 41.015625 -8.765625 
Q 45.40625 -4.15625 45.40625 5.171875 
L 45.40625 9.625 
Q 42.625 4.78125 38.28125 2.390625 
Q 33.9375 0 27.875 0 
Q 17.828125 0 11.671875 7.65625 
Q 5.515625 15.328125 5.515625 27.984375 
Q 5.515625 40.671875 11.671875 48.328125 
Q 17.828125 56 27.875 56 
Q 33.9375 56 38.28125 53.609375 
Q 42.625 51.21875 45.40625 46.390625 
L 45.40625 54.6875 
L 54.390625 54.6875 
z
" id="DejaVuSans-103"/>
       <path d="M 8.015625 75.875 
L 15.828125 75.875 
Q 23.140625 64.359375 26.78125 53.3125 
Q 30.421875 42.28125 30.421875 31.390625 
Q 30.421875 20.453125 26.78125 9.375 
Q 23.140625 -1.703125 15.828125 -13.1875 
L 8.015625 -13.1875 
Q 14.5 -2 17.703125 9.0625 
Q 20.90625 20.125 20.90625 31.390625 
Q 20.90625 42.671875 17.703125 53.65625 
Q 14.5 64.65625 8.015625 75.875 
z
" id="DejaVuSans-41"/>
      </defs>
      <use xlink:href="#DejaVuSans-68"/>
      <use x="77.001953" xlink:href="#DejaVuSans-101"/>
      <use x="138.525391" xlink:href="#DejaVuSans-110"/>
      <use x="201.904297" xlink:href="#DejaVuSans-115"/>
      <use x="254.003906" xlink:href="#DejaVuSans-105"/>
      <use x="281.787109" xlink:href="#DejaVuSans-116"/>
      <use x="320.996094" xlink:href="#DejaVuSans-121"/>
      <use x="380.175781" xlink:href="#DejaVuSans-32"/>
      <use x="411.962891" xlink:href="#DejaVuSans-40"/>
      <use x="450.976562" xlink:href="#DejaVuSans-108"/>
      <use x="478.759766" xlink:href="#DejaVuSans-111"/>
      <use x="539.941406" xlink:href="#DejaVuSans-103"/>
      <use x="603.417969" xlink:href="#DejaVuSans-50"/>
      <use x="667.041016" xlink:href="#DejaVuSans-41"/>
     </g>
    </g>
   </g>
   <g id="line2d_10">
    <path clip-path="url(#pb2348fcce3)" d="M 49.175683 130.112317 
L 54.9 130.112317 
" style="fill:none;stroke:#4d4d4d;stroke-dasharray:0.375,0.375;stroke-dashoffset:0;stroke-width:0.5;"/>
   </g>
   <g id="line2d_11">
    <path clip-path="url(#pb2348fcce3)" d="M 39.799565 88.271457 
L 54.9 88.271457 
" style="fill:none;stroke:#4d4d4d;stroke-dasharray:0.75,0.75;stroke-dashoffset:0;stroke-width:0.5;"/>
   </g>
   <g id="line2d_12">
    <path clip-path="url(#pb2348fcce3)" d="M 32.8032 78.03206 
L 54.9 78.03206 
" style="fill:none;stroke:#4d4d4d;stroke-dasharray:0.375,0.375;stroke-dashoffset:0;stroke-width:0.5;"/>
   </g>
   <g id="line2d_13">
    <path clip-path="url(#pb2348fcce3)" d="M 54.9 126.181986 
L 61.405197 126.181986 
" style="fill:none;stroke:#4d4d4d;stroke-dasharray:0.375,0.375;stroke-dashoffset:0;stroke-width:0.5;"/>
   </g>
   <g id="line2d_14">
    <path clip-path="url(#pb2348fcce3)" d="M 54.9 86.319487 
L 68.472679 86.319487 
" style="fill:none;stroke:#4d4d4d;stroke-dasharray:0.75,0.75;stroke-dashoffset:0;stroke-width:0.5;"/>
   </g>
   <g id="line2d_15">
    <path clip-path="url(#pb2348fcce3)" d="M 54.9 75.804735 
L 76.843309 75.804735 
" style="fill:none;stroke:#4d4d4d;stroke-dasharray:0.375,0.375;stroke-dashoffset:0;stroke-width:0.5;"/>
   </g>
   <g id="line2d_16">
    <path clip-path="url(#pb2348fcce3)" d="M 88.6032 149.425787 
L 110.7 149.425787 
" style="fill:none;stroke:#4d4d4d;stroke-dasharray:0.375,0.375;stroke-dashoffset:0;stroke-width:0.5;"/>
   </g>
   <g id="line2d_17">
    <path clip-path="url(#pb2348fcce3)" d="M 97.941728 99.243048 
L 110.7 99.243048 
" style="fill:none;stroke:#4d4d4d;stroke-dasharray:0.75,0.75;stroke-dashoffset:0;stroke-width:0.5;"/>
   </g>
   <g id="line2d_18">
    <path clip-path="url(#pb2348fcce3)" d="M 93.567085 87.511646 
L 110.7 87.511646 
" style="fill:none;stroke:#4d4d4d;stroke-dasharray:0.375,0.375;stroke-dashoffset:0;stroke-width:0.5;"/>
   </g>
   <g id="line2d_19">
    <path clip-path="url(#pb2348fcce3)" d="M 110.7 149.425787 
L 128.647449 149.425787 
" style="fill:none;stroke:#4d4d4d;stroke-dasharray:0.375,0.375;stroke-dashoffset:0;stroke-width:0.5;"/>
   </g>
   <g id="line2d_20">
    <path clip-path="url(#pb2348fcce3)" d="M 110.7 99.243048 
L 120.696562 99.243048 
" style="fill:none;stroke:#4d4d4d;stroke-dasharray:0.75,0.75;stroke-dashoffset:0;stroke-width:0.5;"/>
   </g>
   <g id="line2d_21">
    <path clip-path="url(#pb2348fcce3)" d="M 110.7 84.430567 
L 129.002142 84.430567 
" style="fill:none;stroke:#4d4d4d;stroke-dasharray:0.375,0.375;stroke-dashoffset:0;stroke-width:0.5;"/>
   </g>
   <g id="line2d_22">
    <path clip-path="url(#pb2348fcce3)" d="M 144.562453 149.425787 
L 166.5 149.425787 
" style="fill:none;stroke:#4d4d4d;stroke-dasharray:0.375,0.375;stroke-dashoffset:0;stroke-width:0.5;"/>
   </g>
   <g id="line2d_23">
    <path clip-path="url(#pb2348fcce3)" d="M 154.594772 105.61632 
L 166.5 105.61632 
" style="fill:none;stroke:#4d4d4d;stroke-dasharray:0.75,0.75;stroke-dashoffset:0;stroke-width:0.5;"/>
   </g>
   <g id="line2d_24">
    <path clip-path="url(#pb2348fcce3)" d="M 145.051052 88.478178 
L 166.5 88.478178 
" style="fill:none;stroke:#4d4d4d;stroke-dasharray:0.375,0.375;stroke-dashoffset:0;stroke-width:0.5;"/>
   </g>
   <g id="line2d_25">
    <path clip-path="url(#pb2348fcce3)" d="M 166.5 144.011328 
L 178.998362 144.011328 
" style="fill:none;stroke:#4d4d4d;stroke-dasharray:0.375,0.375;stroke-dashoffset:0;stroke-width:0.5;"/>
   </g>
   <g id="line2d_26">
    <path clip-path="url(#pb2348fcce3)" d="M 166.5 98.26349 
L 179.104069 98.26349 
" style="fill:none;stroke:#4d4d4d;stroke-dasharray:0.75,0.75;stroke-dashoffset:0;stroke-width:0.5;"/>
   </g>
   <g id="line2d_27">
    <path clip-path="url(#pb2348fcce3)" d="M 166.5 86.526281 
L 188.48463 86.526281 
" style="fill:none;stroke:#4d4d4d;stroke-dasharray:0.375,0.375;stroke-dashoffset:0;stroke-width:0.5;"/>
   </g>
   <g id="patch_5">
    <path d="M 27 256.32 
L 27 34.56 
" style="fill:none;stroke:#000000;stroke-linecap:square;stroke-linejoin:miter;stroke-width:0.8;"/>
   </g>
   <g id="patch_6">
    <path d="M 194.4 256.32 
L 194.4 34.56 
" style="fill:none;stroke:#000000;stroke-linecap:square;stroke-linejoin:miter;stroke-width:0.8;"/>
   </g>
   <g id="patch_7">
    <path d="M 27 256.32 
L 194.4 256.32 
" style="fill:none;stroke:#000000;stroke-linecap:square;stroke-linejoin:miter;stroke-width:0.8;"/>
   </g>
   <g id="patch_8">
    <path d="M 27 34.56 
L 194.4 34.56 
" style="fill:none;stroke:#000000;stroke-linecap:square;stroke-linejoin:miter;stroke-width:0.8;"/>
   </g>
   <g id="text_12">
    <!-- Density at +1 nucleosome -->
    <g transform="translate(31.0275 28.56)scale(0.12 -0.12)">
     <defs>
      <path d="M 46 62.703125 
L 46 35.5 
L 73.1875 35.5 
L 73.1875 27.203125 
L 46 27.203125 
L 46 0 
L 37.796875 0 
L 37.796875 27.203125 
L 10.59375 27.203125 
L 10.59375 35.5 
L 37.796875 35.5 
L 37.796875 62.703125 
z
" id="DejaVuSans-43"/>
      <path d="M 8.5 21.578125 
L 8.5 54.6875 
L 17.484375 54.6875 
L 17.484375 21.921875 
Q 17.484375 14.15625 20.5 10.265625 
Q 23.53125 6.390625 29.59375 6.390625 
Q 36.859375 6.390625 41.078125 11.03125 
Q 45.3125 15.671875 45.3125 23.6875 
L 45.3125 54.6875 
L 54.296875 54.6875 
L 54.296875 0 
L 45.3125 0 
L 45.3125 8.40625 
Q 42.046875 3.421875 37.71875 1 
Q 33.40625 -1.421875 27.6875 -1.421875 
Q 18.265625 -1.421875 13.375 4.4375 
Q 8.5 10.296875 8.5 21.578125 
z
M 31.109375 56 
z
" id="DejaVuSans-117"/>
     </defs>
     <use xlink:href="#DejaVuSans-68"/>
     <use x="77.001953" xlink:href="#DejaVuSans-101"/>
     <use x="138.525391" xlink:href="#DejaVuSans-110"/>
     <use x="201.904297" xlink:href="#DejaVuSans-115"/>
     <use x="254.003906" xlink:href="#DejaVuSans-105"/>
     <use x="281.787109" xlink:href="#DejaVuSans-116"/>
     <use x="320.996094" xlink:href="#DejaVuSans-121"/>
     <use x="380.175781" xlink:href="#DejaVuSans-32"/>
     <use x="411.962891" xlink:href="#DejaVuSans-97"/>
     <use x="473.242188" xlink:href="#DejaVuSans-116"/>
     <use x="512.451172" xlink:href="#DejaVuSans-32"/>
     <use x="544.238281" xlink:href="#DejaVuSans-43"/>
     <use x="628.027344" xlink:href="#DejaVuSans-49"/>
     <use x="691.650391" xlink:href="#DejaVuSans-32"/>
     <use x="723.4375" xlink:href="#DejaVuSans-110"/>
     <use x="786.816406" xlink:href="#DejaVuSans-117"/>
     <use x="850.195312" xlink:href="#DejaVuSans-99"/>
     <use x="905.175781" xlink:href="#DejaVuSans-108"/>
     <use x="932.958984" xlink:href="#DejaVuSans-101"/>
     <use x="994.482422" xlink:href="#DejaVuSans-111"/>
     <use x="1055.664062" xlink:href="#DejaVuSans-115"/>
     <use x="1107.763672" xlink:href="#DejaVuSans-111"/>
     <use x="1168.945312" xlink:href="#DejaVuSans-109"/>
     <use x="1266.357422" xlink:href="#DejaVuSans-101"/>
    </g>
   </g>
   <g id="legend_1">
    <g id="patch_9">
     <path d="M 34 251.32 
L 108.890625 251.32 
Q 110.890625 251.32 110.890625 249.32 
L 110.890625 206.285625 
Q 110.890625 204.285625 108.890625 204.285625 
L 34 204.285625 
Q 32 204.285625 32 206.285625 
L 32 249.32 
Q 32 251.32 34 251.32 
z
" style="fill:#ffffff;opacity:0.8;stroke:#cccccc;stroke-linejoin:miter;"/>
    </g>
    <g id="text_13">
     <!-- split-category -->
     <g transform="translate(37.025781 215.884062)scale(0.1 -0.1)">
      <defs>
       <path d="M 18.109375 8.203125 
L 18.109375 -20.796875 
L 9.078125 -20.796875 
L 9.078125 54.6875 
L 18.109375 54.6875 
L 18.109375 46.390625 
Q 20.953125 51.265625 25.265625 53.625 
Q 29.59375 56 35.59375 56 
Q 45.5625 56 51.78125 48.09375 
Q 58.015625 40.1875 58.015625 27.296875 
Q 58.015625 14.40625 51.78125 6.484375 
Q 45.5625 -1.421875 35.59375 -1.421875 
Q 29.59375 -1.421875 25.265625 0.953125 
Q 20.953125 3.328125 18.109375 8.203125 
z
M 48.6875 27.296875 
Q 48.6875 37.203125 44.609375 42.84375 
Q 40.53125 48.484375 33.40625 48.484375 
Q 26.265625 48.484375 22.1875 42.84375 
Q 18.109375 37.203125 18.109375 27.296875 
Q 18.109375 17.390625 22.1875 11.75 
Q 26.265625 6.109375 33.40625 6.109375 
Q 40.53125 6.109375 44.609375 11.75 
Q 48.6875 17.390625 48.6875 27.296875 
z
" id="DejaVuSans-112"/>
       <path d="M 41.109375 46.296875 
Q 39.59375 47.171875 37.8125 47.578125 
Q 36.03125 48 33.890625 48 
Q 26.265625 48 22.1875 43.046875 
Q 18.109375 38.09375 18.109375 28.8125 
L 18.109375 0 
L 9.078125 0 
L 9.078125 54.6875 
L 18.109375 54.6875 
L 18.109375 46.1875 
Q 20.953125 51.171875 25.484375 53.578125 
Q 30.03125 56 36.53125 56 
Q 37.453125 56 38.578125 55.875 
Q 39.703125 55.765625 41.0625 55.515625 
z
" id="DejaVuSans-114"/>
      </defs>
      <use xlink:href="#DejaVuSans-115"/>
      <use x="52.099609" xlink:href="#DejaVuSans-112"/>
      <use x="115.576172" xlink:href="#DejaVuSans-108"/>
      <use x="143.359375" xlink:href="#DejaVuSans-105"/>
      <use x="171.142578" xlink:href="#DejaVuSans-116"/>
      <use x="210.351562" xlink:href="#DejaVuSans-45"/>
      <use x="246.435547" xlink:href="#DejaVuSans-99"/>
      <use x="301.416016" xlink:href="#DejaVuSans-97"/>
      <use x="362.695312" xlink:href="#DejaVuSans-116"/>
      <use x="401.904297" xlink:href="#DejaVuSans-101"/>
      <use x="463.427734" xlink:href="#DejaVuSans-103"/>
      <use x="526.904297" xlink:href="#DejaVuSans-111"/>
      <use x="588.085938" xlink:href="#DejaVuSans-114"/>
      <use x="629.199219" xlink:href="#DejaVuSans-121"/>
     </g>
    </g>
    <g id="patch_10">
     <path d="M 36 230.562187 
L 56 230.562187 
L 56 223.562187 
L 36 223.562187 
z
" style="fill:#808080;stroke:#4d4d4d;stroke-linejoin:miter;stroke-width:0.25;"/>
    </g>
    <g id="text_14">
     <!-- Proximal -->
     <g transform="translate(64 230.562187)scale(0.1 -0.1)">
      <defs>
       <path d="M 19.671875 64.796875 
L 19.671875 37.40625 
L 32.078125 37.40625 
Q 38.96875 37.40625 42.71875 40.96875 
Q 46.484375 44.53125 46.484375 51.125 
Q 46.484375 57.671875 42.71875 61.234375 
Q 38.96875 64.796875 32.078125 64.796875 
z
M 9.8125 72.90625 
L 32.078125 72.90625 
Q 44.34375 72.90625 50.609375 67.359375 
Q 56.890625 61.8125 56.890625 51.125 
Q 56.890625 40.328125 50.609375 34.8125 
Q 44.34375 29.296875 32.078125 29.296875 
L 19.671875 29.296875 
L 19.671875 0 
L 9.8125 0 
z
" id="DejaVuSans-80"/>
       <path d="M 54.890625 54.6875 
L 35.109375 28.078125 
L 55.90625 0 
L 45.3125 0 
L 29.390625 21.484375 
L 13.484375 0 
L 2.875 0 
L 24.125 28.609375 
L 4.6875 54.6875 
L 15.28125 54.6875 
L 29.78125 35.203125 
L 44.28125 54.6875 
z
" id="DejaVuSans-120"/>
      </defs>
      <use xlink:href="#DejaVuSans-80"/>
      <use x="58.552734" xlink:href="#DejaVuSans-114"/>
      <use x="97.416016" xlink:href="#DejaVuSans-111"/>
      <use x="155.472656" xlink:href="#DejaVuSans-120"/>
      <use x="214.652344" xlink:href="#DejaVuSans-105"/>
      <use x="242.435547" xlink:href="#DejaVuSans-109"/>
      <use x="339.847656" xlink:href="#DejaVuSans-97"/>
      <use x="401.126953" xlink:href="#DejaVuSans-108"/>
     </g>
    </g>
    <g id="patch_11">
     <path d="M 36 245.240313 
L 56 245.240313 
L 56 238.240313 
L 36 238.240313 
z
" style="fill:#e6e6e6;stroke:#4d4d4d;stroke-linejoin:miter;stroke-width:0.25;"/>
    </g>
    <g id="text_15">
     <!-- Distal -->
     <g transform="translate(64 245.240313)scale(0.1 -0.1)">
      <use xlink:href="#DejaVuSans-68"/>
      <use x="77.001953" xlink:href="#DejaVuSans-105"/>
      <use x="104.785156" xlink:href="#DejaVuSans-115"/>
      <use x="156.884766" xlink:href="#DejaVuSans-116"/>
      <use x="196.09375" xlink:href="#DejaVuSans-97"/>
      <use x="257.373047" xlink:href="#DejaVuSans-108"/>
     </g>
    </g>
   </g>
  </g>
 </g>
 <defs>
  <clipPath id="pb2348fcce3">
   <rect height="221.76" width="167.4" x="27" y="34.56"/>
  </clipPath>
 </defs>
</svg>
