<?xml version="1.0" encoding="utf-8" standalone="no"?>
<!DOCTYPE svg PUBLIC "-//W3C//DTD SVG 1.1//EN"
  "http://www.w3.org/Graphics/SVG/1.1/DTD/svg11.dtd">
<svg xmlns:xlink="http://www.w3.org/1999/xlink" width="360pt" height="288pt" viewBox="0 0 360 288" xmlns="http://www.w3.org/2000/svg" version="1.1">
 <metadata>
  <rdf:RDF xmlns:dc="http://purl.org/dc/elements/1.1/" xmlns:cc="http://creativecommons.org/ns#" xmlns:rdf="http://www.w3.org/1999/02/22-rdf-syntax-ns#">
   <cc:Work>
    <dc:type rdf:resource="http://purl.org/dc/dcmitype/StillImage"/>
    <dc:date>2026-04-22T13:10:12.993137</dc:date>
    <dc:format>image/svg+xml</dc:format>
    <dc:creator>
     <cc:Agent>
      <dc:title>Matplotlib v3.9.2, https://matplotlib.org/</dc:title>
     </cc:Agent>
    </dc:creator>
   </cc:Work>
  </rdf:RDF>
 </metadata>
 <defs>
  <style type="text/css">*{stroke-linejoin: round; stroke-linecap: butt}</style>
 </defs>
 <g id="figure_1">
  <g id="patch_1">
   <path d="M 0 288 
L 360 288 
L 360 0 
L 0 0 
L 0 288 
z
" style="fill: none"/>
  </g>
  <g id="axes_1">
   <g id="patch_2">
    <path d="M 47.855 199.464573 
L 349.2 199.464573 
L 349.2 14.76 
L 47.855 14.76 
L 47.855 199.464573 
z
" style="fill: none"/>
   </g>
   <g id="PolyCollection_1">
    <defs>
     <path id="m8aa05ddd85" d="M 97.046394 -100.238331 
L 73.999856 -100.238331 
L 74.515394 -101.666974 
L 75.941312 -103.095616 
L 77.715373 -104.524258 
L 79.187616 -105.9529 
L 79.867889 -107.381543 
L 79.586476 -108.810185 
L 78.521195 -110.238827 
L 77.096273 -111.667469 
L 75.791721 -113.096111 
L 74.936796 -114.524754 
L 74.586242 -115.953396 
L 74.549058 -117.382038 
L 74.546564 -118.81068 
L 74.386345 -120.239323 
L 74.036308 -121.667965 
L 73.574593 -123.096607 
L 73.088718 -124.525249 
L 72.613769 -125.953891 
L 72.137764 -127.382534 
L 71.638725 -128.811176 
L 71.109264 -130.239818 
L 70.556845 -131.66846 
L 69.994344 -133.097102 
L 69.435006 -134.525745 
L 68.892742 -135.954387 
L 68.3818 -137.383029 
L 67.91266 -138.811671 
L 67.486556 -140.240314 
L 67.093262 -141.668956 
L 66.714521 -143.097598 
L 66.330901 -144.52624 
L 65.927099 -145.954882 
L 65.492308 -147.383525 
L 65.016999 -148.812167 
L 64.491111 -150.240809 
L 63.907537 -151.669451 
L 63.269543 -153.098094 
L 62.595989 -154.526736 
L 61.918669 -155.955378 
L 61.272102 -157.38402 
L 60.682179 -158.812662 
L 60.160534 -160.241305 
L 59.705778 -161.669947 
L 59.306751 -163.098589 
L 58.942929 -164.527231 
L 58.582925 -165.955874 
L 58.187444 -167.384516 
L 57.721825 -168.813158 
L 57.175889 -170.2418 
L 56.581259 -171.670442 
L 56.014812 -173.099085 
L 55.58264 -174.527727 
L 55.388625 -175.956369 
L 55.500512 -177.385011 
L 55.929721 -178.813654 
L 56.635903 -180.242296 
L 57.554337 -181.670938 
L 58.630533 -183.09958 
L 59.841854 -184.528222 
L 61.195126 -185.956865 
L 62.705684 -187.385507 
L 64.374308 -188.814149 
L 66.176423 -190.242791 
L 68.06653 -191.671434 
L 69.990481 -193.100076 
L 71.896181 -194.528718 
L 73.738391 -195.95736 
L 75.47929 -197.386002 
L 77.088495 -198.814645 
L 78.54422 -200.243287 
L 79.834555 -201.671929 
L 80.957067 -203.100571 
L 81.916318 -204.529214 
L 82.720666 -205.957856 
L 83.380238 -207.386498 
L 83.906869 -208.81514 
L 84.315202 -210.243782 
L 84.623306 -211.672425 
L 84.851662 -213.101067 
L 85.020685 -214.529709 
L 85.147962 -215.958351 
L 85.246463 -217.386994 
L 85.324307 -218.815636 
L 85.385818 -220.244278 
L 85.433155 -221.67292 
L 85.467806 -223.101562 
L 85.491496 -224.530205 
L 85.506419 -225.958847 
L 85.514973 -227.387489 
L 85.519329 -228.816131 
L 85.521107 -230.244773 
L 85.521276 -231.673416 
L 85.520261 -233.102058 
L 85.518178 -234.5307 
L 85.515126 -235.959342 
L 85.51144 -237.387985 
L 85.507794 -238.816627 
L 85.505079 -240.245269 
L 85.504071 -241.673911 
L 85.542179 -241.673911 
L 85.542179 -241.673911 
L 85.541171 -240.245269 
L 85.538456 -238.816627 
L 85.53481 -237.387985 
L 85.531124 -235.959342 
L 85.528072 -234.5307 
L 85.525989 -233.102058 
L 85.524974 -231.673416 
L 85.525143 -230.244773 
L 85.526921 -228.816131 
L 85.531277 -227.387489 
L 85.539831 -225.958847 
L 85.554754 -224.530205 
L 85.578444 -223.101562 
L 85.613095 -221.67292 
L 85.660432 -220.244278 
L 85.721943 -218.815636 
L 85.799787 -217.386994 
L 85.898288 -215.958351 
L 86.025565 -214.529709 
L 86.194588 -213.101067 
L 86.422944 -211.672425 
L 86.731048 -210.243782 
L 87.139381 -208.81514 
L 87.666012 -207.386498 
L 88.325584 -205.957856 
L 89.129932 -204.529214 
L 90.089183 -203.100571 
L 91.211695 -201.671929 
L 92.50203 -200.243287 
L 93.957755 -198.814645 
L 95.56696 -197.386002 
L 97.307859 -195.95736 
L 99.150069 -194.528718 
L 101.055769 -193.100076 
L 102.97972 -191.671434 
L 104.869827 -190.242791 
L 106.671942 -188.814149 
L 108.340566 -187.385507 
L 109.851124 -185.956865 
L 111.204396 -184.528222 
L 112.415717 -183.09958 
L 113.491913 -181.670938 
L 114.410347 -180.242296 
L 115.116529 -178.813654 
L 115.545738 -177.385011 
L 115.657625 -175.956369 
L 115.46361 -174.527727 
L 115.031438 -173.099085 
L 114.464991 -171.670442 
L 113.870361 -170.2418 
L 113.324425 -168.813158 
L 112.858806 -167.384516 
L 112.463325 -165.955874 
L 112.103321 -164.527231 
L 111.739499 -163.098589 
L 111.340472 -161.669947 
L 110.885716 -160.241305 
L 110.364071 -158.812662 
L 109.774148 -157.38402 
L 109.127581 -155.955378 
L 108.450261 -154.526736 
L 107.776707 -153.098094 
L 107.138713 -151.669451 
L 106.555139 -150.240809 
L 106.029251 -148.812167 
L 105.553942 -147.383525 
L 105.119151 -145.954882 
L 104.715349 -144.52624 
L 104.331729 -143.097598 
L 103.952988 -141.668956 
L 103.559694 -140.240314 
L 103.13359 -138.811671 
L 102.66445 -137.383029 
L 102.153508 -135.954387 
L 101.611244 -134.525745 
L 101.051906 -133.097102 
L 100.489405 -131.66846 
L 99.936986 -130.239818 
L 99.407525 -128.811176 
L 98.908486 -127.382534 
L 98.432481 -125.953891 
L 97.957532 -124.525249 
L 97.471657 -123.096607 
L 97.009942 -121.667965 
L 96.659905 -120.239323 
L 96.499686 -118.81068 
L 96.497192 -117.382038 
L 96.460008 -115.953396 
L 96.109454 -114.524754 
L 95.254529 -113.096111 
L 93.949977 -111.667469 
L 92.525055 -110.238827 
L 91.459774 -108.810185 
L 91.178361 -107.381543 
L 91.858634 -105.9529 
L 93.330877 -104.524258 
L 95.104938 -103.095616 
L 96.530856 -101.666974 
L 97.046394 -100.238331 
z
" style="stroke: #4c4c4c; stroke-width: 0.8"/>
    </defs>
    <g clip-path="url(#p7fe0775b85)">
     <use xlink:href="#m8aa05ddd85" x="0" y="288" style="fill: #2020df; stroke: #4c4c4c; stroke-width: 0.8"/>
    </g>
   </g>
   <g id="PolyCollection_2">
    <defs>
     <path id="m95a1b774c9" d="M 161.161565 -100.238331 
L 160.557185 -100.238331 
L 160.596921 -101.948227 
L 160.6866 -103.658124 
L 160.768405 -105.36802 
L 160.803766 -107.077916 
L 160.782632 -108.787812 
L 160.713819 -110.497708 
L 160.628065 -112.207604 
L 160.569499 -113.9175 
L 160.550754 -115.627396 
L 160.524782 -117.337292 
L 160.437496 -119.047188 
L 160.30732 -120.757084 
L 160.211249 -122.46698 
L 160.187366 -124.176876 
L 160.202065 -125.886772 
L 160.219757 -127.596669 
L 160.241679 -129.306565 
L 160.267567 -131.016461 
L 160.275821 -132.726357 
L 160.248378 -134.436253 
L 160.182103 -136.146149 
L 160.075136 -137.856045 
L 159.921214 -139.565941 
L 159.724879 -141.275837 
L 159.512899 -142.985733 
L 159.313587 -144.695629 
L 159.125275 -146.405525 
L 158.92231 -148.115421 
L 158.68911 -149.825317 
L 158.428407 -151.535214 
L 158.136143 -153.24511 
L 157.784076 -154.955006 
L 157.336995 -156.664902 
L 156.788586 -158.374798 
L 156.169921 -160.084694 
L 155.505196 -161.79459 
L 154.765168 -163.504486 
L 153.897051 -165.214382 
L 152.903356 -166.924278 
L 151.851054 -168.634174 
L 150.785848 -170.34407 
L 149.655178 -172.053966 
L 148.331119 -173.763862 
L 146.71892 -175.473758 
L 144.839575 -177.183655 
L 142.809462 -178.893551 
L 140.771149 -180.603447 
L 138.838827 -182.313343 
L 137.058451 -184.023239 
L 135.408278 -185.733135 
L 133.866192 -187.443031 
L 132.485279 -189.152927 
L 131.400045 -190.862823 
L 130.767172 -192.572719 
L 130.724875 -194.282615 
L 131.406605 -195.992511 
L 132.909223 -197.702407 
L 135.190607 -199.412303 
L 138.06403 -201.1222 
L 141.321993 -202.832096 
L 144.787688 -204.541992 
L 148.244104 -206.251888 
L 151.423152 -207.961784 
L 154.112749 -209.67168 
L 156.23619 -211.381576 
L 157.823951 -213.091472 
L 158.948243 -214.801368 
L 159.690282 -216.511264 
L 160.138508 -218.22116 
L 160.388175 -219.931056 
L 160.526147 -221.640952 
L 160.61095 -223.350848 
L 160.669397 -225.060745 
L 160.711318 -226.770641 
L 160.742344 -228.480537 
L 160.764393 -230.190433 
L 160.774359 -231.900329 
L 160.770832 -233.610225 
L 160.762612 -235.320121 
L 160.76511 -237.030017 
L 160.785138 -238.739913 
L 160.813974 -240.449809 
L 160.838126 -242.159705 
L 160.85179 -243.869601 
L 160.857217 -245.579497 
L 160.85837 -247.289393 
L 160.856907 -248.999289 
L 160.851587 -250.709186 
L 160.838909 -252.419082 
L 160.813981 -254.128978 
L 160.771995 -255.838874 
L 160.712619 -257.54877 
L 160.647238 -259.258666 
L 160.599228 -260.968562 
L 160.589332 -262.678458 
L 160.618702 -264.388354 
L 160.668904 -266.09825 
L 160.718914 -267.808146 
L 160.760196 -269.518042 
L 160.958554 -269.518042 
L 160.958554 -269.518042 
L 160.999836 -267.808146 
L 161.049846 -266.09825 
L 161.100048 -264.388354 
L 161.129418 -262.678458 
L 161.119522 -260.968562 
L 161.071512 -259.258666 
L 161.006131 -257.54877 
L 160.946755 -255.838874 
L 160.904769 -254.128978 
L 160.879841 -252.419082 
L 160.867163 -250.709186 
L 160.861843 -248.999289 
L 160.86038 -247.289393 
L 160.861533 -245.579497 
L 160.86696 -243.869601 
L 160.880624 -242.159705 
L 160.904776 -240.449809 
L 160.933612 -238.739913 
L 160.95364 -237.030017 
L 160.956138 -235.320121 
L 160.947918 -233.610225 
L 160.944391 -231.900329 
L 160.954357 -230.190433 
L 160.976406 -228.480537 
L 161.007432 -226.770641 
L 161.049353 -225.060745 
L 161.1078 -223.350848 
L 161.192603 -221.640952 
L 161.330575 -219.931056 
L 161.580242 -218.22116 
L 162.028468 -216.511264 
L 162.770507 -214.801368 
L 163.894799 -213.091472 
L 165.48256 -211.381576 
L 167.606001 -209.67168 
L 170.295598 -207.961784 
L 173.474646 -206.251888 
L 176.931062 -204.541992 
L 180.396757 -202.832096 
L 183.65472 -201.1222 
L 186.528143 -199.412303 
L 188.809527 -197.702407 
L 190.312145 -195.992511 
L 190.993875 -194.282615 
L 190.951578 -192.572719 
L 190.318705 -190.862823 
L 189.233471 -189.152927 
L 187.852558 -187.443031 
L 186.310472 -185.733135 
L 184.660299 -184.023239 
L 182.879923 -182.313343 
L 180.947601 -180.603447 
L 178.909288 -178.893551 
L 176.879175 -177.183655 
L 174.99983 -175.473758 
L 173.387631 -173.763862 
L 172.063572 -172.053966 
L 170.932902 -170.34407 
L 169.867696 -168.634174 
L 168.815394 -166.924278 
L 167.821699 -165.214382 
L 166.953582 -163.504486 
L 166.213554 -161.79459 
L 165.548829 -160.084694 
L 164.930164 -158.374798 
L 164.381755 -156.664902 
L 163.934674 -154.955006 
L 163.582607 -153.24511 
L 163.290343 -151.535214 
L 163.02964 -149.825317 
L 162.79644 -148.115421 
L 162.593475 -146.405525 
L 162.405163 -144.695629 
L 162.205851 -142.985733 
L 161.993871 -141.275837 
L 161.797536 -139.565941 
L 161.643614 -137.856045 
L 161.536647 -136.146149 
L 161.470372 -134.436253 
L 161.442929 -132.726357 
L 161.451183 -131.016461 
L 161.477071 -129.306565 
L 161.498993 -127.596669 
L 161.516685 -125.886772 
L 161.531384 -124.176876 
L 161.507501 -122.46698 
L 161.41143 -120.757084 
L 161.281254 -119.047188 
L 161.193968 -117.337292 
L 161.167996 -115.627396 
L 161.149251 -113.9175 
L 161.090685 -112.207604 
L 161.004931 -110.497708 
L 160.936118 -108.787812 
L 160.914984 -107.077916 
L 160.950345 -105.36802 
L 161.03215 -103.658124 
L 161.121829 -101.948227 
L 161.161565 -100.238331 
z
" style="stroke: #4c4c4c; stroke-width: 0.8"/>
    </defs>
    <g clip-path="url(#p7fe0775b85)">
     <use xlink:href="#m95a1b774c9" x="0" y="288" style="fill: #df2020; stroke: #4c4c4c; stroke-width: 0.8"/>
    </g>
   </g>
   <g id="PolyCollection_3">
    <defs>
     <path id="m128faa84f4" d="M 236.215427 -167.672557 
L 236.175823 -167.672557 
L 236.176882 -168.576966 
L 236.178176 -169.481375 
L 236.1733 -170.385783 
L 236.157381 -171.290192 
L 236.129647 -172.1946 
L 236.092162 -173.099009 
L 236.0472 -174.003418 
L 235.99708 -174.907826 
L 235.945006 -175.812235 
L 235.892692 -176.716644 
L 235.837049 -177.621052 
L 235.770577 -178.525461 
L 235.683522 -179.42987 
L 235.563708 -180.334278 
L 235.39669 -181.238687 
L 235.1731 -182.143095 
L 234.899368 -183.047504 
L 234.595569 -183.951913 
L 234.278696 -184.856321 
L 233.948321 -185.76073 
L 233.578322 -186.665139 
L 233.1137 -187.569547 
L 232.491759 -188.473956 
L 231.686663 -189.378365 
L 230.733674 -190.282773 
L 229.708114 -191.187182 
L 228.688713 -192.09159 
L 227.741393 -192.995999 
L 226.907135 -193.900408 
L 226.158109 -194.804816 
L 225.366737 -195.709225 
L 224.369924 -196.613634 
L 223.089285 -197.518042 
L 221.584867 -198.422451 
L 220.009094 -199.32686 
L 218.521029 -200.231268 
L 217.218547 -201.135677 
L 216.104463 -202.040085 
L 215.073369 -202.944494 
L 213.938975 -203.848903 
L 212.548576 -204.753311 
L 210.927529 -205.65772 
L 209.293638 -206.562129 
L 207.90161 -207.466537 
L 206.892795 -208.370946 
L 206.291015 -209.275355 
L 206.061125 -210.179763 
L 206.119378 -211.084172 
L 206.326448 -211.98858 
L 206.515345 -212.892989 
L 206.550813 -213.797398 
L 206.406306 -214.701806 
L 206.216288 -215.606215 
L 206.225213 -216.510624 
L 206.624511 -217.415032 
L 207.418028 -218.319441 
L 208.469984 -219.22385 
L 209.68317 -220.128258 
L 211.091543 -221.032667 
L 212.768404 -221.937075 
L 214.687451 -222.841484 
L 216.715671 -223.745893 
L 218.71847 -224.650301 
L 220.619237 -225.55471 
L 222.383793 -226.459119 
L 224.015404 -227.363527 
L 225.544753 -228.267936 
L 226.977248 -229.172345 
L 228.280786 -230.076753 
L 229.444574 -230.981162 
L 230.49891 -231.88557 
L 231.458486 -232.789979 
L 232.293445 -233.694388 
L 232.97714 -234.598796 
L 233.52694 -235.503205 
L 233.979921 -236.407614 
L 234.357216 -237.312022 
L 234.669979 -238.216431 
L 234.93833 -239.12084 
L 235.183623 -240.025248 
L 235.409083 -240.929657 
L 235.600927 -241.834065 
L 235.74762 -242.738474 
L 235.852329 -243.642883 
L 235.927329 -244.547291 
L 235.981537 -245.4517 
L 236.016912 -246.356109 
L 236.035821 -247.260517 
L 236.04759 -248.164926 
L 236.06434 -249.069335 
L 236.09063 -249.973743 
L 236.119267 -250.878152 
L 236.137882 -251.78256 
L 236.139785 -252.686969 
L 236.129682 -253.591378 
L 236.119408 -254.495786 
L 236.118108 -255.400195 
L 236.127207 -256.304604 
L 236.143113 -257.209012 
L 236.248137 -257.209012 
L 236.248137 -257.209012 
L 236.264043 -256.304604 
L 236.273142 -255.400195 
L 236.271842 -254.495786 
L 236.261568 -253.591378 
L 236.251465 -252.686969 
L 236.253368 -251.78256 
L 236.271983 -250.878152 
L 236.30062 -249.973743 
L 236.32691 -249.069335 
L 236.34366 -248.164926 
L 236.355429 -247.260517 
L 236.374338 -246.356109 
L 236.409713 -245.4517 
L 236.463921 -244.547291 
L 236.538921 -243.642883 
L 236.64363 -242.738474 
L 236.790323 -241.834065 
L 236.982167 -240.929657 
L 237.207627 -240.025248 
L 237.45292 -239.12084 
L 237.721271 -238.216431 
L 238.034034 -237.312022 
L 238.411329 -236.407614 
L 238.86431 -235.503205 
L 239.41411 -234.598796 
L 240.097805 -233.694388 
L 240.932764 -232.789979 
L 241.89234 -231.88557 
L 242.946676 -230.981162 
L 244.110464 -230.076753 
L 245.414002 -229.172345 
L 246.846497 -228.267936 
L 248.375846 -227.363527 
L 250.007457 -226.459119 
L 251.772013 -225.55471 
L 253.67278 -224.650301 
L 255.675579 -223.745893 
L 257.703799 -222.841484 
L 259.622846 -221.937075 
L 261.299707 -221.032667 
L 262.70808 -220.128258 
L 263.921266 -219.22385 
L 264.973222 -218.319441 
L 265.766739 -217.415032 
L 266.166037 -216.510624 
L 266.174962 -215.606215 
L 265.984944 -214.701806 
L 265.840437 -213.797398 
L 265.875905 -212.892989 
L 266.064802 -211.98858 
L 266.271872 -211.084172 
L 266.330125 -210.179763 
L 266.100235 -209.275355 
L 265.498455 -208.370946 
L 264.48964 -207.466537 
L 263.097612 -206.562129 
L 261.463721 -205.65772 
L 259.842674 -204.753311 
L 258.452275 -203.848903 
L 257.317881 -202.944494 
L 256.286787 -202.040085 
L 255.172703 -201.135677 
L 253.870221 -200.231268 
L 252.382156 -199.32686 
L 250.806383 -198.422451 
L 249.301965 -197.518042 
L 248.021326 -196.613634 
L 247.024513 -195.709225 
L 246.233141 -194.804816 
L 245.484115 -193.900408 
L 244.649857 -192.995999 
L 243.702537 -192.09159 
L 242.683136 -191.187182 
L 241.657576 -190.282773 
L 240.704587 -189.378365 
L 239.899491 -188.473956 
L 239.27755 -187.569547 
L 238.812928 -186.665139 
L 238.442929 -185.76073 
L 238.112554 -184.856321 
L 237.795681 -183.951913 
L 237.491882 -183.047504 
L 237.21815 -182.143095 
L 236.99456 -181.238687 
L 236.827542 -180.334278 
L 236.707728 -179.42987 
L 236.620673 -178.525461 
L 236.554201 -177.621052 
L 236.498558 -176.716644 
L 236.446244 -175.812235 
L 236.39417 -174.907826 
L 236.34405 -174.003418 
L 236.299088 -173.099009 
L 236.261603 -172.1946 
L 236.233869 -171.290192 
L 236.21795 -170.385783 
L 236.213074 -169.481375 
L 236.214368 -168.576966 
L 236.215427 -167.672557 
z
" style="stroke: #4c4c4c; stroke-width: 0.8"/>
    </defs>
    <g clip-path="url(#p7fe0775b85)">
     <use xlink:href="#m128faa84f4" x="0" y="288" style="fill: #2020df; stroke: #4c4c4c; stroke-width: 0.8"/>
    </g>
   </g>
   <g id="PolyCollection_4">
    <defs>
     <path id="m7927cdf685" d="M 311.571843 -160.519782 
L 311.491907 -160.519782 
L 311.495671 -161.581582 
L 311.504939 -162.643383 
L 311.515254 -163.705183 
L 311.522761 -164.766983 
L 311.525579 -165.828784 
L 311.522972 -166.890584 
L 311.514099 -167.952384 
L 311.497572 -169.014184 
L 311.471147 -170.075985 
L 311.430688 -171.137785 
L 311.369526 -172.199585 
L 311.279816 -173.261385 
L 311.154051 -174.323186 
L 310.983489 -175.384986 
L 310.756416 -176.446786 
L 310.463406 -177.508586 
L 310.107242 -178.570387 
L 309.703465 -179.632187 
L 309.26571 -180.693987 
L 308.790529 -181.755788 
L 308.259398 -182.817588 
L 307.655693 -183.879388 
L 306.976536 -184.941188 
L 306.222356 -186.002989 
L 305.369994 -187.064789 
L 304.362426 -188.126589 
L 303.145726 -189.188389 
L 301.733882 -190.25019 
L 300.235031 -191.31199 
L 298.800585 -192.37379 
L 297.539358 -193.43559 
L 296.470393 -194.497391 
L 295.537755 -195.559191 
L 294.653613 -196.620991 
L 293.731404 -197.682792 
L 292.700397 -198.744592 
L 291.517515 -199.806392 
L 290.189488 -200.868192 
L 288.793846 -201.929993 
L 287.472384 -202.991793 
L 286.379293 -204.053593 
L 285.594708 -205.115393 
L 285.06039 -206.177194 
L 284.608391 -207.238994 
L 284.077346 -208.300794 
L 283.414861 -209.362594 
L 282.684536 -210.424395 
L 282.00987 -211.486195 
L 281.533062 -212.547995 
L 281.397375 -213.609796 
L 281.703604 -214.671596 
L 282.436236 -215.733396 
L 283.432605 -216.795196 
L 284.458467 -217.856997 
L 285.351464 -218.918797 
L 286.119398 -219.980597 
L 286.92226 -221.042397 
L 287.965821 -222.104198 
L 289.382604 -223.165998 
L 291.165741 -224.227798 
L 293.189945 -225.289598 
L 295.296679 -226.351399 
L 297.368487 -227.413199 
L 299.342059 -228.474999 
L 301.182924 -229.5368 
L 302.866049 -230.5986 
L 304.371661 -231.6604 
L 305.686006 -232.7222 
L 306.804501 -233.784001 
L 307.736139 -234.845801 
L 308.503387 -235.907601 
L 309.135332 -236.969401 
L 309.657109 -238.031202 
L 310.08132 -239.093002 
L 310.409099 -240.154802 
L 310.642215 -241.216602 
L 310.795125 -242.278403 
L 310.894526 -243.340203 
L 310.966887 -244.402003 
L 311.025918 -245.463804 
L 311.071229 -246.525604 
L 311.098708 -247.587404 
L 311.111961 -248.649204 
L 311.123487 -249.711005 
L 311.145636 -250.772805 
L 311.181871 -251.834605 
L 311.22701 -252.896405 
L 311.274271 -253.958206 
L 311.320595 -255.020006 
L 311.365899 -256.081806 
L 311.409308 -257.143607 
L 311.44701 -258.205407 
L 311.473194 -259.267207 
L 311.48285 -260.329007 
L 311.474869 -261.390808 
L 311.454207 -262.452608 
L 311.431568 -263.514408 
L 311.419314 -264.576208 
L 311.424881 -265.638009 
L 311.638869 -265.638009 
L 311.638869 -265.638009 
L 311.644436 -264.576208 
L 311.632182 -263.514408 
L 311.609543 -262.452608 
L 311.588881 -261.390808 
L 311.5809 -260.329007 
L 311.590556 -259.267207 
L 311.61674 -258.205407 
L 311.654442 -257.143607 
L 311.697851 -256.081806 
L 311.743155 -255.020006 
L 311.789479 -253.958206 
L 311.83674 -252.896405 
L 311.881879 -251.834605 
L 311.918114 -250.772805 
L 311.940263 -249.711005 
L 311.951789 -248.649204 
L 311.965042 -247.587404 
L 311.992521 -246.525604 
L 312.037832 -245.463804 
L 312.096863 -244.402003 
L 312.169224 -243.340203 
L 312.268625 -242.278403 
L 312.421535 -241.216602 
L 312.654651 -240.154802 
L 312.98243 -239.093002 
L 313.406641 -238.031202 
L 313.928418 -236.969401 
L 314.560363 -235.907601 
L 315.327611 -234.845801 
L 316.259249 -233.784001 
L 317.377744 -232.7222 
L 318.692089 -231.6604 
L 320.197701 -230.5986 
L 321.880826 -229.5368 
L 323.721691 -228.474999 
L 325.695263 -227.413199 
L 327.767071 -226.351399 
L 329.873805 -225.289598 
L 331.898009 -224.227798 
L 333.681146 -223.165998 
L 335.097929 -222.104198 
L 336.14149 -221.042397 
L 336.944352 -219.980597 
L 337.712286 -218.918797 
L 338.605283 -217.856997 
L 339.631145 -216.795196 
L 340.627514 -215.733396 
L 341.360146 -214.671596 
L 341.666375 -213.609796 
L 341.530688 -212.547995 
L 341.05388 -211.486195 
L 340.379214 -210.424395 
L 339.648889 -209.362594 
L 338.986404 -208.300794 
L 338.455359 -207.238994 
L 338.00336 -206.177194 
L 337.469042 -205.115393 
L 336.684457 -204.053593 
L 335.591366 -202.991793 
L 334.269904 -201.929993 
L 332.874262 -200.868192 
L 331.546235 -199.806392 
L 330.363353 -198.744592 
L 329.332346 -197.682792 
L 328.410137 -196.620991 
L 327.525995 -195.559191 
L 326.593357 -194.497391 
L 325.524392 -193.43559 
L 324.263165 -192.37379 
L 322.828719 -191.31199 
L 321.329868 -190.25019 
L 319.918024 -189.188389 
L 318.701324 -188.126589 
L 317.693756 -187.064789 
L 316.841394 -186.002989 
L 316.087214 -184.941188 
L 315.408057 -183.879388 
L 314.804352 -182.817588 
L 314.273221 -181.755788 
L 313.79804 -180.693987 
L 313.360285 -179.632187 
L 312.956508 -178.570387 
L 312.600344 -177.508586 
L 312.307334 -176.446786 
L 312.080261 -175.384986 
L 311.909699 -174.323186 
L 311.783934 -173.261385 
L 311.694224 -172.199585 
L 311.633062 -171.137785 
L 311.592603 -170.075985 
L 311.566178 -169.014184 
L 311.549651 -167.952384 
L 311.540778 -166.890584 
L 311.538171 -165.828784 
L 311.540989 -164.766983 
L 311.548496 -163.705183 
L 311.558811 -162.643383 
L 311.568079 -161.581582 
L 311.571843 -160.519782 
z
" style="stroke: #4c4c4c; stroke-width: 0.8"/>
    </defs>
    <g clip-path="url(#p7fe0775b85)">
     <use xlink:href="#m7927cdf685" x="0" y="288" style="fill: #df2020; stroke: #4c4c4c; stroke-width: 0.8"/>
    </g>
   </g>
   <g id="matplotlib.axis_1">
    <g id="xtick_1">
     <g id="line2d_1">
      <defs>
       <path id="mb4abd82c5d" d="M 0 0 
L 0 3.5 
" style="stroke: #000000; stroke-width: 0.8"/>
      </defs>
      <g>
       <use xlink:href="#mb4abd82c5d" x="85.523125" y="199.464573" style="stroke: #000000; stroke-width: 0.8"/>
      </g>
     </g>
     <g id="text_1">
      <!-- MNase-Overlap -->
      <g transform="translate(60.32416 266.137756) rotate(-45) scale(0.1 -0.1)">
       <defs>
        <path id="DejaVuSans-4d" d="M 628 4666 
L 1569 4666 
L 2759 1491 
L 3956 4666 
L 4897 4666 
L 4897 0 
L 4281 0 
L 4281 4097 
L 3078 897 
L 2444 897 
L 1241 4097 
L 1241 0 
L 628 0 
L 628 4666 
z
" transform="scale(0.015625)"/>
        <path id="DejaVuSans-4e" d="M 628 4666 
L 1478 4666 
L 3547 763 
L 3547 4666 
L 4159 4666 
L 4159 0 
L 3309 0 
L 1241 3903 
L 1241 0 
L 628 0 
L 628 4666 
z
" transform="scale(0.015625)"/>
        <path id="DejaVuSans-61" d="M 2194 1759 
Q 1497 1759 1228 1600 
Q 959 1441 959 1056 
Q 959 750 1161 570 
Q 1363 391 1709 391 
Q 2188 391 2477 730 
Q 2766 1069 2766 1631 
L 2766 1759 
L 2194 1759 
z
M 3341 1997 
L 3341 0 
L 2766 0 
L 2766 531 
Q 2569 213 2275 61 
Q 1981 -91 1556 -91 
Q 1019 -91 701 211 
Q 384 513 384 1019 
Q 384 1609 779 1909 
Q 1175 2209 1959 2209 
L 2766 2209 
L 2766 2266 
Q 2766 2663 2505 2880 
Q 2244 3097 1772 3097 
Q 1472 3097 1187 3025 
Q 903 2953 641 2809 
L 641 3341 
Q 956 3463 1253 3523 
Q 1550 3584 1831 3584 
Q 2591 3584 2966 3190 
Q 3341 2797 3341 1997 
z
" transform="scale(0.015625)"/>
        <path id="DejaVuSans-73" d="M 2834 3397 
L 2834 2853 
Q 2591 2978 2328 3040 
Q 2066 3103 1784 3103 
Q 1356 3103 1142 2972 
Q 928 2841 928 2578 
Q 928 2378 1081 2264 
Q 1234 2150 1697 2047 
L 1894 2003 
Q 2506 1872 2764 1633 
Q 3022 1394 3022 966 
Q 3022 478 2636 193 
Q 2250 -91 1575 -91 
Q 1294 -91 989 -36 
Q 684 19 347 128 
L 347 722 
Q 666 556 975 473 
Q 1284 391 1588 391 
Q 1994 391 2212 530 
Q 2431 669 2431 922 
Q 2431 1156 2273 1281 
Q 2116 1406 1581 1522 
L 1381 1569 
Q 847 1681 609 1914 
Q 372 2147 372 2553 
Q 372 3047 722 3315 
Q 1072 3584 1716 3584 
Q 2034 3584 2315 3537 
Q 2597 3491 2834 3397 
z
" transform="scale(0.015625)"/>
        <path id="DejaVuSans-65" d="M 3597 1894 
L 3597 1613 
L 953 1613 
Q 991 1019 1311 708 
Q 1631 397 2203 397 
Q 2534 397 2845 478 
Q 3156 559 3463 722 
L 3463 178 
Q 3153 47 2828 -22 
Q 2503 -91 2169 -91 
Q 1331 -91 842 396 
Q 353 884 353 1716 
Q 353 2575 817 3079 
Q 1281 3584 2069 3584 
Q 2775 3584 3186 3129 
Q 3597 2675 3597 1894 
z
M 3022 2063 
Q 3016 2534 2758 2815 
Q 2500 3097 2075 3097 
Q 1594 3097 1305 2825 
Q 1016 2553 972 2059 
L 3022 2063 
z
" transform="scale(0.015625)"/>
        <path id="DejaVuSans-2d" d="M 313 2009 
L 1997 2009 
L 1997 1497 
L 313 1497 
L 313 2009 
z
" transform="scale(0.015625)"/>
        <path id="DejaVuSans-4f" d="M 2522 4238 
Q 1834 4238 1429 3725 
Q 1025 3213 1025 2328 
Q 1025 1447 1429 934 
Q 1834 422 2522 422 
Q 3209 422 3611 934 
Q 4013 1447 4013 2328 
Q 4013 3213 3611 3725 
Q 3209 4238 2522 4238 
z
M 2522 4750 
Q 3503 4750 4090 4092 
Q 4678 3434 4678 2328 
Q 4678 1225 4090 567 
Q 3503 -91 2522 -91 
Q 1538 -91 948 565 
Q 359 1222 359 2328 
Q 359 3434 948 4092 
Q 1538 4750 2522 4750 
z
" transform="scale(0.015625)"/>
        <path id="DejaVuSans-76" d="M 191 3500 
L 800 3500 
L 1894 563 
L 2988 3500 
L 3597 3500 
L 2284 0 
L 1503 0 
L 191 3500 
z
" transform="scale(0.015625)"/>
        <path id="DejaVuSans-72" d="M 2631 2963 
Q 2534 3019 2420 3045 
Q 2306 3072 2169 3072 
Q 1681 3072 1420 2755 
Q 1159 2438 1159 1844 
L 1159 0 
L 581 0 
L 581 3500 
L 1159 3500 
L 1159 2956 
Q 1341 3275 1631 3429 
Q 1922 3584 2338 3584 
Q 2397 3584 2469 3576 
Q 2541 3569 2628 3553 
L 2631 2963 
z
" transform="scale(0.015625)"/>
        <path id="DejaVuSans-6c" d="M 603 4863 
L 1178 4863 
L 1178 0 
L 603 0 
L 603 4863 
z
" transform="scale(0.015625)"/>
        <path id="DejaVuSans-70" d="M 1159 525 
L 1159 -1331 
L 581 -1331 
L 581 3500 
L 1159 3500 
L 1159 2969 
Q 1341 3281 1617 3432 
Q 1894 3584 2278 3584 
Q 2916 3584 3314 3078 
Q 3713 2572 3713 1747 
Q 3713 922 3314 415 
Q 2916 -91 2278 -91 
Q 1894 -91 1617 61 
Q 1341 213 1159 525 
z
M 3116 1747 
Q 3116 2381 2855 2742 
Q 2594 3103 2138 3103 
Q 1681 3103 1420 2742 
Q 1159 2381 1159 1747 
Q 1159 1113 1420 752 
Q 1681 391 2138 391 
Q 2594 391 2855 752 
Q 3116 1113 3116 1747 
z
" transform="scale(0.015625)"/>
       </defs>
       <use xlink:href="#DejaVuSans-4d"/>
       <use xlink:href="#DejaVuSans-4e" x="86.279297"/>
       <use xlink:href="#DejaVuSans-61" x="161.083984"/>
       <use xlink:href="#DejaVuSans-73" x="222.363281"/>
       <use xlink:href="#DejaVuSans-65" x="274.462891"/>
       <use xlink:href="#DejaVuSans-2d" x="335.986328"/>
       <use xlink:href="#DejaVuSans-4f" x="374.820312"/>
       <use xlink:href="#DejaVuSans-76" x="453.53125"/>
       <use xlink:href="#DejaVuSans-65" x="512.710938"/>
       <use xlink:href="#DejaVuSans-72" x="574.234375"/>
       <use xlink:href="#DejaVuSans-6c" x="615.347656"/>
       <use xlink:href="#DejaVuSans-61" x="643.130859"/>
       <use xlink:href="#DejaVuSans-70" x="704.410156"/>
      </g>
     </g>
    </g>
    <g id="xtick_2">
     <g id="line2d_2">
      <g>
       <use xlink:href="#mb4abd82c5d" x="160.859375" y="199.464573" style="stroke: #000000; stroke-width: 0.8"/>
      </g>
     </g>
     <g id="text_2">
      <!-- MNase-NoOverlap -->
      <g transform="translate(130.949311 275.559954) rotate(-45) scale(0.1 -0.1)">
       <defs>
        <path id="DejaVuSans-6f" d="M 1959 3097 
Q 1497 3097 1228 2736 
Q 959 2375 959 1747 
Q 959 1119 1226 758 
Q 1494 397 1959 397 
Q 2419 397 2687 759 
Q 2956 1122 2956 1747 
Q 2956 2369 2687 2733 
Q 2419 3097 1959 3097 
z
M 1959 3584 
Q 2709 3584 3137 3096 
Q 3566 2609 3566 1747 
Q 3566 888 3137 398 
Q 2709 -91 1959 -91 
Q 1206 -91 779 398 
Q 353 888 353 1747 
Q 353 2609 779 3096 
Q 1206 3584 1959 3584 
z
" transform="scale(0.015625)"/>
       </defs>
       <use xlink:href="#DejaVuSans-4d"/>
       <use xlink:href="#DejaVuSans-4e" x="86.279297"/>
       <use xlink:href="#DejaVuSans-61" x="161.083984"/>
       <use xlink:href="#DejaVuSans-73" x="222.363281"/>
       <use xlink:href="#DejaVuSans-65" x="274.462891"/>
       <use xlink:href="#DejaVuSans-2d" x="335.986328"/>
       <use xlink:href="#DejaVuSans-4e" x="372.070312"/>
       <use xlink:href="#DejaVuSans-6f" x="446.875"/>
       <use xlink:href="#DejaVuSans-4f" x="508.056641"/>
       <use xlink:href="#DejaVuSans-76" x="586.767578"/>
       <use xlink:href="#DejaVuSans-65" x="645.947266"/>
       <use xlink:href="#DejaVuSans-72" x="707.470703"/>
       <use xlink:href="#DejaVuSans-6c" x="748.583984"/>
       <use xlink:href="#DejaVuSans-61" x="776.367188"/>
       <use xlink:href="#DejaVuSans-70" x="837.646484"/>
      </g>
     </g>
    </g>
    <g id="xtick_3">
     <g id="line2d_3">
      <g>
       <use xlink:href="#mb4abd82c5d" x="236.195625" y="199.464573" style="stroke: #000000; stroke-width: 0.8"/>
      </g>
     </g>
     <g id="text_3">
      <!-- BNase-Overlap -->
      <g transform="translate(211.621455 264.888166) rotate(-45) scale(0.1 -0.1)">
       <defs>
        <path id="DejaVuSans-42" d="M 1259 2228 
L 1259 519 
L 2272 519 
Q 2781 519 3026 730 
Q 3272 941 3272 1375 
Q 3272 1813 3026 2020 
Q 2781 2228 2272 2228 
L 1259 2228 
z
M 1259 4147 
L 1259 2741 
L 2194 2741 
Q 2656 2741 2882 2914 
Q 3109 3088 3109 3444 
Q 3109 3797 2882 3972 
Q 2656 4147 2194 4147 
L 1259 4147 
z
M 628 4666 
L 2241 4666 
Q 2963 4666 3353 4366 
Q 3744 4066 3744 3513 
Q 3744 3084 3544 2831 
Q 3344 2578 2956 2516 
Q 3422 2416 3680 2098 
Q 3938 1781 3938 1306 
Q 3938 681 3513 340 
Q 3088 0 2303 0 
L 628 0 
L 628 4666 
z
" transform="scale(0.015625)"/>
       </defs>
       <use xlink:href="#DejaVuSans-42"/>
       <use xlink:href="#DejaVuSans-4e" x="68.603516"/>
       <use xlink:href="#DejaVuSans-61" x="143.408203"/>
       <use xlink:href="#DejaVuSans-73" x="204.6875"/>
       <use xlink:href="#DejaVuSans-65" x="256.787109"/>
       <use xlink:href="#DejaVuSans-2d" x="318.310547"/>
       <use xlink:href="#DejaVuSans-4f" x="357.144531"/>
       <use xlink:href="#DejaVuSans-76" x="435.855469"/>
       <use xlink:href="#DejaVuSans-65" x="495.035156"/>
       <use xlink:href="#DejaVuSans-72" x="556.558594"/>
       <use xlink:href="#DejaVuSans-6c" x="597.671875"/>
       <use xlink:href="#DejaVuSans-61" x="625.455078"/>
       <use xlink:href="#DejaVuSans-70" x="686.734375"/>
      </g>
     </g>
    </g>
    <g id="xtick_4">
     <g id="line2d_4">
      <g>
       <use xlink:href="#mb4abd82c5d" x="311.531875" y="199.464573" style="stroke: #000000; stroke-width: 0.8"/>
      </g>
     </g>
     <g id="text_4">
      <!-- BNase-NoOverlap -->
      <g transform="translate(282.246606 274.310364) rotate(-45) scale(0.1 -0.1)">
       <use xlink:href="#DejaVuSans-42"/>
       <use xlink:href="#DejaVuSans-4e" x="68.603516"/>
       <use xlink:href="#DejaVuSans-61" x="143.408203"/>
       <use xlink:href="#DejaVuSans-73" x="204.6875"/>
       <use xlink:href="#DejaVuSans-65" x="256.787109"/>
       <use xlink:href="#DejaVuSans-2d" x="318.310547"/>
       <use xlink:href="#DejaVuSans-4e" x="354.394531"/>
       <use xlink:href="#DejaVuSans-6f" x="429.199219"/>
       <use xlink:href="#DejaVuSans-4f" x="490.380859"/>
       <use xlink:href="#DejaVuSans-76" x="569.091797"/>
       <use xlink:href="#DejaVuSans-65" x="628.271484"/>
       <use xlink:href="#DejaVuSans-72" x="689.794922"/>
       <use xlink:href="#DejaVuSans-6c" x="730.908203"/>
       <use xlink:href="#DejaVuSans-61" x="758.691406"/>
       <use xlink:href="#DejaVuSans-70" x="819.970703"/>
      </g>
     </g>
    </g>
   </g>
   <g id="matplotlib.axis_2">
    <g id="ytick_1">
     <g id="line2d_5">
      <defs>
       <path id="m6f3c2a422c" d="M 0 0 
L -3.5 0 
" style="stroke: #000000; stroke-width: 0.8"/>
      </defs>
      <g>
       <use xlink:href="#m6f3c2a422c" x="47.855" y="199.464573" style="stroke: #000000; stroke-width: 0.8"/>
      </g>
     </g>
     <g id="text_5">
      <!-- 0.0 -->
      <g transform="translate(24.951875 203.263792) scale(0.1 -0.1)">
       <defs>
        <path id="DejaVuSans-30" d="M 2034 4250 
Q 1547 4250 1301 3770 
Q 1056 3291 1056 2328 
Q 1056 1369 1301 889 
Q 1547 409 2034 409 
Q 2525 409 2770 889 
Q 3016 1369 3016 2328 
Q 3016 3291 2770 3770 
Q 2525 4250 2034 4250 
z
M 2034 4750 
Q 2819 4750 3233 4129 
Q 3647 3509 3647 2328 
Q 3647 1150 3233 529 
Q 2819 -91 2034 -91 
Q 1250 -91 836 529 
Q 422 1150 422 2328 
Q 422 3509 836 4129 
Q 1250 4750 2034 4750 
z
" transform="scale(0.015625)"/>
        <path id="DejaVuSans-2e" d="M 684 794 
L 1344 794 
L 1344 0 
L 684 0 
L 684 794 
z
" transform="scale(0.015625)"/>
       </defs>
       <use xlink:href="#DejaVuSans-30"/>
       <use xlink:href="#DejaVuSans-2e" x="63.623047"/>
       <use xlink:href="#DejaVuSans-30" x="95.410156"/>
      </g>
     </g>
    </g>
    <g id="ytick_2">
     <g id="line2d_6">
      <g>
       <use xlink:href="#m6f3c2a422c" x="47.855" y="176.376502" style="stroke: #000000; stroke-width: 0.8"/>
      </g>
     </g>
     <g id="text_6">
      <!-- 0.5 -->
      <g transform="translate(24.951875 180.17572) scale(0.1 -0.1)">
       <defs>
        <path id="DejaVuSans-35" d="M 691 4666 
L 3169 4666 
L 3169 4134 
L 1269 4134 
L 1269 2991 
Q 1406 3038 1543 3061 
Q 1681 3084 1819 3084 
Q 2600 3084 3056 2656 
Q 3513 2228 3513 1497 
Q 3513 744 3044 326 
Q 2575 -91 1722 -91 
Q 1428 -91 1123 -41 
Q 819 9 494 109 
L 494 744 
Q 775 591 1075 516 
Q 1375 441 1709 441 
Q 2250 441 2565 725 
Q 2881 1009 2881 1497 
Q 2881 1984 2565 2268 
Q 2250 2553 1709 2553 
Q 1456 2553 1204 2497 
Q 953 2441 691 2322 
L 691 4666 
z
" transform="scale(0.015625)"/>
       </defs>
       <use xlink:href="#DejaVuSans-30"/>
       <use xlink:href="#DejaVuSans-2e" x="63.623047"/>
       <use xlink:href="#DejaVuSans-35" x="95.410156"/>
      </g>
     </g>
    </g>
    <g id="ytick_3">
     <g id="line2d_7">
      <g>
       <use xlink:href="#m6f3c2a422c" x="47.855" y="153.28843" style="stroke: #000000; stroke-width: 0.8"/>
      </g>
     </g>
     <g id="text_7">
      <!-- 1.0 -->
      <g transform="translate(24.951875 157.087649) scale(0.1 -0.1)">
       <defs>
        <path id="DejaVuSans-31" d="M 794 531 
L 1825 531 
L 1825 4091 
L 703 3866 
L 703 4441 
L 1819 4666 
L 2450 4666 
L 2450 531 
L 3481 531 
L 3481 0 
L 794 0 
L 794 531 
z
" transform="scale(0.015625)"/>
       </defs>
       <use xlink:href="#DejaVuSans-31"/>
       <use xlink:href="#DejaVuSans-2e" x="63.623047"/>
       <use xlink:href="#DejaVuSans-30" x="95.410156"/>
      </g>
     </g>
    </g>
    <g id="ytick_4">
     <g id="line2d_8">
      <g>
       <use xlink:href="#m6f3c2a422c" x="47.855" y="130.200358" style="stroke: #000000; stroke-width: 0.8"/>
      </g>
     </g>
     <g id="text_8">
      <!-- 1.5 -->
      <g transform="translate(24.951875 133.999577) scale(0.1 -0.1)">
       <use xlink:href="#DejaVuSans-31"/>
       <use xlink:href="#DejaVuSans-2e" x="63.623047"/>
       <use xlink:href="#DejaVuSans-35" x="95.410156"/>
      </g>
     </g>
    </g>
    <g id="ytick_5">
     <g id="line2d_9">
      <g>
       <use xlink:href="#m6f3c2a422c" x="47.855" y="107.112287" style="stroke: #000000; stroke-width: 0.8"/>
      </g>
     </g>
     <g id="text_9">
      <!-- 2.0 -->
      <g transform="translate(24.951875 110.911505) scale(0.1 -0.1)">
       <defs>
        <path id="DejaVuSans-32" d="M 1228 531 
L 3431 531 
L 3431 0 
L 469 0 
L 469 531 
Q 828 903 1448 1529 
Q 2069 2156 2228 2338 
Q 2531 2678 2651 2914 
Q 2772 3150 2772 3378 
Q 2772 3750 2511 3984 
Q 2250 4219 1831 4219 
Q 1534 4219 1204 4116 
Q 875 4013 500 3803 
L 500 4441 
Q 881 4594 1212 4672 
Q 1544 4750 1819 4750 
Q 2544 4750 2975 4387 
Q 3406 4025 3406 3419 
Q 3406 3131 3298 2873 
Q 3191 2616 2906 2266 
Q 2828 2175 2409 1742 
Q 1991 1309 1228 531 
z
" transform="scale(0.015625)"/>
       </defs>
       <use xlink:href="#DejaVuSans-32"/>
       <use xlink:href="#DejaVuSans-2e" x="63.623047"/>
       <use xlink:href="#DejaVuSans-30" x="95.410156"/>
      </g>
     </g>
    </g>
    <g id="ytick_6">
     <g id="line2d_10">
      <g>
       <use xlink:href="#m6f3c2a422c" x="47.855" y="84.024215" style="stroke: #000000; stroke-width: 0.8"/>
      </g>
     </g>
     <g id="text_10">
      <!-- 2.5 -->
      <g transform="translate(24.951875 87.823434) scale(0.1 -0.1)">
       <use xlink:href="#DejaVuSans-32"/>
       <use xlink:href="#DejaVuSans-2e" x="63.623047"/>
       <use xlink:href="#DejaVuSans-35" x="95.410156"/>
      </g>
     </g>
    </g>
    <g id="ytick_7">
     <g id="line2d_11">
      <g>
       <use xlink:href="#m6f3c2a422c" x="47.855" y="60.936143" style="stroke: #000000; stroke-width: 0.8"/>
      </g>
     </g>
     <g id="text_11">
      <!-- 3.0 -->
      <g transform="translate(24.951875 64.735362) scale(0.1 -0.1)">
       <defs>
        <path id="DejaVuSans-33" d="M 2597 2516 
Q 3050 2419 3304 2112 
Q 3559 1806 3559 1356 
Q 3559 666 3084 287 
Q 2609 -91 1734 -91 
Q 1441 -91 1130 -33 
Q 819 25 488 141 
L 488 750 
Q 750 597 1062 519 
Q 1375 441 1716 441 
Q 2309 441 2620 675 
Q 2931 909 2931 1356 
Q 2931 1769 2642 2001 
Q 2353 2234 1838 2234 
L 1294 2234 
L 1294 2753 
L 1863 2753 
Q 2328 2753 2575 2939 
Q 2822 3125 2822 3475 
Q 2822 3834 2567 4026 
Q 2313 4219 1838 4219 
Q 1578 4219 1281 4162 
Q 984 4106 628 3988 
L 628 4550 
Q 988 4650 1302 4700 
Q 1616 4750 1894 4750 
Q 2613 4750 3031 4423 
Q 3450 4097 3450 3541 
Q 3450 3153 3228 2886 
Q 3006 2619 2597 2516 
z
" transform="scale(0.015625)"/>
       </defs>
       <use xlink:href="#DejaVuSans-33"/>
       <use xlink:href="#DejaVuSans-2e" x="63.623047"/>
       <use xlink:href="#DejaVuSans-30" x="95.410156"/>
      </g>
     </g>
    </g>
    <g id="ytick_8">
     <g id="line2d_12">
      <g>
       <use xlink:href="#m6f3c2a422c" x="47.855" y="37.848072" style="stroke: #000000; stroke-width: 0.8"/>
      </g>
     </g>
     <g id="text_12">
      <!-- 3.5 -->
      <g transform="translate(24.951875 41.64729) scale(0.1 -0.1)">
       <use xlink:href="#DejaVuSans-33"/>
       <use xlink:href="#DejaVuSans-2e" x="63.623047"/>
       <use xlink:href="#DejaVuSans-35" x="95.410156"/>
      </g>
     </g>
    </g>
    <g id="ytick_9">
     <g id="line2d_13">
      <g>
       <use xlink:href="#m6f3c2a422c" x="47.855" y="14.76" style="stroke: #000000; stroke-width: 0.8"/>
      </g>
     </g>
     <g id="text_13">
      <!-- 4.0 -->
      <g transform="translate(24.951875 18.559219) scale(0.1 -0.1)">
       <defs>
        <path id="DejaVuSans-34" d="M 2419 4116 
L 825 1625 
L 2419 1625 
L 2419 4116 
z
M 2253 4666 
L 3047 4666 
L 3047 1625 
L 3713 1625 
L 3713 1100 
L 3047 1100 
L 3047 0 
L 2419 0 
L 2419 1100 
L 313 1100 
L 313 1709 
L 2253 4666 
z
" transform="scale(0.015625)"/>
       </defs>
       <use xlink:href="#DejaVuSans-34"/>
       <use xlink:href="#DejaVuSans-2e" x="63.623047"/>
       <use xlink:href="#DejaVuSans-30" x="95.410156"/>
      </g>
     </g>
    </g>
    <g id="text_14">
     <!-- Tag Occupancy (log10) -->
     <g transform="translate(18.872188 164.363068) rotate(-90) scale(0.1 -0.1)">
      <defs>
       <path id="DejaVuSans-54" d="M -19 4666 
L 3928 4666 
L 3928 4134 
L 2272 4134 
L 2272 0 
L 1638 0 
L 1638 4134 
L -19 4134 
L -19 4666 
z
" transform="scale(0.015625)"/>
       <path id="DejaVuSans-67" d="M 2906 1791 
Q 2906 2416 2648 2759 
Q 2391 3103 1925 3103 
Q 1463 3103 1205 2759 
Q 947 2416 947 1791 
Q 947 1169 1205 825 
Q 1463 481 1925 481 
Q 2391 481 2648 825 
Q 2906 1169 2906 1791 
z
M 3481 434 
Q 3481 -459 3084 -895 
Q 2688 -1331 1869 -1331 
Q 1566 -1331 1297 -1286 
Q 1028 -1241 775 -1147 
L 775 -588 
Q 1028 -725 1275 -790 
Q 1522 -856 1778 -856 
Q 2344 -856 2625 -561 
Q 2906 -266 2906 331 
L 2906 616 
Q 2728 306 2450 153 
Q 2172 0 1784 0 
Q 1141 0 747 490 
Q 353 981 353 1791 
Q 353 2603 747 3093 
Q 1141 3584 1784 3584 
Q 2172 3584 2450 3431 
Q 2728 3278 2906 2969 
L 2906 3500 
L 3481 3500 
L 3481 434 
z
" transform="scale(0.015625)"/>
       <path id="DejaVuSans-20" transform="scale(0.015625)"/>
       <path id="DejaVuSans-63" d="M 3122 3366 
L 3122 2828 
Q 2878 2963 2633 3030 
Q 2388 3097 2138 3097 
Q 1578 3097 1268 2742 
Q 959 2388 959 1747 
Q 959 1106 1268 751 
Q 1578 397 2138 397 
Q 2388 397 2633 464 
Q 2878 531 3122 666 
L 3122 134 
Q 2881 22 2623 -34 
Q 2366 -91 2075 -91 
Q 1284 -91 818 406 
Q 353 903 353 1747 
Q 353 2603 823 3093 
Q 1294 3584 2113 3584 
Q 2378 3584 2631 3529 
Q 2884 3475 3122 3366 
z
" transform="scale(0.015625)"/>
       <path id="DejaVuSans-75" d="M 544 1381 
L 544 3500 
L 1119 3500 
L 1119 1403 
Q 1119 906 1312 657 
Q 1506 409 1894 409 
Q 2359 409 2629 706 
Q 2900 1003 2900 1516 
L 2900 3500 
L 3475 3500 
L 3475 0 
L 2900 0 
L 2900 538 
Q 2691 219 2414 64 
Q 2138 -91 1772 -91 
Q 1169 -91 856 284 
Q 544 659 544 1381 
z
M 1991 3584 
L 1991 3584 
z
" transform="scale(0.015625)"/>
       <path id="DejaVuSans-6e" d="M 3513 2113 
L 3513 0 
L 2938 0 
L 2938 2094 
Q 2938 2591 2744 2837 
Q 2550 3084 2163 3084 
Q 1697 3084 1428 2787 
Q 1159 2491 1159 1978 
L 1159 0 
L 581 0 
L 581 3500 
L 1159 3500 
L 1159 2956 
Q 1366 3272 1645 3428 
Q 1925 3584 2291 3584 
Q 2894 3584 3203 3211 
Q 3513 2838 3513 2113 
z
" transform="scale(0.015625)"/>
       <path id="DejaVuSans-79" d="M 2059 -325 
Q 1816 -950 1584 -1140 
Q 1353 -1331 966 -1331 
L 506 -1331 
L 506 -850 
L 844 -850 
Q 1081 -850 1212 -737 
Q 1344 -625 1503 -206 
L 1606 56 
L 191 3500 
L 800 3500 
L 1894 763 
L 2988 3500 
L 3597 3500 
L 2059 -325 
z
" transform="scale(0.015625)"/>
       <path id="DejaVuSans-28" d="M 1984 4856 
Q 1566 4138 1362 3434 
Q 1159 2731 1159 2009 
Q 1159 1288 1364 580 
Q 1569 -128 1984 -844 
L 1484 -844 
Q 1016 -109 783 600 
Q 550 1309 550 2009 
Q 550 2706 781 3412 
Q 1013 4119 1484 4856 
L 1984 4856 
z
" transform="scale(0.015625)"/>
       <path id="DejaVuSans-29" d="M 513 4856 
L 1013 4856 
Q 1481 4119 1714 3412 
Q 1947 2706 1947 2009 
Q 1947 1309 1714 600 
Q 1481 -109 1013 -844 
L 513 -844 
Q 928 -128 1133 580 
Q 1338 1288 1338 2009 
Q 1338 2731 1133 3434 
Q 928 4138 513 4856 
z
" transform="scale(0.015625)"/>
      </defs>
      <use xlink:href="#DejaVuSans-54"/>
      <use xlink:href="#DejaVuSans-61" x="44.583984"/>
      <use xlink:href="#DejaVuSans-67" x="105.863281"/>
      <use xlink:href="#DejaVuSans-20" x="169.339844"/>
      <use xlink:href="#DejaVuSans-4f" x="201.126953"/>
      <use xlink:href="#DejaVuSans-63" x="279.837891"/>
      <use xlink:href="#DejaVuSans-63" x="334.818359"/>
      <use xlink:href="#DejaVuSans-75" x="389.798828"/>
      <use xlink:href="#DejaVuSans-70" x="453.177734"/>
      <use xlink:href="#DejaVuSans-61" x="516.654297"/>
      <use xlink:href="#DejaVuSans-6e" x="577.933594"/>
      <use xlink:href="#DejaVuSans-63" x="641.3125"/>
      <use xlink:href="#DejaVuSans-79" x="696.292969"/>
      <use xlink:href="#DejaVuSans-20" x="755.472656"/>
      <use xlink:href="#DejaVuSans-28" x="787.259766"/>
      <use xlink:href="#DejaVuSans-6c" x="826.273438"/>
      <use xlink:href="#DejaVuSans-6f" x="854.056641"/>
      <use xlink:href="#DejaVuSans-67" x="915.238281"/>
      <use xlink:href="#DejaVuSans-31" x="978.714844"/>
      <use xlink:href="#DejaVuSans-30" x="1042.337891"/>
      <use xlink:href="#DejaVuSans-29" x="1105.960938"/>
     </g>
    </g>
   </g>
   <g id="line2d_14">
    <path d="M 68.815503 151.829645 
L 102.230747 151.829645 
" clip-path="url(#p7fe0775b85)" style="fill: none; stroke-dasharray: 1,0.6; stroke-dashoffset: 0; stroke: #4c4c4c; stroke-width: 0.8"/>
   </g>
   <g id="line2d_15">
    <path d="M 60.137114 127.685121 
L 110.909136 127.685121 
" clip-path="url(#p7fe0775b85)" style="fill: none; stroke-dasharray: 2,0.8; stroke-dashoffset: 0; stroke: #4c4c4c; stroke-width: 0.8"/>
   </g>
   <g id="line2d_16">
    <path d="M 55.646689 110.128432 
L 115.399561 110.128432 
" clip-path="url(#p7fe0775b85)" style="fill: none; stroke-dasharray: 1,0.6; stroke-dashoffset: 0; stroke: #4c4c4c; stroke-width: 0.8"/>
   </g>
   <g id="line2d_17">
    <path d="M 143.050879 109.309786 
L 178.667871 109.309786 
" clip-path="url(#p7fe0775b85)" style="fill: none; stroke-dasharray: 1,0.6; stroke-dashoffset: 0; stroke: #4c4c4c; stroke-width: 0.8"/>
   </g>
   <g id="line2d_18">
    <path d="M 132.37197 98.668544 
L 189.34678 98.668544 
" clip-path="url(#p7fe0775b85)" style="fill: none; stroke-dasharray: 2,0.8; stroke-dashoffset: 0; stroke: #4c4c4c; stroke-width: 0.8"/>
   </g>
   <g id="line2d_19">
    <path d="M 132.524818 90.735025 
L 189.193932 90.735025 
" clip-path="url(#p7fe0775b85)" style="fill: none; stroke-dasharray: 1,0.6; stroke-dashoffset: 0; stroke: #4c4c4c; stroke-width: 0.8"/>
   </g>
   <g id="line2d_20">
    <path d="M 212.810373 83.416979 
L 259.580877 83.416979 
" clip-path="url(#p7fe0775b85)" style="fill: none; stroke-dasharray: 1,0.6; stroke-dashoffset: 0; stroke: #4c4c4c; stroke-width: 0.8"/>
   </g>
   <g id="line2d_21">
    <path d="M 206.365711 75.823438 
L 266.025539 75.823438 
" clip-path="url(#p7fe0775b85)" style="fill: none; stroke-dasharray: 2,0.8; stroke-dashoffset: 0; stroke: #4c4c4c; stroke-width: 0.8"/>
   </g>
   <g id="line2d_22">
    <path d="M 208.931218 68.432308 
L 263.460032 68.432308 
" clip-path="url(#p7fe0775b85)" style="fill: none; stroke-dasharray: 1,0.6; stroke-dashoffset: 0; stroke: #4c4c4c; stroke-width: 0.8"/>
   </g>
   <g id="line2d_23">
    <path d="M 288.886304 86.140349 
L 334.177446 86.140349 
" clip-path="url(#p7fe0775b85)" style="fill: none; stroke-dasharray: 1,0.6; stroke-dashoffset: 0; stroke: #4c4c4c; stroke-width: 0.8"/>
   </g>
   <g id="line2d_24">
    <path d="M 282.283258 76.944067 
L 340.780492 76.944067 
" clip-path="url(#p7fe0775b85)" style="fill: none; stroke-dasharray: 2,0.8; stroke-dashoffset: 0; stroke: #4c4c4c; stroke-width: 0.8"/>
   </g>
   <g id="line2d_25">
    <path d="M 285.82077 68.432308 
L 337.24298 68.432308 
" clip-path="url(#p7fe0775b85)" style="fill: none; stroke-dasharray: 1,0.6; stroke-dashoffset: 0; stroke: #4c4c4c; stroke-width: 0.8"/>
   </g>
   <g id="patch_3">
    <path d="M 47.855 199.464573 
L 47.855 14.76 
" style="fill: none; stroke: #000000; stroke-width: 0.8; stroke-linejoin: miter; stroke-linecap: square"/>
   </g>
   <g id="patch_4">
    <path d="M 349.2 199.464573 
L 349.2 14.76 
" style="fill: none; stroke: #000000; stroke-width: 0.8; stroke-linejoin: miter; stroke-linecap: square"/>
   </g>
   <g id="patch_5">
    <path d="M 47.855 199.464573 
L 349.2 199.464573 
" style="fill: none; stroke: #000000; stroke-width: 0.8; stroke-linejoin: miter; stroke-linecap: square"/>
   </g>
   <g id="patch_6">
    <path d="M 47.855 14.76 
L 349.2 14.76 
" style="fill: none; stroke: #000000; stroke-width: 0.8; stroke-linejoin: miter; stroke-linecap: square"/>
   </g>
  </g>
 </g>
 <defs>
  <clipPath id="p7fe0775b85">
   <rect x="47.855" y="14.76" width="301.345" height="184.704573"/>
  </clipPath>
 </defs>
</svg>
