<?xml version="1.0" encoding="UTF-8"?>
<svg xmlns="http://www.w3.org/2000/svg" xmlns:xlink="http://www.w3.org/1999/xlink" version="1.1" viewBox="0 0 500 300">
  <defs>
    <style>
      .cls-1 {
        opacity: .5;
        stroke: gray;
        stroke-dasharray: 5 5;
      }

      .cls-1, .cls-2, .cls-3, .cls-4, .cls-5, .cls-6, .cls-7 {
        fill: none;
      }

      .cls-1, .cls-8, .cls-9, .cls-10, .cls-3, .cls-11, .cls-12, .cls-13, .cls-14, .cls-15, .cls-16, .cls-17 {
        isolation: isolate;
      }

      .cls-2 {
        stroke: #ff2600;
      }

      .cls-2, .cls-4, .cls-5, .cls-7 {
        stroke-width: .5px;
      }

      .cls-18 {
        fill: url(#linear-gradient-8);
      }

      .cls-19 {
        fill: url(#linear-gradient-7);
      }

      .cls-20 {
        fill: url(#linear-gradient-5);
      }

      .cls-21 {
        fill: url(#linear-gradient-6);
      }

      .cls-22 {
        fill: url(#linear-gradient-9);
      }

      .cls-23 {
        fill: url(#linear-gradient-4);
      }

      .cls-24 {
        fill: url(#linear-gradient-3);
      }

      .cls-25 {
        fill: url(#linear-gradient-2);
      }

      .cls-26, .cls-16 {
        fill: #aa7942;
      }

      .cls-27, .cls-8 {
        fill: #0433ff;
      }

      .cls-28 {
        fill: url(#linear-gradient);
      }

      .cls-29, .cls-12 {
        fill: #ff2600;
      }

      .cls-8, .cls-9, .cls-3, .cls-12, .cls-13, .cls-14, .cls-16, .cls-17 {
        font-family: Helvetica, Helvetica;
      }

      .cls-8, .cls-10, .cls-3, .cls-12, .cls-13, .cls-14, .cls-16 {
        font-size: 8px;
      }

      .cls-9 {
        font-size: 10px;
      }

      .cls-10 {
        font-family: Helvetica-Bold, Helvetica;
        font-weight: 700;
      }

      .cls-3 {
        stroke-width: .1px;
      }

      .cls-3, .cls-30, .cls-6 {
        stroke: #000;
      }

      .cls-31, .cls-14 {
        fill: #00f900;
      }

      .cls-30, .cls-32 {
        fill: #fff;
      }

      .cls-33 {
        fill: #2e8bb9;
        stroke: #03647a;
        stroke-width: 3px;
      }

      .cls-15, .cls-34 {
        display: none;
      }

      .cls-4 {
        stroke: #0433ff;
      }

      .cls-5 {
        stroke: #00f900;
      }

      .cls-17 {
        font-size: 14px;
      }

      .cls-7 {
        stroke: #aa7942;
      }
    </style>
    <linearGradient id="linear-gradient" x1="-705.6" y1="689.9" x2="-705.6" y2="688.9" gradientTransform="translate(174830 307645.4) scale(247.5 -445.7)" gradientUnits="userSpaceOnUse">
      <stop offset="0" stop-color="#aa7942" stop-opacity="0"/>
      <stop offset="1" stop-color="#aa7942" stop-opacity="0"/>
    </linearGradient>
    <linearGradient id="linear-gradient-2" y1="214.1" y2="214.1" gradientTransform="translate(174830 802) scale(247.5 -1)" xlink:href="#linear-gradient"/>
    <linearGradient id="linear-gradient-3" x1="-705.6" y1="689.8" x2="-705.6" y2="688.8" gradientTransform="translate(174830 198011.3) scale(247.5 -286.8)" gradientUnits="userSpaceOnUse">
      <stop offset="0" stop-color="#00f900" stop-opacity="0"/>
      <stop offset="1" stop-color="#00f900" stop-opacity="0"/>
    </linearGradient>
    <linearGradient id="linear-gradient-4" y1="344.1" y2="344.1" gradientTransform="translate(174830 802) scale(247.5 -1)" xlink:href="#linear-gradient-3"/>
    <linearGradient id="linear-gradient-5" x1="-705.6" y1="690.2" x2="-705.6" y2="689.2" gradientTransform="translate(174830 290551.3) scale(247.5 -420.9)" gradientUnits="userSpaceOnUse">
      <stop offset="0" stop-color="#0433ff" stop-opacity="0"/>
      <stop offset="1" stop-color="#0433ff" stop-opacity="0"/>
    </linearGradient>
    <linearGradient id="linear-gradient-6" y1="344.1" y2="344.1" gradientTransform="translate(174830 802) scale(247.5 -1)" xlink:href="#linear-gradient-5"/>
    <linearGradient id="linear-gradient-7" x1="-705.6" y1="690.2" x2="-705.6" y2="689.2" gradientTransform="translate(174830 294988.7) scale(247.5 -427.4)" gradientUnits="userSpaceOnUse">
      <stop offset="0" stop-color="#ff2600" stop-opacity="0"/>
      <stop offset="1" stop-color="#ff2600" stop-opacity="0"/>
    </linearGradient>
    <linearGradient id="linear-gradient-8" y1="344.1" y2="344.1" gradientTransform="translate(174830 802) scale(247.5 -1)" xlink:href="#linear-gradient-7"/>
    <linearGradient id="linear-gradient-9" x1="-2117.8" y1="-456.6" x2="-2117.8" y2="-456.6" gradientTransform="translate(524367 24) scale(247.5 -1)" xlink:href="#linear-gradient-5"/>
  </defs>
  <!-- Generator: Adobe Illustrator 28.7.2, SVG Export Plug-In . SVG Version: 1.2.0 Build 154)  -->
  <g>
    <g id="Layer_1">
      <g>
        <g>
          <path class="cls-28" d="M61.2,587.9V225.8l.5-1,.5,10.2.5-4.5.5-8.8.5,1.4.5-.7.5-3.8.5-4,.5,9.5.5-4.5.5-.7.5-6,.5,1.4.5-6.4.5,9.5.5-.7.5,1.7.5-1.9.5-3.3.5,1.2.5-4,.5,2.9.5,7.4.5-.7.5-2.4.5,1.7.5,5,.5-11,.5-1,.5-6.2.5.5.5-7.9.5,9.5.5-1,.5,11.9.5-9.5.5-.5.5-2.1.5-.5.5-5.7.5,8.1.5-2.9.5-3.1.5-3.6.5-6.7h.5l.5-.7.5,1.2.5,8.6.5,7.1.5,1.2.5.2.5,2.4.5-2.9.5-11,.5,3.8.5,2.9.5-3.3.5-1,.5,9.8.5-5.5.5,2.4h.5l.5-3.1.5-7.9.5,4.3.5-1.4.5,3.8.5,11,.5,5.5.5-2.6.5,2.1.5-4,.5-12.6.5-4.8.5-2.1.5-2.1.5,5.7.5,1,.5,3.3.5,3.3.5-5.2.5-3.8.5,1.2.5,1,.5,2.1.5,6.2.5-3.1.5,10.5.5,1.7.5-1.4.5-1.2.5-3.1.5-9.1.5.7.5-10,.5.5.5,5,.5-6.9.5-1,.5,12.1.5-1.4.5-3.3.5,12.1.5-4.5.5-10.7.5-4,.5,9.5.5-3.3.5,3.3.5,7.1.5-.2.5-10.7.5,1,.5-13.8.5,5.2.5-.2.5,6.7.5-6.7.5,13.3.5-8.8.5,6.9.5-11.2h.5l.5-4.1.5,3.3.5-8.6.5,15.7.5,9.1.5-2.4.5-4.8.5,4.8.5-7.1.5-12.9.5,5.2.5-2.4h.5l.5,1.2.5,9.3.5,4,.5,3.8.5,1.2.5-1.2.5-8.3.5-7.9.5,5,.5-11.4.5,3.3.5,2.6.5-3.3.5-9.8.5,13.1.5-8.3.5-5.2.5,6.9.5,1.4.5-11,.5,7.4.5,4.3.5,3.8.5-1,.5,8.6.5-6,.5-3.3.5-6.2.5,2.9.5-.7.5,3.1.5,3.3.5,3.1.5-4.1.5-2.1.5-1,.5-5.2.5-.5.5,1.9.5-9.1.5-1.2.5,1.2.5-2.1.5,4,.5,2.4.5-5,.5,2.6.5-7.4.5-5.2.5-.7.5,9.1.5,1.9.5,6.2.5,3.3.5-8.1.5-2.4.5-4.5.5-1,.5-6.2.5,13.1.5-6.2.5.5.5,5.7.5-1,.5,6.2.5-6,.5-1,.5-11,.5,7.1.5-17.2.5,10,.5,2.6.5,1.7.5-1,.5,11,.5-10.2.5,1.7.5,1.4.5-6,.5-7.9.5,5.2.5-3.8.5-2.9.5,2.6.5-2.1.5,5,.5-1.4.5-11.4.5,85,.5,93.9.5,79.6.5,88.9.5,98.4h17.5l.5-85.5.5-88.9.5-88.9.5-84.8.5-87.2.5,3.6.5,2.6.5,9.1.5,3.6.5-8.8.5-3.1.5.2.5-6.9.5,4.3.5,4.5.5,4.5.5,1.2.5,6.4.5-16,.5,4.1.5-11.9.5,1.4.5-7.9.5,4.8.5-2.9.5,10,.5-1.4.5,2.1.5,1,.5,4.8.5-.7.5,5.2.5,5.5.5,1.4.5,1,.5,8.3.5-6.2.5.7.5.2.5,2.4.5-6.4.5,2.9.5-16.4.5,12.4.5.7.5-2.4.5,5,.5,16.4.5-13.8.5-8.6.5-5.7.5-3.6.5-10.7.5,13.6.5,2.6.5,12.6.5-.7.5,17.2.5-1.4.5,5.7.5-4.8.5,3.1.5-19.3.5-5.7.5,2.4.5,1.9.5-1.9.5,13.1.5.7.5.5.5-1.4.5-3.3.5-2.6.5,3.1.5-4.8.5-3.8.5,11.7.5-9.1.5,2.9.5-2.6.5,2.1.5-6,.5,1.9.5-1.9.5,8.3.5,6.2.5,2.1.5,13.3.5-3.6.5-6.7.5,6,.5-12.9.5-5,.5.7.5,2.6.5-8.6.5,14.5.5,1.2.5-2.9.5,1,.5-8.6.5,2.6.5-11.9.5,7.1.5,1.2.5,12.1.5-10,.5,10,.5.2.5,2.1.5-9.1.5,14.5.5-1.2.5,2.4.5-6.4.5,1,.5-17.9.5,2.9.5,1.7.5,4.3.5,9.8.5,4.3.5,5.2.5-9.1.5,6.7.5-8.8.5,7.9.5-7.1.5,3.8.5-8.3.5,3.6.5-2.6.5-1.9.5-3.1.5,3.1.5,1.4.5.2.5,13.3h1l.5,5.5.5.2.5-4.5.5,3.1.5-3.8.5,2.1.5-4,.5,2.1.5-2.4.5,6.9h.5l.5,5.2.5-6.9.5-2.4.5,1,.5-13.3.5-.5.5,9.3.5,8.8.5,2.9.5,4.8.5-8.6.5-5.5.5-10,.5-3.1.5,7.4.5,3.1.5,1.9.5,5.2.5,1.2.5-9.3.5,3.6.5-5.2.5-.5.5-8.1.5,2.4.5,3.6.5-1,.5,3.1.5,3.8.5,1,.5-1.9.5,5.5.5-10.7.5,8.3.5-4,.5-.2.5.2.5,6.7.5.7.5,3.6.5,1.4.5,4,.5-.2.5-2.6.5-1.4.5,1.2.5-1.9h.5l.5-6.2.5-2.9h.5l.5-7.9.5,3.3.5,3.8.5,1,.5.7.5-.2.5-5,.5-6.9.5,8.8.5-9.3.5-1.4.5,1.2.5,3.3.5-2.4.5,6.7.5,7.9.5-2.9h.5l.5.5.5.7.5-3.6.5,6.2.5-4.8.5-6,.5,2.1.5,2.4.5-1.2.5,8.8v376.1"/>
          <path class="cls-7" d="M61.2,225.8l.5-1,.5,10.2.5-4.5.5-8.8.5,1.4.5-.7.5-3.8.5-4,.5,9.5.5-4.5.5-.7.5-6,.5,1.4.5-6.4.5,9.5.5-.7.5,1.7.5-1.9.5-3.3.5,1.2.5-4,.5,2.9.5,7.4.5-.7.5-2.4.5,1.7.5,5,.5-11,.5-1,.5-6.2.5.5.5-7.9.5,9.5.5-1,.5,11.9.5-9.5.5-.5.5-2.1.5-.5.5-5.7.5,8.1.5-2.9.5-3.1.5-3.6.5-6.7h.5l.5-.7.5,1.2.5,8.6.5,7.1.5,1.2.5.2.5,2.4.5-2.9.5-11,.5,3.8.5,2.9.5-3.3.5-1,.5,9.8.5-5.5.5,2.4h.5l.5-3.1.5-7.9.5,4.3.5-1.4.5,3.8.5,11,.5,5.5.5-2.6.5,2.1.5-4,.5-12.6.5-4.8.5-2.1.5-2.1.5,5.7.5,1,.5,3.3.5,3.3.5-5.2.5-3.8.5,1.2.5,1,.5,2.1.5,6.2.5-3.1.5,10.5.5,1.7.5-1.4.5-1.2.5-3.1.5-9.1.5.7.5-10,.5.5.5,5,.5-6.9.5-1,.5,12.1.5-1.4.5-3.3.5,12.1.5-4.5.5-10.7.5-4,.5,9.5.5-3.3.5,3.3.5,7.1.5-.2.5-10.7.5,1,.5-13.8.5,5.2.5-.2.5,6.7.5-6.7.5,13.3.5-8.8.5,6.9.5-11.2h.5l.5-4.1.5,3.3.5-8.6.5,15.7.5,9.1.5-2.4.5-4.8.5,4.8.5-7.1.5-12.9.5,5.2.5-2.4h.5l.5,1.2.5,9.3.5,4,.5,3.8.5,1.2.5-1.2.5-8.3.5-7.9.5,5,.5-11.4.5,3.3.5,2.6.5-3.3.5-9.8.5,13.1.5-8.3.5-5.2.5,6.9.5,1.4.5-11,.5,7.4.5,4.3.5,3.8.5-1,.5,8.6.5-6,.5-3.3.5-6.2.5,2.9.5-.7.5,3.1.5,3.3.5,3.1.5-4.1.5-2.1.5-1,.5-5.2.5-.5.5,1.9.5-9.1.5-1.2.5,1.2.5-2.1.5,4,.5,2.4.5-5,.5,2.6.5-7.4.5-5.2.5-.7.5,9.1.5,1.9.5,6.2.5,3.3.5-8.1.5-2.4.5-4.5.5-1,.5-6.2.5,13.1.5-6.2.5.5.5,5.7.5-1,.5,6.2.5-6,.5-1,.5-11,.5,7.1.5-17.2.5,10,.5,2.6.5,1.7.5-1,.5,11,.5-10.2.5,1.7.5,1.4.5-6,.5-7.9.5,5.2.5-3.8.5-2.9.5,2.6.5-2.1.5,5,.5-1.4.5-11.4.5,85,.5,93.9.5,79.6.5,88.9.5,98.4h17.5l.5-85.5.5-88.9.5-88.9.5-84.8.5-87.2.5,3.6.5,2.6.5,9.1.5,3.6.5-8.8.5-3.1.5.2.5-6.9.5,4.3.5,4.5.5,4.5.5,1.2.5,6.4.5-16,.5,4.1.5-11.9.5,1.4.5-7.9.5,4.8.5-2.9.5,10,.5-1.4.5,2.1.5,1,.5,4.8.5-.7.5,5.2.5,5.5.5,1.4.5,1,.5,8.3.5-6.2.5.7.5.2.5,2.4.5-6.4.5,2.9.5-16.4.5,12.4.5.7.5-2.4.5,5,.5,16.4.5-13.8.5-8.6.5-5.7.5-3.6.5-10.7.5,13.6.5,2.6.5,12.6.5-.7.5,17.2.5-1.4.5,5.7.5-4.8.5,3.1.5-19.3.5-5.7.5,2.4.5,1.9.5-1.9.5,13.1.5.7.5.5.5-1.4.5-3.3.5-2.6.5,3.1.5-4.8.5-3.8.5,11.7.5-9.1.5,2.9.5-2.6.5,2.1.5-6,.5,1.9.5-1.9.5,8.3.5,6.2.5,2.1.5,13.3.5-3.6.5-6.7.5,6,.5-12.9.5-5,.5.7.5,2.6.5-8.6.5,14.5.5,1.2.5-2.9.5,1,.5-8.6.5,2.6.5-11.9.5,7.1.5,1.2.5,12.1.5-10,.5,10,.5.2.5,2.1.5-9.1.5,14.5.5-1.2.5,2.4.5-6.4.5,1,.5-17.9.5,2.9.5,1.7.5,4.3.5,9.8.5,4.3.5,5.2.5-9.1.5,6.7.5-8.8.5,7.9.5-7.1.5,3.8.5-8.3.5,3.6.5-2.6.5-1.9.5-3.1.5,3.1.5,1.4.5.2.5,13.3h1l.5,5.5.5.2.5-4.5.5,3.1.5-3.8.5,2.1.5-4,.5,2.1.5-2.4.5,6.9h.5l.5,5.2.5-6.9.5-2.4.5,1,.5-13.3.5-.5.5,9.3.5,8.8.5,2.9.5,4.8.5-8.6.5-5.5.5-10,.5-3.1.5,7.4.5,3.1.5,1.9.5,5.2.5,1.2.5-9.3.5,3.6.5-5.2.5-.5.5-8.1.5,2.4.5,3.6.5-1,.5,3.1.5,3.8.5,1,.5-1.9.5,5.5.5-10.7.5,8.3.5-4,.5-.2.5.2.5,6.7.5.7.5,3.6.5,1.4.5,4,.5-.2.5-2.6.5-1.4.5,1.2.5-1.9h.5l.5-6.2.5-2.9h.5l.5-7.9.5,3.3.5,3.8.5,1,.5.7.5-.2.5-5,.5-6.9.5,8.8.5-9.3.5-1.4.5,1.2.5,3.3.5-2.4.5,6.7.5,7.9.5-2.9h.5l.5.5.5.7.5-3.6.5,6.2.5-4.8.5-6,.5,2.1.5,2.4.5-1.2.5,8.8"/>
          <path class="cls-25" d="M61.2,587.9h247.5"/>
          <path class="cls-7" d="M61.2,587.9h247.5"/>
        </g>
        <g>
          <path class="cls-24" d="M61.2,457.9V184.4l.5-2.4.5-6,.5,4.8.5-3.3.5,5.7.5,1.7.5,10,.5.5.5,5.2.5-.7.5-1,.5-3.1.5,1.7.5,2.1.5-7.1.5,3.1.5-1.9.5,1.2.5-3.3.5,5.2h1l.5-2.9.5-2.4.5,2.1.5-4.1.5.7.5-.2.5,6,.5-1.2.5,5.5.5.5.5,1.4.5-1,.5,1.4.5-2.6.5-1.2.5-.7.5-1.9.5-1.4.5,1.7.5-1.9.5,4.1.5.7.5-2.9.5.2.5.5.5-3.1.5-1.2.5.5.5,1,.5-1.2.5,1h.5l.5-.2.5-3.1.5,4.3.5.2.5,3.6.5,3.8.5-2.4.5.7.5-2.4.5,3.1.5-2.4.5-.5.5-7.1.5.7.5-9.8.5-2.9.5,1.2.5,1.9h.5l.5,5,.5,8.6.5-3.3.5,3.8.5-1,.5-1h.5l.5,5,.5,1.9h.5l.5-.2.5-5.5.5-1,.5-9.1.5,1,.5,5.7.5-5.5.5-2.4.5,4.5.5,1.9.5-4.8.5,7.1.5,7.9.5,7.9.5-1.7.5,4.3.5-8.6.5-1.2.5-5.5.5-2.9.5-1.4.5,7.6.5-2.1.5-1.2.5,7.1.5-2.1.5-3.3.5-3.1.5,1.9.5-3.3.5,2.4.5,3.8.5-.5.5-.7.5-.7.5-8.1.5,1.2.5.2.5,6.7.5.7.5,10.2.5,1.7.5-1.7.5-7.6.5-9.1.5-3.8.5-4,.5,4,.5-2.4.5,11.9.5,2.9.5,3.6.5,1.7.5,8.1.5-4.5.5-4.8.5-10.7.5-.7.5-7.6.5.7.5,3.1.5,10h.5l.5,9.1.5,1,.5,3.8.5,2.6.5-1.2.5-6.2.5,1.7.5,4.3.5-.5.5,2.6.5,5,.5-7.6.5-4.1.5-6.4.5,1.4.5-1,.5,2.9.5-2.4.5,7.6.5-.7.5,1.9.5-6.7.5,3.3.5-6,.5,1.2.5-2.6.5,2.1.5,6,.5,6.4.5-5.2.5,6.7.5,9.3.5-9.8.5-7.9.5,4.3.5-3.6.5.5.5,4.8.5,9.8.5,4.5.5.5h.5l.5-8.6.5-3.1.5-7.1.5,2.9.5-2.9.5,8.3.5,6.7.5,6,.5.2.5,5.2.5-2.4.5-10.7.5-2.1.5-4.8.5-1.7.5.7.5,11.2.5,1,.5,9.1.5,1.7.5.2.5-6.7.5-1,.5-7.9.5,7.4.5-1.4.5,4.8.5.7.5,6.9.5-6.4.5,3.3.5-5,.5,8.8.5-8.6.5,3.6.5-1.2.5,7.9.5,38.1.5,47.2.5,42.2.5,44.8.5,39.1h17.5l.5-43.4.5-41.7.5-41.7.5-47.2.5-46,.5.5.5-6.7.5-4.5h.5l.5,9.1.5-.2.5,5.2.5-.2.5-1.7.5-7.1.5-.5.5-11.7h.5l.5,4,.5,2.9.5,1,.5,11,.5,7.4.5-6,.5.5.5-.2.5-2.4.5-2.9.5,2.9.5-2.9.5-1.7.5-1,.5-8.8.5,2.6.5-4.5.5-5.5.5-6,.5,5.7.5-3.8.5,1.4.5-1,.5,11.9.5,1.2.5-3.1.5-2.6.5,4,.5-9.8.5-5.7.5,5.5.5,1.2.5,4.8.5,8.1.5,2.1.5-5.7.5-.7.5-7.6.5-7.1.5-4.5.5-1.9.5,1.7.5,6.4.5.5.5,12.9.5-1,.5-4.3.5-6.4.5-1,.5-11,.5,3.8.5-2.1.5,6.2.5,2.6.5.2.5-7.4.5,6.4.5-7.9.5,1,.5.2.5,8.8.5-3.6.5,7.1.5-1.4.5-2.9.5-6.9.5-.2.5-13.6.5-5,.5,2.6.5,10.7h.5l.5,6.9.5,1.9.5-2.1.5-3.3.5,1.9.5-1.7.5-.2.5.2.5-1.9.5-3.3.5-1.9.5,6.7.5,4.3.5-3.3.5-5.5.5-.2.5-9.5.5-2.6.5-1.7.5,4.5.5,2.9.5,1.7.5-3.1.5,1.7.5,4.8.5-9.5.5,4.8.5-1.2.5,3.6.5-2.4.5,5.7.5-6.4.5,8.6.5-4.1.5-1.9.5,2.1.5,3.1.5-3.6.5,3.3.5-4.1.5,2.6.5,3.8.5-2.6.5,1,.5,3.8h.5l.5-9.1.5,1,.5-2.6.5.2.5-1.7.5.7.5.7.5-3.1.5-3.3.5,1.7.5-2.1.5-6.7.5,3.3.5.5.5-7.6.5-1.7.5,8.3.5,1.4.5.5.5,10.2.5,1.7.5-7.4.5-14.5.5.5.5-3.1.5,10.7.5,7.1.5,13.8.5-4.8.5,5.7.5-7.9.5-6.4.5-.5.5,4.5.5-.5.5,3.3.5,2.6.5,9.3.5-1.4.5-6.7.5-.7h.5l.5-4.3.5,6.2.5,1,.5-2.1.5,2.6.5-2.4.5-6,.5,3.6.5,2.1.5.2.5-9.1.5,3.1.5-5.5.5-1.4.5-3.1.5,1.9.5-.5.5-3.8.5,1.2.5-1.7.5,1,.5-1.9.5,1.9.5.2.5-.7.5,3.6.5,5h.5l.5,1.9.5,3.1.5,8.6.5-8.6.5,6.2.5-1.2.5,1.2.5-5.5.5,1.9.5-2.6.5-3.1.5-1.9.5,2.6.5,8.3.5.7.5-.7.5,5.7.5-5.7.5,2.9.5-1.9.5-.7.5-3.3.5,2.6.5-6.2v263"/>
          <path class="cls-5" d="M61.2,184.4l.5-2.4.5-6,.5,4.8.5-3.3.5,5.7.5,1.7.5,10,.5.5.5,5.2.5-.7.5-1,.5-3.1.5,1.7.5,2.1.5-7.1.5,3.1.5-1.9.5,1.2.5-3.3.5,5.2h1l.5-2.9.5-2.4.5,2.1.5-4.1.5.7.5-.2.5,6,.5-1.2.5,5.5.5.5.5,1.4.5-1,.5,1.4.5-2.6.5-1.2.5-.7.5-1.9.5-1.4.5,1.7.5-1.9.5,4.1.5.7.5-2.9.5.2.5.5.5-3.1.5-1.2.5.5.5,1,.5-1.2.5,1h.5l.5-.2.5-3.1.5,4.3.5.2.5,3.6.5,3.8.5-2.4.5.7.5-2.4.5,3.1.5-2.4.5-.5.5-7.1.5.7.5-9.8.5-2.9.5,1.2.5,1.9h.5l.5,5,.5,8.6.5-3.3.5,3.8.5-1,.5-1h.5l.5,5,.5,1.9h.5l.5-.2.5-5.5.5-1,.5-9.1.5,1,.5,5.7.5-5.5.5-2.4.5,4.5.5,1.9.5-4.8.5,7.1.5,7.9.5,7.9.5-1.7.5,4.3.5-8.6.5-1.2.5-5.5.5-2.9.5-1.4.5,7.6.5-2.1.5-1.2.5,7.1.5-2.1.5-3.3.5-3.1.5,1.9.5-3.3.5,2.4.5,3.8.5-.5.5-.7.5-.7.5-8.1.5,1.2.5.2.5,6.7.5.7.5,10.2.5,1.7.5-1.7.5-7.6.5-9.1.5-3.8.5-4,.5,4,.5-2.4.5,11.9.5,2.9.5,3.6.5,1.7.5,8.1.5-4.5.5-4.8.5-10.7.5-.7.5-7.6.5.7.5,3.1.5,10h.5l.5,9.1.5,1,.5,3.8.5,2.6.5-1.2.5-6.2.5,1.7.5,4.3.5-.5.5,2.6.5,5,.5-7.6.5-4.1.5-6.4.5,1.4.5-1,.5,2.9.5-2.4.5,7.6.5-.7.5,1.9.5-6.7.5,3.3.5-6,.5,1.2.5-2.6.5,2.1.5,6,.5,6.4.5-5.2.5,6.7.5,9.3.5-9.8.5-7.9.5,4.3.5-3.6.5.5.5,4.8.5,9.8.5,4.5.5.5h.5l.5-8.6.5-3.1.5-7.1.5,2.9.5-2.9.5,8.3.5,6.7.5,6,.5.2.5,5.2.5-2.4.5-10.7.5-2.1.5-4.8.5-1.7.5.7.5,11.2.5,1,.5,9.1.5,1.7.5.2.5-6.7.5-1,.5-7.9.5,7.4.5-1.4.5,4.8.5.7.5,6.9.5-6.4.5,3.3.5-5,.5,8.8.5-8.6.5,3.6.5-1.2.5,7.9.5,38.1.5,47.2.5,42.2.5,44.8.5,39.1h17.5l.5-43.4.5-41.7.5-41.7.5-47.2.5-46,.5.5.5-6.7.5-4.5h.5l.5,9.1.5-.2.5,5.2.5-.2.5-1.7.5-7.1.5-.5.5-11.7h.5l.5,4,.5,2.9.5,1,.5,11,.5,7.4.5-6,.5.5.5-.2.5-2.4.5-2.9.5,2.9.5-2.9.5-1.7.5-1,.5-8.8.5,2.6.5-4.5.5-5.5.5-6,.5,5.7.5-3.8.5,1.4.5-1,.5,11.9.5,1.2.5-3.1.5-2.6.5,4,.5-9.8.5-5.7.5,5.5.5,1.2.5,4.8.5,8.1.5,2.1.5-5.7.5-.7.5-7.6.5-7.1.5-4.5.5-1.9.5,1.7.5,6.4.5.5.5,12.9.5-1,.5-4.3.5-6.4.5-1,.5-11,.5,3.8.5-2.1.5,6.2.5,2.6.5.2.5-7.4.5,6.4.5-7.9.5,1,.5.2.5,8.8.5-3.6.5,7.1.5-1.4.5-2.9.5-6.9.5-.2.5-13.6.5-5,.5,2.6.5,10.7h.5l.5,6.9.5,1.9.5-2.1.5-3.3.5,1.9.5-1.7.5-.2.5.2.5-1.9.5-3.3.5-1.9.5,6.7.5,4.3.5-3.3.5-5.5.5-.2.5-9.5.5-2.6.5-1.7.5,4.5.5,2.9.5,1.7.5-3.1.5,1.7.5,4.8.5-9.5.5,4.8.5-1.2.5,3.6.5-2.4.5,5.7.5-6.4.5,8.6.5-4.1.5-1.9.5,2.1.5,3.1.5-3.6.5,3.3.5-4.1.5,2.6.5,3.8.5-2.6.5,1,.5,3.8h.5l.5-9.1.5,1,.5-2.6.5.2.5-1.7.5.7.5.7.5-3.1.5-3.3.5,1.7.5-2.1.5-6.7.5,3.3.5.5.5-7.6.5-1.7.5,8.3.5,1.4.5.5.5,10.2.5,1.7.5-7.4.5-14.5.5.5.5-3.1.5,10.7.5,7.1.5,13.8.5-4.8.5,5.7.5-7.9.5-6.4.5-.5.5,4.5.5-.5.5,3.3.5,2.6.5,9.3.5-1.4.5-6.7.5-.7h.5l.5-4.3.5,6.2.5,1,.5-2.1.5,2.6.5-2.4.5-6,.5,3.6.5,2.1.5.2.5-9.1.5,3.1.5-5.5.5-1.4.5-3.1.5,1.9.5-.5.5-3.8.5,1.2.5-1.7.5,1,.5-1.9.5,1.9.5.2.5-.7.5,3.6.5,5h.5l.5,1.9.5,3.1.5,8.6.5-8.6.5,6.2.5-1.2.5,1.2.5-5.5.5,1.9.5-2.6.5-3.1.5-1.9.5,2.6.5,8.3.5.7.5-.7.5,5.7.5-5.7.5,2.9.5-1.9.5-.7.5-3.3.5,2.6.5-6.2"/>
          <path class="cls-23" d="M61.2,457.9h247.5"/>
          <path class="cls-5" d="M61.2,457.9h247.5"/>
        </g>
        <g>
          <path class="cls-20" d="M61.2,457.9V90.8l.5,6.7.5,4.1.5-3.8.5,2.9.5-8.1.5-1.4.5-.2.5-1,.5,3.1.5,2.9.5,1.7.5,1.4.5,8.1.5-4.8.5,5.7.5-5.7.5-.2.5-5.7.5-4.3.5-6.7.5,2.9.5-6.4.5,1.4.5,6.2.5-2.9.5,3.6.5-3.3.5,2.9.5-4,.5,7.1.5-5.5.5,7.4.5-7.9.5,3.1.5-1.7.5.7.5-2.4.5,2.1.5-4.8.5-2.9.5-5.7.5,5.5.5,10.2.5.5.5,4.3.5,4,.5-7.4.5-13.8.5.2.5,4.8.5.2.5,2.6.5,8.8.5,3.6.5-11.9.5,4.8.5-4.1.5-10,.5-2.6.5-.5.5-2.9.5,6.9.5.5.5,5.2.5-3.6.5-1.2.5-9.3.5,8.6.5-3.3.5,1.7.5,1.2.5,3.1.5,1,.5-2.6.5,1.9.5-3.1.5,5.5.5-5.7.5,2.6.5,5.2.5,5.2.5,2.1.5,4.5.5,6.7.5.7.5-6.4.5-5,.5-5,.5-10.7.5-4.5h.5l.5-2.9.5,4.8.5,5.7.5,2.9.5-1.9h.5l.5-6.2.5-1,.5-6.9.5,5.2.5-1.2.5,5,.5-4.5.5,7.4.5-4.5.5-.2.5-6.2.5-.5.5.2.5,7.1.5,12.9.5,7.1.5,1,.5,4.3.5-5,.5-7.6.5-9.3.5-1.9.5-6.4.5,2.1.5.2.5,4,.5,1.9.5-1.9.5.2.5-6.2.5-2.9.5,5,.5-.7.5,1.4.5,4,.5,6.2.5-5.5.5,5.2.5-11.4.5-1.9.5-12.1.5-2.9.5-4.3.5,12.1.5-.5.5,11.2.5-1.7.5-2.6.5-3.8.5-7.9.5-6,.5,1.9.5,5.7.5-1,.5,13.3.5,10.2.5-1.7.5,3.6.5-15.7.5-4.3.5-14.1.5-5.5.5-4.8.5,13.6.5,5.5.5,9.8.5,13.1.5-3.6.5-1.2.5-6.2.5-6.4.5.7.5-.2.5,8.1.5,1.7.5,9.8.5,1,.5-2.4.5-5.7h.5l.5-10,.5-11.9.5,1,.5,7.1.5.7.5,4.1.5,4.5.5,6.4.5-7.9.5-8.8.5-1,.5-5,.5-1.9.5,4.1.5,10.5.5-6.7.5,5.5.5-1.4.5-11.7.5-3.3.5.2.5,1,.5-1.2.5,8.1.5,1,.5,7.9.5,8.6.5-6.2.5-1.7.5-11.9.5-1.9.5-18.8.5,6.2.5,1,.5,10.2.5,5.7.5,3.6.5,3.1.5,4.5.5-11.2.5-3.6.5-5,.5-11.9.5-3.1.5,13.6.5,1,.5,15.5.5,9.1.5,78.1.5,74.8.5,76,.5,75,.5,77.9h17.5l.5-73.1.5-79.3.5-77.2.5-74.3.5-84.3.5,8.6.5,9.1.5,12.6.5,1.7.5,11.7.5-10,.5-10,.5-6.7.5-12.6.5.7.5-4.3.5,13.3.5-.2.5,22.2.5-1.4.5,6.7.5-15,.5-.2.5-22.9.5-1.7.5-7.9.5,10.5.5-4.1.5,17.6.5.2.5,6.4.5-3.3.5-4.1.5-10.5.5,2.9.5-2.4.5,4.8.5,15.2.5,10.7.5,1.4.5,6.7.5-.2.5-10.5.5-14.8.5-11.2.5-8.6.5,1.9.5,7.1.5,10.5.5,13.8.5,8.8.5-13.6.5-2.6.5-5,.5-9.8.5-4.5.5,10.5.5,4.1.5,12.9.5,5,.5-1.7.5-1.9.5-4.3.5-16.9.5,1.2.5,1.7.5,2.1.5-1.7.5,9.3.5,7.1.5,4.5.5-2.6.5,2.9.5,2.6.5-19.1.5-.5.5-.7.5,6,.5-2.9.5,15,.5-3.3.5,5.7.5-9.1.5-1.4.5-5.5.5,1.9.5-10.7.5,1.2.5,5,.5,4.1.5,7.1.5,11.2.5-9.3.5-8.3.5-6.7.5-13.3.5-.5.5,8.1.5,6.4.5-2.6.5-1,.5-1.4.5-.5.5,2.1.5,1.4.5,8.6.5-1.7.5-.2.5,1.7.5,5.7.5-4.8.5-2.4.5,3.1.5-6.2.5-5.2.5,2.9.5-2.1.5,2.1.5,1.4.5,9.3.5-4.3.5,3.1.5-12.6.5,6.9.5-13.1.5.5.5-1.2.5,8.3.5-5,.5,8.1.5,17.2.5-2.1.5,2.4.5-4.5.5-6.7.5-11.7.5-2.6.5-4.3.5,7.4.5,6.4.5-9.8.5,5.7h.5l.5-13.1.5.7.5-3.1.5-.2.5-7.6.5,8.3.5-1.7.5,10.5.5-1.9.5,10,.5.5.5-6.7.5-3.3.5,4.5.5-5.5.5,6.2.5,5.7.5,10.7.5-1.7.5,7.4.5-6.2.5-2.9.5-3.3.5.7.5-2.4.5-2.1.5,12.9.5-3.8.5,2.9.5-3.3.5,4.3.5-9.3.5,2.1.5-3.8.5,6.4.5-8.6.5,2.9.5-6.7.5-.5.5-7.6.5,6.9.5-2.9.5,2.9.5-1.7.5-3.1.5-2.4.5-.7.5-2.6.5,1,.5,6.4.5,1.2.5-5,.5,3.6.5.2.5,1.2.5.2.5,9.5.5-4.3.5,2.4.5-1,.5-3.3.5-1,.5,4.3.5-2.6.5,1.7.5-1,.5-7.1.5-3.8h1l.5,3.1.5,8.6.5,4.3.5,3.8.5,1.2.5.5.5-6.2.5,2.6.5-5.7.5-2.6.5-4.3.5-1,.5-2.4.5,2.1.5,1,.5,2.9.5,5v364.2"/>
          <path class="cls-4" d="M61.2,90.8l.5,6.7.5,4.1.5-3.8.5,2.9.5-8.1.5-1.4.5-.2.5-1,.5,3.1.5,2.9.5,1.7.5,1.4.5,8.1.5-4.8.5,5.7.5-5.7.5-.2.5-5.7.5-4.3.5-6.7.5,2.9.5-6.4.5,1.4.5,6.2.5-2.9.5,3.6.5-3.3.5,2.9.5-4,.5,7.1.5-5.5.5,7.4.5-7.9.5,3.1.5-1.7.5.7.5-2.4.5,2.1.5-4.8.5-2.9.5-5.7.5,5.5.5,10.2.5.5.5,4.3.5,4,.5-7.4.5-13.8.5.2.5,4.8.5.2.5,2.6.5,8.8.5,3.6.5-11.9.5,4.8.5-4.1.5-10,.5-2.6.5-.5.5-2.9.5,6.9.5.5.5,5.2.5-3.6.5-1.2.5-9.3.5,8.6.5-3.3.5,1.7.5,1.2.5,3.1.5,1,.5-2.6.5,1.9.5-3.1.5,5.5.5-5.7.5,2.6.5,5.2.5,5.2.5,2.1.5,4.5.5,6.7.5.7.5-6.4.5-5,.5-5,.5-10.7.5-4.5h.5l.5-2.9.5,4.8.5,5.7.5,2.9.5-1.9h.5l.5-6.2.5-1,.5-6.9.5,5.2.5-1.2.5,5,.5-4.5.5,7.4.5-4.5.5-.2.5-6.2.5-.5.5.2.5,7.1.5,12.9.5,7.1.5,1,.5,4.3.5-5,.5-7.6.5-9.3.5-1.9.5-6.4.5,2.1.5.2.5,4,.5,1.9.5-1.9.5.2.5-6.2.5-2.9.5,5,.5-.7.5,1.4.5,4,.5,6.2.5-5.5.5,5.2.5-11.4.5-1.9.5-12.1.5-2.9.5-4.3.5,12.1.5-.5.5,11.2.5-1.7.5-2.6.5-3.8.5-7.9.5-6,.5,1.9.5,5.7.5-1,.5,13.3.5,10.2.5-1.7.5,3.6.5-15.7.5-4.3.5-14.1.5-5.5.5-4.8.5,13.6.5,5.5.5,9.8.5,13.1.5-3.6.5-1.2.5-6.2.5-6.4.5.7.5-.2.5,8.1.5,1.7.5,9.8.5,1,.5-2.4.5-5.7h.5l.5-10,.5-11.9.5,1,.5,7.1.5.7.5,4.1.5,4.5.5,6.4.5-7.9.5-8.8.5-1,.5-5,.5-1.9.5,4.1.5,10.5.5-6.7.5,5.5.5-1.4.5-11.7.5-3.3.5.2.5,1,.5-1.2.5,8.1.5,1,.5,7.9.5,8.6.5-6.2.5-1.7.5-11.9.5-1.9.5-18.8.5,6.2.5,1,.5,10.2.5,5.7.5,3.6.5,3.1.5,4.5.5-11.2.5-3.6.5-5,.5-11.9.5-3.1.5,13.6.5,1,.5,15.5.5,9.1.5,78.1.5,74.8.5,76,.5,75,.5,77.9h17.5l.5-73.1.5-79.3.5-77.2.5-74.3.5-84.3.5,8.6.5,9.1.5,12.6.5,1.7.5,11.7.5-10,.5-10,.5-6.7.5-12.6.5.7.5-4.3.5,13.3.5-.2.5,22.2.5-1.4.5,6.7.5-15,.5-.2.5-22.9.5-1.7.5-7.9.5,10.5.5-4.1.5,17.6.5.2.5,6.4.5-3.3.5-4.1.5-10.5.5,2.9.5-2.4.5,4.8.5,15.2.5,10.7.5,1.4.5,6.7.5-.2.5-10.5.5-14.8.5-11.2.5-8.6.5,1.9.5,7.1.5,10.5.5,13.8.5,8.8.5-13.6.5-2.6.5-5,.5-9.8.5-4.5.5,10.5.5,4.1.5,12.9.5,5,.5-1.7.5-1.9.5-4.3.5-16.9.5,1.2.5,1.7.5,2.1.5-1.7.5,9.3.5,7.1.5,4.5.5-2.6.5,2.9.5,2.6.5-19.1.5-.5.5-.7.5,6,.5-2.9.5,15,.5-3.3.5,5.7.5-9.1.5-1.4.5-5.5.5,1.9.5-10.7.5,1.2.5,5,.5,4.1.5,7.1.5,11.2.5-9.3.5-8.3.5-6.7.5-13.3.5-.5.5,8.1.5,6.4.5-2.6.5-1,.5-1.4.5-.5.5,2.1.5,1.4.5,8.6.5-1.7.5-.2.5,1.7.5,5.7.5-4.8.5-2.4.5,3.1.5-6.2.5-5.2.5,2.9.5-2.1.5,2.1.5,1.4.5,9.3.5-4.3.5,3.1.5-12.6.5,6.9.5-13.1.5.5.5-1.2.5,8.3.5-5,.5,8.1.5,17.2.5-2.1.5,2.4.5-4.5.5-6.7.5-11.7.5-2.6.5-4.3.5,7.4.5,6.4.5-9.8.5,5.7h.5l.5-13.1.5.7.5-3.1.5-.2.5-7.6.5,8.3.5-1.7.5,10.5.5-1.9.5,10,.5.5.5-6.7.5-3.3.5,4.5.5-5.5.5,6.2.5,5.7.5,10.7.5-1.7.5,7.4.5-6.2.5-2.9.5-3.3.5.7.5-2.4.5-2.1.5,12.9.5-3.8.5,2.9.5-3.3.5,4.3.5-9.3.5,2.1.5-3.8.5,6.4.5-8.6.5,2.9.5-6.7.5-.5.5-7.6.5,6.9.5-2.9.5,2.9.5-1.7.5-3.1.5-2.4.5-.7.5-2.6.5,1,.5,6.4.5,1.2.5-5,.5,3.6.5.2.5,1.2.5.2.5,9.5.5-4.3.5,2.4.5-1,.5-3.3.5-1,.5,4.3.5-2.6.5,1.7.5-1,.5-7.1.5-3.8h1l.5,3.1.5,8.6.5,4.3.5,3.8.5,1.2.5.5.5-6.2.5,2.6.5-5.7.5-2.6.5-4.3.5-1,.5-2.4.5,2.1.5,1,.5,2.9.5,5"/>
          <path class="cls-21" d="M61.2,457.9h247.5"/>
          <path class="cls-4" d="M61.2,457.9h247.5"/>
        </g>
        <g>
          <path class="cls-19" d="M61.2,457.9V100.5l.5-9.1.5,2.4.5,2.9.5-1,.5.2.5,3.6.5-4.5.5,2.4.5-5.2.5-8.1.5,9.8.5-1.9.5-1.9.5,2.1.5,8.1.5-10.2.5.7.5-.2.5,5.5.5-10.7.5.5.5,9.3.5-7.6.5,7.9.5,7.9.5-.7.5-3.6.5,7.1.5-14.5.5-1.9.5,1.4.5-4.8.5-5,.5,4,.5.2.5.5.5,5.2.5,8.3.5-1.7.5.7.5,4.5.5-14.3.5-3.3.5-7.6.5,1.7.5-1,.5,15.2.5,3.8.5,11.7.5-3.1.5-.2.5-11,.5-3.6.5-7.6.5,5.5.5-1.2.5,9.1.5,1.4.5,8.6.5-2.6.5-1.9.5-4.1.5-7.4.5,3.1.5,1.2.5,1.4.5.2.5,5.7.5-5,.5-2.6.5.2.5-2.1.5-4.1.5-2.1.5,1.4.5-5,.5,6.7.5,3.8.5-6.2.5-2.4.5-3.6.5-8.8.5-7.6.5,1.9.5-4.5.5,7.1.5,3.6.5,15.7.5,2.4.5,3.6.5,3.3.5-1,.5-8.8.5-1.7.5-3.8.5-2.9.5,7.1.5,1.7.5,10,.5.2.5,2.9.5-4.3.5-3.1.5-8.6.5,4.3.5,3.1.5,1,.5,4.3.5,7.6.5-3.8.5-7.6.5-11.2.5-1.4.5-6,.5-3.8.5,3.1.5,8.6.5.7h.5l.5,8.8.5-7.6.5-4.5.5-3.3.5-2.4.5-.7.5,3.8.5,6.4h.5l.5,4.3.5.2.5-2.1.5-2.6.5,5.7.5-5,.5,2.9.5,1.7.5,9.5.5-3.6.5,12.1.5-12.1.5,6,.5-10.7.5-2.1.5-6.2.5,12.9.5-3.3.5,9.5.5,1.2.5-1.2.5-6.7.5,1.4.5-17.2.5,3.8.5-9.1.5,6,.5,1.9.5,9.3.5,1.2.5,13.1.5-2.9.5-4.8.5-1.7.5-9.5.5-10.2.5,2.6h.5l.5,6,.5,1.7.5,9.1.5-8.8.5,1.2.5-13.1.5-4.3.5-11,.5,2.9.5.5.5,8.6.5,7.6.5,13.1.5-1.9.5-6.2.5-7.1.5-.5.5-3.6.5-1.7.5.7.5,13.3.5,2.6h.5l.5,2.6.5,3.6.5-12.9.5,6.7.5-3.6.5,1.7.5,11,.5,10.7.5-6.7.5,3.1.5-1.4.5-16.9.5-2.4.5-13.3.5-6.7.5-4.3.5,11.4h.5l.5,18.8.5,5.2.5,15.7.5-10.7.5-3.1.5-9.3.5,6.4.5-18.1.5,5.5.5,1.9.5,4.8.5.7.5,19.3.5-2.1.5-6.7.5-7.6.5-11.2.5-11,.5,76.7.5,81,.5,78.6.5,75.5.5,75.8h17.5l.5-86.7.5-76,.5-78.9.5-78.8.5-67.2.5-1.2.5-6.2.5-10.2.5-7.9.5-12.9.5,5.5.5.7.5,16.4.5,8.3.5,8.6.5-6.9.5-2.4.5-13.8.5-10.5.5-7.4.5,3.6.5,12.6.5,4.5.5,18.3.5.7.5,7.6.5-6,.5-2.4.5-5.5.5-2.4.5-2.9.5-.2.5,6,.5,6.9.5,1.7.5,4.3.5-6.2.5-6.7.5-19.3.5.7.5-9.8.5,3.1.5,9.3.5,16.7.5,12.9.5,7.4.5-6.4.5.2.5-12.6.5-16,.5.7.5,12.1.5,3.8.5,10.7.5,10,.5-4.5.5,1,.5-19.3.5-7.1.5-9.3.5,7.1.5-7.1.5,16.9.5,5.7.5,7.4.5-8.3.5,5,.5-12.1.5-3.8.5-11.9.5,3.1.5-2.9.5,11.4.5.2.5,21.2.5,2.6.5-1,.5-5.5.5-4.5.5-12.6.5-1,.5,4.1.5-.7.5,8.1.5.2.5,2.9.5-5.5.5,5,.5-6.7.5-6.4.5-10.7.5,3.8.5,1.4.5,5,.5,6.2.5,7.1.5-1,.5-11.7.5.7.5.2.5,6.2.5,1.7.5,1.4h.5l.5-2.6.5-5.5.5-5,.5,2.9.5,2.1.5,3.1.5-4,.5,5.5.5,3.6.5-1,.5,4.3.5,4.5.5.7.5,1,.5-9.8.5-10.5.5.7.5,4.3.5.7.5,6.7.5,4.8.5,5.7.5-4.5.5-4,.5-1.7.5-3.6.5-6.7.5-11.2.5,10.5.5.5.5,8.1.5,2.6.5,17.2.5-1.4.5,1.4.5-1,.5,2.9.5-2.1.5,4.8.5,10.7.5-3.3.5,1.7.5,4.3.5-2.6.5-8.6.5,5.7.5-2.1.5-11.4.5-5.2.5-3.6.5,2.1.5-4.1.5,6.2.5-1.7.5,3.3.5-8.1.5,6,.5-9.8.5,3.6.5-5.7.5,1,.5-3.8.5,6.4.5-1.2.5,2.1.5,4.3.5-1.2.5,2.4.5-2.1.5,7.1.5-7.6.5,3.1.5,1,.5,1,.5,2.1.5,1.4.5,6.9.5-3.8.5,6,.5-6.2.5-5.2.5-8.3.5,4.5.5-1.7.5,2.1.5,10,.5,1.9.5.2.5-1,.5-2.4.5-.5.5-.5.5-2.1.5,1.2.5,1.7.5-2.1.5-.7.5-2.1.5,1.2.5-6.9.5,1.7.5-3.1.5,5,.5-10.2.5,16.4.5-.2.5,5.5.5-1.9.5,3.1.5-8.8.5-2.1.5-5.5.5-3.6.5,5.2.5-10.2.5,7.1.5-3.1.5,10.7.5,1,.5,14.1.5-1.4.5,7.6.5-13.3.5-1,.5-1.9.5-5.5v372.8"/>
          <path class="cls-2" d="M61.2,148.5l.5-9.1.5,2.4.5,2.9.5-1,.5.2.5,3.6.5-4.5.5,2.4.5-5.2.5-8.1.5,9.8.5-1.9.5-1.9.5,2.1.5,8.1.5-10.2.5.7.5-.2.5,5.5.5-10.7.5.5.5,9.3.5-7.6.5,7.9.5,7.9.5-.7.5-3.6.5,7.1.5-14.5.5-1.9.5,1.4.5-4.8.5-5,.5,4,.5.2.5.5.5,5.2.5,8.3.5-1.7.5.7.5,4.5.5-14.3.5-3.3.5-7.6.5,1.7.5-1,.5,15.2.5,3.8.5,11.7.5-3.1.5-.2.5-11,.5-3.6.5-7.6.5,5.5.5-1.2.5,9.1.5,1.4.5,8.6.5-2.6.5-1.9.5-4.1.5-7.4.5,3.1.5,1.2.5,1.4.5.2.5,5.7.5-5,.5-2.6.5.2.5-2.1.5-4.1.5-2.1.5,1.4.5-5,.5,6.7.5,3.8.5-6.2.5-2.4.5-3.6.5-8.8.5-7.6.5,1.9.5-4.5.5,7.1.5,3.6.5,15.7.5,2.4.5,3.6.5,3.3.5-1,.5-8.8.5-1.7.5-3.8.5-2.9.5,7.1.5,1.7.5,10,.5.2.5,2.9.5-4.3.5-3.1.5-8.6.5,4.3.5,3.1.5,1,.5,4.3.5,7.6.5-3.8.5-7.6.5-11.2.5-1.4.5-6,.5-3.8.5,3.1.5,8.6.5.7h.5l.5,8.8.5-7.6.5-4.5.5-3.3.5-2.4.5-.7.5,3.8.5,6.4h.5l.5,4.3.5.2.5-2.1.5-2.6.5,5.7.5-5,.5,2.9.5,1.7.5,9.5.5-3.6.5,12.1.5-12.1.5,6,.5-10.7.5-2.1.5-6.2.5,12.9.5-3.3.5,9.5.5,1.2.5-1.2.5-6.7.5,1.4.5-17.2.5,3.8.5-9.1.5,6,.5,1.9.5,9.3.5,1.2.5,13.1.5-2.9.5-4.8.5-1.7.5-9.5.5-10.2.5,2.6h.5l.5,6,.5,1.7.5,9.1.5-8.8.5,1.2.5-13.1.5-4.3.5-11,.5,2.9.5.5.5,8.6.5,7.6.5,13.1.5-1.9.5-6.2.5-7.1.5-.5.5-3.6.5-1.7.5.7.5,13.3.5,2.6h.5l.5,2.6.5,3.6.5-12.9.5,6.7.5-3.6.5,1.7.5,11,.5,10.7.5-6.7.5,3.1.5-1.4.5-16.9.5-2.4.5-13.3.5-6.7.5-4.3.5,11.4h.5l.5,18.8.5,5.2.5,15.7.5-10.7.5-3.1.5-9.3.5,6.4.5-18.1.5,5.5.5,1.9.5,4.8.5.7.5,19.3.5-2.1.5-6.7.5-7.6.5-11.2.5-11,.5,76.7.5,81,.5,78.6.5,75.5.5,75.8h17.5l.5-86.7.5-76,.5-78.9.5-78.8.5-67.2.5-1.2.5-6.2.5-10.2.5-7.9.5-12.9.5,5.5.5.7.5,16.4.5,8.3.5,8.6.5-6.9.5-2.4.5-13.8.5-10.5.5-7.4.5,3.6.5,12.6.5,4.5.5,18.3.5.7.5,7.6.5-6,.5-2.4.5-5.5.5-2.4.5-2.9.5-.2.5,6,.5,6.9.5,1.7.5,4.3.5-6.2.5-6.7.5-19.3.5.7.5-9.8.5,3.1.5,9.3.5,16.7.5,12.9.5,7.4.5-6.4.5.2.5-12.6.5-16,.5.7.5,12.1.5,3.8.5,10.7.5,10,.5-4.5.5,1,.5-19.3.5-7.1.5-9.3.5,7.1.5-7.1.5,16.9.5,5.7.5,7.4.5-8.3.5,5,.5-12.1.5-3.8.5-11.9.5,3.1.5-2.9.5,11.4.5.2.5,21.2.5,2.6.5-1,.5-5.5.5-4.5.5-12.6.5-1,.5,4.1.5-.7.5,8.1.5.2.5,2.9.5-5.5.5,5,.5-6.7.5-6.4.5-10.7.5,3.8.5,1.4.5,5,.5,6.2.5,7.1.5-1,.5-11.7.5.7.5.2.5,6.2.5,1.7.5,1.4h.5l.5-2.6.5-5.5.5-5,.5,2.9.5,2.1.5,3.1.5-4,.5,5.5.5,3.6.5-1,.5,4.3.5,4.5.5.7.5,1,.5-9.8.5-10.5.5.7.5,4.3.5.7.5,6.7.5,4.8.5,5.7.5-4.5.5-4,.5-1.7.5-3.6.5-6.7.5-11.2.5,10.5.5.5.5,8.1.5,2.6.5,17.2.5-1.4.5,1.4.5-1,.5,2.9.5-2.1.5,4.8.5,10.7.5-3.3.5,1.7.5,4.3.5-2.6.5-8.6.5,5.7.5-2.1.5-11.4.5-5.2.5-3.6.5,2.1.5-4.1.5,6.2.5-1.7.5,3.3.5-8.1.5,6,.5-9.8.5,3.6.5-5.7.5,1,.5-3.8.5,6.4.5-1.2.5,2.1.5,4.3.5-1.2.5,2.4.5-2.1.5,7.1.5-7.6.5,3.1.5,1,.5,1,.5,2.1.5,1.4.5,6.9.5-3.8.5,6,.5-6.2.5-5.2.5-8.3.5,4.5.5-1.7.5,2.1.5,10,.5,1.9.5.2.5-1,.5-2.4.5-.5.5-.5.5-2.1.5,1.2.5,1.7.5-2.1.5-.7.5-2.1.5,1.2.5-6.9.5,1.7.5-3.1.5,5,.5-10.2.5,16.4.5-.2.5,5.5.5-1.9.5,3.1.5-8.8.5-2.1.5-5.5.5-3.6.5,5.2.5-10.2.5,7.1.5-3.1.5,10.7.5,1,.5,14.1.5-1.4.5,7.6.5-13.3.5-1,.5-1.9.5-5.5"/>
          <path class="cls-18" d="M61.2,457.9h247.5"/>
          <path class="cls-2" d="M61.2,457.9h247.5"/>
        </g>
      </g>
      <g id="Layer_1-2" data-name="Layer_1">
        <g id="main-plot">
          <path class="cls-22" d="M61,480.6h247.5"/>
          <g>
            <path class="cls-6" d="M60,259v6h250v-6"/>
            <line class="cls-6" x1="60" y1="265" x2="60" y2="259"/>
            <line class="cls-6" x1="85" y1="265" x2="85" y2="259"/>
            <line class="cls-6" x1="110" y1="265" x2="110" y2="259"/>
            <line class="cls-6" x1="135" y1="265" x2="135" y2="259"/>
            <line class="cls-6" x1="160" y1="265" x2="160" y2="259"/>
            <line class="cls-6" x1="185" y1="265" x2="185" y2="259"/>
            <line class="cls-6" x1="210" y1="265" x2="210" y2="259"/>
            <line class="cls-6" x1="235" y1="265" x2="235" y2="259"/>
            <line class="cls-6" x1="260" y1="265" x2="260" y2="259"/>
            <line class="cls-6" x1="285" y1="265" x2="285" y2="259"/>
            <line class="cls-6" x1="310" y1="265" x2="310" y2="259"/>
          </g>
          <g>
            <path class="cls-6" d="M60,36v-6h250v6"/>
            <line class="cls-6" x1="60" y1="30" x2="60" y2="36"/>
            <line class="cls-6" x1="85" y1="30" x2="85" y2="36"/>
            <line class="cls-6" x1="110" y1="30" x2="110" y2="36"/>
            <line class="cls-6" x1="135" y1="30" x2="135" y2="36"/>
            <line class="cls-6" x1="160" y1="30" x2="160" y2="36"/>
            <line class="cls-6" x1="185" y1="30" x2="185" y2="36"/>
            <line class="cls-6" x1="210" y1="30" x2="210" y2="36"/>
            <line class="cls-6" x1="235" y1="30" x2="235" y2="36"/>
            <line class="cls-6" x1="260" y1="30" x2="260" y2="36"/>
            <line class="cls-6" x1="285" y1="30" x2="285" y2="36"/>
            <line class="cls-6" x1="310" y1="30" x2="310" y2="36"/>
          </g>
          <g>
            <path class="cls-6" d="M66,265h-6V30h6"/>
            <line class="cls-6" x1="60" y1="265" x2="66" y2="265"/>
            <line class="cls-6" x1="60" y1="241.5" x2="66" y2="241.5"/>
            <line class="cls-6" x1="60" y1="218" x2="66" y2="218"/>
            <line class="cls-6" x1="60" y1="194.5" x2="66" y2="194.5"/>
            <line class="cls-6" x1="60" y1="171" x2="66" y2="171"/>
            <line class="cls-6" x1="60" y1="147.5" x2="66" y2="147.5"/>
            <line class="cls-6" x1="60" y1="124" x2="66" y2="124"/>
            <line class="cls-6" x1="60" y1="100.5" x2="66" y2="100.5"/>
            <line class="cls-6" x1="60" y1="77" x2="66" y2="77"/>
            <line class="cls-6" x1="60" y1="53.5" x2="66" y2="53.5"/>
            <line class="cls-6" x1="60" y1="30" x2="66" y2="30"/>
          </g>
          <g>
            <path class="cls-6" d="M304,265h6V30h-6"/>
            <line class="cls-6" x1="310" y1="265" x2="304" y2="265"/>
            <line class="cls-6" x1="310" y1="241.5" x2="304" y2="241.5"/>
            <line class="cls-6" x1="310" y1="218" x2="304" y2="218"/>
            <line class="cls-6" x1="310" y1="194.5" x2="304" y2="194.5"/>
            <line class="cls-6" x1="310" y1="171" x2="304" y2="171"/>
            <line class="cls-6" x1="310" y1="147.5" x2="304" y2="147.5"/>
            <line class="cls-6" x1="310" y1="124" x2="304" y2="124"/>
            <line class="cls-6" x1="310" y1="100.5" x2="304" y2="100.5"/>
            <line class="cls-6" x1="310" y1="77" x2="304" y2="77"/>
            <line class="cls-6" x1="310" y1="53.5" x2="304" y2="53.5"/>
            <line class="cls-6" x1="310" y1="30" x2="304" y2="30"/>
          </g>
          <g class="cls-11">
            <g class="cls-11">
              <text class="cls-17" transform="translate(46 280)"><tspan x="0" y="0">-250</tspan></text>
            </g>
          </g>
          <g class="cls-11">
            <g class="cls-11">
              <text class="cls-17" transform="translate(298.3 280)"><tspan x="0" y="0">250</tspan></text>
            </g>
          </g>
          <g class="cls-11">
            <g class="cls-11">
              <text class="cls-17" transform="translate(30.5 265)"><tspan x="0" y="0">0.1</tspan></text>
            </g>
          </g>
          <g class="cls-11">
            <g class="cls-11">
              <text class="cls-17" transform="translate(30.5 40)"><tspan x="0" y="0">0.2</tspan></text>
            </g>
          </g>
          <g class="cls-11">
            <g class="cls-11">
              <text class="cls-17" transform="translate(42 196.9) rotate(-90)"><tspan x="0" y="0">Frequency (AU)</tspan></text>
            </g>
          </g>
          <g id="composite-legend" class="cls-34">
            <g>
              <polygon class="cls-29" points="335 30 350 30 350 45 335 45 335 30"/>
              <polygon class="cls-29" points="350 30 350 45 335 45 350 30"/>
              <rect class="cls-6" x="335" y="30" width="15" height="15"/>
              <g class="cls-11">
                <g class="cls-11">
                  <text class="cls-9" transform="translate(355 40)"><tspan x="0" y="0">Composite 0</tspan></text>
                </g>
              </g>
            </g>
            <g>
              <polygon class="cls-27" points="335 54 350 54 350 69 335 69 335 54"/>
              <polygon class="cls-27" points="350 54 350 69 335 69 350 54"/>
              <rect class="cls-6" x="335" y="54" width="15" height="15"/>
              <g class="cls-11">
                <g class="cls-11">
                  <text class="cls-9" transform="translate(355 64)"><tspan x="0" y="0">Composite 1</tspan></text>
                </g>
              </g>
            </g>
            <g>
              <polygon class="cls-31" points="335 78 350 78 350 93 335 93 335 78"/>
              <polygon class="cls-31" points="350 78 350 93 335 93 350 78"/>
              <rect class="cls-6" x="335" y="78" width="15" height="15"/>
              <g class="cls-11">
                <g class="cls-11">
                  <text class="cls-9" transform="translate(355 88)"><tspan x="0" y="0">Composite 2</tspan></text>
                </g>
              </g>
            </g>
            <g>
              <polygon class="cls-26" points="335 102 350 102 350 117 335 117 335 102"/>
              <polygon class="cls-26" points="350 102 350 117 335 117 350 102"/>
              <rect class="cls-6" x="335" y="102" width="15" height="15"/>
              <g class="cls-11">
                <g class="cls-11">
                  <text class="cls-9" transform="translate(355 112)"><tspan x="0" y="0">Composite 3</tspan></text>
                </g>
              </g>
            </g>
          </g>
          <g class="cls-34">
            <path class="cls-30" d="M132.4,35.7h100.5l5-5,5,5h100.5v64.5h-211V35.7Z"/>
            <g>
              <g class="cls-11">
                <g class="cls-11">
                  <g class="cls-11">
                    <text class="cls-10" transform="translate(142.4 53.1)"><tspan x="0" y="0">Distance from phase aligned CTCF motif (bp): 106</tspan></text>
                  </g>
                </g>
              </g>
              <g class="cls-15">
                <g class="cls-15">
                  <g class="cls-15">
                    <text class="cls-13" transform="translate(142.4 61.9)"><tspan x="0" y="0">Composite 0:</tspan></text>
                  </g>
                </g>
                <g class="cls-15">
                  <g class="cls-15">
                    <text class="cls-3" transform="translate(142.4 61.9)"><tspan x="0" y="0">Composite 0:</tspan></text>
                  </g>
                </g>
                <g class="cls-15">
                  <g class="cls-15">
                    <text class="cls-12" transform="translate(191.7 61.9)"><tspan x="0" y="0">0.148</tspan></text>
                  </g>
                </g>
                <g class="cls-15">
                  <g class="cls-15">
                    <text class="cls-3" transform="translate(191.7 61.9)"><tspan x="0" y="0">0.148</tspan></text>
                  </g>
                </g>
                <g class="cls-15">
                  <g class="cls-15">
                    <text class="cls-13" transform="translate(211.7 61.9)"><tspan x="0" y="0">;</tspan></text>
                  </g>
                </g>
                <g class="cls-15">
                  <g class="cls-15">
                    <text class="cls-3" transform="translate(211.7 61.9)"><tspan x="0" y="0">;</tspan></text>
                  </g>
                </g>
                <g class="cls-15">
                  <g class="cls-15">
                    <text class="cls-12" transform="translate(216.2 61.9)"><tspan x="0" y="0">0</tspan></text>
                  </g>
                </g>
                <g class="cls-15">
                  <g class="cls-15">
                    <text class="cls-3" transform="translate(216.2 61.9)"><tspan x="0" y="0">0</tspan></text>
                  </g>
                </g>
              </g>
              <g class="cls-11">
                <g class="cls-11">
                  <g class="cls-11">
                    <text class="cls-13" transform="translate(142.4 70.7)"><tspan x="0" y="0">Composite 1:</tspan></text>
                  </g>
                </g>
                <g class="cls-11">
                  <g class="cls-11">
                    <text class="cls-3" transform="translate(142.4 70.7)"><tspan x="0" y="0">Composite 1:</tspan></text>
                  </g>
                </g>
                <g class="cls-11">
                  <g class="cls-11">
                    <text class="cls-8" transform="translate(191.7 70.7)"><tspan x="0" y="0">0.176</tspan></text>
                  </g>
                </g>
                <g class="cls-11">
                  <g class="cls-11">
                    <text class="cls-3" transform="translate(191.7 70.7)"><tspan x="0" y="0">0.176</tspan></text>
                  </g>
                </g>
                <g class="cls-11">
                  <g class="cls-11">
                    <text class="cls-13" transform="translate(211.7 70.7)"><tspan x="0" y="0">;</tspan></text>
                  </g>
                </g>
                <g class="cls-11">
                  <g class="cls-11">
                    <text class="cls-3" transform="translate(211.7 70.7)"><tspan x="0" y="0">;</tspan></text>
                  </g>
                </g>
                <g class="cls-11">
                  <g class="cls-11">
                    <text class="cls-8" transform="translate(216.2 70.7)"><tspan x="0" y="0">0</tspan></text>
                  </g>
                </g>
                <g class="cls-11">
                  <g class="cls-11">
                    <text class="cls-3" transform="translate(216.2 70.7)"><tspan x="0" y="0">0</tspan></text>
                  </g>
                </g>
              </g>
              <g class="cls-11">
                <g class="cls-11">
                  <g class="cls-11">
                    <text class="cls-13" transform="translate(142.4 79.5)"><tspan x="0" y="0">Composite 2:</tspan></text>
                  </g>
                </g>
                <g class="cls-11">
                  <g class="cls-11">
                    <text class="cls-3" transform="translate(142.4 79.5)"><tspan x="0" y="0">Composite 2:</tspan></text>
                  </g>
                </g>
                <g class="cls-11">
                  <g class="cls-11">
                    <text class="cls-14" transform="translate(191.7 79.5)"><tspan x="0" y="0">0.145</tspan></text>
                  </g>
                </g>
                <g class="cls-11">
                  <g class="cls-11">
                    <text class="cls-3" transform="translate(191.7 79.5)"><tspan x="0" y="0">0.145</tspan></text>
                  </g>
                </g>
                <g class="cls-11">
                  <g class="cls-11">
                    <text class="cls-13" transform="translate(211.7 79.5)"><tspan x="0" y="0">;</tspan></text>
                  </g>
                </g>
                <g class="cls-11">
                  <g class="cls-11">
                    <text class="cls-3" transform="translate(211.7 79.5)"><tspan x="0" y="0">;</tspan></text>
                  </g>
                </g>
                <g class="cls-11">
                  <g class="cls-11">
                    <text class="cls-14" transform="translate(216.2 79.5)"><tspan x="0" y="0">0</tspan></text>
                  </g>
                </g>
                <g class="cls-11">
                  <g class="cls-11">
                    <text class="cls-3" transform="translate(216.2 79.5)"><tspan x="0" y="0">0</tspan></text>
                  </g>
                </g>
              </g>
              <g class="cls-11">
                <g class="cls-11">
                  <g class="cls-11">
                    <text class="cls-13" transform="translate(142.4 88.3)"><tspan x="0" y="0">Composite 3:</tspan></text>
                  </g>
                </g>
                <g class="cls-11">
                  <g class="cls-11">
                    <text class="cls-3" transform="translate(142.4 88.3)"><tspan x="0" y="0">Composite 3:</tspan></text>
                  </g>
                </g>
                <g class="cls-11">
                  <g class="cls-11">
                    <text class="cls-16" transform="translate(191.7 88.3)"><tspan x="0" y="0">0.153</tspan></text>
                  </g>
                </g>
                <g class="cls-11">
                  <g class="cls-11">
                    <text class="cls-3" transform="translate(191.7 88.3)"><tspan x="0" y="0">0.153</tspan></text>
                  </g>
                </g>
                <g class="cls-11">
                  <g class="cls-11">
                    <text class="cls-13" transform="translate(211.7 88.3)"><tspan x="0" y="0">;</tspan></text>
                  </g>
                </g>
                <g class="cls-11">
                  <g class="cls-11">
                    <text class="cls-3" transform="translate(211.7 88.3)"><tspan x="0" y="0">;</tspan></text>
                  </g>
                </g>
                <g class="cls-11">
                  <g class="cls-11">
                    <text class="cls-16" transform="translate(216.2 88.3)"><tspan x="0" y="0">0</tspan></text>
                  </g>
                </g>
                <g class="cls-11">
                  <g class="cls-11">
                    <text class="cls-3" transform="translate(216.2 88.3)"><tspan x="0" y="0">0</tspan></text>
                  </g>
                </g>
              </g>
            </g>
          </g>
          <g class="cls-34">
            <rect id="nucleosome-rect" class="cls-33" x="185" y="491" width="36.5" height="18"/>
          </g>
          <rect class="cls-32" x="160" y="265.5" width="60.7" height="267.7"/>
          <line class="cls-1" x1="184.8" y1="265.5" x2="184.8" y2="30.5"/>
          <g class="cls-11">
            <g class="cls-11">
              <text class="cls-17" transform="translate(181.5 280)"><tspan x="0" y="0">0</tspan></text>
            </g>
          </g>
        </g>
      </g>
    </g>
  </g>
</svg>