<?xml version="1.0" encoding="UTF-8"?>
<svg xmlns="http://www.w3.org/2000/svg" xmlns:xlink="http://www.w3.org/1999/xlink" version="1.1" viewBox="0 0 500 300">
  <defs>
    <style>
      .cls-1 {
        opacity: .5;
        stroke: gray;
        stroke-dasharray: 5 5;
      }

      .cls-1, .cls-2, .cls-3, .cls-4, .cls-5, .cls-6, .cls-7 {
        fill: none;
      }

      .cls-1, .cls-8, .cls-9, .cls-10, .cls-3, .cls-11, .cls-12, .cls-13, .cls-14, .cls-15, .cls-16, .cls-17 {
        isolation: isolate;
      }

      .cls-2 {
        stroke: #ff2600;
      }

      .cls-2, .cls-4, .cls-5, .cls-7 {
        stroke-width: .5px;
      }

      .cls-18 {
        fill: url(#linear-gradient-7);
      }

      .cls-19 {
        fill: url(#linear-gradient-5);
      }

      .cls-20 {
        fill: url(#linear-gradient-6);
      }

      .cls-21 {
        fill: url(#linear-gradient-4);
      }

      .cls-22 {
        fill: url(#linear-gradient-3);
      }

      .cls-23 {
        fill: url(#linear-gradient-2);
      }

      .cls-24, .cls-16 {
        fill: #aa7942;
      }

      .cls-25, .cls-8 {
        fill: #0433ff;
      }

      .cls-26 {
        fill: url(#linear-gradient);
      }

      .cls-27, .cls-12 {
        fill: #ff2600;
      }

      .cls-8, .cls-9, .cls-3, .cls-12, .cls-13, .cls-14, .cls-16, .cls-17 {
        font-family: Helvetica, Helvetica;
      }

      .cls-8, .cls-10, .cls-3, .cls-12, .cls-13, .cls-14, .cls-16 {
        font-size: 8px;
      }

      .cls-9 {
        font-size: 10px;
      }

      .cls-10 {
        font-family: Helvetica-Bold, Helvetica;
        font-weight: 700;
      }

      .cls-3 {
        stroke-width: .1px;
      }

      .cls-3, .cls-28, .cls-6 {
        stroke: #000;
      }

      .cls-29, .cls-14 {
        fill: #00f900;
      }

      .cls-28, .cls-30 {
        fill: #fff;
      }

      .cls-31 {
        fill: #2e8bb9;
        stroke: #03647a;
        stroke-width: 3px;
      }

      .cls-15, .cls-32 {
        display: none;
      }

      .cls-4 {
        stroke: #0433ff;
      }

      .cls-5 {
        stroke: #00f900;
      }

      .cls-17 {
        font-size: 14px;
      }

      .cls-7 {
        stroke: #aa7942;
      }
    </style>
    <linearGradient id="linear-gradient" x1="-705.6" y1="690.1" x2="-705.6" y2="689.1" gradientTransform="translate(174830 320527) scale(247.5 -464.4)" gradientUnits="userSpaceOnUse">
      <stop offset="0" stop-color="#aa7942" stop-opacity="0"/>
      <stop offset="1" stop-color="#aa7942" stop-opacity="0"/>
    </linearGradient>
    <linearGradient id="linear-gradient-2" y1="264.2" y2="264.2" gradientTransform="translate(174830 802) scale(247.5 -1)" xlink:href="#linear-gradient"/>
    <linearGradient id="linear-gradient-3" x1="-705.6" y1="690" x2="-705.6" y2="689" gradientTransform="translate(174830 272950.1) scale(247.5 -395.4)" gradientUnits="userSpaceOnUse">
      <stop offset="0" stop-color="#00f900" stop-opacity="0"/>
      <stop offset="1" stop-color="#00f900" stop-opacity="0"/>
    </linearGradient>
    <linearGradient id="linear-gradient-4" y1="287.2" y2="287.2" gradientTransform="translate(174830 802) scale(247.5 -1)" xlink:href="#linear-gradient-3"/>
    <linearGradient id="linear-gradient-5" x1="-705.6" y1="328.2" x2="-705.6" y2="328.2" gradientTransform="translate(174830 802) scale(247.5 -1)" gradientUnits="userSpaceOnUse">
      <stop offset="0" stop-color="#0433ff" stop-opacity="0"/>
      <stop offset="1" stop-color="#0433ff" stop-opacity="0"/>
    </linearGradient>
    <linearGradient id="linear-gradient-6" x1="-705.6" y1="307.2" x2="-705.6" y2="307.2" gradientTransform="translate(174830 802) scale(247.5 -1)" gradientUnits="userSpaceOnUse">
      <stop offset="0" stop-color="#ff2600" stop-opacity="0"/>
      <stop offset="1" stop-color="#ff2600" stop-opacity="0"/>
    </linearGradient>
    <linearGradient id="linear-gradient-7" x1="-1411.7" y1="758.6" x2="-1411.7" y2="758.6" gradientTransform="translate(349598.5 -278) scale(247.5 1)" gradientUnits="userSpaceOnUse">
      <stop offset="0" stop-color="#0433ff" stop-opacity="0"/>
      <stop offset="1" stop-color="#0433ff" stop-opacity="0"/>
    </linearGradient>
  </defs>
  <!-- Generator: Adobe Illustrator 28.7.2, SVG Export Plug-In . SVG Version: 1.2.0 Build 154)  -->
  <g>
    <g id="Layer_1">
      <g>
        <g>
          <path class="cls-26" d="M61.2,537.8v-276.5l.5-7,.5-4.6.5-5.6.5-5.6.5,6.7.5-1.1.5,9.9.5,2.8.5,7.7.5-6.7.5-5.3.5-3.5.5-1.4.5-4.6.5,7,.5,6.7.5-4.2.5,2.5.5-1.8.5,8.8.5-5.3.5-1.1.5,4.6.5-1.1.5-14.4.5,4.9.5,3.9.5-5.3.5-3.2.5,5.6.5,3.9.5-1.8.5-1.8.5,6,.5,6,.5-5.3.5-6,.5,2.5.5.7.5-11.6.5,7.4.5,6,.5-3.2.5-8.4.5,3.5.5-3.9.5-2.1.5.4.5,10.2.5-2.1.5-4.2.5-4.6.5,6.3.5-6,.5,4.2.5-7,.5,8.4.5-8.4.5-6.3.5-2.1.5,11.3.5-.4.5,4.2.5,6.3.5,7.4.5-10.2.5-11.6.5,6.7.5-2.8.5-4.9.5,2.5.5,7.7.5-10.2.5,4.6.5-5.6.5-1.1h.5l.5,1.4.5,3.5.5,3.2.5,3.9.5,2.5.5,1.8.5-6.7h.5l.5-3.9.5,3.2h.5l.5,6.3.5.7.5,8.4.5-8.8.5.4.5-3.9.5-3.5.5.4.5,3.5.5-3.5.5-4.2.5,1.1.5-6,.5-2.1.5,10.6.5,5.3.5,6,.5-.4.5-2.5.5-4.2.5-12.7.5-1.4.5,2.5.5-1.4.5-7.7.5,12.7.5-6.7.5,4.2.5.7.5,6.7.5-4.2.5,1.1.5-6.3.5,5.3.5-9.5.5-2.1.5-2.5.5,5.6.5-8.8.5,10.9.5-6.7.5-7.7.5-3.9.5,11.6.5-15.8.5,9.8.5,12.7h.5l.5-11.3.5,1.4.5-7,.5-3.2.5-5.3.5-.4.5,4.6h.5l.5,1.1.5.7.5,1.1.5-7.7.5,7.4.5-1.8.5,1.4.5-1.8.5,13.7.5-10.6.5,3.2.5-9.1.5-.4.5-15.1.5-2.1.5-13.7.5,7.4.5,3.9.5-1.8.5.7.5,1.4.5-8.4.5-2.8.5,7,.5,2.8.5,1.1.5,12.7.5-8.8.5,3.2.5-4.2.5,5.3.5-7.4.5,3.9.5-.7.5,1.1.5-7.4.5-2.1.5,1.8.5-9.5h.5l.5,5.6.5-8.1.5-3.5.5-6,.5.4.5-3.2.5-.4.5-3.5.5,2.5.5-2.8.5-4.6.5,2.5.5-2.5.5-2.8.5-7.4.5-3.5.5-16.5.5,5.6.5-1.4.5-1.1.5-.4.5,15.8.5-3.2.5,3.5.5,1.1.5-9.8.5-7,.5.4.5-2.5.5.7.5,6.3.5-4.9.5-4.9.5,2.5.5-5.6.5-1.8.5,4.6.5-3.5.5,2.5.5,3.5.5-7.4.5,84.1.5,85.1.5,77.7.5,82.3.5,91.5h17.5l.5-84.8.5-91.1.5-77.7.5-87.9.5-78.5.5,5.3.5,10.9.5,7.7.5,7.4.5,3.2.5.4.5-1.4.5-24.3.5-1.4.5-21.8h.5l.5-7,.5,8.8.5-7.7.5-2.5.5-8.8.5-12.7.5-.4.5.4.5,14.4.5.7.5,12.7.5-3.5.5,9.9.5-6.7.5,4.2.5,8.1.5,8.4.5-4.9.5,9.9.5,7.7.5-2.5.5-4.2.5,4.2.5-9.1.5-3.2.5,7.7.5-2.1.5,10.9.5,5.3.5,7,.5-5.3.5,15.5.5-13.4.5,9.1.5-13.7.5,15.1.5-10.9.5,26,.5.4.5,17.6.5-7.7.5-2.5.5-18.6.5-3.5.5-6.7.5,2.8.5,7.4.5,12.3.5,3.5.5,9.5.5,3.2.5,9.1.5-9.9.5-9.5.5-10.2.5,2.1.5-2.8.5,9.5.5,14.1.5,15.8.5-13.4.5-2.8.5-6.3.5-4.9.5-16.9.5,9.5.5,3.2.5,11.3.5,7,.5,13.4.5-2.5.5,14.8.5-12.3.5-5.6.5-11.6.5-3.5.5-8.4.5,12.7.5,2.5.5,8.1.5,9.5.5-6,.5-6.7.5-7,.5-1.8.5-1.8.5-4.6.5,1.1.5,10.6.5,9.1.5-.4.5,10.6.5-.7.5-6.7.5-15.5.5-2.1.5-4.2.5-4.2.5,7,.5,15.5.5,6.3.5-5.6.5,9.9.5-1.8.5-13.7.5-7,.5,10.6.5-7.4.5,1.4.5,14.4.5,4.9h.5l.5-1.8.5-2.1.5-10.2.5,4.9.5-7.7.5,10.6.5,10.9.5,4.6.5-1.4.5,10.9.5-6,.5-3.5.5-12.3.5-3.2.5-8.1.5.4.5,2.5.5,14.8.5,5.3.5,7,.5-7.4h.5l.5-9.8.5,1.8.5-11.3.5,9.9.5-3.9.5,6.3.5,2.8.5,9.1.5-3.5.5,5.6.5-2.8.5-1.1.5-9.9.5,6,.5-4.9.5,8.4.5-2.8.5,9.5.5-3.5.5,1.1.5-9.1.5-6.7.5-7,.5-3.5.5-.4.5,3.9.5,8.4.5,6.7.5,4.9.5-7,.5-6.7.5-10.9.5-3.9.5,3.9.5,4.2.5,8.1.5,21.8.5,7.4.5-4.2.5,6,.5-5.6.5-12.7.5-8.8.5-3.2.5-5.3.5,13.4.5-7,.5,8.8.5.4.5,8.8.5-7,.5,9.5.5-9.1.5,9.5.5-15.1.5,9.5.5-9.1.5,12.7.5-11.6.5,15.1.5-23.6.5,9.1.5-12.7.5,4.9.5,3.5.5,13,.5.7.5,11.6.5-4.9.5-6,.5-2.8.5-6.3.5-7.4.5-1.4.5-4.6.5-6.7.5,3.2.5,3.9.5,5.6.5-6v325.8"/>
          <path class="cls-7" d="M61.2,261.3l.5-7,.5-4.6.5-5.6.5-5.6.5,6.7.5-1.1.5,9.9.5,2.8.5,7.7.5-6.7.5-5.3.5-3.5.5-1.4.5-4.6.5,7,.5,6.7.5-4.2.5,2.5.5-1.8.5,8.8.5-5.3.5-1.1.5,4.6.5-1.1.5-14.4.5,4.9.5,3.9.5-5.3.5-3.2.5,5.6.5,3.9.5-1.8.5-1.8.5,6,.5,6,.5-5.3.5-6,.5,2.5.5.7.5-11.6.5,7.4.5,6,.5-3.2.5-8.4.5,3.5.5-3.9.5-2.1.5.4.5,10.2.5-2.1.5-4.2.5-4.6.5,6.3.5-6,.5,4.2.5-7,.5,8.4.5-8.4.5-6.3.5-2.1.5,11.3.5-.4.5,4.2.5,6.3.5,7.4.5-10.2.5-11.6.5,6.7.5-2.8.5-4.9.5,2.5.5,7.7.5-10.2.5,4.6.5-5.6.5-1.1h.5l.5,1.4.5,3.5.5,3.2.5,3.9.5,2.5.5,1.8.5-6.7h.5l.5-3.9.5,3.2h.5l.5,6.3.5.7.5,8.4.5-8.8.5.4.5-3.9.5-3.5.5.4.5,3.5.5-3.5.5-4.2.5,1.1.5-6,.5-2.1.5,10.6.5,5.3.5,6,.5-.4.5-2.5.5-4.2.5-12.7.5-1.4.5,2.5.5-1.4.5-7.7.5,12.7.5-6.7.5,4.2.5.7.5,6.7.5-4.2.5,1.1.5-6.3.5,5.3.5-9.5.5-2.1.5-2.5.5,5.6.5-8.8.5,10.9.5-6.7.5-7.7.5-3.9.5,11.6.5-15.8.5,9.8.5,12.7h.5l.5-11.3.5,1.4.5-7,.5-3.2.5-5.3.5-.4.5,4.6h.5l.5,1.1.5.7.5,1.1.5-7.7.5,7.4.5-1.8.5,1.4.5-1.8.5,13.7.5-10.6.5,3.2.5-9.1.5-.4.5-15.1.5-2.1.5-13.7.5,7.4.5,3.9.5-1.8.5.7.5,1.4.5-8.4.5-2.8.5,7,.5,2.8.5,1.1.5,12.7.5-8.8.5,3.2.5-4.2.5,5.3.5-7.4.5,3.9.5-.7.5,1.1.5-7.4.5-2.1.5,1.8.5-9.5h.5l.5,5.6.5-8.1.5-3.5.5-6,.5.4.5-3.2.5-.4.5-3.5.5,2.5.5-2.8.5-4.6.5,2.5.5-2.5.5-2.8.5-7.4.5-3.5.5-16.5.5,5.6.5-1.4.5-1.1.5-.4.5,15.8.5-3.2.5,3.5.5,1.1.5-9.8.5-7,.5.4.5-2.5.5.7.5,6.3.5-4.9.5-4.9.5,2.5.5-5.6.5-1.8.5,4.6.5-3.5.5,2.5.5,3.5.5-7.4.5,84.1.5,85.1.5,77.7.5,82.3.5,91.5h17.5l.5-84.8.5-91.1.5-77.7.5-87.9.5-78.5.5,5.3.5,10.9.5,7.7.5,7.4.5,3.2.5.4.5-1.4.5-24.3.5-1.4.5-21.8h.5l.5-7,.5,8.8.5-7.7.5-2.5.5-8.8.5-12.7.5-.4.5.4.5,14.4.5.7.5,12.7.5-3.5.5,9.9.5-6.7.5,4.2.5,8.1.5,8.4.5-4.9.5,9.9.5,7.7.5-2.5.5-4.2.5,4.2.5-9.1.5-3.2.5,7.7.5-2.1.5,10.9.5,5.3.5,7,.5-5.3.5,15.5.5-13.4.5,9.1.5-13.7.5,15.1.5-10.9.5,26,.5.4.5,17.6.5-7.7.5-2.5.5-18.6.5-3.5.5-6.7.5,2.8.5,7.4.5,12.3.5,3.5.5,9.5.5,3.2.5,9.1.5-9.9.5-9.5.5-10.2.5,2.1.5-2.8.5,9.5.5,14.1.5,15.8.5-13.4.5-2.8.5-6.3.5-4.9.5-16.9.5,9.5.5,3.2.5,11.3.5,7,.5,13.4.5-2.5.5,14.8.5-12.3.5-5.6.5-11.6.5-3.5.5-8.4.5,12.7.5,2.5.5,8.1.5,9.5.5-6,.5-6.7.5-7,.5-1.8.5-1.8.5-4.6.5,1.1.5,10.6.5,9.1.5-.4.5,10.6.5-.7.5-6.7.5-15.5.5-2.1.5-4.2.5-4.2.5,7,.5,15.5.5,6.3.5-5.6.5,9.9.5-1.8.5-13.7.5-7,.5,10.6.5-7.4.5,1.4.5,14.4.5,4.9h.5l.5-1.8.5-2.1.5-10.2.5,4.9.5-7.7.5,10.6.5,10.9.5,4.6.5-1.4.5,10.9.5-6,.5-3.5.5-12.3.5-3.2.5-8.1.5.4.5,2.5.5,14.8.5,5.3.5,7,.5-7.4h.5l.5-9.8.5,1.8.5-11.3.5,9.9.5-3.9.5,6.3.5,2.8.5,9.1.5-3.5.5,5.6.5-2.8.5-1.1.5-9.9.5,6,.5-4.9.5,8.4.5-2.8.5,9.5.5-3.5.5,1.1.5-9.1.5-6.7.5-7,.5-3.5.5-.4.5,3.9.5,8.4.5,6.7.5,4.9.5-7,.5-6.7.5-10.9.5-3.9.5,3.9.5,4.2.5,8.1.5,21.8.5,7.4.5-4.2.5,6,.5-5.6.5-12.7.5-8.8.5-3.2.5-5.3.5,13.4.5-7,.5,8.8.5.4.5,8.8.5-7,.5,9.5.5-9.1.5,9.5.5-15.1.5,9.5.5-9.1.5,12.7.5-11.6.5,15.1.5-23.6.5,9.1.5-12.7.5,4.9.5,3.5.5,13,.5.7.5,11.6.5-4.9.5-6,.5-2.8.5-6.3.5-7.4.5-1.4.5-4.6.5-6.7.5,3.2.5,3.9.5,5.6.5-6"/>
          <path class="cls-23" d="M61.2,537.8h247.5"/>
          <path class="cls-7" d="M61.2,537.8h247.5"/>
        </g>
        <g>
          <path class="cls-22" d="M61.2,514.8V154.9l.5,4.9.5,6,.5,9.8.5,4.2.5-7,.5-5.6.5-3.9.5-4.6.5-3.9.5-.4.5,4.6.5-3.5.5-.4.5,3.5.5-1.1.5-1.1.5,4.2.5,4.2.5-9.8.5,1.4.5,2.1.5,1.4.5-7,.5,9.1.5,1.8.5-2.1.5-11.6.5,6.7.5-5.3.5,2.1.5-1.8.5,8.8.5-8.8.5,7.7.5-6.7.5,2.5.5,1.8.5,2.1.5-4.2.5,1.4.5-3.9.5-6,.5,15.1.5-7.7.5,3.5.5-6.7.5-.7.5-12.3.5,1.1.5,2.1.5,13,.5,6.7.5,6.3.5-4.6.5,1.4.5-7.7.5,3.2.5-7.7.5,10.2.5-7.4.5-2.8.5-13.4.5,2.1.5-5.3.5-4.2.5,1.8.5,7.4.5,8.1.5-.4.5,7,.5,4.9.5,1.4.5-16.5.5,8.4.5-2.1.5,3.2.5-5.3.5,9.8.5-.4.5-5.3.5-2.5.5,1.4.5-.4.5-9.1.5,4.2.5,2.8.5-2.5.5-4.6.5,9.9.5-10.6.5-2.8.5,2.8.5-1.1.5,4.9.5-1.4.5-3.5.5-4.2.5,7,.5-12,.5,14.8.5,1.8.5-2.8.5-.7.5-8.1.5-1.8.5,4.2.5,7,.5-2.8.5,9.8.5.4.5-6.7.5.7.5,3.5.5-3.5.5,2.8h.5l.5-1.1.5-6.7.5,3.2.5-1.4.5-2.8.5.7h.5l.5,2.8.5-4.2.5,12.7.5-7,.5,9.8.5-3.5.5,4.2.5-10.6.5,16.2.5-7.7.5,8.8.5-3.9.5,7,.5-9.1.5,8.8.5-.7.5.4.5,1.8.5-1.8.5-13,.5,3.9.5-.4.5-5.3.5,9.1.5,5.6.5-6.7.5-8.8.5-1.8.5-9.1.5,1.4.5,1.1.5,5.3.5,15.5.5.4.5,10.6.5,5.6.5-.7.5-10.6.5,5.3.5-13,.5-6.7.5,11.6.5,6.3.5,3.2.5.4.5-1.4.5-8.1.5-12h.5l.5,2.8.5-2.1.5,2.5.5,1.4.5-10.2.5,3.9.5-4.6.5,5.3.5-2.1.5,5.3.5-1.8.5,8.8.5-9.5.5,10.6.5,5.6.5,4.6.5.4.5-.7.5,3.9.5-4.6.5,4.2.5-2.5.5,10.2.5-9.5.5,1.4.5-8.4.5.7.5,3.2.5,6.3.5,3.2.5-1.8.5.4.5-4.9.5-6,.5-8.4.5,2.8.5,4.9.5-2.8.5,5.3.5,14.1.5-9.1.5,7,.5-4.6.5-1.1.5-8.1.5,1.8.5-6.7.5,11.3.5,3.9.5,3.2.5,7,.5,8.4.5,12,.5,62.6.5,64.7.5,67.9.5,57.3.5,51.7h17.5l.5-47.8.5-57.3.5-61.2.5-60.2.5-63.7.5-19.3.5-21.5.5-9.1.5-9.1.5-4.2.5-2.5.5,28.8.5,1.8.5,15.8.5,9.1.5,12.3.5-12,.5,10.9.5,2.5h.5l.5,10.2.5,9.5.5-7.7.5-7.7.5-6.7.5-12,.5-10.9.5,6.3.5-3.2.5.4.5-3.5.5-2.1.5-2.8.5,1.1.5-4.9.5-3.9.5-9.5.5-4.6.5-4.9.5,11.6.5-4.6.5,8.8.5-2.5.5-3.5.5-8.1.5-3.5.5-1.1.5,2.1.5,1.1.5,7,.5,11.6.5,4.6.5-3.9.5-13.4.5-10.6.5-19.3.5-6.7.5-1.1.5,13.7.5,11.6.5,14.4.5,3.9.5,1.8.5-2.5.5-22.9.5-6.7.5-10.9.5-12.3.5,5.6.5,19,.5,10.9.5,12.3.5,15.5.5-13.7.5-9.9.5-16.2.5-2.8.5-2.5.5,13.4.5,10.2.5,20.1.5-.4.5-4.9.5-17.2.5-13.4.5-20.8.5-5.3.5-5.6.5,14.1.5,10.2.5,14.4.5,9.1.5,2.8.5-11.6h.5l.5-15.8.5-1.1.5-1.4.5,14.1.5-1.1.5,20.4.5,1.4.5,7.7.5-10.6.5-.7.5-23.9.5-8.8h1l.5,11.6.5,12.7.5,4.2.5.4.5,7.4.5-25.7.5-8.1.5-5.6.5,2.5.5,1.1.5,16.5.5,12,.5,4.2.5-6,.5-4.9.5-6.3.5-20.8.5-3.2.5,8.4h.5l.5,3.5.5,25.7.5-3.2h.5l.5-9.5.5,3.2.5-20.8.5,2.8.5-12,.5,12.7.5-11.3.5,18.6.5,4.6.5.7.5-6,.5,4.9.5-10.2.5-13.4.5,6,.5,3.2.5-.4.5,8.4.5,12.7.5-2.8.5,2.8.5-3.2.5-8.4.5-13.7.5,6,.5-10.9.5,4.6.5,6.3.5,8.4.5,8.4.5,12.7.5-6.7.5-15.5.5,3.5.5-19.3.5-17.2.5,3.5.5,23.6.5,4.2.5,19.7.5,8.8.5,4.9.5-15.1.5-6.7.5-15.5.5-2.8.5,6,.5,9.9.5,5.3.5,9.1.5,7.7.5-3.9.5-.7.5-15.1.5-16.9.5-9.1.5-1.1.5,1.1.5,11.6.5,14.1.5,16.9.5-5.6.5-8.1.5-2.5.5-1.4.5-16.5.5,6,.5,7.4.5,3.5.5-3.5.5,8.8.5-3.2.5-5.3.5-4.9.5,4.2.5-8.4.5-2.8.5,8.1.5,8.4.5,1.4.5,2.5.5-3.2.5-.7.5-8.4.5-2.8.5,8.4.5-2.1.5-11.3.5,12.7.5-6.7.5,3.9.5,10.6.5,11.3.5-3.2.5,2.5.5,3.2.5-10.2v344.1"/>
          <path class="cls-5" d="M61.2,154.9l.5,4.9.5,6,.5,9.8.5,4.2.5-7,.5-5.6.5-3.9.5-4.6.5-3.9.5-.4.5,4.6.5-3.5.5-.4.5,3.5.5-1.1.5-1.1.5,4.2.5,4.2.5-9.8.5,1.4.5,2.1.5,1.4.5-7,.5,9.1.5,1.8.5-2.1.5-11.6.5,6.7.5-5.3.5,2.1.5-1.8.5,8.8.5-8.8.5,7.7.5-6.7.5,2.5.5,1.8.5,2.1.5-4.2.5,1.4.5-3.9.5-6,.5,15.1.5-7.7.5,3.5.5-6.7.5-.7.5-12.3.5,1.1.5,2.1.5,13,.5,6.7.5,6.3.5-4.6.5,1.4.5-7.7.5,3.2.5-7.7.5,10.2.5-7.4.5-2.8.5-13.4.5,2.1.5-5.3.5-4.2.5,1.8.5,7.4.5,8.1.5-.4.5,7,.5,4.9.5,1.4.5-16.5.5,8.4.5-2.1.5,3.2.5-5.3.5,9.8.5-.4.5-5.3.5-2.5.5,1.4.5-.4.5-9.1.5,4.2.5,2.8.5-2.5.5-4.6.5,9.9.5-10.6.5-2.8.5,2.8.5-1.1.5,4.9.5-1.4.5-3.5.5-4.2.5,7,.5-12,.5,14.8.5,1.8.5-2.8.5-.7.5-8.1.5-1.8.5,4.2.5,7,.5-2.8.5,9.8.5.4.5-6.7.5.7.5,3.5.5-3.5.5,2.8h.5l.5-1.1.5-6.7.5,3.2.5-1.4.5-2.8.5.7h.5l.5,2.8.5-4.2.5,12.7.5-7,.5,9.8.5-3.5.5,4.2.5-10.6.5,16.2.5-7.7.5,8.8.5-3.9.5,7,.5-9.1.5,8.8.5-.7.5.4.5,1.8.5-1.8.5-13,.5,3.9.5-.4.5-5.3.5,9.1.5,5.6.5-6.7.5-8.8.5-1.8.5-9.1.5,1.4.5,1.1.5,5.3.5,15.5.5.4.5,10.6.5,5.6.5-.7.5-10.6.5,5.3.5-13,.5-6.7.5,11.6.5,6.3.5,3.2.5.4.5-1.4.5-8.1.5-12h.5l.5,2.8.5-2.1.5,2.5.5,1.4.5-10.2.5,3.9.5-4.6.5,5.3.5-2.1.5,5.3.5-1.8.5,8.8.5-9.5.5,10.6.5,5.6.5,4.6.5.4.5-.7.5,3.9.5-4.6.5,4.2.5-2.5.5,10.2.5-9.5.5,1.4.5-8.4.5.7.5,3.2.5,6.3.5,3.2.5-1.8.5.4.5-4.9.5-6,.5-8.4.5,2.8.5,4.9.5-2.8.5,5.3.5,14.1.5-9.1.5,7,.5-4.6.5-1.1.5-8.1.5,1.8.5-6.7.5,11.3.5,3.9.5,3.2.5,7,.5,8.4.5,12,.5,62.6.5,64.7.5,67.9.5,57.3.5,51.7h17.5l.5-47.8.5-57.3.5-61.2.5-60.2.5-63.7.5-19.3.5-21.5.5-9.1.5-9.1.5-4.2.5-2.5.5,28.8.5,1.8.5,15.8.5,9.1.5,12.3.5-12,.5,10.9.5,2.5h.5l.5,10.2.5,9.5.5-7.7.5-7.7.5-6.7.5-12,.5-10.9.5,6.3.5-3.2.5.4.5-3.5.5-2.1.5-2.8.5,1.1.5-4.9.5-3.9.5-9.5.5-4.6.5-4.9.5,11.6.5-4.6.5,8.8.5-2.5.5-3.5.5-8.1.5-3.5.5-1.1.5,2.1.5,1.1.5,7,.5,11.6.5,4.6.5-3.9.5-13.4.5-10.6.5-19.3.5-6.7.5-1.1.5,13.7.5,11.6.5,14.4.5,3.9.5,1.8.5-2.5.5-22.9.5-6.7.5-10.9.5-12.3.5,5.6.5,19,.5,10.9.5,12.3.5,15.5.5-13.7.5-9.9.5-16.2.5-2.8.5-2.5.5,13.4.5,10.2.5,20.1.5-.4.5-4.9.5-17.2.5-13.4.5-20.8.5-5.3.5-5.6.5,14.1.5,10.2.5,14.4.5,9.1.5,2.8.5-11.6h.5l.5-15.8.5-1.1.5-1.4.5,14.1.5-1.1.5,20.4.5,1.4.5,7.7.5-10.6.5-.7.5-23.9.5-8.8h1l.5,11.6.5,12.7.5,4.2.5.4.5,7.4.5-25.7.5-8.1.5-5.6.5,2.5.5,1.1.5,16.5.5,12,.5,4.2.5-6,.5-4.9.5-6.3.5-20.8.5-3.2.5,8.4h.5l.5,3.5.5,25.7.5-3.2h.5l.5-9.5.5,3.2.5-20.8.5,2.8.5-12,.5,12.7.5-11.3.5,18.6.5,4.6.5.7.5-6,.5,4.9.5-10.2.5-13.4.5,6,.5,3.2.5-.4.5,8.4.5,12.7.5-2.8.5,2.8.5-3.2.5-8.4.5-13.7.5,6,.5-10.9.5,4.6.5,6.3.5,8.4.5,8.4.5,12.7.5-6.7.5-15.5.5,3.5.5-19.3.5-17.2.5,3.5.5,23.6.5,4.2.5,19.7.5,8.8.5,4.9.5-15.1.5-6.7.5-15.5.5-2.8.5,6,.5,9.9.5,5.3.5,9.1.5,7.7.5-3.9.5-.7.5-15.1.5-16.9.5-9.1.5-1.1.5,1.1.5,11.6.5,14.1.5,16.9.5-5.6.5-8.1.5-2.5.5-1.4.5-16.5.5,6,.5,7.4.5,3.5.5-3.5.5,8.8.5-3.2.5-5.3.5-4.9.5,4.2.5-8.4.5-2.8.5,8.1.5,8.4.5,1.4.5,2.5.5-3.2.5-.7.5-8.4.5-2.8.5,8.4.5-2.1.5-11.3.5,12.7.5-6.7.5,3.9.5,10.6.5,11.3.5-3.2.5,2.5.5,3.2.5-10.2"/>
          <path class="cls-21" d="M61.2,514.8h247.5"/>
          <path class="cls-5" d="M61.2,514.8h247.5"/>
        </g>
        <g>
          <path class="cls-4" d="M61.2,122.4l.5,10.9.5-2.8.5,5.6.5-5.6.5,21.8.5-6.7.5,7,.5-1.1.5-4.6.5-10.9.5,1.8.5-3.5.5-5.3.5,6.3.5-3.2.5,9.8.5,2.1.5,5.6.5,1.1.5.4.5-13.7.5-5.6.5-2.1.5-6.7.5,1.4.5-6,.5,6,.5-3.5.5,2.1.5-1.8.5,7.7.5-9.5.5,1.1.5,3.2.5-2.8.5,10.6.5-5.6.5,5.3.5-11.6.5,7,.5-19.7.5,14.8.5-6.7.5,15.5.5-9.5.5,3.9.5-5.6.5-5.6.5-4.6.5,1.4.5,9.1.5-12,.5,7.7.5-1.4.5-2.1.5-12.7.5,13,.5,6.7.5,1.8.5,1.1h.5l.5.4.5-9.9.5-4.6.5,4.9.5.7.5,6.7.5-6.3.5,9.9.5-3.5.5,4.9.5-6.7.5,10.2.5-15.8.5,1.8.5,3.5.5-4.2.5-3.5.5,2.5.5,6,.5-10.2.5-2.5.5,1.8.5,6,.5-9.5.5,5.3.5,3.9.5-1.4.5.7.5,7.4.5,6,.5.7.5,3.9.5-.7.5-3.9.5-4.6.5,1.8.5-2.5.5,3.2.5-1.8.5,3.2h.5l.5,4.2.5,1.4.5-3.2.5-6.7.5,4.6.5-7.7.5-4.6.5,12.3.5-2.5.5-6,.5.7.5,4.6.5-9.8.5,10.2.5,7,.5-6,.5-2.8.5-6.7.5-4.6.5-15.5.5,13.4.5-8.8.5,16.2.5-2.8.5,8.1.5-11.6.5,8.8.5-14.1.5,3.5.5-4.6.5,6.7.5-6.3.5,1.8.5,5.3h.5l.5-8.8.5,5.3.5,2.1.5-1.4.5,1.4.5,5.6.5-9.1.5,3.5.5-15.8.5,2.5.5.7.5,3.5.5-1.1.5,6.3.5-7,.5-8.8.5-1.8.5-6.7.5,3.5.5,4.2.5,4.6.5,9.9.5-1.4.5-2.1.5-5.6.5,15.5.5-11.3.5,3.2.5,4.6.5,7.7.5-17.2.5,8.1.5.4.5-4.6.5-3.5.5,7,.5-3.2.5-3.5.5-2.5.5-1.1.5-10.6.5,1.1.5-.4.5,2.5.5-4.2.5,6,.5-3.5.5.7.5,8.1.5,4.9.5,2.5.5,3.2.5,4.2.5-13,.5,4.6.5-7,.5-8.1.5-2.5.5,12.7.5-6.7.5,2.5.5,1.1.5-.7.5-12,.5,2.8.5-4.2.5,4.6.5,6.7.5-2.1.5-3.9.5,5.3.5-7,.5-4.2.5-1.1.5-3.2.5-2.1.5.7.5,1.4.5-2.8.5.4.5,5.3.5,2.1.5-4.9.5,12.3.5,7.4.5,2.5.5,10.9.5,7,.5,73.5.5,75.3.5,72.5.5,68.2.5,72.5h17.5l.5-88.3.5-83,.5-97.1.5-85.1.5-87.9.5,9.9.5,4.9.5,4.2.5,8.8.5,3.2.5,3.9.5,4.6.5,8.8.5-16.2h.5l.5-12.3.5-10.6h.5l.5,12.3.5,1.1.5,4.9.5-8.8.5-1.4.5-10.6.5,3.2.5,4.2.5,2.1.5,11.3.5-1.8.5-7.4.5-8.8.5-.4.5-8.4.5,4.2.5-1.1.5,4.9.5,2.8.5.7.5,10.2.5-4.9.5-2.5.5-2.5.5-4.6.5-14.4.5,10.9.5-8.4.5,8.4.5-2.1.5,9.1.5-8.1.5,13.7.5-9.9.5,2.5.5-2.5.5,6,.5-13.7.5,13.4.5,1.8.5,5.3.5-4.2.5,8.1.5-6.7.5,4.2.5-4.6.5-.4.5,6,.5,13.4.5.7.5,14.4.5.7.5-1.1.5-19.3.5-4.9.5-16.5.5,5.6.5,3.9.5,15.8.5,13.4.5,13.7.5,10.6.5-4.6.5-7.7.5-14.4.5-14.4.5-12.7.5,4.2.5,11.3.5,8.4.5,21.1.5.7.5-5.6.5-16.5.5-12,.5-17.9.5-2.8.5,2.5.5,15.1.5,25,.5,10.6.5,14.1.5,2.8.5-19.3.5-20.4.5-14.8.5-6.3.5-.4.5,15.5.5,11.3.5,22.9.5-.7.5-.7.5-3.9.5-10.9.5-26.4.5,4.9.5-10.6.5,6,.5,6.3.5,18.3.5-.7.5,13.4.5-8.1.5.4.5-9.9.5-7.4.5-3.2.5,5.3.5,4.2.5,10.2.5,12,.5,4.9.5-3.2.5-3.2.5-14.8.5-12.3.5-3.5.5,7.4.5,3.5.5,20.1.5,12.3.5,2.8h.5l.5-9.5.5-13.7.5-11.3.5-10.6.5,3.5.5,16.2.5,16.5.5,11.3.5,14.8.5-6.3.5-9.1.5-3.2.5-7.4.5-7.4.5-4.6.5,7,.5,3.5.5,6.7.5,4.2.5,6.7.5-8.1.5-19.7.5-12.7.5-9.8.5-6.3.5,12.7.5,8.4.5,10.9.5,14.1.5,3.2.5-14.1.5,1.1.5-17.2.5-8.1.5-6.3.5,4.2.5,3.5.5,15.1.5,7.4.5,4.6.5,5.3.5-1.8.5,3.5.5-5.6.5,4.6.5-1.8.5-6,.5,2.1.5,7.7.5,2.5.5-12,.5,2.1.5-13.7.5-12.7.5-7,.5,12.3.5,4.9.5,12.3.5,13.7.5,6.7.5-2.5.5-1.8.5-3.2.5-12.7.5,5.6h.5l.5,5.6h.5l.5,5.6.5-11.6.5-.7.5-4.9.5,6,.5-4.2.5,7.4.5-7.4.5,2.1.5-2.8.5,4.9.5,5.6.5-1.1.5.4.5-3.9.5-2.1.5-17.9.5,6.3.5-6,.5,7.7"/>
          <path class="cls-19" d="M61.2,473.8h247.5"/>
          <path class="cls-4" d="M61.2,473.8h247.5"/>
        </g>
        <g>
          <path class="cls-2" d="M61.2,149l.5-3.9.5-10.2.5,4.9.5-7.4.5-13.4.5-4.2.5,5.3.5-10.9.5,15.1.5.7.5,6.7.5,1.1.5,6.7.5-7.4.5,1.8.5-13,.5-3.2.5,4.9.5-11.6.5,4.2.5,10.9.5-4.2.5-9.1.5,9.9.5,2.1.5-1.8.5,14.1.5,4.9.5-.7.5-6.7.5-.7.5-6.7.5,10.2h.5l.5,1.8.5-9.5.5-.4.5-6,.5-.4.5,7.4.5,13.4.5-.4.5-2.1.5-4.9.5-4.9.5-2.8.5,4.2h.5l.5.4.5,1.8.5-6.3.5-2.5.5,9.1.5-1.4.5,2.8.5,10.2.5-1.1.5-16.5.5-3.5.5,2.5.5-8.1.5,10.9.5-1.1.5,12.3.5-9.9.5,4.6.5-12.3.5,9.1.5-2.8.5,1.8.5-9.1.5-1.4.5-7.7.5,7.4.5-.7.5,9.9.5,2.5.5,5.3.5-6,.5-4.9.5,6.7.5,1.4.5-2.8.5,3.9h.5l.5-6.3.5-1.4.5,5.6.5-8.8.5,6.7.5-6.7.5-6.3.5-2.5.5-1.1.5-2.1.5,2.1.5,4.6.5-2.1.5,1.1.5-.4.5-1.1.5-1.1.5-4.6.5,1.4.5,6.3.5-2.8.5-1.4.5,5.6.5.7.5-2.1.5-1.1.5,8.4.5-6,.5-2.8.5,3.2.5-1.8.5-8.8.5,4.6.5,4.9.5-5.6.5,10.9.5.7.5.7.5-9.9.5,1.4.5-6.3.5,5.6.5,6.3.5,3.5.5,1.8.5,4.9.5-12,.5-8.4.5,6.3.5-9.5.5-12.3.5,9.5.5,2.1.5,3.2.5,3.2.5,6.7.5-8.8.5,7.7.5-6.7.5,10.9.5.7.5,7,.5-4.2.5-4.6.5-8.8.5,3.5.5,1.1.5,2.5.5,6.7.5,3.2.5-2.8.5,6.3.5-14.8.5,2.5.5-5.3.5,6.3.5-18.6.5,3.9.5-7.7.5,2.1.5-13.7.5,1.8.5,1.4.5-2.1.5-4.6.5,4.9.5,2.8.5.4.5-3.2.5,4.2.5-2.5.5,1.8.5,5.3.5,6,.5-2.5.5,5.3.5.4.5-2.5.5-.4.5-2.5.5-14.1.5-6.7.5-7.7.5-4.2.5-2.8.5,4.9.5,8.8.5.4.5,6.7h.5l.5-4.2.5-5.6.5-6.7.5-4.9.5,2.5.5,8.1.5-2.8.5,5.3.5-14.8.5-4.9.5-1.8h.5l.5-3.9.5,11.6.5,4.9.5,1.8.5,1.4.5,6.7.5,2.1.5-2.5.5-5.3.5.7.5-12.3.5.4.5,1.1.5-5.3.5.4.5,2.5.5-10.9.5-2.5.5,90.4.5,83,.5,90.1.5,93.2.5,85.5h17.5l.5-68.2.5-67.5.5-65.1.5-61.9.5-79.9.5-.7.5-13,.5-8.4.5-16.5.5.7.5-19.7.5-2.8.5-12.7.5,6.3.5,4.2.5,10.9.5,6.3.5,8.4.5-15.5.5-3.9.5.7.5,3.9.5.7.5,15.5.5-1.1.5-.4.5-13.4.5-1.8.5-11.6.5,1.8.5-2.1.5,14.4.5-7,.5,7.4.5-2.8.5,16.9.5-17.9.5,9.1.5-8.1.5-2.8.5-8.1.5,9.1.5,3.2.5,3.5.5,11.3.5-5.3.5.7.5-6.7.5,6.7.5-2.8.5-3.9.5,9.1.5,3.2.5-3.5.5,2.5.5-1.4.5-13.7.5-7,.5-2.8.5-3.2.5,5.3.5,8.4.5,4.9.5,8.1.5-1.1.5-6,.5-12,.5-10.6.5.4.5-6.3.5,10.6.5,15.5.5,18.3.5-1.8.5,8.1.5-16.9.5-6.7.5-15.8.5-5.6.5-4.6.5,8.1.5,16.9.5,7.7.5,14.8.5-4.2.5,6,.5-24.6.5-8.4.5-9.8.5,5.6.5,5.6.5,21.8.5,22.2.5,5.3.5,10.6.5-1.4.5-12.7.5-23.2.5-11.6.5-13,.5-.4.5,15.8.5,21.1.5,15.8.5,7.4.5-7.7.5-19.7.5-17.2.5-14.8.5-7.7.5,5.3.5,15.1.5,15.5.5,12.7.5,19,.5-4.6.5-8.8.5-11.3.5-10.9.5-17.2.5,6,.5,1.4.5,14.4.5,8.8.5,8.8.5-6.3.5-3.2.5-14.4.5-12,.5-8.1.5,1.8.5,1.1.5,7,.5,12.3.5,10.9.5.4.5-.7.5-7.7.5-15.1.5-13.7.5-.4.5,2.1.5,11.6.5,13,.5,11.3.5,1.8.5.7.5-25.7.5-9.1.5-11.3.5-3.5.5.4.5,18.3.5,4.2.5,4.9.5,6.3.5.4.5-6.7.5-2.5h.5l.5.4.5-4.6.5,11.3.5,7.4.5,5.6.5,2.8.5.7.5-7.7.5-14.8.5.4.5-15.8.5,8.4.5,4.9.5,14.8.5-1.4.5,13,.5-4.9.5-7.7.5-5.6.5-11.3.5-7,.5-1.8.5,12,.5,7,.5,10.6.5,3.2.5-6,.5-2.8.5-8.8.5.4.5-8.1.5,8.8.5,1.1.5,13,.5,4.9.5,11.3.5,1.4.5-9.5.5-8.8.5-14.8.5-14.4.5-.7.5,9.5.5,1.4.5,3.5.5,19.3.5-4.2.5-7.7.5-1.8.5.7.5-9.5.5,1.1.5,13.7.5-7.4.5,3.9.5-1.4.5-5.6.5-5.6.5-1.1.5-1.4.5-2.1.5,5.6.5-4.2.5,14.4.5-1.8.5,13.7.5.4.5,8.8.5-16.2.5,11.3"/>
          <path class="cls-20" d="M61.2,494.8h247.5"/>
          <path class="cls-2" d="M61.2,494.8h247.5"/>
        </g>
      </g>
      <g id="main-plot">
        <path class="cls-18" d="M61,480.6h247.5"/>
        <g>
          <path class="cls-6" d="M60,259v6h250v-6"/>
          <line class="cls-6" x1="60" y1="265" x2="60" y2="259"/>
          <line class="cls-6" x1="85" y1="265" x2="85" y2="259"/>
          <line class="cls-6" x1="110" y1="265" x2="110" y2="259"/>
          <line class="cls-6" x1="135" y1="265" x2="135" y2="259"/>
          <line class="cls-6" x1="160" y1="265" x2="160" y2="259"/>
          <line class="cls-6" x1="185" y1="265" x2="185" y2="259"/>
          <line class="cls-6" x1="210" y1="265" x2="210" y2="259"/>
          <line class="cls-6" x1="235" y1="265" x2="235" y2="259"/>
          <line class="cls-6" x1="260" y1="265" x2="260" y2="259"/>
          <line class="cls-6" x1="285" y1="265" x2="285" y2="259"/>
          <line class="cls-6" x1="310" y1="265" x2="310" y2="259"/>
        </g>
        <g>
          <path class="cls-6" d="M60,36v-6h250v6"/>
          <line class="cls-6" x1="60" y1="30" x2="60" y2="36"/>
          <line class="cls-6" x1="85" y1="30" x2="85" y2="36"/>
          <line class="cls-6" x1="110" y1="30" x2="110" y2="36"/>
          <line class="cls-6" x1="135" y1="30" x2="135" y2="36"/>
          <line class="cls-6" x1="160" y1="30" x2="160" y2="36"/>
          <line class="cls-6" x1="185" y1="30" x2="185" y2="36"/>
          <line class="cls-6" x1="210" y1="30" x2="210" y2="36"/>
          <line class="cls-6" x1="235" y1="30" x2="235" y2="36"/>
          <line class="cls-6" x1="260" y1="30" x2="260" y2="36"/>
          <line class="cls-6" x1="285" y1="30" x2="285" y2="36"/>
          <line class="cls-6" x1="310" y1="30" x2="310" y2="36"/>
        </g>
        <g>
          <path class="cls-6" d="M66,265h-6V30h6"/>
          <line class="cls-6" x1="60" y1="265" x2="66" y2="265"/>
          <line class="cls-6" x1="60" y1="241.5" x2="66" y2="241.5"/>
          <line class="cls-6" x1="60" y1="218" x2="66" y2="218"/>
          <line class="cls-6" x1="60" y1="194.5" x2="66" y2="194.5"/>
          <line class="cls-6" x1="60" y1="171" x2="66" y2="171"/>
          <line class="cls-6" x1="60" y1="147.5" x2="66" y2="147.5"/>
          <line class="cls-6" x1="60" y1="124" x2="66" y2="124"/>
          <line class="cls-6" x1="60" y1="100.5" x2="66" y2="100.5"/>
          <line class="cls-6" x1="60" y1="77" x2="66" y2="77"/>
          <line class="cls-6" x1="60" y1="53.5" x2="66" y2="53.5"/>
          <line class="cls-6" x1="60" y1="30" x2="66" y2="30"/>
        </g>
        <g>
          <path class="cls-6" d="M304,265h6V30h-6"/>
          <line class="cls-6" x1="310" y1="265" x2="304" y2="265"/>
          <line class="cls-6" x1="310" y1="241.5" x2="304" y2="241.5"/>
          <line class="cls-6" x1="310" y1="218" x2="304" y2="218"/>
          <line class="cls-6" x1="310" y1="194.5" x2="304" y2="194.5"/>
          <line class="cls-6" x1="310" y1="171" x2="304" y2="171"/>
          <line class="cls-6" x1="310" y1="147.5" x2="304" y2="147.5"/>
          <line class="cls-6" x1="310" y1="124" x2="304" y2="124"/>
          <line class="cls-6" x1="310" y1="100.5" x2="304" y2="100.5"/>
          <line class="cls-6" x1="310" y1="77" x2="304" y2="77"/>
          <line class="cls-6" x1="310" y1="53.5" x2="304" y2="53.5"/>
          <line class="cls-6" x1="310" y1="30" x2="304" y2="30"/>
        </g>
        <g class="cls-11">
          <text class="cls-17" transform="translate(46 280)"><tspan x="0" y="0">-250</tspan></text>
        </g>
        <g class="cls-11">
          <text class="cls-17" transform="translate(298.3 280)"><tspan x="0" y="0">250</tspan></text>
        </g>
        <g class="cls-11">
          <text class="cls-17" transform="translate(30.5 265)"><tspan x="0" y="0">0.1</tspan></text>
        </g>
        <g class="cls-11">
          <text class="cls-17" transform="translate(30.5 40)"><tspan x="0" y="0">0.2</tspan></text>
        </g>
        <g class="cls-11">
          <text class="cls-17" transform="translate(42 196.9) rotate(-90)"><tspan x="0" y="0">Frequency (AU)</tspan></text>
        </g>
        <g id="composite-legend" class="cls-32">
          <g>
            <polygon class="cls-27" points="335 30 350 30 350 45 335 45 335 30"/>
            <polygon class="cls-27" points="350 30 350 45 335 45 350 30"/>
            <rect class="cls-6" x="335" y="30" width="15" height="15"/>
            <g class="cls-11">
              <text class="cls-9" transform="translate(355 40)"><tspan x="0" y="0">Composite 0</tspan></text>
            </g>
          </g>
          <g>
            <polygon class="cls-25" points="335 54 350 54 350 69 335 69 335 54"/>
            <polygon class="cls-25" points="350 54 350 69 335 69 350 54"/>
            <rect class="cls-6" x="335" y="54" width="15" height="15"/>
            <g class="cls-11">
              <text class="cls-9" transform="translate(355 64)"><tspan x="0" y="0">Composite 1</tspan></text>
            </g>
          </g>
          <g>
            <polygon class="cls-29" points="335 78 350 78 350 93 335 93 335 78"/>
            <polygon class="cls-29" points="350 78 350 93 335 93 350 78"/>
            <rect class="cls-6" x="335" y="78" width="15" height="15"/>
            <g class="cls-11">
              <text class="cls-9" transform="translate(355 88)"><tspan x="0" y="0">Composite 2</tspan></text>
            </g>
          </g>
          <g>
            <polygon class="cls-24" points="335 102 350 102 350 117 335 117 335 102"/>
            <polygon class="cls-24" points="350 102 350 117 335 117 350 102"/>
            <rect class="cls-6" x="335" y="102" width="15" height="15"/>
            <g class="cls-11">
              <text class="cls-9" transform="translate(355 112)"><tspan x="0" y="0">Composite 3</tspan></text>
            </g>
          </g>
        </g>
        <g class="cls-32">
          <path class="cls-28" d="M132.4,35.7h100.5l5-5,5,5h100.5v64.5h-211V35.7Z"/>
          <g>
            <g class="cls-11">
              <g class="cls-11">
                <text class="cls-10" transform="translate(142.4 53.1)"><tspan x="0" y="0">Distance from phase aligned CTCF motif (bp): 106</tspan></text>
              </g>
            </g>
            <g class="cls-15">
              <g class="cls-15">
                <text class="cls-13" transform="translate(142.4 61.9)"><tspan x="0" y="0">Composite 0:</tspan></text>
              </g>
              <g class="cls-15">
                <text class="cls-3" transform="translate(142.4 61.9)"><tspan x="0" y="0">Composite 0:</tspan></text>
              </g>
              <g class="cls-15">
                <text class="cls-12" transform="translate(191.7 61.9)"><tspan x="0" y="0">0.148</tspan></text>
              </g>
              <g class="cls-15">
                <text class="cls-3" transform="translate(191.7 61.9)"><tspan x="0" y="0">0.148</tspan></text>
              </g>
              <g class="cls-15">
                <text class="cls-13" transform="translate(211.7 61.9)"><tspan x="0" y="0">;</tspan></text>
              </g>
              <g class="cls-15">
                <text class="cls-3" transform="translate(211.7 61.9)"><tspan x="0" y="0">;</tspan></text>
              </g>
              <g class="cls-15">
                <text class="cls-12" transform="translate(216.2 61.9)"><tspan x="0" y="0">0</tspan></text>
              </g>
              <g class="cls-15">
                <text class="cls-3" transform="translate(216.2 61.9)"><tspan x="0" y="0">0</tspan></text>
              </g>
            </g>
            <g class="cls-11">
              <g class="cls-11">
                <text class="cls-13" transform="translate(142.4 70.7)"><tspan x="0" y="0">Composite 1:</tspan></text>
              </g>
              <g class="cls-11">
                <text class="cls-3" transform="translate(142.4 70.7)"><tspan x="0" y="0">Composite 1:</tspan></text>
              </g>
              <g class="cls-11">
                <text class="cls-8" transform="translate(191.7 70.7)"><tspan x="0" y="0">0.176</tspan></text>
              </g>
              <g class="cls-11">
                <text class="cls-3" transform="translate(191.7 70.7)"><tspan x="0" y="0">0.176</tspan></text>
              </g>
              <g class="cls-11">
                <text class="cls-13" transform="translate(211.7 70.7)"><tspan x="0" y="0">;</tspan></text>
              </g>
              <g class="cls-11">
                <text class="cls-3" transform="translate(211.7 70.7)"><tspan x="0" y="0">;</tspan></text>
              </g>
              <g class="cls-11">
                <text class="cls-8" transform="translate(216.2 70.7)"><tspan x="0" y="0">0</tspan></text>
              </g>
              <g class="cls-11">
                <text class="cls-3" transform="translate(216.2 70.7)"><tspan x="0" y="0">0</tspan></text>
              </g>
            </g>
            <g class="cls-11">
              <g class="cls-11">
                <text class="cls-13" transform="translate(142.4 79.5)"><tspan x="0" y="0">Composite 2:</tspan></text>
              </g>
              <g class="cls-11">
                <text class="cls-3" transform="translate(142.4 79.5)"><tspan x="0" y="0">Composite 2:</tspan></text>
              </g>
              <g class="cls-11">
                <text class="cls-14" transform="translate(191.7 79.5)"><tspan x="0" y="0">0.145</tspan></text>
              </g>
              <g class="cls-11">
                <text class="cls-3" transform="translate(191.7 79.5)"><tspan x="0" y="0">0.145</tspan></text>
              </g>
              <g class="cls-11">
                <text class="cls-13" transform="translate(211.7 79.5)"><tspan x="0" y="0">;</tspan></text>
              </g>
              <g class="cls-11">
                <text class="cls-3" transform="translate(211.7 79.5)"><tspan x="0" y="0">;</tspan></text>
              </g>
              <g class="cls-11">
                <text class="cls-14" transform="translate(216.2 79.5)"><tspan x="0" y="0">0</tspan></text>
              </g>
              <g class="cls-11">
                <text class="cls-3" transform="translate(216.2 79.5)"><tspan x="0" y="0">0</tspan></text>
              </g>
            </g>
            <g class="cls-11">
              <g class="cls-11">
                <text class="cls-13" transform="translate(142.4 88.3)"><tspan x="0" y="0">Composite 3:</tspan></text>
              </g>
              <g class="cls-11">
                <text class="cls-3" transform="translate(142.4 88.3)"><tspan x="0" y="0">Composite 3:</tspan></text>
              </g>
              <g class="cls-11">
                <text class="cls-16" transform="translate(191.7 88.3)"><tspan x="0" y="0">0.153</tspan></text>
              </g>
              <g class="cls-11">
                <text class="cls-3" transform="translate(191.7 88.3)"><tspan x="0" y="0">0.153</tspan></text>
              </g>
              <g class="cls-11">
                <text class="cls-13" transform="translate(211.7 88.3)"><tspan x="0" y="0">;</tspan></text>
              </g>
              <g class="cls-11">
                <text class="cls-3" transform="translate(211.7 88.3)"><tspan x="0" y="0">;</tspan></text>
              </g>
              <g class="cls-11">
                <text class="cls-16" transform="translate(216.2 88.3)"><tspan x="0" y="0">0</tspan></text>
              </g>
              <g class="cls-11">
                <text class="cls-3" transform="translate(216.2 88.3)"><tspan x="0" y="0">0</tspan></text>
              </g>
            </g>
          </g>
        </g>
        <g class="cls-32">
          <rect id="nucleosome-rect" class="cls-31" x="185" y="491" width="36.5" height="18"/>
        </g>
        <rect class="cls-30" x="160" y="265.5" width="60.7" height="267.7"/>
        <line class="cls-1" x1="184.8" y1="265.5" x2="184.8" y2="30.5"/>
        <g class="cls-11">
          <text class="cls-17" transform="translate(181.5 280)"><tspan x="0" y="0">0</tspan></text>
        </g>
      </g>
    </g>
  </g>
</svg>