<?xml version="1.0" encoding="UTF-8"?>
<svg xmlns="http://www.w3.org/2000/svg" xmlns:xlink="http://www.w3.org/1999/xlink" version="1.1" viewBox="0 0 500 300">
  <defs>
    <style>
      .cls-1, .cls-2, .cls-3, .cls-4, .cls-5, .cls-6, .cls-7, .cls-8, .cls-9 {
        stroke-width: 4px;
      }

      .cls-1, .cls-2, .cls-3, .cls-4, .cls-7, .cls-8, .cls-9 {
        fill: none;
      }

      .cls-1, .cls-10, .cls-11, .cls-12, .cls-13, .cls-14, .cls-15, .cls-16, .cls-17, .cls-18 {
        isolation: isolate;
      }

      .cls-1, .cls-10, .cls-11, .cls-14, .cls-15, .cls-16, .cls-18 {
        font-family: Helvetica, Helvetica;
      }

      .cls-1, .cls-10, .cls-12, .cls-14, .cls-15, .cls-16, .cls-18 {
        font-size: 8px;
      }

      .cls-1, .cls-6, .cls-8, .cls-9 {
        stroke: #000;
      }

      .cls-2 {
        stroke: #aa7942;
      }

      .cls-19 {
        fill: url(#linear-gradient-4);
      }

      .cls-20 {
        fill: url(#linear-gradient-3);
      }

      .cls-21, .cls-18 {
        fill: #aa7942;
      }

      .cls-22, .cls-10 {
        fill: #0433ff;
      }

      .cls-23, .cls-14 {
        fill: #ff2600;
      }

      .cls-11 {
        font-size: 10px;
      }

      .cls-12 {
        font-family: Helvetica-Bold, Helvetica;
        font-weight: 700;
      }

      .cls-24, .cls-16 {
        fill: #00f900;
      }

      .cls-3 {
        stroke: #ff2600;
      }

      .cls-4 {
        stroke: #00f900;
      }

      .cls-5 {
        fill: #2e8bb9;
        stroke: #03647a;
      }

      .cls-6 {
        fill: #fff;
      }

      .cls-7 {
        stroke: #0433ff;
      }

      .cls-25 {
        fill: url(#linear-gradient);
      }

      .cls-25, .cls-17, .cls-26, .cls-8, .cls-27 {
        display: none;
      }

      .cls-26 {
        fill: url(#linear-gradient-2);
      }
    </style>
    <linearGradient id="linear-gradient" x1="-108.9" y1=".9" x2="-108.9" y2="1.9" gradientTransform="translate(27450 -538.6) scale(250 537.7)" gradientUnits="userSpaceOnUse">
      <stop offset="0" stop-color="#000" stop-opacity="0"/>
      <stop offset="1" stop-color="#000" stop-opacity="0"/>
    </linearGradient>
    <linearGradient id="linear-gradient-2" x1="-108.9" y1="2" x2="-108.9" y2="1" gradientTransform="translate(27450 24.2) scale(250 518.4)" gradientUnits="userSpaceOnUse">
      <stop offset="0" stop-color="#000" stop-opacity="0"/>
      <stop offset="1" stop-color="#000" stop-opacity="0"/>
    </linearGradient>
    <linearGradient id="linear-gradient-3" x1="-108.9" y1="501.2" x2="-108.9" y2="501.2" gradientTransform="translate(27450 10) scale(250 1)" gradientUnits="userSpaceOnUse">
      <stop offset="0" stop-color="#aa7942" stop-opacity="0"/>
      <stop offset="1" stop-color="#aa7942" stop-opacity="0"/>
    </linearGradient>
    <linearGradient id="linear-gradient-4" x1="-108.9" y1="467.2" x2="-108.9" y2="467.2" gradientTransform="translate(27450 10) scale(250 1)" gradientUnits="userSpaceOnUse">
      <stop offset="0" stop-color="#0433ff" stop-opacity="0"/>
      <stop offset="1" stop-color="#0433ff" stop-opacity="0"/>
    </linearGradient>
  </defs>
  <!-- Generator: Adobe Illustrator 28.7.2, SVG Export Plug-In . SVG Version: 1.2.0 Build 154)  -->
  <g>
    <g id="Layer_1">
      <g id="main-plot">
        <g>
          <g>
            <path class="cls-25" d="M107.5,511.2V-26.5L110-.1l2.5,71.3,2.5,30,2.5,114.8,2.5,5.7,2.5-14.3,2.5-49.9,2.5-30.7,2.5-104.1,2.5-1.4,2.5,36.4,2.5,55.6,2.5,44.9,2.5,114.8,2.5,11.4,2.5-16.4,2.5-27.8,2.5-25,2.5-112,2.5,5.7h2.5l2.5,24.2,2.5,22.8,2.5,110.5,2.5,5.7,2.5,12.8,2.5-27.8,2.5-21.4,2.5-87.7,2.5-2.9,2.5-4.3,2.5,27.8,2.5,20.7,2.5,99.1,2.5,7.8,2.5,6.4,2.5-22.1,2.5-7.1,2.5-35.7,2.5-11.4,2.5,7.1,2.5,43.5,2.5,23.5,2.5,47.1,2.5,23.5,2.5,11.4,2.5-27.8,2.5-5.7,2.5-55.6,2.5-10h2.5l2.5,24.2,2.5,8.6,2.5,67.7,2.5,15.7,2.5,4.3,2.5-1.4,2.5-15.7,2.5-39.2,2.5-9.3,2.5-5.7,2.5,10.7,2.5,16.4,2.5,35.7,2.5,7.8,2.5,10,2.5-5.7h2.5l2.5-30.7,2.5-5,2.5.7,2.5,3.6,2.5,9.3,2.5,27.8,2.5,7.8,2.5,11.4,2.5-1.4,2.5-4.3,2.5-9.3,2.5,5.7,2.5-5,2.5-3.6,2.5,12.1,2.5,7.8,2.5-.7,2.5,7.8,2.5,13.5,2.5-11.4,2.5-10,2.5-15,2.5-20.7,2.5-2.1,2.5-7.1,2.5,15.7,2.5,12.1,2.5,19.3,2.5-2.1,2.5,5.7,2.5-15,2.5-2.1v88.4"/>
            <path class="cls-8" d="M107.5-26.5L110-.1l2.5,71.3,2.5,30,2.5,114.8,2.5,5.7,2.5-14.3,2.5-49.9,2.5-30.7,2.5-104.1,2.5-1.4,2.5,36.4,2.5,55.6,2.5,44.9,2.5,114.8,2.5,11.4,2.5-16.4,2.5-27.8,2.5-25,2.5-112,2.5,5.7h2.5l2.5,24.2,2.5,22.8,2.5,110.5,2.5,5.7,2.5,12.8,2.5-27.8,2.5-21.4,2.5-87.7,2.5-2.9,2.5-4.3,2.5,27.8,2.5,20.7,2.5,99.1,2.5,7.8,2.5,6.4,2.5-22.1,2.5-7.1,2.5-35.7,2.5-11.4,2.5,7.1,2.5,43.5,2.5,23.5,2.5,47.1,2.5,23.5,2.5,11.4,2.5-27.8,2.5-5.7,2.5-55.6,2.5-10h2.5l2.5,24.2,2.5,8.6,2.5,67.7,2.5,15.7,2.5,4.3,2.5-1.4,2.5-15.7,2.5-39.2,2.5-9.3,2.5-5.7,2.5,10.7,2.5,16.4,2.5,35.7,2.5,7.8,2.5,10,2.5-5.7h2.5l2.5-30.7,2.5-5,2.5.7,2.5,3.6,2.5,9.3,2.5,27.8,2.5,7.8,2.5,11.4,2.5-1.4,2.5-4.3,2.5-9.3,2.5,5.7,2.5-5,2.5-3.6,2.5,12.1,2.5,7.8,2.5-.7,2.5,7.8,2.5,13.5,2.5-11.4,2.5-10,2.5-15,2.5-20.7,2.5-2.1,2.5-7.1,2.5,15.7,2.5,12.1,2.5,19.3,2.5-2.1,2.5,5.7,2.5-15,2.5-2.1"/>
            <path class="cls-26" d="M107.5,511.2v18.5l2.5-2.1,2.5,1.4,2.5,4.3,2.5,2.9,2.5,5,2.5-1.4,2.5,7.1,2.5-2.1h2.5l2.5-4.3,2.5,2.9,2.5-6.4,2.5,2.9,2.5,2.1,2.5,6.4,2.5,10,2.5,6.4,2.5-5,2.5-1.4,2.5-3.6,2.5-7.1h2.5l2.5,2.9,2.5,4.3,2.5,6.4,2.5.7,2.5,5.7,2.5,7.1,2.5-.7,2.5-9.3,2.5-2.9,2.5-4.3,2.5-7.1,2.5,2.9,2.5,9.3,2.5,15.7,2.5,23.5,2.5,10.7,2.5.7,2.5,9.3,2.5-15,2.5-25.7,2.5-2.1,2.5,8.6,2.5,2.9,2.5,28.5,2.5,32.1,2.5,25.7,2.5,3.6,2.5,2.1,2.5-20.7,2.5-20.7,2.5-15,2.5.7,2.5,7.8,2.5,32.1,2.5,57.8,2.5,7.8,2.5,12.8,2.5,12.8,2.5-21.4,2.5-47.8,2.5-14.3h5l2.5,34.2,2.5,100.5,2.5,50.6,2.5,22.8,2.5-2.1,2.5-20,2.5-87,2.5-32.1,2.5-18.5,2.5,5,2.5,7.8,2.5,119.1,2.5,30.7,2.5,42.1,2.5,2.1,2.5-12.8,2.5-129.8,2.5-34.2,2.5-29.2,2.5-15,2.5,30,2.5,92.7,2.5,41.4,2.5,21.4,2.5,17.8,2.5-30,2.5-80.6,2.5-23.5,2.5-14.3,2.5,15,2.5,24.2,2.5,150.5,2.5,39.2,2.5,36.4,2.5-5V511.2"/>
            <path class="cls-8" d="M107.5,529.7l2.5-2.1,2.5,1.4,2.5,4.3,2.5,2.9,2.5,5,2.5-1.4,2.5,7.1,2.5-2.1h2.5l2.5-4.3,2.5,2.9,2.5-6.4,2.5,2.9,2.5,2.1,2.5,6.4,2.5,10,2.5,6.4,2.5-5,2.5-1.4,2.5-3.6,2.5-7.1h2.5l2.5,2.9,2.5,4.3,2.5,6.4,2.5.7,2.5,5.7,2.5,7.1,2.5-.7,2.5-9.3,2.5-2.9,2.5-4.3,2.5-7.1,2.5,2.9,2.5,9.3,2.5,15.7,2.5,23.5,2.5,10.7,2.5.7,2.5,9.3,2.5-15,2.5-25.7,2.5-2.1,2.5,8.6,2.5,2.9,2.5,28.5,2.5,32.1,2.5,25.7,2.5,3.6,2.5,2.1,2.5-20.7,2.5-20.7,2.5-15,2.5.7,2.5,7.8,2.5,32.1,2.5,57.8,2.5,7.8,2.5,12.8,2.5,12.8,2.5-21.4,2.5-47.8,2.5-14.3h5l2.5,34.2,2.5,100.5,2.5,50.6,2.5,22.8,2.5-2.1,2.5-20,2.5-87,2.5-32.1,2.5-18.5,2.5,5,2.5,7.8,2.5,119.1,2.5,30.7,2.5,42.1,2.5,2.1,2.5-12.8,2.5-129.8,2.5-34.2,2.5-29.2,2.5-15,2.5,30,2.5,92.7,2.5,41.4,2.5,21.4,2.5,17.8,2.5-30,2.5-80.6,2.5-23.5,2.5-14.3,2.5,15,2.5,24.2,2.5,150.5,2.5,39.2,2.5,36.4,2.5-5"/>
          </g>
          <path class="cls-2" d="M107.5,145.7l2.5,3.2,2.5,11.3,2.5,7,2.5,13.4,2.5-2.5,2.5,14.8,2.5-12.3,2.5-5.6,2.5-11.6,2.5-3.5,2.5-8.4,2.5,12.7,2.5,2.5,2.5,8.1,2.5,9.5,2.5-6,2.5-6.7,2.5-7,2.5-1.8,2.5-1.8,2.5-4.6,2.5,1.1,2.5,10.6,2.5,9.1,2.5-.4,2.5,10.6,2.5-.7,2.5-6.7,2.5-15.5,2.5-2.1,2.5-4.2,2.5-4.2,2.5,7,2.5,15.5,2.5,6.3,2.5-5.6,2.5,9.9,2.5-1.8,2.5-13.7,2.5-7,2.5,10.6,2.5-7.4,2.5,1.4,2.5,14.4,2.5,4.9h2.5l2.5-1.8,2.5-2.1,2.5-10.2,2.5,4.9,2.5-7.7,2.5,10.6,2.5,10.9,2.5,4.6,2.5-1.4,2.5,10.9,2.5-6,2.5-3.5,2.5-12.3,2.5-3.2,2.5-8.1,2.5.4,2.5,2.5,2.5,14.8,2.5,5.3,2.5,7,2.5-7.4h2.5l2.5-9.8,2.5,1.8,2.5-11.3,2.5,9.9,2.5-3.9,2.5,6.3,2.5,2.8,2.5,9.1,2.5-3.5,2.5,5.6,2.5-2.8,2.5-1.1,2.5-9.9,2.5,6,2.5-4.9,2.5,8.4,2.5-2.8,2.5,9.5,2.5-3.5,2.5,1.1,2.5-9.1,2.5-6.7,2.5-7,2.5-3.5,2.5-.4,2.5,3.9,2.5,8.4,2.5,6.7,2.5,4.9,2.5-7,2.5-6.7,2.5-10.9"/>
          <path class="cls-20" d="M107.5,511.2h250"/>
          <path class="cls-4" d="M107.5,200.9l2.5-4.9,2.5-17.2,2.5-13.4,2.5-20.8,2.5-5.3,2.5-5.6,2.5,14.1,2.5,10.2,2.5,14.4,2.5,9.1,2.5,2.8,2.5-11.6h2.5l2.5-15.8,2.5-1.1,2.5-1.4,2.5,14.1,2.5-1.1,2.5,20.4,2.5,1.4,2.5,7.7,2.5-10.6,2.5-.7,2.5-23.9,2.5-8.8h5l2.5,11.6,2.5,12.7,2.5,4.2,2.5.4,2.5,7.4,2.5-25.7,2.5-8.1,2.5-5.6,2.5,2.5,2.5,1.1,2.5,16.5,2.5,12,2.5,4.2,2.5-6,2.5-4.9,2.5-6.3,2.5-20.8,2.5-3.2,2.5,8.4h2.5l2.5,3.5,2.5,25.7,2.5-3.2h2.5l2.5-9.5,2.5,3.2,2.5-20.8,2.5,2.8,2.5-12,2.5,12.7,2.5-11.3,2.5,18.6,2.5,4.6,2.5.7,2.5-6,2.5,4.9,2.5-10.2,2.5-13.4,2.5,6,2.5,3.2,2.5-.4,2.5,8.4,2.5,12.7,2.5-2.8,2.5,2.8,2.5-3.2,2.5-8.4,2.5-13.7,2.5,6,2.5-10.9,2.5,4.6,2.5,6.3,2.5,8.4,2.5,8.4,2.5,12.7,2.5-6.7,2.5-15.5,2.5,3.5,2.5-19.3,2.5-17.2,2.5,3.5,2.5,23.6,2.5,4.2,2.5,19.7,2.5,8.8,2.5,4.9,2.5-15.1,2.5-6.7,2.5-15.5,2.5-2.8,2.5,6,2.5,9.9,2.5,5.3"/>
          <path class="cls-7" d="M107.5,96.2l2.5-14.4,2.5-14.4,2.5-12.7,2.5,4.2,2.5,11.3,2.5,8.4,2.5,21.1,2.5.7,2.5-5.6,2.5-16.5,2.5-12,2.5-17.9,2.5-2.8,2.5,2.5,2.5,15.1,2.5,25,2.5,10.6,2.5,14.1,2.5,2.8,2.5-19.3,2.5-20.4,2.5-14.8,2.5-6.3,2.5-.4,2.5,15.5,2.5,11.3,2.5,22.9,2.5-.7,2.5-.7,2.5-3.9,2.5-10.9,2.5-26.4,2.5,4.9,2.5-10.6,2.5,6,2.5,6.3,2.5,18.3,2.5-.7,2.5,13.4,2.5-8.1,2.5.4,2.5-9.9,2.5-7.4,2.5-3.2,2.5,5.3,2.5,4.2,2.5,10.2,2.5,12,2.5,4.9,2.5-3.2,2.5-3.2,2.5-14.8,2.5-12.3,2.5-3.5,2.5,7.4,2.5,3.5,2.5,20.1,2.5,12.3,2.5,2.8h2.5l2.5-9.5,2.5-13.7,2.5-11.3,2.5-10.6,2.5,3.5,2.5,16.2,2.5,16.5,2.5,11.3,2.5,14.8,2.5-6.3,2.5-9.1,2.5-3.2,2.5-7.4,2.5-7.4,2.5-4.6,2.5,7,2.5,3.5,2.5,6.7,2.5,4.2,2.5,6.7,2.5-8.1,2.5-19.7,2.5-12.7,2.5-9.8,2.5-6.3,2.5,12.7,2.5,8.4,2.5,10.9,2.5,14.1,2.5,3.2,2.5-14.1,2.5,1.1,2.5-17.2,2.5-8.1,2.5-6.3,2.5,4.2,2.5,3.5,2.5,15.1,2.5,7.4,2.5,4.6"/>
          <path class="cls-19" d="M107.5,477.2h250"/>
          <path class="cls-3" d="M107.5,56.8l2.5,7.7,2.5,14.8,2.5-4.2,2.5,6,2.5-24.6,2.5-8.4,2.5-9.8,2.5,5.6,2.5,5.6,2.5,21.8,2.5,22.2,2.5,5.3,2.5,10.6,2.5-1.4,2.5-12.7,2.5-23.2,2.5-11.6,2.5-13,2.5-.4,2.5,15.8,2.5,21.1,2.5,15.8,2.5,7.4,2.5-7.7,2.5-19.7,2.5-17.2,2.5-14.8,2.5-7.7,2.5,5.3,2.5,15.1,2.5,15.5,2.5,12.7,2.5,19,2.5-4.6,2.5-8.8,2.5-11.3,2.5-10.9,2.5-17.2,2.5,6,2.5,1.4,2.5,14.4,2.5,8.8,2.5,8.8,2.5-6.3,2.5-3.2,2.5-14.4,2.5-12,2.5-8.1,2.5,1.8,2.5,1.1,2.5,7,2.5,12.3,2.5,10.9,2.5.4,2.5-.7,2.5-7.7,2.5-15.1,2.5-13.7,2.5-.4,2.5,2.1,2.5,11.6,2.5,13,2.5,11.3,2.5,1.8,2.5.7,2.5-25.7,2.5-9.1,2.5-11.3,2.5-3.5,2.5.4,2.5,18.3,2.5,4.2,2.5,4.9,2.5,6.3,2.5.4,2.5-6.7,2.5-2.5h2.5l2.5.4,2.5-4.6,2.5,11.3,2.5,7.4,2.5,5.6,2.5,2.8,2.5.7,2.5-7.7,2.5-14.8,2.5.4,2.5-15.8,2.5,8.4,2.5,4.9,2.5,14.8,2.5-1.4,2.5,13,2.5-4.9,2.5-7.7,2.5-5.6,2.5-11.3,2.5-7,2.5-1.8"/>
        </g>
        <g id="composite-legend" class="cls-27">
          <g>
            <polygon class="cls-23" points="85 33.3 100 33.3 100 48.3 85 48.3 85 33.3"/>
            <polygon class="cls-23" points="100 33.3 100 48.3 85 48.3 100 33.3"/>
            <rect class="cls-9" x="85" y="33.3" width="15" height="15"/>
            <g class="cls-13">
              <text class="cls-11" transform="translate(105 43.3)"><tspan x="0" y="0">Composite 0</tspan></text>
            </g>
          </g>
          <g>
            <polygon class="cls-22" points="85 57.3 100 57.3 100 72.3 85 72.3 85 57.3"/>
            <polygon class="cls-22" points="100 57.3 100 72.3 85 72.3 100 57.3"/>
            <rect class="cls-9" x="85" y="57.3" width="15" height="15"/>
            <g class="cls-13">
              <text class="cls-11" transform="translate(105 67.3)"><tspan x="0" y="0">Composite 1</tspan></text>
            </g>
          </g>
          <g>
            <polygon class="cls-24" points="85 81.3 100 81.3 100 96.3 85 96.3 85 81.3"/>
            <polygon class="cls-24" points="100 81.3 100 96.3 85 96.3 100 81.3"/>
            <rect class="cls-9" x="85" y="81.3" width="15" height="15"/>
            <g class="cls-13">
              <text class="cls-11" transform="translate(105 91.3)"><tspan x="0" y="0">Composite 2</tspan></text>
            </g>
          </g>
          <g>
            <polygon class="cls-21" points="85 105.3 100 105.3 100 120.3 85 120.3 85 105.3"/>
            <polygon class="cls-21" points="100 105.3 100 120.3 85 120.3 100 105.3"/>
            <rect class="cls-9" x="85" y="105.3" width="15" height="15"/>
            <g class="cls-13">
              <text class="cls-11" transform="translate(105 115.3)"><tspan x="0" y="0">Composite 3</tspan></text>
            </g>
          </g>
          <g class="cls-27">
            <polygon class="cls-27" points="85 129.3 100 129.3 100 144.3 85 144.3 85 129.3"/>
            <polygon class="cls-27" points="100 129.3 100 144.3 85 144.3 100 129.3"/>
            <rect class="cls-9" x="85" y="129.3" width="15" height="15"/>
            <g class="cls-17">
              <text class="cls-11" transform="translate(105 139.3)"><tspan x="0" y="0">Composite 4</tspan></text>
            </g>
          </g>
        </g>
        <g class="cls-27">
          <path class="cls-6" d="M-175.5,262.7h100.5l5-5,5,5H35.5v73.3h-211v-73.3h0Z"/>
          <g>
            <g class="cls-13">
              <g class="cls-13">
                <text class="cls-12" transform="translate(-165.5 280.1)"><tspan x="0" y="0">Distance from phase aligned CTCF motif (bp): 120</tspan></text>
              </g>
            </g>
            <g class="cls-17">
              <g class="cls-17">
                <text class="cls-15" transform="translate(-165.5 288.9)"><tspan x="0" y="0">Composite 0:</tspan></text>
              </g>
              <g class="cls-17">
                <text class="cls-1" transform="translate(-165.5 288.9)"><tspan x="0" y="0">Composite 0:</tspan></text>
              </g>
              <g class="cls-17">
                <text class="cls-14" transform="translate(-116.1 288.9)"><tspan x="0" y="0">0.172</tspan></text>
              </g>
              <g class="cls-17">
                <text class="cls-1" transform="translate(-116.1 288.9)"><tspan x="0" y="0">0.172</tspan></text>
              </g>
              <g class="cls-17">
                <text class="cls-15" transform="translate(-96.1 288.9)"><tspan x="0" y="0">;</tspan></text>
              </g>
              <g class="cls-17">
                <text class="cls-1" transform="translate(-96.1 288.9)"><tspan x="0" y="0">;</tspan></text>
              </g>
              <g class="cls-17">
                <text class="cls-14" transform="translate(-91.7 288.9)"><tspan x="0" y="0">0</tspan></text>
              </g>
              <g class="cls-17">
                <text class="cls-1" transform="translate(-91.7 288.9)"><tspan x="0" y="0">0</tspan></text>
              </g>
            </g>
            <g class="cls-13">
              <g class="cls-13">
                <text class="cls-15" transform="translate(-165.5 297.7)"><tspan x="0" y="0">Composite 1:</tspan></text>
              </g>
              <g class="cls-13">
                <text class="cls-1" transform="translate(-165.5 297.7)"><tspan x="0" y="0">Composite 1:</tspan></text>
              </g>
              <g class="cls-13">
                <text class="cls-10" transform="translate(-116.1 297.7)"><tspan x="0" y="0">0.156</tspan></text>
              </g>
              <g class="cls-13">
                <text class="cls-1" transform="translate(-116.1 297.7)"><tspan x="0" y="0">0.156</tspan></text>
              </g>
              <g class="cls-13">
                <text class="cls-15" transform="translate(-96.1 297.7)"><tspan x="0" y="0">;</tspan></text>
              </g>
              <g class="cls-13">
                <text class="cls-1" transform="translate(-96.1 297.7)"><tspan x="0" y="0">;</tspan></text>
              </g>
              <g class="cls-13">
                <text class="cls-10" transform="translate(-91.7 297.7)"><tspan x="0" y="0">0</tspan></text>
              </g>
              <g class="cls-13">
                <text class="cls-1" transform="translate(-91.7 297.7)"><tspan x="0" y="0">0</tspan></text>
              </g>
            </g>
            <g class="cls-13">
              <g class="cls-13">
                <text class="cls-15" transform="translate(-165.5 306.5)"><tspan x="0" y="0">Composite 2:</tspan></text>
              </g>
              <g class="cls-13">
                <text class="cls-1" transform="translate(-165.5 306.5)"><tspan x="0" y="0">Composite 2:</tspan></text>
              </g>
              <g class="cls-13">
                <text class="cls-16" transform="translate(-116.1 306.5)"><tspan x="0" y="0">0.141</tspan></text>
              </g>
              <g class="cls-13">
                <text class="cls-1" transform="translate(-116.1 306.5)"><tspan x="0" y="0">0.141</tspan></text>
              </g>
              <g class="cls-13">
                <text class="cls-15" transform="translate(-96.1 306.5)"><tspan x="0" y="0">;</tspan></text>
              </g>
              <g class="cls-13">
                <text class="cls-1" transform="translate(-96.1 306.5)"><tspan x="0" y="0">;</tspan></text>
              </g>
              <g class="cls-13">
                <text class="cls-16" transform="translate(-91.7 306.5)"><tspan x="0" y="0">0</tspan></text>
              </g>
              <g class="cls-13">
                <text class="cls-1" transform="translate(-91.7 306.5)"><tspan x="0" y="0">0</tspan></text>
              </g>
            </g>
            <g class="cls-13">
              <g class="cls-13">
                <text class="cls-15" transform="translate(-165.5 315.3)"><tspan x="0" y="0">Composite 3:</tspan></text>
              </g>
              <g class="cls-13">
                <text class="cls-1" transform="translate(-165.5 315.3)"><tspan x="0" y="0">Composite 3:</tspan></text>
              </g>
              <g class="cls-13">
                <text class="cls-18" transform="translate(-116.1 315.3)"><tspan x="0" y="0">0.17</tspan></text>
              </g>
              <g class="cls-13">
                <text class="cls-1" transform="translate(-116.1 315.3)"><tspan x="0" y="0">0.17</tspan></text>
              </g>
              <g class="cls-13">
                <text class="cls-15" transform="translate(-100.6 315.3)"><tspan x="0" y="0">;</tspan></text>
              </g>
              <g class="cls-13">
                <text class="cls-1" transform="translate(-100.6 315.3)"><tspan x="0" y="0">;</tspan></text>
              </g>
              <g class="cls-13">
                <text class="cls-18" transform="translate(-96.1 315.3)"><tspan x="0" y="0">0</tspan></text>
              </g>
              <g class="cls-13">
                <text class="cls-1" transform="translate(-96.1 315.3)"><tspan x="0" y="0">0</tspan></text>
              </g>
            </g>
            <g class="cls-13">
              <g class="cls-13">
                <text class="cls-15" transform="translate(-165.5 324.1)"><tspan x="0" y="0">Composite 4:</tspan></text>
              </g>
              <g class="cls-13">
                <text class="cls-1" transform="translate(-165.5 324.1)"><tspan x="0" y="0">Composite 4:</tspan></text>
              </g>
              <g class="cls-13">
                <text class="cls-15" transform="translate(-116.1 324.1)"><tspan x="0" y="0">0.314</tspan></text>
              </g>
              <g class="cls-13">
                <text class="cls-1" transform="translate(-116.1 324.1)"><tspan x="0" y="0">0.314</tspan></text>
              </g>
              <g class="cls-13">
                <text class="cls-15" transform="translate(-96.1 324.1)"><tspan x="0" y="0">;</tspan></text>
              </g>
              <g class="cls-13">
                <text class="cls-1" transform="translate(-96.1 324.1)"><tspan x="0" y="0">;</tspan></text>
              </g>
              <g class="cls-13">
                <text class="cls-15" transform="translate(-91.7 324.1)"><tspan x="0" y="0">0.0172</tspan></text>
              </g>
              <g class="cls-13">
                <text class="cls-1" transform="translate(-91.7 324.1)"><tspan x="0" y="0">0.0172</tspan></text>
              </g>
            </g>
          </g>
        </g>
        <g class="cls-27">
          <rect id="nucleosome-rect" class="cls-5" x="-440" y="507.3" width="36.5" height="18"/>
        </g>
        <path class="cls-9" d="M107.5,44.1l2.5,16.7,2.5,4.5,2.5,44.1,2.5,5,2.5,5.2,2.5-6.2,2.5-11,2.5-13.5,2.5-7.7,2.5-26.2,2.5,10.7,2.5,12.5,2.5,42.4,2.5,8.5,2.5,1.2,2.5-4.7,2.5-9,2.5-7.5,2.5-4.2,2.5-32.2,2.5,7,2.5-.2,2.5,40.1,2.5,1.7,2.5,6.5,2.5.5,2.5-3.7,2.5-8.2,2.5-7.7,2.5-28.7,2.5,9.2,2.5,2.2,2.5,32.2,2.5.5,2.5,7.5,2.5,2.2,2.5-2.7,2.5-10.2,2.5-4.7,2.5-7.2,2.5,6,2.5,2.2,2.5,17.5,2.5,7.5,2.5,6.7,2.5-1,2.5-2,2.5-8.7,2.5-2.7,2.5-16.7,2.5,5.2h2.5l2.5,19.2,2.5,3.7,2.5,7,2.5,2.2,2.5-1.5,2.5-5,2.5-7.2,2.5-8.2,2.5-.5,2.5,2,2.5,12.5,2.5,1.7,2.5,6.2,2.5-1.5,2.5-.2,2.5-2,2.5-1,2.5-8,2.5-1.2h2.5l2.5,10,2.5,4,2.5,1.5,2.5.2,2.5.7,2.5-.2,2.5-.2,2.5-5.7,2.5,2.7,2.5.5,2.5,1.7,2.5,2,2.5-1.2,2.5,3.7,2.5-1,2.5,3.7,2.5-1.7,2.5-7.5,2.5-6.2,2.5-4.2,2.5,6.5,2.5,1,2.5,5.2,2.5-1.2,2.5,5,2.5.2,2.5-1.2,2.5-6.7"/>
      </g>
    </g>
  </g>
</svg>