<?xml version="1.0" encoding="utf-8" standalone="no"?>
<!DOCTYPE svg PUBLIC "-//W3C//DTD SVG 1.1//EN"
  "http://www.w3.org/Graphics/SVG/1.1/DTD/svg11.dtd">
<!-- Created with matplotlib (https://matplotlib.org/) -->
<svg height="288pt" version="1.1" viewBox="0 0 288 288" width="288pt" xmlns="http://www.w3.org/2000/svg" xmlns:xlink="http://www.w3.org/1999/xlink">
 <metadata>
  <rdf:RDF xmlns:cc="http://creativecommons.org/ns#" xmlns:dc="http://purl.org/dc/elements/1.1/" xmlns:rdf="http://www.w3.org/1999/02/22-rdf-syntax-ns#">
   <cc:Work>
    <dc:type rdf:resource="http://purl.org/dc/dcmitype/StillImage"/>
    <dc:date>2024-11-24T20:55:30.078962</dc:date>
    <dc:format>image/svg+xml</dc:format>
    <dc:creator>
     <cc:Agent>
      <dc:title>Matplotlib v3.3.4, https://matplotlib.org/</dc:title>
     </cc:Agent>
    </dc:creator>
   </cc:Work>
  </rdf:RDF>
 </metadata>
 <defs>
  <style type="text/css">*{stroke-linecap:butt;stroke-linejoin:round;}</style>
 </defs>
 <g id="figure_1">
  <g id="patch_1">
   <path d="M 0 288 
L 288 288 
L 288 0 
L 0 0 
z
" style="fill:none;"/>
  </g>
  <g id="axes_1">
   <g id="patch_2">
    <path d="M 36 256.32 
L 259.2 256.32 
L 259.2 34.56 
L 36 34.56 
z
" style="fill:none;"/>
   </g>
   <g id="PolyCollection_1">
    <defs>
     <path d="M 63.9 -49.452653 
L 63.859635 -49.452653 
L 63.814843 -51.300337 
L 63.748979 -53.148021 
L 63.67486 -54.995705 
L 63.617858 -56.843389 
L 63.602777 -58.691073 
L 63.636794 -60.538757 
L 63.704066 -62.386441 
L 63.777391 -64.234125 
L 63.835504 -66.081809 
L 63.87148 -67.929493 
L 63.889399 -69.777177 
L 63.896687 -71.624861 
L 63.89913 -73.472545 
L 63.899808 -75.320229 
L 63.899964 -77.167914 
L 63.899994 -79.015598 
L 63.899999 -80.863282 
L 63.9 -82.710966 
L 63.9 -84.55865 
L 63.9 -86.406334 
L 63.9 -88.254018 
L 63.899999 -90.101702 
L 63.899996 -91.949386 
L 63.899984 -93.79707 
L 63.899939 -95.644754 
L 63.899798 -97.492438 
L 63.899414 -99.340122 
L 63.898464 -101.187806 
L 63.896254 -103.03549 
L 63.891353 -104.883174 
L 63.881229 -106.730858 
L 63.862631 -108.578542 
L 63.833397 -110.426226 
L 63.794204 -112.27391 
L 63.743832 -114.121595 
L 63.656335 -115.969279 
L 63.427869 -117.816963 
L 62.79668 -119.664647 
L 61.294278 -121.512331 
L 58.369087 -123.360015 
L 53.808384 -125.207699 
L 48.298858 -127.055383 
L 43.561587 -128.903067 
L 41.58 -130.750751 
L 43.294354 -132.598435 
L 47.902054 -134.446119 
L 53.455699 -136.293803 
L 58.166316 -138.141487 
L 61.252839 -139.989171 
L 62.87187 -141.836855 
L 63.563875 -143.684539 
L 63.80739 -145.532223 
L 63.878446 -147.379907 
L 63.895744 -149.227591 
L 63.899281 -151.075276 
L 63.899895 -152.92296 
L 63.899986 -154.770644 
L 63.899998 -156.618328 
L 63.9 -158.466012 
L 63.9 -160.313696 
L 63.9 -162.16138 
L 63.899999 -164.009064 
L 63.899989 -165.856748 
L 63.899912 -167.704432 
L 63.899422 -169.552116 
L 63.896803 -171.3998 
L 63.885131 -173.247484 
L 63.841866 -175.095168 
L 63.708876 -176.942852 
L 63.371494 -178.790536 
L 62.670042 -180.63822 
L 61.488185 -182.485904 
L 59.905782 -184.333588 
L 58.287223 -186.181272 
L 57.146584 -188.028957 
L 56.82362 -189.876641 
L 57.254649 -191.724325 
L 58.073959 -193.572009 
L 58.928633 -195.419693 
L 59.680768 -197.267377 
L 60.360818 -199.115061 
L 61.020384 -200.962745 
L 61.659142 -202.810429 
L 62.242479 -204.658113 
L 62.738058 -206.505797 
L 63.13079 -208.353481 
L 63.42144 -210.201165 
L 63.621574 -212.048849 
L 63.748867 -213.896533 
L 63.822964 -215.744217 
L 63.862114 -217.591901 
L 63.880927 -219.439585 
L 63.889439 -221.287269 
L 63.893459 -223.134953 
L 63.895746 -224.982638 
L 63.897322 -226.830322 
L 63.898457 -228.678006 
L 63.899212 -230.52569 
L 63.89965 -232.373374 
L 63.9 -232.373374 
L 63.9 -232.373374 
L 63.9 -230.52569 
L 63.9 -228.678006 
L 63.9 -226.830322 
L 63.9 -224.982638 
L 63.9 -223.134953 
L 63.9 -221.287269 
L 63.9 -219.439585 
L 63.9 -217.591901 
L 63.9 -215.744217 
L 63.9 -213.896533 
L 63.9 -212.048849 
L 63.9 -210.201165 
L 63.9 -208.353481 
L 63.9 -206.505797 
L 63.9 -204.658113 
L 63.9 -202.810429 
L 63.9 -200.962745 
L 63.9 -199.115061 
L 63.9 -197.267377 
L 63.9 -195.419693 
L 63.9 -193.572009 
L 63.9 -191.724325 
L 63.9 -189.876641 
L 63.9 -188.028957 
L 63.9 -186.181272 
L 63.9 -184.333588 
L 63.9 -182.485904 
L 63.9 -180.63822 
L 63.9 -178.790536 
L 63.9 -176.942852 
L 63.9 -175.095168 
L 63.9 -173.247484 
L 63.9 -171.3998 
L 63.9 -169.552116 
L 63.9 -167.704432 
L 63.9 -165.856748 
L 63.9 -164.009064 
L 63.9 -162.16138 
L 63.9 -160.313696 
L 63.9 -158.466012 
L 63.9 -156.618328 
L 63.9 -154.770644 
L 63.9 -152.92296 
L 63.9 -151.075276 
L 63.9 -149.227591 
L 63.9 -147.379907 
L 63.9 -145.532223 
L 63.9 -143.684539 
L 63.9 -141.836855 
L 63.9 -139.989171 
L 63.9 -138.141487 
L 63.9 -136.293803 
L 63.9 -134.446119 
L 63.9 -132.598435 
L 63.9 -130.750751 
L 63.9 -128.903067 
L 63.9 -127.055383 
L 63.9 -125.207699 
L 63.9 -123.360015 
L 63.9 -121.512331 
L 63.9 -119.664647 
L 63.9 -117.816963 
L 63.9 -115.969279 
L 63.9 -114.121595 
L 63.9 -112.27391 
L 63.9 -110.426226 
L 63.9 -108.578542 
L 63.9 -106.730858 
L 63.9 -104.883174 
L 63.9 -103.03549 
L 63.9 -101.187806 
L 63.9 -99.340122 
L 63.9 -97.492438 
L 63.9 -95.644754 
L 63.9 -93.79707 
L 63.9 -91.949386 
L 63.9 -90.101702 
L 63.9 -88.254018 
L 63.9 -86.406334 
L 63.9 -84.55865 
L 63.9 -82.710966 
L 63.9 -80.863282 
L 63.9 -79.015598 
L 63.9 -77.167914 
L 63.9 -75.320229 
L 63.9 -73.472545 
L 63.9 -71.624861 
L 63.9 -69.777177 
L 63.9 -67.929493 
L 63.9 -66.081809 
L 63.9 -64.234125 
L 63.9 -62.386441 
L 63.9 -60.538757 
L 63.9 -58.691073 
L 63.9 -56.843389 
L 63.9 -54.995705 
L 63.9 -53.148021 
L 63.9 -51.300337 
L 63.9 -49.452653 
z
" id="m49a0c4f64e" style="stroke:#4d4d4d;stroke-width:0.5;"/>
    </defs>
    <g clip-path="url(#pb8d1147b45)">
     <use style="fill:#808080;stroke:#4d4d4d;stroke-width:0.5;" x="0" xlink:href="#m49a0c4f64e" y="288"/>
    </g>
   </g>
   <g id="PolyCollection_2">
    <defs>
     <path d="M 63.90135 -41.76 
L 63.9 -41.76 
L 63.9 -43.648469 
L 63.9 -45.536938 
L 63.9 -47.425407 
L 63.9 -49.313876 
L 63.9 -51.202344 
L 63.9 -53.090813 
L 63.9 -54.979282 
L 63.9 -56.867751 
L 63.9 -58.75622 
L 63.9 -60.644689 
L 63.9 -62.533158 
L 63.9 -64.421627 
L 63.9 -66.310096 
L 63.9 -68.198565 
L 63.9 -70.087033 
L 63.9 -71.975502 
L 63.9 -73.863971 
L 63.9 -75.75244 
L 63.9 -77.640909 
L 63.9 -79.529378 
L 63.9 -81.417847 
L 63.9 -83.306316 
L 63.9 -85.194785 
L 63.9 -87.083254 
L 63.9 -88.971722 
L 63.9 -90.860191 
L 63.9 -92.74866 
L 63.9 -94.637129 
L 63.9 -96.525598 
L 63.9 -98.414067 
L 63.9 -100.302536 
L 63.9 -102.191005 
L 63.9 -104.079474 
L 63.9 -105.967943 
L 63.9 -107.856411 
L 63.9 -109.74488 
L 63.9 -111.633349 
L 63.9 -113.521818 
L 63.9 -115.410287 
L 63.9 -117.298756 
L 63.9 -119.187225 
L 63.9 -121.075694 
L 63.9 -122.964163 
L 63.9 -124.852632 
L 63.9 -126.7411 
L 63.9 -128.629569 
L 63.9 -130.518038 
L 63.9 -132.406507 
L 63.9 -134.294976 
L 63.9 -136.183445 
L 63.9 -138.071914 
L 63.9 -139.960383 
L 63.9 -141.848852 
L 63.9 -143.737321 
L 63.9 -145.625789 
L 63.9 -147.514258 
L 63.9 -149.402727 
L 63.9 -151.291196 
L 63.9 -153.179665 
L 63.9 -155.068134 
L 63.9 -156.956603 
L 63.9 -158.845072 
L 63.9 -160.733541 
L 63.9 -162.62201 
L 63.9 -164.510478 
L 63.9 -166.398947 
L 63.9 -168.287416 
L 63.9 -170.175885 
L 63.9 -172.064354 
L 63.9 -173.952823 
L 63.9 -175.841292 
L 63.9 -177.729761 
L 63.9 -179.61823 
L 63.9 -181.506698 
L 63.9 -183.395167 
L 63.9 -185.283636 
L 63.9 -187.172105 
L 63.9 -189.060574 
L 63.9 -190.949043 
L 63.9 -192.837512 
L 63.9 -194.725981 
L 63.9 -196.61445 
L 63.9 -198.502919 
L 63.9 -200.391387 
L 63.9 -202.279856 
L 63.9 -204.168325 
L 63.9 -206.056794 
L 63.9 -207.945263 
L 63.9 -209.833732 
L 63.9 -211.722201 
L 63.9 -213.61067 
L 63.9 -215.499139 
L 63.9 -217.387608 
L 63.9 -219.276076 
L 63.9 -221.164545 
L 63.9 -223.053014 
L 63.9 -224.941483 
L 63.9 -226.829952 
L 63.9 -228.718421 
L 63.900652 -228.718421 
L 63.900652 -228.718421 
L 63.90168 -226.829952 
L 63.903949 -224.941483 
L 63.908659 -223.053014 
L 63.918074 -221.164545 
L 63.936386 -219.276076 
L 63.970932 -217.387608 
L 64.033498 -215.499139 
L 64.141087 -213.61067 
L 64.315184 -211.722201 
L 64.578737 -209.833732 
L 64.950981 -207.945263 
L 65.441115 -206.056794 
L 66.041714 -204.168325 
L 66.723588 -202.279856 
L 67.44025 -200.391387 
L 68.154372 -198.502919 
L 68.874718 -196.61445 
L 69.644453 -194.725981 
L 70.434338 -192.837512 
L 71.024103 -190.949043 
L 71.05484 -189.060574 
L 70.291468 -187.172105 
L 68.859468 -185.283636 
L 67.196638 -183.395167 
L 65.763071 -181.506698 
L 64.791638 -179.61823 
L 64.26063 -177.729761 
L 64.023138 -175.841292 
L 63.935477 -173.952823 
L 63.908622 -172.064354 
L 63.901767 -170.175885 
L 63.900306 -168.287416 
L 63.900045 -166.398947 
L 63.900006 -164.510478 
L 63.900001 -162.62201 
L 63.900002 -160.733541 
L 63.900009 -158.845072 
L 63.900038 -156.956603 
L 63.900138 -155.068134 
L 63.900484 -153.179665 
L 63.901794 -151.291196 
L 63.907267 -149.402727 
L 63.930102 -147.514258 
L 64.016138 -145.625789 
L 64.294084 -143.737321 
L 65.046499 -141.848852 
L 66.731259 -139.960383 
L 69.812246 -138.071914 
L 74.324672 -136.183445 
L 79.412338 -134.294976 
L 83.377811 -132.406507 
L 84.539932 -130.518038 
L 82.366453 -128.629569 
L 77.86593 -126.7411 
L 72.855038 -124.852632 
L 68.809329 -122.964163 
L 66.258823 -121.075694 
L 64.964385 -119.187225 
L 64.41999 -117.298756 
L 64.211027 -115.410287 
L 64.112958 -113.521818 
L 64.043271 -111.633349 
L 63.986852 -109.74488 
L 63.94627 -107.856411 
L 63.921772 -105.967943 
L 63.909234 -104.079474 
L 63.903621 -102.191005 
L 63.901335 -100.302536 
L 63.900461 -98.414067 
L 63.900146 -96.525598 
L 63.900041 -94.637129 
L 63.90001 -92.74866 
L 63.900002 -90.860191 
L 63.9 -88.971722 
L 63.9 -87.083254 
L 63.9 -85.194785 
L 63.9 -83.306316 
L 63.900001 -81.417847 
L 63.900007 -79.529378 
L 63.900042 -77.640909 
L 63.90022 -75.75244 
L 63.900976 -73.863971 
L 63.903645 -71.975502 
L 63.911478 -70.087033 
L 63.930481 -68.198565 
L 63.96827 -66.310096 
L 64.028967 -64.421627 
L 64.105514 -62.533158 
L 64.17634 -60.644689 
L 64.213713 -58.75622 
L 64.20101 -56.867751 
L 64.144625 -54.979282 
L 64.069054 -53.090813 
L 64.000076 -51.202344 
L 63.951401 -49.313876 
L 63.923372 -47.425407 
L 63.909661 -45.536938 
L 63.903722 -43.648469 
L 63.90135 -41.76 
z
" id="meb4fa3cd04" style="stroke:#4d4d4d;stroke-width:0.5;"/>
    </defs>
    <g clip-path="url(#pb8d1147b45)">
     <use style="fill:#e6e6e6;stroke:#4d4d4d;stroke-width:0.5;" x="0" xlink:href="#meb4fa3cd04" y="288"/>
    </g>
   </g>
   <g id="PolyCollection_3">
    <defs>
     <path d="M 119.7 -58.129291 
L 119.695706 -58.129291 
L 119.689022 -59.993104 
L 119.674707 -61.856918 
L 119.647236 -63.720732 
L 119.59975 -65.584546 
L 119.525095 -67.448359 
L 119.416496 -69.312173 
L 119.26669 -71.175987 
L 119.066468 -73.039801 
L 118.807867 -74.903614 
L 118.497608 -76.767428 
L 118.176259 -78.631242 
L 117.923567 -80.495056 
L 117.831097 -82.358869 
L 117.950571 -84.222683 
L 118.256353 -86.086497 
L 118.655736 -87.950311 
L 119.0401 -89.814124 
L 119.336397 -91.677938 
L 119.52545 -93.541752 
L 119.626837 -95.405566 
L 119.672634 -97.269379 
L 119.689322 -99.133193 
L 119.692368 -100.997007 
L 119.688373 -102.860821 
L 119.678948 -104.724634 
L 119.663538 -106.588448 
L 119.640716 -108.452262 
L 119.607861 -110.316076 
L 119.558088 -112.179889 
L 119.471236 -114.043703 
L 119.294668 -115.907517 
L 118.91445 -117.771331 
L 118.134392 -119.635144 
L 116.704934 -121.498958 
L 114.446898 -123.362772 
L 111.45566 -125.226586 
L 108.257129 -127.0904 
L 105.727175 -128.954213 
L 104.711798 -130.818027 
L 105.55408 -132.681841 
L 107.882082 -134.545655 
L 110.832947 -136.409468 
L 113.529944 -138.273282 
L 115.45499 -140.137096 
L 116.515686 -142.00091 
L 116.880096 -143.864723 
L 116.774085 -145.728537 
L 116.366635 -147.592351 
L 115.749644 -149.456165 
L 114.962961 -151.319978 
L 114.024983 -153.183792 
L 112.956195 -155.047606 
L 111.796499 -156.91142 
L 110.615438 -158.775233 
L 109.508802 -160.639047 
L 108.576516 -162.502861 
L 107.888812 -164.366675 
L 107.463696 -166.230488 
L 107.280263 -168.094302 
L 107.32495 -169.958116 
L 107.627096 -171.82193 
L 108.235 -173.685743 
L 109.139663 -175.549557 
L 110.219079 -177.413371 
L 111.267541 -179.277185 
L 112.08983 -181.140998 
L 112.577033 -183.004812 
L 112.710576 -184.868626 
L 112.517323 -186.73244 
L 112.030412 -188.596253 
L 111.280317 -190.460067 
L 110.302075 -192.323881 
L 109.137671 -194.187695 
L 107.828528 -196.051508 
L 106.406769 -197.915322 
L 104.895138 -199.779136 
L 103.318363 -201.64295 
L 101.721118 -203.506763 
L 100.184555 -205.370577 
L 98.834715 -207.234391 
L 97.838075 -209.098205 
L 97.38 -210.962018 
L 97.624815 -212.825832 
L 98.665784 -214.689646 
L 100.484453 -216.55346 
L 102.939721 -218.417273 
L 105.793452 -220.281087 
L 108.76183 -222.144901 
L 111.573349 -224.008715 
L 114.017164 -225.872528 
L 115.97213 -227.736342 
L 117.412119 -229.600156 
L 118.388617 -231.46397 
L 118.998518 -233.327783 
L 119.349883 -235.191597 
L 119.53702 -237.055411 
L 119.629358 -238.919225 
L 119.671594 -240.783038 
L 119.689465 -242.646852 
L 119.7 -242.646852 
L 119.7 -242.646852 
L 119.7 -240.783038 
L 119.7 -238.919225 
L 119.7 -237.055411 
L 119.7 -235.191597 
L 119.7 -233.327783 
L 119.7 -231.46397 
L 119.7 -229.600156 
L 119.7 -227.736342 
L 119.7 -225.872528 
L 119.7 -224.008715 
L 119.7 -222.144901 
L 119.7 -220.281087 
L 119.7 -218.417273 
L 119.7 -216.55346 
L 119.7 -214.689646 
L 119.7 -212.825832 
L 119.7 -210.962018 
L 119.7 -209.098205 
L 119.7 -207.234391 
L 119.7 -205.370577 
L 119.7 -203.506763 
L 119.7 -201.64295 
L 119.7 -199.779136 
L 119.7 -197.915322 
L 119.7 -196.051508 
L 119.7 -194.187695 
L 119.7 -192.323881 
L 119.7 -190.460067 
L 119.7 -188.596253 
L 119.7 -186.73244 
L 119.7 -184.868626 
L 119.7 -183.004812 
L 119.7 -181.140998 
L 119.7 -179.277185 
L 119.7 -177.413371 
L 119.7 -175.549557 
L 119.7 -173.685743 
L 119.7 -171.82193 
L 119.7 -169.958116 
L 119.7 -168.094302 
L 119.7 -166.230488 
L 119.7 -164.366675 
L 119.7 -162.502861 
L 119.7 -160.639047 
L 119.7 -158.775233 
L 119.7 -156.91142 
L 119.7 -155.047606 
L 119.7 -153.183792 
L 119.7 -151.319978 
L 119.7 -149.456165 
L 119.7 -147.592351 
L 119.7 -145.728537 
L 119.7 -143.864723 
L 119.7 -142.00091 
L 119.7 -140.137096 
L 119.7 -138.273282 
L 119.7 -136.409468 
L 119.7 -134.545655 
L 119.7 -132.681841 
L 119.7 -130.818027 
L 119.7 -128.954213 
L 119.7 -127.0904 
L 119.7 -125.226586 
L 119.7 -123.362772 
L 119.7 -121.498958 
L 119.7 -119.635144 
L 119.7 -117.771331 
L 119.7 -115.907517 
L 119.7 -114.043703 
L 119.7 -112.179889 
L 119.7 -110.316076 
L 119.7 -108.452262 
L 119.7 -106.588448 
L 119.7 -104.724634 
L 119.7 -102.860821 
L 119.7 -100.997007 
L 119.7 -99.133193 
L 119.7 -97.269379 
L 119.7 -95.405566 
L 119.7 -93.541752 
L 119.7 -91.677938 
L 119.7 -89.814124 
L 119.7 -87.950311 
L 119.7 -86.086497 
L 119.7 -84.222683 
L 119.7 -82.358869 
L 119.7 -80.495056 
L 119.7 -78.631242 
L 119.7 -76.767428 
L 119.7 -74.903614 
L 119.7 -73.039801 
L 119.7 -71.175987 
L 119.7 -69.312173 
L 119.7 -67.448359 
L 119.7 -65.584546 
L 119.7 -63.720732 
L 119.7 -61.856918 
L 119.7 -59.993104 
L 119.7 -58.129291 
z
" id="m97099bc0d5" style="stroke:#4d4d4d;stroke-width:0.5;"/>
    </defs>
    <g clip-path="url(#pb8d1147b45)">
     <use style="fill:#808080;stroke:#4d4d4d;stroke-width:0.5;" x="0" xlink:href="#m97099bc0d5" y="288"/>
    </g>
   </g>
   <g id="PolyCollection_4">
    <defs>
     <path d="M 119.701849 -55.713449 
L 119.7 -55.713449 
L 119.7 -57.608869 
L 119.7 -59.504289 
L 119.7 -61.399708 
L 119.7 -63.295128 
L 119.7 -65.190548 
L 119.7 -67.085968 
L 119.7 -68.981387 
L 119.7 -70.876807 
L 119.7 -72.772227 
L 119.7 -74.667646 
L 119.7 -76.563066 
L 119.7 -78.458486 
L 119.7 -80.353905 
L 119.7 -82.249325 
L 119.7 -84.144745 
L 119.7 -86.040165 
L 119.7 -87.935584 
L 119.7 -89.831004 
L 119.7 -91.726424 
L 119.7 -93.621843 
L 119.7 -95.517263 
L 119.7 -97.412683 
L 119.7 -99.308102 
L 119.7 -101.203522 
L 119.7 -103.098942 
L 119.7 -104.994362 
L 119.7 -106.889781 
L 119.7 -108.785201 
L 119.7 -110.680621 
L 119.7 -112.57604 
L 119.7 -114.47146 
L 119.7 -116.36688 
L 119.7 -118.2623 
L 119.7 -120.157719 
L 119.7 -122.053139 
L 119.7 -123.948559 
L 119.7 -125.843978 
L 119.7 -127.739398 
L 119.7 -129.634818 
L 119.7 -131.530237 
L 119.7 -133.425657 
L 119.7 -135.321077 
L 119.7 -137.216497 
L 119.7 -139.111916 
L 119.7 -141.007336 
L 119.7 -142.902756 
L 119.7 -144.798175 
L 119.7 -146.693595 
L 119.7 -148.589015 
L 119.7 -150.484434 
L 119.7 -152.379854 
L 119.7 -154.275274 
L 119.7 -156.170694 
L 119.7 -158.066113 
L 119.7 -159.961533 
L 119.7 -161.856953 
L 119.7 -163.752372 
L 119.7 -165.647792 
L 119.7 -167.543212 
L 119.7 -169.438632 
L 119.7 -171.334051 
L 119.7 -173.229471 
L 119.7 -175.124891 
L 119.7 -177.02031 
L 119.7 -178.91573 
L 119.7 -180.81115 
L 119.7 -182.706569 
L 119.7 -184.601989 
L 119.7 -186.497409 
L 119.7 -188.392829 
L 119.7 -190.288248 
L 119.7 -192.183668 
L 119.7 -194.079088 
L 119.7 -195.974507 
L 119.7 -197.869927 
L 119.7 -199.765347 
L 119.7 -201.660767 
L 119.7 -203.556186 
L 119.7 -205.451606 
L 119.7 -207.347026 
L 119.7 -209.242445 
L 119.7 -211.137865 
L 119.7 -213.033285 
L 119.7 -214.928704 
L 119.7 -216.824124 
L 119.7 -218.719544 
L 119.7 -220.614964 
L 119.7 -222.510383 
L 119.7 -224.405803 
L 119.7 -226.301223 
L 119.7 -228.196642 
L 119.7 -230.092062 
L 119.7 -231.987482 
L 119.7 -233.882901 
L 119.7 -235.778321 
L 119.7 -237.673741 
L 119.7 -239.569161 
L 119.7 -241.46458 
L 119.7 -243.36 
L 119.710727 -243.36 
L 119.710727 -243.36 
L 119.728951 -241.46458 
L 119.771535 -239.569161 
L 119.863156 -237.673741 
L 120.045794 -235.778321 
L 120.383995 -233.882901 
L 120.965432 -231.987482 
L 121.891173 -230.092062 
L 123.252203 -228.196642 
L 125.095597 -226.301223 
L 127.392136 -224.405803 
L 130.020419 -222.510383 
L 132.777008 -220.614964 
L 135.410913 -218.719544 
L 137.671506 -216.824124 
L 139.356331 -214.928704 
L 140.347482 -213.033285 
L 140.628376 -211.137865 
L 140.276351 -209.242445 
L 139.432954 -207.347026 
L 138.262464 -205.451606 
L 136.914724 -203.556186 
L 135.505047 -201.660767 
L 134.112888 -199.765347 
L 132.790444 -197.869927 
L 131.570575 -195.974507 
L 130.470989 -194.079088 
L 129.499525 -192.183668 
L 128.66485 -190.288248 
L 127.989415 -188.392829 
L 127.517916 -186.497409 
L 127.317413 -184.601989 
L 127.464716 -182.706569 
L 128.01091 -180.81115 
L 128.923909 -178.91573 
L 130.046623 -177.02031 
L 131.126854 -175.124891 
L 131.925039 -173.229471 
L 132.323478 -171.334051 
L 132.347231 -169.438632 
L 132.090479 -167.543212 
L 131.627501 -165.647792 
L 130.982089 -163.752372 
L 130.157135 -161.856953 
L 129.175682 -159.961533 
L 128.094526 -158.066113 
L 126.988939 -156.170694 
L 125.929021 -154.275274 
L 124.964966 -152.379854 
L 124.125869 -150.484434 
L 123.42978 -148.589015 
L 122.904198 -146.693595 
L 122.618377 -144.798175 
L 122.720071 -142.902756 
L 123.443884 -141.007336 
L 125.033931 -139.111916 
L 127.550136 -137.216497 
L 130.639657 -135.321077 
L 133.480105 -133.425657 
L 135.064834 -131.530237 
L 134.732419 -129.634818 
L 132.566177 -127.739398 
L 129.336731 -125.843978 
L 126.038039 -123.948559 
L 123.390006 -122.053139 
L 121.633343 -120.157719 
L 120.64037 -118.2623 
L 120.146361 -116.36688 
L 119.918966 -114.47146 
L 119.814458 -112.57604 
L 119.762669 -110.680621 
L 119.734466 -108.785201 
L 119.718351 -106.889781 
L 119.70929 -104.994362 
L 119.704756 -103.098942 
L 119.703948 -101.203522 
L 119.708735 -99.308102 
L 119.726336 -97.412683 
L 119.773378 -95.517263 
L 119.878426 -93.621843 
L 120.076456 -91.726424 
L 120.389204 -89.831004 
L 120.796116 -87.935584 
L 121.217555 -86.040165 
L 121.535548 -84.144745 
L 121.651282 -82.249325 
L 121.540718 -80.353905 
L 121.263276 -78.458486 
L 120.918463 -76.563066 
L 120.590112 -74.667646 
L 120.319524 -72.772227 
L 120.113185 -70.876807 
L 119.962774 -68.981387 
L 119.857889 -67.085968 
L 119.789 -65.190548 
L 119.746952 -63.295128 
L 119.723193 -61.399708 
L 119.710727 -59.504289 
L 119.704629 -57.608869 
L 119.701849 -55.713449 
z
" id="m362016ab84" style="stroke:#4d4d4d;stroke-width:0.5;"/>
    </defs>
    <g clip-path="url(#pb8d1147b45)">
     <use style="fill:#e6e6e6;stroke:#4d4d4d;stroke-width:0.5;" x="0" xlink:href="#m362016ab84" y="288"/>
    </g>
   </g>
   <g id="PolyCollection_5">
    <defs>
     <path d="M 175.5 -55.970246 
L 175.496599 -55.970246 
L 175.491915 -57.802821 
L 175.482388 -59.635396 
L 175.464507 -61.467971 
L 175.433296 -63.300546 
L 175.382401 -65.133121 
L 175.304511 -66.965695 
L 175.191421 -68.79827 
L 175.032479 -70.630845 
L 174.811748 -72.46342 
L 174.509479 -74.295995 
L 174.117034 -76.12857 
L 173.66568 -77.961145 
L 173.247777 -79.79372 
L 172.997522 -81.626295 
L 173.024471 -83.45887 
L 173.342439 -85.291445 
L 173.853638 -87.12402 
L 174.404109 -88.956594 
L 174.864986 -90.789169 
L 175.180067 -92.621744 
L 175.359943 -94.454319 
L 175.446744 -96.286894 
L 175.482409 -98.119469 
L 175.494927 -99.952044 
L 175.498618 -101.784619 
L 175.499282 -103.617194 
L 175.498558 -105.449769 
L 175.496095 -107.282344 
L 175.489967 -109.114919 
L 175.475428 -110.947493 
L 175.440329 -112.780068 
L 175.352469 -114.612643 
L 175.132158 -116.445218 
L 174.60989 -118.277793 
L 173.49455 -120.110368 
L 171.416392 -121.942943 
L 168.11484 -123.775518 
L 163.746807 -125.608093 
L 159.111776 -127.440668 
L 155.505188 -129.273243 
L 154.124866 -131.105818 
L 155.374219 -132.938392 
L 158.601786 -134.770967 
L 162.499119 -136.603542 
L 165.829561 -138.436117 
L 167.943601 -140.268692 
L 168.820147 -142.101267 
L 168.787019 -143.933842 
L 168.222933 -145.766417 
L 167.411599 -147.598992 
L 166.536144 -149.431567 
L 165.726213 -151.264142 
L 165.092147 -153.096717 
L 164.729149 -154.929291 
L 164.704394 -156.761866 
L 165.044752 -158.594441 
L 165.73347 -160.427016 
L 166.713885 -162.259591 
L 167.893959 -164.092166 
L 169.147164 -165.924741 
L 170.309965 -167.757316 
L 171.182848 -169.589891 
L 171.550646 -171.422466 
L 171.241648 -173.255041 
L 170.223668 -175.087616 
L 168.681903 -176.92019 
L 166.98664 -178.752765 
L 165.516049 -180.58534 
L 164.439323 -182.417915 
L 163.63972 -184.25049 
L 162.845818 -186.083065 
L 161.844534 -187.91564 
L 160.593922 -189.748215 
L 159.186366 -191.58079 
L 157.754951 -193.413365 
L 156.419826 -195.24594 
L 155.286925 -197.078515 
L 154.46061 -198.911089 
L 154.044202 -200.743664 
L 154.129013 -202.576239 
L 154.779755 -204.408814 
L 156.01916 -206.241389 
L 157.812718 -208.073964 
L 160.05857 -209.906539 
L 162.59113 -211.739114 
L 165.203826 -213.571689 
L 167.687251 -215.404264 
L 169.870363 -217.236839 
L 171.650101 -219.069414 
L 172.999825 -220.901988 
L 173.956181 -222.734563 
L 174.592798 -224.567138 
L 174.993121 -226.399713 
L 175.23169 -228.232288 
L 175.366275 -230.064863 
L 175.437727 -231.897438 
L 175.473113 -233.730013 
L 175.48931 -235.562588 
L 175.496107 -237.395163 
L 175.5 -237.395163 
L 175.5 -237.395163 
L 175.5 -235.562588 
L 175.5 -233.730013 
L 175.5 -231.897438 
L 175.5 -230.064863 
L 175.5 -228.232288 
L 175.5 -226.399713 
L 175.5 -224.567138 
L 175.5 -222.734563 
L 175.5 -220.901988 
L 175.5 -219.069414 
L 175.5 -217.236839 
L 175.5 -215.404264 
L 175.5 -213.571689 
L 175.5 -211.739114 
L 175.5 -209.906539 
L 175.5 -208.073964 
L 175.5 -206.241389 
L 175.5 -204.408814 
L 175.5 -202.576239 
L 175.5 -200.743664 
L 175.5 -198.911089 
L 175.5 -197.078515 
L 175.5 -195.24594 
L 175.5 -193.413365 
L 175.5 -191.58079 
L 175.5 -189.748215 
L 175.5 -187.91564 
L 175.5 -186.083065 
L 175.5 -184.25049 
L 175.5 -182.417915 
L 175.5 -180.58534 
L 175.5 -178.752765 
L 175.5 -176.92019 
L 175.5 -175.087616 
L 175.5 -173.255041 
L 175.5 -171.422466 
L 175.5 -169.589891 
L 175.5 -167.757316 
L 175.5 -165.924741 
L 175.5 -164.092166 
L 175.5 -162.259591 
L 175.5 -160.427016 
L 175.5 -158.594441 
L 175.5 -156.761866 
L 175.5 -154.929291 
L 175.5 -153.096717 
L 175.5 -151.264142 
L 175.5 -149.431567 
L 175.5 -147.598992 
L 175.5 -145.766417 
L 175.5 -143.933842 
L 175.5 -142.101267 
L 175.5 -140.268692 
L 175.5 -138.436117 
L 175.5 -136.603542 
L 175.5 -134.770967 
L 175.5 -132.938392 
L 175.5 -131.105818 
L 175.5 -129.273243 
L 175.5 -127.440668 
L 175.5 -125.608093 
L 175.5 -123.775518 
L 175.5 -121.942943 
L 175.5 -120.110368 
L 175.5 -118.277793 
L 175.5 -116.445218 
L 175.5 -114.612643 
L 175.5 -112.780068 
L 175.5 -110.947493 
L 175.5 -109.114919 
L 175.5 -107.282344 
L 175.5 -105.449769 
L 175.5 -103.617194 
L 175.5 -101.784619 
L 175.5 -99.952044 
L 175.5 -98.119469 
L 175.5 -96.286894 
L 175.5 -94.454319 
L 175.5 -92.621744 
L 175.5 -90.789169 
L 175.5 -88.956594 
L 175.5 -87.12402 
L 175.5 -85.291445 
L 175.5 -83.45887 
L 175.5 -81.626295 
L 175.5 -79.79372 
L 175.5 -77.961145 
L 175.5 -76.12857 
L 175.5 -74.295995 
L 175.5 -72.46342 
L 175.5 -70.630845 
L 175.5 -68.79827 
L 175.5 -66.965695 
L 175.5 -65.133121 
L 175.5 -63.300546 
L 175.5 -61.467971 
L 175.5 -59.635396 
L 175.5 -57.802821 
L 175.5 -55.970246 
z
" id="m86bd79240a" style="stroke:#4d4d4d;stroke-width:0.5;"/>
    </defs>
    <g clip-path="url(#pb8d1147b45)">
     <use style="fill:#808080;stroke:#4d4d4d;stroke-width:0.5;" x="0" xlink:href="#m86bd79240a" y="288"/>
    </g>
   </g>
   <g id="PolyCollection_6">
    <defs>
     <path d="M 175.502115 -55.980285 
L 175.5 -55.980285 
L 175.5 -57.841021 
L 175.5 -59.701757 
L 175.5 -61.562493 
L 175.5 -63.423229 
L 175.5 -65.283965 
L 175.5 -67.144701 
L 175.5 -69.005437 
L 175.5 -70.866173 
L 175.5 -72.726909 
L 175.5 -74.587645 
L 175.5 -76.448381 
L 175.5 -78.309117 
L 175.5 -80.169853 
L 175.5 -82.030589 
L 175.5 -83.891325 
L 175.5 -85.752061 
L 175.5 -87.612797 
L 175.5 -89.473533 
L 175.5 -91.334269 
L 175.5 -93.195005 
L 175.5 -95.055741 
L 175.5 -96.916477 
L 175.5 -98.777213 
L 175.5 -100.637949 
L 175.5 -102.498685 
L 175.5 -104.359421 
L 175.5 -106.220157 
L 175.5 -108.080893 
L 175.5 -109.941629 
L 175.5 -111.802365 
L 175.5 -113.663101 
L 175.5 -115.523837 
L 175.5 -117.384573 
L 175.5 -119.245309 
L 175.5 -121.106045 
L 175.5 -122.96678 
L 175.5 -124.827516 
L 175.5 -126.688252 
L 175.5 -128.548988 
L 175.5 -130.409724 
L 175.5 -132.27046 
L 175.5 -134.131196 
L 175.5 -135.991932 
L 175.5 -137.852668 
L 175.5 -139.713404 
L 175.5 -141.57414 
L 175.5 -143.434876 
L 175.5 -145.295612 
L 175.5 -147.156348 
L 175.5 -149.017084 
L 175.5 -150.87782 
L 175.5 -152.738556 
L 175.5 -154.599292 
L 175.5 -156.460028 
L 175.5 -158.320764 
L 175.5 -160.1815 
L 175.5 -162.042236 
L 175.5 -163.902972 
L 175.5 -165.763708 
L 175.5 -167.624444 
L 175.5 -169.48518 
L 175.5 -171.345916 
L 175.5 -173.206652 
L 175.5 -175.067388 
L 175.5 -176.928124 
L 175.5 -178.78886 
L 175.5 -180.649596 
L 175.5 -182.510332 
L 175.5 -184.371068 
L 175.5 -186.231804 
L 175.5 -188.09254 
L 175.5 -189.953276 
L 175.5 -191.814012 
L 175.5 -193.674747 
L 175.5 -195.535483 
L 175.5 -197.396219 
L 175.5 -199.256955 
L 175.5 -201.117691 
L 175.5 -202.978427 
L 175.5 -204.839163 
L 175.5 -206.699899 
L 175.5 -208.560635 
L 175.5 -210.421371 
L 175.5 -212.282107 
L 175.5 -214.142843 
L 175.5 -216.003579 
L 175.5 -217.864315 
L 175.5 -219.725051 
L 175.5 -221.585787 
L 175.5 -223.446523 
L 175.5 -225.307259 
L 175.5 -227.167995 
L 175.5 -229.028731 
L 175.5 -230.889467 
L 175.5 -232.750203 
L 175.5 -234.610939 
L 175.5 -236.471675 
L 175.5 -238.332411 
L 175.5 -240.193147 
L 175.501433 -240.193147 
L 175.501433 -240.193147 
L 175.503665 -238.332411 
L 175.508989 -236.471675 
L 175.521332 -234.610939 
L 175.548828 -232.750203 
L 175.606739 -230.889467 
L 175.720817 -229.028731 
L 175.930317 -227.167995 
L 176.289491 -225.307259 
L 176.865792 -223.446523 
L 177.732244 -221.585787 
L 178.952319 -219.725051 
L 180.559146 -217.864315 
L 182.53534 -216.003579 
L 184.801161 -214.142843 
L 187.216094 -212.282107 
L 189.595462 -210.421371 
L 191.741593 -208.560635 
L 193.484812 -206.699899 
L 194.720785 -204.839163 
L 195.425569 -202.978427 
L 195.639707 -201.117691 
L 195.433514 -199.256955 
L 194.877214 -197.396219 
L 194.030728 -195.535483 
L 192.952102 -193.674747 
L 191.717881 -191.814012 
L 190.445364 -189.953276 
L 189.288462 -188.09254 
L 188.36941 -186.231804 
L 187.662582 -184.371068 
L 186.941894 -182.510332 
L 185.903442 -180.649596 
L 184.411131 -178.78886 
L 182.651703 -176.928124 
L 181.04637 -175.067388 
L 179.999471 -173.206652 
L 179.698746 -171.345916 
L 180.089248 -169.48518 
L 180.971871 -167.624444 
L 182.113089 -165.763708 
L 183.305072 -163.902972 
L 184.383155 -162.042236 
L 185.228285 -160.1815 
L 185.768587 -158.320764 
L 185.97931 -156.460028 
L 185.87711 -154.599292 
L 185.508703 -152.738556 
L 184.938264 -150.87782 
L 184.239531 -149.017084 
L 183.499562 -147.156348 
L 182.843158 -145.295612 
L 182.481212 -143.434876 
L 182.754511 -141.57414 
L 184.091252 -139.713404 
L 186.786932 -137.852668 
L 190.640527 -135.991932 
L 194.708997 -134.131196 
L 197.524812 -132.27046 
L 197.82 -130.409724 
L 195.293218 -128.548988 
L 190.799279 -126.688252 
L 185.801829 -124.827516 
L 181.556161 -122.96678 
L 178.626483 -121.106045 
L 176.934713 -119.245309 
L 176.098957 -117.384573 
L 175.736519 -115.523837 
L 175.592857 -113.663101 
L 175.537521 -111.802365 
L 175.515462 -109.941629 
L 175.506221 -108.080893 
L 175.502352 -106.220157 
L 175.500921 -104.359421 
L 175.500909 -102.498685 
L 175.502991 -100.637949 
L 175.511023 -98.777213 
L 175.535756 -96.916477 
L 175.600359 -95.055741 
L 175.743536 -93.195005 
L 176.011088 -91.334269 
L 176.428186 -89.473533 
L 176.960438 -87.612797 
L 177.494925 -85.752061 
L 177.874159 -83.891325 
L 177.976661 -82.030589 
L 177.787249 -80.169853 
L 177.398624 -78.309117 
L 176.94594 -76.448381 
L 176.53342 -74.587645 
L 176.205501 -72.726909 
L 175.962918 -70.866173 
L 175.790565 -69.005437 
L 175.67301 -67.144701 
L 175.597199 -65.283965 
L 175.55147 -63.423229 
L 175.525688 -61.562493 
L 175.512043 -59.701757 
L 175.50526 -57.841021 
L 175.502115 -55.980285 
z
" id="mb352154e22" style="stroke:#4d4d4d;stroke-width:0.5;"/>
    </defs>
    <g clip-path="url(#pb8d1147b45)">
     <use style="fill:#e6e6e6;stroke:#4d4d4d;stroke-width:0.5;" x="0" xlink:href="#mb352154e22" y="288"/>
    </g>
   </g>
   <g id="PolyCollection_7">
    <defs>
     <path d="M 231.3 -58.698048 
L 231.295186 -58.698048 
L 231.288032 -60.49814 
L 231.27323 -62.298233 
L 231.245786 -64.098325 
L 231.199848 -65.898417 
L 231.129582 -67.698509 
L 231.029217 -69.498601 
L 230.890783 -71.298694 
L 230.700506 -73.098786 
L 230.440471 -74.898878 
L 230.104568 -76.69897 
L 229.726496 -78.499062 
L 229.395627 -80.299155 
L 229.230672 -82.099247 
L 229.313617 -83.899339 
L 229.632144 -85.699431 
L 230.082013 -87.499523 
L 230.528864 -89.299616 
L 230.877464 -91.099708 
L 231.099803 -92.8998 
L 231.217965 -94.699892 
L 231.270725 -96.499984 
L 231.290259 -98.300077 
L 231.295254 -100.100169 
L 231.293592 -101.900261 
L 231.286966 -103.700353 
L 231.274096 -105.500446 
L 231.252433 -107.300538 
L 231.218929 -109.10063 
L 231.169766 -110.900722 
L 231.097138 -112.700814 
L 230.978398 -114.500907 
L 230.750946 -116.300999 
L 230.271457 -118.101091 
L 229.279791 -119.901183 
L 227.423562 -121.701275 
L 224.413712 -123.501368 
L 220.311558 -125.30146 
L 215.783034 -127.101552 
L 212.036707 -128.901644 
L 210.307386 -130.701736 
L 211.149605 -132.501829 
L 214.078515 -134.301921 
L 217.866376 -136.102013 
L 221.247235 -137.902105 
L 223.483378 -139.702197 
L 224.474872 -141.50229 
L 224.519712 -143.302382 
L 224.018769 -145.102474 
L 223.308109 -146.902566 
L 222.620787 -148.702659 
L 222.103608 -150.502751 
L 221.836525 -152.302843 
L 221.845629 -154.102935 
L 222.118133 -155.903027 
L 222.619511 -157.70312 
L 223.300919 -159.503212 
L 224.086932 -161.303304 
L 224.850713 -163.103396 
L 225.4044 -164.903488 
L 225.540163 -166.703581 
L 225.13302 -168.503673 
L 224.255071 -170.303765 
L 223.196375 -172.103857 
L 222.323755 -173.903949 
L 221.851238 -175.704042 
L 221.709408 -177.504134 
L 221.629243 -179.304226 
L 221.352059 -181.104318 
L 220.77444 -182.90441 
L 219.941963 -184.704503 
L 218.962387 -186.504595 
L 217.93859 -188.304687 
L 216.946674 -190.104779 
L 216.034481 -191.904872 
L 215.227899 -193.704964 
L 214.550083 -195.505056 
L 214.047281 -197.305148 
L 213.799119 -199.10524 
L 213.899917 -200.905333 
L 214.422784 -202.705425 
L 215.391217 -204.505517 
L 216.772036 -206.305609 
L 218.484224 -208.105701 
L 220.411698 -209.905794 
L 222.416239 -211.705886 
L 224.35493 -213.505978 
L 226.103572 -215.30607 
L 227.578579 -217.106162 
L 228.746898 -218.906255 
L 229.620349 -220.706347 
L 230.239854 -222.506439 
L 230.658362 -224.306531 
L 230.928246 -226.106623 
L 231.094443 -227.906716 
L 231.192034 -229.706808 
L 231.246482 -231.5069 
L 231.275173 -233.306992 
L 231.289328 -235.107085 
L 231.295795 -236.907177 
L 231.3 -236.907177 
L 231.3 -236.907177 
L 231.3 -235.107085 
L 231.3 -233.306992 
L 231.3 -231.5069 
L 231.3 -229.706808 
L 231.3 -227.906716 
L 231.3 -226.106623 
L 231.3 -224.306531 
L 231.3 -222.506439 
L 231.3 -220.706347 
L 231.3 -218.906255 
L 231.3 -217.106162 
L 231.3 -215.30607 
L 231.3 -213.505978 
L 231.3 -211.705886 
L 231.3 -209.905794 
L 231.3 -208.105701 
L 231.3 -206.305609 
L 231.3 -204.505517 
L 231.3 -202.705425 
L 231.3 -200.905333 
L 231.3 -199.10524 
L 231.3 -197.305148 
L 231.3 -195.505056 
L 231.3 -193.704964 
L 231.3 -191.904872 
L 231.3 -190.104779 
L 231.3 -188.304687 
L 231.3 -186.504595 
L 231.3 -184.704503 
L 231.3 -182.90441 
L 231.3 -181.104318 
L 231.3 -179.304226 
L 231.3 -177.504134 
L 231.3 -175.704042 
L 231.3 -173.903949 
L 231.3 -172.103857 
L 231.3 -170.303765 
L 231.3 -168.503673 
L 231.3 -166.703581 
L 231.3 -164.903488 
L 231.3 -163.103396 
L 231.3 -161.303304 
L 231.3 -159.503212 
L 231.3 -157.70312 
L 231.3 -155.903027 
L 231.3 -154.102935 
L 231.3 -152.302843 
L 231.3 -150.502751 
L 231.3 -148.702659 
L 231.3 -146.902566 
L 231.3 -145.102474 
L 231.3 -143.302382 
L 231.3 -141.50229 
L 231.3 -139.702197 
L 231.3 -137.902105 
L 231.3 -136.102013 
L 231.3 -134.301921 
L 231.3 -132.501829 
L 231.3 -130.701736 
L 231.3 -128.901644 
L 231.3 -127.101552 
L 231.3 -125.30146 
L 231.3 -123.501368 
L 231.3 -121.701275 
L 231.3 -119.901183 
L 231.3 -118.101091 
L 231.3 -116.300999 
L 231.3 -114.500907 
L 231.3 -112.700814 
L 231.3 -110.900722 
L 231.3 -109.10063 
L 231.3 -107.300538 
L 231.3 -105.500446 
L 231.3 -103.700353 
L 231.3 -101.900261 
L 231.3 -100.100169 
L 231.3 -98.300077 
L 231.3 -96.499984 
L 231.3 -94.699892 
L 231.3 -92.8998 
L 231.3 -91.099708 
L 231.3 -89.299616 
L 231.3 -87.499523 
L 231.3 -85.699431 
L 231.3 -83.899339 
L 231.3 -82.099247 
L 231.3 -80.299155 
L 231.3 -78.499062 
L 231.3 -76.69897 
L 231.3 -74.898878 
L 231.3 -73.098786 
L 231.3 -71.298694 
L 231.3 -69.498601 
L 231.3 -67.698509 
L 231.3 -65.898417 
L 231.3 -64.098325 
L 231.3 -62.298233 
L 231.3 -60.49814 
L 231.3 -58.698048 
z
" id="m864243cf14" style="stroke:#4d4d4d;stroke-width:0.5;"/>
    </defs>
    <g clip-path="url(#pb8d1147b45)">
     <use style="fill:#808080;stroke:#4d4d4d;stroke-width:0.5;" x="0" xlink:href="#m864243cf14" y="288"/>
    </g>
   </g>
   <g id="PolyCollection_8">
    <defs>
     <path d="M 231.306158 -58.69461 
L 231.3 -58.69461 
L 231.3 -60.492493 
L 231.3 -62.290377 
L 231.3 -64.08826 
L 231.3 -65.886144 
L 231.3 -67.684027 
L 231.3 -69.481911 
L 231.3 -71.279795 
L 231.3 -73.077678 
L 231.3 -74.875562 
L 231.3 -76.673445 
L 231.3 -78.471329 
L 231.3 -80.269212 
L 231.3 -82.067096 
L 231.3 -83.86498 
L 231.3 -85.662863 
L 231.3 -87.460747 
L 231.3 -89.25863 
L 231.3 -91.056514 
L 231.3 -92.854397 
L 231.3 -94.652281 
L 231.3 -96.450165 
L 231.3 -98.248048 
L 231.3 -100.045932 
L 231.3 -101.843815 
L 231.3 -103.641699 
L 231.3 -105.439582 
L 231.3 -107.237466 
L 231.3 -109.03535 
L 231.3 -110.833233 
L 231.3 -112.631117 
L 231.3 -114.429 
L 231.3 -116.226884 
L 231.3 -118.024767 
L 231.3 -119.822651 
L 231.3 -121.620535 
L 231.3 -123.418418 
L 231.3 -125.216302 
L 231.3 -127.014185 
L 231.3 -128.812069 
L 231.3 -130.609952 
L 231.3 -132.407836 
L 231.3 -134.20572 
L 231.3 -136.003603 
L 231.3 -137.801487 
L 231.3 -139.59937 
L 231.3 -141.397254 
L 231.3 -143.195137 
L 231.3 -144.993021 
L 231.3 -146.790905 
L 231.3 -148.588788 
L 231.3 -150.386672 
L 231.3 -152.184555 
L 231.3 -153.982439 
L 231.3 -155.780322 
L 231.3 -157.578206 
L 231.3 -159.37609 
L 231.3 -161.173973 
L 231.3 -162.971857 
L 231.3 -164.76974 
L 231.3 -166.567624 
L 231.3 -168.365507 
L 231.3 -170.163391 
L 231.3 -171.961275 
L 231.3 -173.759158 
L 231.3 -175.557042 
L 231.3 -177.354925 
L 231.3 -179.152809 
L 231.3 -180.950692 
L 231.3 -182.748576 
L 231.3 -184.546459 
L 231.3 -186.344343 
L 231.3 -188.142227 
L 231.3 -189.94011 
L 231.3 -191.737994 
L 231.3 -193.535877 
L 231.3 -195.333761 
L 231.3 -197.131644 
L 231.3 -198.929528 
L 231.3 -200.727412 
L 231.3 -202.525295 
L 231.3 -204.323179 
L 231.3 -206.121062 
L 231.3 -207.918946 
L 231.3 -209.716829 
L 231.3 -211.514713 
L 231.3 -213.312597 
L 231.3 -215.11048 
L 231.3 -216.908364 
L 231.3 -218.706247 
L 231.3 -220.504131 
L 231.3 -222.302014 
L 231.3 -224.099898 
L 231.3 -225.897782 
L 231.3 -227.695665 
L 231.3 -229.493549 
L 231.3 -231.291432 
L 231.3 -233.089316 
L 231.3 -234.887199 
L 231.3 -236.685083 
L 231.303486 -236.685083 
L 231.303486 -236.685083 
L 231.308817 -234.887199 
L 231.320597 -233.089316 
L 231.345016 -231.291432 
L 231.392966 -229.493549 
L 231.482409 -227.695665 
L 231.640465 -225.897782 
L 231.903813 -224.099898 
L 232.316087 -222.302014 
L 232.922163 -220.504131 
L 233.760689 -218.706247 
L 234.856585 -216.908364 
L 236.214247 -215.11048 
L 237.811206 -213.312597 
L 239.592438 -211.514713 
L 241.467507 -209.716829 
L 243.314405 -207.918946 
L 244.993427 -206.121062 
L 246.37064 -204.323179 
L 247.344989 -202.525295 
L 247.869958 -200.727412 
L 247.962301 -198.929528 
L 247.694556 -197.131644 
L 247.172459 -195.333761 
L 246.503463 -193.535877 
L 245.768143 -191.737994 
L 245.007139 -189.94011 
L 244.229514 -188.142227 
L 243.439546 -186.344343 
L 242.672482 -184.546459 
L 242.018237 -182.748576 
L 241.596153 -180.950692 
L 241.46002 -179.152809 
L 241.489655 -177.354925 
L 241.394673 -175.557042 
L 240.891715 -173.759158 
L 239.934241 -171.961275 
L 238.782849 -170.163391 
L 237.842081 -168.365507 
L 237.409191 -166.567624 
L 237.535577 -164.76974 
L 238.06471 -162.971857 
L 238.762194 -161.173973 
L 239.426761 -159.37609 
L 239.934419 -157.578206 
L 240.23023 -155.780322 
L 240.30221 -153.982439 
L 240.161481 -152.184555 
L 239.835031 -150.386672 
L 239.367124 -148.588788 
L 238.827057 -146.790905 
L 238.328986 -144.993021 
L 238.069284 -143.195137 
L 238.362312 -141.397254 
L 239.609227 -139.59937 
L 242.11638 -137.801487 
L 245.77175 -136.003603 
L 249.787499 -134.20572 
L 252.827485 -132.407836 
L 253.62 -130.609952 
L 251.697205 -128.812069 
L 247.682647 -127.014185 
L 242.889388 -125.216302 
L 238.574984 -123.418418 
L 235.415917 -121.620535 
L 233.460325 -119.822651 
L 232.401258 -118.024767 
L 231.874309 -116.226884 
L 231.614372 -114.429 
L 231.476731 -112.631117 
L 231.397306 -110.833233 
L 231.350341 -109.03535 
L 231.323851 -107.237466 
L 231.310216 -105.439582 
L 231.304018 -103.641699 
L 231.301921 -101.843815 
L 231.302992 -100.045932 
L 231.309868 -98.248048 
L 231.331775 -96.450165 
L 231.389243 -94.652281 
L 231.516783 -92.854397 
L 231.755308 -91.056514 
L 232.127239 -89.25863 
L 232.601459 -87.460747 
L 233.076149 -85.662863 
L 233.409419 -83.86498 
L 233.49237 -82.067096 
L 233.31309 -80.269212 
L 232.958074 -78.471329 
L 232.551948 -76.673445 
L 232.18941 -74.875562 
L 231.90831 -73.077678 
L 231.705141 -71.279795 
L 231.562246 -69.481911 
L 231.463519 -67.684027 
L 231.397289 -65.886144 
L 231.354728 -64.08826 
L 231.328788 -62.290377 
L 231.313967 -60.492493 
L 231.306158 -58.69461 
z
" id="m94b5ff334e" style="stroke:#4d4d4d;stroke-width:0.5;"/>
    </defs>
    <g clip-path="url(#pb8d1147b45)">
     <use style="fill:#e6e6e6;stroke:#4d4d4d;stroke-width:0.5;" x="0" xlink:href="#m94b5ff334e" y="288"/>
    </g>
   </g>
   <g id="patch_3">
    <path clip-path="url(#pb8d1147b45)" d="M 63.9 157.166827 
L 63.9 157.166827 
L 63.9 157.166827 
L 63.9 157.166827 
z
" style="fill:#808080;stroke:#4d4d4d;stroke-linejoin:miter;stroke-width:0.25;"/>
   </g>
   <g id="patch_4">
    <path clip-path="url(#pb8d1147b45)" d="M 63.9 157.166827 
L 63.9 157.166827 
L 63.9 157.166827 
L 63.9 157.166827 
z
" style="fill:#e6e6e6;stroke:#4d4d4d;stroke-linejoin:miter;stroke-width:0.25;"/>
   </g>
   <g id="matplotlib.axis_1">
    <g id="xtick_1">
     <g id="line2d_1">
      <defs>
       <path d="M 0 0 
L 0 3.5 
" id="mbb3695275f" style="stroke:#000000;stroke-width:0.8;"/>
      </defs>
      <g>
       <use style="stroke:#000000;stroke-width:0.8;" x="63.9" xlink:href="#mbb3695275f" y="256.32"/>
      </g>
     </g>
     <g id="text_1">
      <!-- H2AZ-H2B -->
      <g transform="translate(38.025 270.918437)scale(0.1 -0.1)">
       <defs>
        <path d="M 9.8125 72.90625 
L 19.671875 72.90625 
L 19.671875 43.015625 
L 55.515625 43.015625 
L 55.515625 72.90625 
L 65.375 72.90625 
L 65.375 0 
L 55.515625 0 
L 55.515625 34.71875 
L 19.671875 34.71875 
L 19.671875 0 
L 9.8125 0 
z
" id="DejaVuSans-72"/>
        <path d="M 19.1875 8.296875 
L 53.609375 8.296875 
L 53.609375 0 
L 7.328125 0 
L 7.328125 8.296875 
Q 12.9375 14.109375 22.625 23.890625 
Q 32.328125 33.6875 34.8125 36.53125 
Q 39.546875 41.84375 41.421875 45.53125 
Q 43.3125 49.21875 43.3125 52.78125 
Q 43.3125 58.59375 39.234375 62.25 
Q 35.15625 65.921875 28.609375 65.921875 
Q 23.96875 65.921875 18.8125 64.3125 
Q 13.671875 62.703125 7.8125 59.421875 
L 7.8125 69.390625 
Q 13.765625 71.78125 18.9375 73 
Q 24.125 74.21875 28.421875 74.21875 
Q 39.75 74.21875 46.484375 68.546875 
Q 53.21875 62.890625 53.21875 53.421875 
Q 53.21875 48.921875 51.53125 44.890625 
Q 49.859375 40.875 45.40625 35.40625 
Q 44.1875 33.984375 37.640625 27.21875 
Q 31.109375 20.453125 19.1875 8.296875 
z
" id="DejaVuSans-50"/>
        <path d="M 34.1875 63.1875 
L 20.796875 26.90625 
L 47.609375 26.90625 
z
M 28.609375 72.90625 
L 39.796875 72.90625 
L 67.578125 0 
L 57.328125 0 
L 50.6875 18.703125 
L 17.828125 18.703125 
L 11.1875 0 
L 0.78125 0 
z
" id="DejaVuSans-65"/>
        <path d="M 5.609375 72.90625 
L 62.890625 72.90625 
L 62.890625 65.375 
L 16.796875 8.296875 
L 64.015625 8.296875 
L 64.015625 0 
L 4.5 0 
L 4.5 7.515625 
L 50.59375 64.59375 
L 5.609375 64.59375 
z
" id="DejaVuSans-90"/>
        <path d="M 4.890625 31.390625 
L 31.203125 31.390625 
L 31.203125 23.390625 
L 4.890625 23.390625 
z
" id="DejaVuSans-45"/>
        <path d="M 19.671875 34.8125 
L 19.671875 8.109375 
L 35.5 8.109375 
Q 43.453125 8.109375 47.28125 11.40625 
Q 51.125 14.703125 51.125 21.484375 
Q 51.125 28.328125 47.28125 31.5625 
Q 43.453125 34.8125 35.5 34.8125 
z
M 19.671875 64.796875 
L 19.671875 42.828125 
L 34.28125 42.828125 
Q 41.5 42.828125 45.03125 45.53125 
Q 48.578125 48.25 48.578125 53.8125 
Q 48.578125 59.328125 45.03125 62.0625 
Q 41.5 64.796875 34.28125 64.796875 
z
M 9.8125 72.90625 
L 35.015625 72.90625 
Q 46.296875 72.90625 52.390625 68.21875 
Q 58.5 63.53125 58.5 54.890625 
Q 58.5 48.1875 55.375 44.234375 
Q 52.25 40.28125 46.1875 39.3125 
Q 53.46875 37.75 57.5 32.78125 
Q 61.53125 27.828125 61.53125 20.40625 
Q 61.53125 10.640625 54.890625 5.3125 
Q 48.25 0 35.984375 0 
L 9.8125 0 
z
" id="DejaVuSans-66"/>
       </defs>
       <use xlink:href="#DejaVuSans-72"/>
       <use x="75.195312" xlink:href="#DejaVuSans-50"/>
       <use x="138.818359" xlink:href="#DejaVuSans-65"/>
       <use x="207.226562" xlink:href="#DejaVuSans-90"/>
       <use x="273.982422" xlink:href="#DejaVuSans-45"/>
       <use x="310.066406" xlink:href="#DejaVuSans-72"/>
       <use x="385.261719" xlink:href="#DejaVuSans-50"/>
       <use x="448.884766" xlink:href="#DejaVuSans-66"/>
      </g>
     </g>
    </g>
    <g id="xtick_2">
     <g id="line2d_2">
      <g>
       <use style="stroke:#000000;stroke-width:0.8;" x="119.7" xlink:href="#mbb3695275f" y="256.32"/>
      </g>
     </g>
     <g id="text_2">
      <!-- H3K4me3-H3 -->
      <g transform="translate(86.425 270.918437)scale(0.1 -0.1)">
       <defs>
        <path d="M 40.578125 39.3125 
Q 47.65625 37.796875 51.625 33 
Q 55.609375 28.21875 55.609375 21.1875 
Q 55.609375 10.40625 48.1875 4.484375 
Q 40.765625 -1.421875 27.09375 -1.421875 
Q 22.515625 -1.421875 17.65625 -0.515625 
Q 12.796875 0.390625 7.625 2.203125 
L 7.625 11.71875 
Q 11.71875 9.328125 16.59375 8.109375 
Q 21.484375 6.890625 26.8125 6.890625 
Q 36.078125 6.890625 40.9375 10.546875 
Q 45.796875 14.203125 45.796875 21.1875 
Q 45.796875 27.640625 41.28125 31.265625 
Q 36.765625 34.90625 28.71875 34.90625 
L 20.21875 34.90625 
L 20.21875 43.015625 
L 29.109375 43.015625 
Q 36.375 43.015625 40.234375 45.921875 
Q 44.09375 48.828125 44.09375 54.296875 
Q 44.09375 59.90625 40.109375 62.90625 
Q 36.140625 65.921875 28.71875 65.921875 
Q 24.65625 65.921875 20.015625 65.03125 
Q 15.375 64.15625 9.8125 62.3125 
L 9.8125 71.09375 
Q 15.4375 72.65625 20.34375 73.4375 
Q 25.25 74.21875 29.59375 74.21875 
Q 40.828125 74.21875 47.359375 69.109375 
Q 53.90625 64.015625 53.90625 55.328125 
Q 53.90625 49.265625 50.4375 45.09375 
Q 46.96875 40.921875 40.578125 39.3125 
z
" id="DejaVuSans-51"/>
        <path d="M 9.8125 72.90625 
L 19.671875 72.90625 
L 19.671875 42.09375 
L 52.390625 72.90625 
L 65.09375 72.90625 
L 28.90625 38.921875 
L 67.671875 0 
L 54.6875 0 
L 19.671875 35.109375 
L 19.671875 0 
L 9.8125 0 
z
" id="DejaVuSans-75"/>
        <path d="M 37.796875 64.3125 
L 12.890625 25.390625 
L 37.796875 25.390625 
z
M 35.203125 72.90625 
L 47.609375 72.90625 
L 47.609375 25.390625 
L 58.015625 25.390625 
L 58.015625 17.1875 
L 47.609375 17.1875 
L 47.609375 0 
L 37.796875 0 
L 37.796875 17.1875 
L 4.890625 17.1875 
L 4.890625 26.703125 
z
" id="DejaVuSans-52"/>
        <path d="M 52 44.1875 
Q 55.375 50.25 60.0625 53.125 
Q 64.75 56 71.09375 56 
Q 79.640625 56 84.28125 50.015625 
Q 88.921875 44.046875 88.921875 33.015625 
L 88.921875 0 
L 79.890625 0 
L 79.890625 32.71875 
Q 79.890625 40.578125 77.09375 44.375 
Q 74.3125 48.1875 68.609375 48.1875 
Q 61.625 48.1875 57.5625 43.546875 
Q 53.515625 38.921875 53.515625 30.90625 
L 53.515625 0 
L 44.484375 0 
L 44.484375 32.71875 
Q 44.484375 40.625 41.703125 44.40625 
Q 38.921875 48.1875 33.109375 48.1875 
Q 26.21875 48.1875 22.15625 43.53125 
Q 18.109375 38.875 18.109375 30.90625 
L 18.109375 0 
L 9.078125 0 
L 9.078125 54.6875 
L 18.109375 54.6875 
L 18.109375 46.1875 
Q 21.1875 51.21875 25.484375 53.609375 
Q 29.78125 56 35.6875 56 
Q 41.65625 56 45.828125 52.96875 
Q 50 49.953125 52 44.1875 
z
" id="DejaVuSans-109"/>
        <path d="M 56.203125 29.59375 
L 56.203125 25.203125 
L 14.890625 25.203125 
Q 15.484375 15.921875 20.484375 11.0625 
Q 25.484375 6.203125 34.421875 6.203125 
Q 39.59375 6.203125 44.453125 7.46875 
Q 49.3125 8.734375 54.109375 11.28125 
L 54.109375 2.78125 
Q 49.265625 0.734375 44.1875 -0.34375 
Q 39.109375 -1.421875 33.890625 -1.421875 
Q 20.796875 -1.421875 13.15625 6.1875 
Q 5.515625 13.8125 5.515625 26.8125 
Q 5.515625 40.234375 12.765625 48.109375 
Q 20.015625 56 32.328125 56 
Q 43.359375 56 49.78125 48.890625 
Q 56.203125 41.796875 56.203125 29.59375 
z
M 47.21875 32.234375 
Q 47.125 39.59375 43.09375 43.984375 
Q 39.0625 48.390625 32.421875 48.390625 
Q 24.90625 48.390625 20.390625 44.140625 
Q 15.875 39.890625 15.1875 32.171875 
z
" id="DejaVuSans-101"/>
       </defs>
       <use xlink:href="#DejaVuSans-72"/>
       <use x="75.195312" xlink:href="#DejaVuSans-51"/>
       <use x="138.818359" xlink:href="#DejaVuSans-75"/>
       <use x="204.394531" xlink:href="#DejaVuSans-52"/>
       <use x="268.017578" xlink:href="#DejaVuSans-109"/>
       <use x="365.429688" xlink:href="#DejaVuSans-101"/>
       <use x="426.953125" xlink:href="#DejaVuSans-51"/>
       <use x="490.576172" xlink:href="#DejaVuSans-45"/>
       <use x="526.660156" xlink:href="#DejaVuSans-72"/>
       <use x="601.855469" xlink:href="#DejaVuSans-51"/>
      </g>
     </g>
    </g>
    <g id="xtick_3">
     <g id="line2d_3">
      <g>
       <use style="stroke:#000000;stroke-width:0.8;" x="175.5" xlink:href="#mbb3695275f" y="256.32"/>
      </g>
     </g>
     <g id="text_3">
      <!-- H3K9ac-H3 -->
      <g transform="translate(147.539844 270.918437)scale(0.1 -0.1)">
       <defs>
        <path d="M 10.984375 1.515625 
L 10.984375 10.5 
Q 14.703125 8.734375 18.5 7.8125 
Q 22.3125 6.890625 25.984375 6.890625 
Q 35.75 6.890625 40.890625 13.453125 
Q 46.046875 20.015625 46.78125 33.40625 
Q 43.953125 29.203125 39.59375 26.953125 
Q 35.25 24.703125 29.984375 24.703125 
Q 19.046875 24.703125 12.671875 31.3125 
Q 6.296875 37.9375 6.296875 49.421875 
Q 6.296875 60.640625 12.9375 67.421875 
Q 19.578125 74.21875 30.609375 74.21875 
Q 43.265625 74.21875 49.921875 64.515625 
Q 56.59375 54.828125 56.59375 36.375 
Q 56.59375 19.140625 48.40625 8.859375 
Q 40.234375 -1.421875 26.421875 -1.421875 
Q 22.703125 -1.421875 18.890625 -0.6875 
Q 15.09375 0.046875 10.984375 1.515625 
z
M 30.609375 32.421875 
Q 37.25 32.421875 41.125 36.953125 
Q 45.015625 41.5 45.015625 49.421875 
Q 45.015625 57.28125 41.125 61.84375 
Q 37.25 66.40625 30.609375 66.40625 
Q 23.96875 66.40625 20.09375 61.84375 
Q 16.21875 57.28125 16.21875 49.421875 
Q 16.21875 41.5 20.09375 36.953125 
Q 23.96875 32.421875 30.609375 32.421875 
z
" id="DejaVuSans-57"/>
        <path d="M 34.28125 27.484375 
Q 23.390625 27.484375 19.1875 25 
Q 14.984375 22.515625 14.984375 16.5 
Q 14.984375 11.71875 18.140625 8.90625 
Q 21.296875 6.109375 26.703125 6.109375 
Q 34.1875 6.109375 38.703125 11.40625 
Q 43.21875 16.703125 43.21875 25.484375 
L 43.21875 27.484375 
z
M 52.203125 31.203125 
L 52.203125 0 
L 43.21875 0 
L 43.21875 8.296875 
Q 40.140625 3.328125 35.546875 0.953125 
Q 30.953125 -1.421875 24.3125 -1.421875 
Q 15.921875 -1.421875 10.953125 3.296875 
Q 6 8.015625 6 15.921875 
Q 6 25.140625 12.171875 29.828125 
Q 18.359375 34.515625 30.609375 34.515625 
L 43.21875 34.515625 
L 43.21875 35.40625 
Q 43.21875 41.609375 39.140625 45 
Q 35.0625 48.390625 27.6875 48.390625 
Q 23 48.390625 18.546875 47.265625 
Q 14.109375 46.140625 10.015625 43.890625 
L 10.015625 52.203125 
Q 14.9375 54.109375 19.578125 55.046875 
Q 24.21875 56 28.609375 56 
Q 40.484375 56 46.34375 49.84375 
Q 52.203125 43.703125 52.203125 31.203125 
z
" id="DejaVuSans-97"/>
        <path d="M 48.78125 52.59375 
L 48.78125 44.1875 
Q 44.96875 46.296875 41.140625 47.34375 
Q 37.3125 48.390625 33.40625 48.390625 
Q 24.65625 48.390625 19.8125 42.84375 
Q 14.984375 37.3125 14.984375 27.296875 
Q 14.984375 17.28125 19.8125 11.734375 
Q 24.65625 6.203125 33.40625 6.203125 
Q 37.3125 6.203125 41.140625 7.25 
Q 44.96875 8.296875 48.78125 10.40625 
L 48.78125 2.09375 
Q 45.015625 0.34375 40.984375 -0.53125 
Q 36.96875 -1.421875 32.421875 -1.421875 
Q 20.0625 -1.421875 12.78125 6.34375 
Q 5.515625 14.109375 5.515625 27.296875 
Q 5.515625 40.671875 12.859375 48.328125 
Q 20.21875 56 33.015625 56 
Q 37.15625 56 41.109375 55.140625 
Q 45.0625 54.296875 48.78125 52.59375 
z
" id="DejaVuSans-99"/>
       </defs>
       <use xlink:href="#DejaVuSans-72"/>
       <use x="75.195312" xlink:href="#DejaVuSans-51"/>
       <use x="138.818359" xlink:href="#DejaVuSans-75"/>
       <use x="204.394531" xlink:href="#DejaVuSans-57"/>
       <use x="268.017578" xlink:href="#DejaVuSans-97"/>
       <use x="329.296875" xlink:href="#DejaVuSans-99"/>
       <use x="384.277344" xlink:href="#DejaVuSans-45"/>
       <use x="420.361328" xlink:href="#DejaVuSans-72"/>
       <use x="495.556641" xlink:href="#DejaVuSans-51"/>
      </g>
     </g>
    </g>
    <g id="xtick_4">
     <g id="line2d_4">
      <g>
       <use style="stroke:#000000;stroke-width:0.8;" x="231.3" xlink:href="#mbb3695275f" y="256.32"/>
      </g>
     </g>
     <g id="text_4">
      <!-- H3K27ac-H3 -->
      <g transform="translate(200.158594 270.918437)scale(0.1 -0.1)">
       <defs>
        <path d="M 8.203125 72.90625 
L 55.078125 72.90625 
L 55.078125 68.703125 
L 28.609375 0 
L 18.3125 0 
L 43.21875 64.59375 
L 8.203125 64.59375 
z
" id="DejaVuSans-55"/>
       </defs>
       <use xlink:href="#DejaVuSans-72"/>
       <use x="75.195312" xlink:href="#DejaVuSans-51"/>
       <use x="138.818359" xlink:href="#DejaVuSans-75"/>
       <use x="204.394531" xlink:href="#DejaVuSans-50"/>
       <use x="268.017578" xlink:href="#DejaVuSans-55"/>
       <use x="331.640625" xlink:href="#DejaVuSans-97"/>
       <use x="392.919922" xlink:href="#DejaVuSans-99"/>
       <use x="447.900391" xlink:href="#DejaVuSans-45"/>
       <use x="483.984375" xlink:href="#DejaVuSans-72"/>
       <use x="559.179688" xlink:href="#DejaVuSans-51"/>
      </g>
     </g>
    </g>
    <g id="text_5">
     <!-- modification -->
     <g transform="translate(116.567187 284.596563)scale(0.1 -0.1)">
      <defs>
       <path d="M 30.609375 48.390625 
Q 23.390625 48.390625 19.1875 42.75 
Q 14.984375 37.109375 14.984375 27.296875 
Q 14.984375 17.484375 19.15625 11.84375 
Q 23.34375 6.203125 30.609375 6.203125 
Q 37.796875 6.203125 41.984375 11.859375 
Q 46.1875 17.53125 46.1875 27.296875 
Q 46.1875 37.015625 41.984375 42.703125 
Q 37.796875 48.390625 30.609375 48.390625 
z
M 30.609375 56 
Q 42.328125 56 49.015625 48.375 
Q 55.71875 40.765625 55.71875 27.296875 
Q 55.71875 13.875 49.015625 6.21875 
Q 42.328125 -1.421875 30.609375 -1.421875 
Q 18.84375 -1.421875 12.171875 6.21875 
Q 5.515625 13.875 5.515625 27.296875 
Q 5.515625 40.765625 12.171875 48.375 
Q 18.84375 56 30.609375 56 
z
" id="DejaVuSans-111"/>
       <path d="M 45.40625 46.390625 
L 45.40625 75.984375 
L 54.390625 75.984375 
L 54.390625 0 
L 45.40625 0 
L 45.40625 8.203125 
Q 42.578125 3.328125 38.25 0.953125 
Q 33.9375 -1.421875 27.875 -1.421875 
Q 17.96875 -1.421875 11.734375 6.484375 
Q 5.515625 14.40625 5.515625 27.296875 
Q 5.515625 40.1875 11.734375 48.09375 
Q 17.96875 56 27.875 56 
Q 33.9375 56 38.25 53.625 
Q 42.578125 51.265625 45.40625 46.390625 
z
M 14.796875 27.296875 
Q 14.796875 17.390625 18.875 11.75 
Q 22.953125 6.109375 30.078125 6.109375 
Q 37.203125 6.109375 41.296875 11.75 
Q 45.40625 17.390625 45.40625 27.296875 
Q 45.40625 37.203125 41.296875 42.84375 
Q 37.203125 48.484375 30.078125 48.484375 
Q 22.953125 48.484375 18.875 42.84375 
Q 14.796875 37.203125 14.796875 27.296875 
z
" id="DejaVuSans-100"/>
       <path d="M 9.421875 54.6875 
L 18.40625 54.6875 
L 18.40625 0 
L 9.421875 0 
z
M 9.421875 75.984375 
L 18.40625 75.984375 
L 18.40625 64.59375 
L 9.421875 64.59375 
z
" id="DejaVuSans-105"/>
       <path d="M 37.109375 75.984375 
L 37.109375 68.5 
L 28.515625 68.5 
Q 23.6875 68.5 21.796875 66.546875 
Q 19.921875 64.59375 19.921875 59.515625 
L 19.921875 54.6875 
L 34.71875 54.6875 
L 34.71875 47.703125 
L 19.921875 47.703125 
L 19.921875 0 
L 10.890625 0 
L 10.890625 47.703125 
L 2.296875 47.703125 
L 2.296875 54.6875 
L 10.890625 54.6875 
L 10.890625 58.5 
Q 10.890625 67.625 15.140625 71.796875 
Q 19.390625 75.984375 28.609375 75.984375 
z
" id="DejaVuSans-102"/>
       <path d="M 18.3125 70.21875 
L 18.3125 54.6875 
L 36.8125 54.6875 
L 36.8125 47.703125 
L 18.3125 47.703125 
L 18.3125 18.015625 
Q 18.3125 11.328125 20.140625 9.421875 
Q 21.96875 7.515625 27.59375 7.515625 
L 36.8125 7.515625 
L 36.8125 0 
L 27.59375 0 
Q 17.1875 0 13.234375 3.875 
Q 9.28125 7.765625 9.28125 18.015625 
L 9.28125 47.703125 
L 2.6875 47.703125 
L 2.6875 54.6875 
L 9.28125 54.6875 
L 9.28125 70.21875 
z
" id="DejaVuSans-116"/>
       <path d="M 54.890625 33.015625 
L 54.890625 0 
L 45.90625 0 
L 45.90625 32.71875 
Q 45.90625 40.484375 42.875 44.328125 
Q 39.84375 48.1875 33.796875 48.1875 
Q 26.515625 48.1875 22.3125 43.546875 
Q 18.109375 38.921875 18.109375 30.90625 
L 18.109375 0 
L 9.078125 0 
L 9.078125 54.6875 
L 18.109375 54.6875 
L 18.109375 46.1875 
Q 21.34375 51.125 25.703125 53.5625 
Q 30.078125 56 35.796875 56 
Q 45.21875 56 50.046875 50.171875 
Q 54.890625 44.34375 54.890625 33.015625 
z
" id="DejaVuSans-110"/>
      </defs>
      <use xlink:href="#DejaVuSans-109"/>
      <use x="97.412109" xlink:href="#DejaVuSans-111"/>
      <use x="158.59375" xlink:href="#DejaVuSans-100"/>
      <use x="222.070312" xlink:href="#DejaVuSans-105"/>
      <use x="249.853516" xlink:href="#DejaVuSans-102"/>
      <use x="285.058594" xlink:href="#DejaVuSans-105"/>
      <use x="312.841797" xlink:href="#DejaVuSans-99"/>
      <use x="367.822266" xlink:href="#DejaVuSans-97"/>
      <use x="429.101562" xlink:href="#DejaVuSans-116"/>
      <use x="468.310547" xlink:href="#DejaVuSans-105"/>
      <use x="496.09375" xlink:href="#DejaVuSans-111"/>
      <use x="557.275391" xlink:href="#DejaVuSans-110"/>
     </g>
    </g>
   </g>
   <g id="matplotlib.axis_2">
    <g id="ytick_1">
     <g id="line2d_5">
      <defs>
       <path d="M 0 0 
L -3.5 0 
" id="m7b55fa47a7" style="stroke:#000000;stroke-width:0.8;"/>
      </defs>
      <g>
       <use style="stroke:#000000;stroke-width:0.8;" x="36" xlink:href="#m7b55fa47a7" y="231.355034"/>
      </g>
     </g>
     <g id="text_6">
      <!-- 10 -->
      <g transform="translate(7.895312 235.154253)scale(0.1 -0.1)">
       <defs>
        <path d="M 10.59375 35.5 
L 73.1875 35.5 
L 73.1875 27.203125 
L 10.59375 27.203125 
z
" id="DejaVuSans-8722"/>
        <path d="M 12.40625 8.296875 
L 28.515625 8.296875 
L 28.515625 63.921875 
L 10.984375 60.40625 
L 10.984375 69.390625 
L 28.421875 72.90625 
L 38.28125 72.90625 
L 38.28125 8.296875 
L 54.390625 8.296875 
L 54.390625 0 
L 12.40625 0 
z
" id="DejaVuSans-49"/>
        <path d="M 31.78125 66.40625 
Q 24.171875 66.40625 20.328125 58.90625 
Q 16.5 51.421875 16.5 36.375 
Q 16.5 21.390625 20.328125 13.890625 
Q 24.171875 6.390625 31.78125 6.390625 
Q 39.453125 6.390625 43.28125 13.890625 
Q 47.125 21.390625 47.125 36.375 
Q 47.125 51.421875 43.28125 58.90625 
Q 39.453125 66.40625 31.78125 66.40625 
z
M 31.78125 74.21875 
Q 44.046875 74.21875 50.515625 64.515625 
Q 56.984375 54.828125 56.984375 36.375 
Q 56.984375 17.96875 50.515625 8.265625 
Q 44.046875 -1.421875 31.78125 -1.421875 
Q 19.53125 -1.421875 13.0625 8.265625 
Q 6.59375 17.96875 6.59375 36.375 
Q 6.59375 54.828125 13.0625 64.515625 
Q 19.53125 74.21875 31.78125 74.21875 
z
" id="DejaVuSans-48"/>
       </defs>
       <use xlink:href="#DejaVuSans-8722"/>
       <use x="83.789062" xlink:href="#DejaVuSans-49"/>
       <use x="147.412109" xlink:href="#DejaVuSans-48"/>
      </g>
     </g>
    </g>
    <g id="ytick_2">
     <g id="line2d_6">
      <g>
       <use style="stroke:#000000;stroke-width:0.8;" x="36" xlink:href="#m7b55fa47a7" y="194.260931"/>
      </g>
     </g>
     <g id="text_7">
      <!-- 5 -->
      <g transform="translate(14.257812 198.060149)scale(0.1 -0.1)">
       <defs>
        <path d="M 10.796875 72.90625 
L 49.515625 72.90625 
L 49.515625 64.59375 
L 19.828125 64.59375 
L 19.828125 46.734375 
Q 21.96875 47.46875 24.109375 47.828125 
Q 26.265625 48.1875 28.421875 48.1875 
Q 40.625 48.1875 47.75 41.5 
Q 54.890625 34.8125 54.890625 23.390625 
Q 54.890625 11.625 47.5625 5.09375 
Q 40.234375 -1.421875 26.90625 -1.421875 
Q 22.3125 -1.421875 17.546875 -0.640625 
Q 12.796875 0.140625 7.71875 1.703125 
L 7.71875 11.625 
Q 12.109375 9.234375 16.796875 8.0625 
Q 21.484375 6.890625 26.703125 6.890625 
Q 35.15625 6.890625 40.078125 11.328125 
Q 45.015625 15.765625 45.015625 23.390625 
Q 45.015625 31 40.078125 35.4375 
Q 35.15625 39.890625 26.703125 39.890625 
Q 22.75 39.890625 18.8125 39.015625 
Q 14.890625 38.140625 10.796875 36.28125 
z
" id="DejaVuSans-53"/>
       </defs>
       <use xlink:href="#DejaVuSans-8722"/>
       <use x="83.789062" xlink:href="#DejaVuSans-53"/>
      </g>
     </g>
    </g>
    <g id="ytick_3">
     <g id="line2d_7">
      <g>
       <use style="stroke:#000000;stroke-width:0.8;" x="36" xlink:href="#m7b55fa47a7" y="157.166827"/>
      </g>
     </g>
     <g id="text_8">
      <!-- 0 -->
      <g transform="translate(22.6375 160.966046)scale(0.1 -0.1)">
       <use xlink:href="#DejaVuSans-48"/>
      </g>
     </g>
    </g>
    <g id="ytick_4">
     <g id="line2d_8">
      <g>
       <use style="stroke:#000000;stroke-width:0.8;" x="36" xlink:href="#m7b55fa47a7" y="120.072724"/>
      </g>
     </g>
     <g id="text_9">
      <!-- 5 -->
      <g transform="translate(22.6375 123.871942)scale(0.1 -0.1)">
       <use xlink:href="#DejaVuSans-53"/>
      </g>
     </g>
    </g>
    <g id="ytick_5">
     <g id="line2d_9">
      <g>
       <use style="stroke:#000000;stroke-width:0.8;" x="36" xlink:href="#m7b55fa47a7" y="82.97862"/>
      </g>
     </g>
     <g id="text_10">
      <!-- 10 -->
      <g transform="translate(16.275 86.777839)scale(0.1 -0.1)">
       <use xlink:href="#DejaVuSans-49"/>
       <use x="63.623047" xlink:href="#DejaVuSans-48"/>
      </g>
     </g>
    </g>
    <g id="ytick_6">
     <g id="line2d_10">
      <g>
       <use style="stroke:#000000;stroke-width:0.8;" x="36" xlink:href="#m7b55fa47a7" y="45.884517"/>
      </g>
     </g>
     <g id="text_11">
      <!-- 15 -->
      <g transform="translate(16.275 49.683735)scale(0.1 -0.1)">
       <use xlink:href="#DejaVuSans-49"/>
       <use x="63.623047" xlink:href="#DejaVuSans-53"/>
      </g>
     </g>
    </g>
    <g id="text_12">
     <!-- Density (log2) -->
     <g transform="translate(1.815625 180.743125)rotate(-90)scale(0.1 -0.1)">
      <defs>
       <path d="M 19.671875 64.796875 
L 19.671875 8.109375 
L 31.59375 8.109375 
Q 46.6875 8.109375 53.6875 14.9375 
Q 60.6875 21.78125 60.6875 36.53125 
Q 60.6875 51.171875 53.6875 57.984375 
Q 46.6875 64.796875 31.59375 64.796875 
z
M 9.8125 72.90625 
L 30.078125 72.90625 
Q 51.265625 72.90625 61.171875 64.09375 
Q 71.09375 55.28125 71.09375 36.53125 
Q 71.09375 17.671875 61.125 8.828125 
Q 51.171875 0 30.078125 0 
L 9.8125 0 
z
" id="DejaVuSans-68"/>
       <path d="M 44.28125 53.078125 
L 44.28125 44.578125 
Q 40.484375 46.53125 36.375 47.5 
Q 32.28125 48.484375 27.875 48.484375 
Q 21.1875 48.484375 17.84375 46.4375 
Q 14.5 44.390625 14.5 40.28125 
Q 14.5 37.15625 16.890625 35.375 
Q 19.28125 33.59375 26.515625 31.984375 
L 29.59375 31.296875 
Q 39.15625 29.25 43.1875 25.515625 
Q 47.21875 21.78125 47.21875 15.09375 
Q 47.21875 7.46875 41.1875 3.015625 
Q 35.15625 -1.421875 24.609375 -1.421875 
Q 20.21875 -1.421875 15.453125 -0.5625 
Q 10.6875 0.296875 5.421875 2 
L 5.421875 11.28125 
Q 10.40625 8.6875 15.234375 7.390625 
Q 20.0625 6.109375 24.8125 6.109375 
Q 31.15625 6.109375 34.5625 8.28125 
Q 37.984375 10.453125 37.984375 14.40625 
Q 37.984375 18.0625 35.515625 20.015625 
Q 33.0625 21.96875 24.703125 23.78125 
L 21.578125 24.515625 
Q 13.234375 26.265625 9.515625 29.90625 
Q 5.8125 33.546875 5.8125 39.890625 
Q 5.8125 47.609375 11.28125 51.796875 
Q 16.75 56 26.8125 56 
Q 31.78125 56 36.171875 55.265625 
Q 40.578125 54.546875 44.28125 53.078125 
z
" id="DejaVuSans-115"/>
       <path d="M 32.171875 -5.078125 
Q 28.375 -14.84375 24.75 -17.8125 
Q 21.140625 -20.796875 15.09375 -20.796875 
L 7.90625 -20.796875 
L 7.90625 -13.28125 
L 13.1875 -13.28125 
Q 16.890625 -13.28125 18.9375 -11.515625 
Q 21 -9.765625 23.484375 -3.21875 
L 25.09375 0.875 
L 2.984375 54.6875 
L 12.5 54.6875 
L 29.59375 11.921875 
L 46.6875 54.6875 
L 56.203125 54.6875 
z
" id="DejaVuSans-121"/>
       <path id="DejaVuSans-32"/>
       <path d="M 31 75.875 
Q 24.46875 64.65625 21.28125 53.65625 
Q 18.109375 42.671875 18.109375 31.390625 
Q 18.109375 20.125 21.3125 9.0625 
Q 24.515625 -2 31 -13.1875 
L 23.1875 -13.1875 
Q 15.875 -1.703125 12.234375 9.375 
Q 8.59375 20.453125 8.59375 31.390625 
Q 8.59375 42.28125 12.203125 53.3125 
Q 15.828125 64.359375 23.1875 75.875 
z
" id="DejaVuSans-40"/>
       <path d="M 9.421875 75.984375 
L 18.40625 75.984375 
L 18.40625 0 
L 9.421875 0 
z
" id="DejaVuSans-108"/>
       <path d="M 45.40625 27.984375 
Q 45.40625 37.75 41.375 43.109375 
Q 37.359375 48.484375 30.078125 48.484375 
Q 22.859375 48.484375 18.828125 43.109375 
Q 14.796875 37.75 14.796875 27.984375 
Q 14.796875 18.265625 18.828125 12.890625 
Q 22.859375 7.515625 30.078125 7.515625 
Q 37.359375 7.515625 41.375 12.890625 
Q 45.40625 18.265625 45.40625 27.984375 
z
M 54.390625 6.78125 
Q 54.390625 -7.171875 48.1875 -13.984375 
Q 42 -20.796875 29.203125 -20.796875 
Q 24.46875 -20.796875 20.265625 -20.09375 
Q 16.0625 -19.390625 12.109375 -17.921875 
L 12.109375 -9.1875 
Q 16.0625 -11.328125 19.921875 -12.34375 
Q 23.78125 -13.375 27.78125 -13.375 
Q 36.625 -13.375 41.015625 -8.765625 
Q 45.40625 -4.15625 45.40625 5.171875 
L 45.40625 9.625 
Q 42.625 4.78125 38.28125 2.390625 
Q 33.9375 0 27.875 0 
Q 17.828125 0 11.671875 7.65625 
Q 5.515625 15.328125 5.515625 27.984375 
Q 5.515625 40.671875 11.671875 48.328125 
Q 17.828125 56 27.875 56 
Q 33.9375 56 38.28125 53.609375 
Q 42.625 51.21875 45.40625 46.390625 
L 45.40625 54.6875 
L 54.390625 54.6875 
z
" id="DejaVuSans-103"/>
       <path d="M 8.015625 75.875 
L 15.828125 75.875 
Q 23.140625 64.359375 26.78125 53.3125 
Q 30.421875 42.28125 30.421875 31.390625 
Q 30.421875 20.453125 26.78125 9.375 
Q 23.140625 -1.703125 15.828125 -13.1875 
L 8.015625 -13.1875 
Q 14.5 -2 17.703125 9.0625 
Q 20.90625 20.125 20.90625 31.390625 
Q 20.90625 42.671875 17.703125 53.65625 
Q 14.5 64.65625 8.015625 75.875 
z
" id="DejaVuSans-41"/>
      </defs>
      <use xlink:href="#DejaVuSans-68"/>
      <use x="77.001953" xlink:href="#DejaVuSans-101"/>
      <use x="138.525391" xlink:href="#DejaVuSans-110"/>
      <use x="201.904297" xlink:href="#DejaVuSans-115"/>
      <use x="254.003906" xlink:href="#DejaVuSans-105"/>
      <use x="281.787109" xlink:href="#DejaVuSans-116"/>
      <use x="320.996094" xlink:href="#DejaVuSans-121"/>
      <use x="380.175781" xlink:href="#DejaVuSans-32"/>
      <use x="411.962891" xlink:href="#DejaVuSans-40"/>
      <use x="450.976562" xlink:href="#DejaVuSans-108"/>
      <use x="478.759766" xlink:href="#DejaVuSans-111"/>
      <use x="539.941406" xlink:href="#DejaVuSans-103"/>
      <use x="603.417969" xlink:href="#DejaVuSans-50"/>
      <use x="667.041016" xlink:href="#DejaVuSans-41"/>
     </g>
    </g>
   </g>
   <g id="line2d_11">
    <path clip-path="url(#pb8d1147b45)" d="M 41.8032 157.166827 
L 63.9 157.166827 
" style="fill:none;stroke:#4d4d4d;stroke-dasharray:0.375,0.375;stroke-dashoffset:0;stroke-width:0.5;"/>
   </g>
   <g id="line2d_12">
    <path clip-path="url(#pb8d1147b45)" d="M 41.8032 157.166827 
L 63.9 157.166827 
" style="fill:none;stroke:#4d4d4d;stroke-dasharray:0.75,0.75;stroke-dashoffset:0;stroke-width:0.5;"/>
   </g>
   <g id="line2d_13">
    <path clip-path="url(#pb8d1147b45)" d="M 57.214119 99.320947 
L 63.9 99.320947 
" style="fill:none;stroke:#4d4d4d;stroke-dasharray:0.375,0.375;stroke-dashoffset:0;stroke-width:0.5;"/>
   </g>
   <g id="line2d_14">
    <path clip-path="url(#pb8d1147b45)" d="M 63.9 157.166827 
L 84.333533 157.166827 
" style="fill:none;stroke:#4d4d4d;stroke-dasharray:0.375,0.375;stroke-dashoffset:0;stroke-width:0.5;"/>
   </g>
   <g id="line2d_15">
    <path clip-path="url(#pb8d1147b45)" d="M 63.9 157.166827 
L 84.333533 157.166827 
" style="fill:none;stroke:#4d4d4d;stroke-dasharray:0.75,0.75;stroke-dashoffset:0;stroke-width:0.5;"/>
   </g>
   <g id="line2d_16">
    <path clip-path="url(#pb8d1147b45)" d="M 63.9 99.320947 
L 70.983291 99.320947 
" style="fill:none;stroke:#4d4d4d;stroke-dasharray:0.375,0.375;stroke-dashoffset:0;stroke-width:0.5;"/>
   </g>
   <g id="line2d_17">
    <path clip-path="url(#pb8d1147b45)" d="M 110.706283 129.071883 
L 119.7 129.071883 
" style="fill:none;stroke:#4d4d4d;stroke-dasharray:0.375,0.375;stroke-dashoffset:0;stroke-width:0.5;"/>
   </g>
   <g id="line2d_18">
    <path clip-path="url(#pb8d1147b45)" d="M 112.107108 98.598873 
L 119.7 98.598873 
" style="fill:none;stroke:#4d4d4d;stroke-dasharray:0.75,0.75;stroke-dashoffset:0;stroke-width:0.5;"/>
   </g>
   <g id="line2d_19">
    <path clip-path="url(#pb8d1147b45)" d="M 98.056694 78.603 
L 119.7 78.603 
" style="fill:none;stroke:#4d4d4d;stroke-dasharray:0.375,0.375;stroke-dashoffset:0;stroke-width:0.5;"/>
   </g>
   <g id="line2d_20">
    <path clip-path="url(#pb8d1147b45)" d="M 119.7 130.173819 
L 128.010581 130.173819 
" style="fill:none;stroke:#4d4d4d;stroke-dasharray:0.375,0.375;stroke-dashoffset:0;stroke-width:0.5;"/>
   </g>
   <g id="line2d_21">
    <path clip-path="url(#pb8d1147b45)" d="M 119.7 101.66292 
L 127.439737 101.66292 
" style="fill:none;stroke:#4d4d4d;stroke-dasharray:0.75,0.75;stroke-dashoffset:0;stroke-width:0.5;"/>
   </g>
   <g id="line2d_22">
    <path clip-path="url(#pb8d1147b45)" d="M 119.7 79.022163 
L 140.070588 79.022163 
" style="fill:none;stroke:#4d4d4d;stroke-dasharray:0.375,0.375;stroke-dashoffset:0;stroke-width:0.5;"/>
   </g>
   <g id="line2d_23">
    <path clip-path="url(#pb8d1147b45)" d="M 168.019165 147.772226 
L 175.5 147.772226 
" style="fill:none;stroke:#4d4d4d;stroke-dasharray:0.375,0.375;stroke-dashoffset:0;stroke-width:0.5;"/>
   </g>
   <g id="line2d_24">
    <path clip-path="url(#pb8d1147b45)" d="M 165.615889 107.15396 
L 175.5 107.15396 
" style="fill:none;stroke:#4d4d4d;stroke-dasharray:0.75,0.75;stroke-dashoffset:0;stroke-width:0.5;"/>
   </g>
   <g id="line2d_25">
    <path clip-path="url(#pb8d1147b45)" d="M 154.25876 88.06029 
L 175.5 88.06029 
" style="fill:none;stroke:#4d4d4d;stroke-dasharray:0.375,0.375;stroke-dashoffset:0;stroke-width:0.5;"/>
   </g>
   <g id="line2d_26">
    <path clip-path="url(#pb8d1147b45)" d="M 175.5 155.138292 
L 197.304564 155.138292 
" style="fill:none;stroke:#4d4d4d;stroke-dasharray:0.375,0.375;stroke-dashoffset:0;stroke-width:0.5;"/>
   </g>
   <g id="line2d_27">
    <path clip-path="url(#pb8d1147b45)" d="M 175.5 107.15396 
L 185.799407 107.15396 
" style="fill:none;stroke:#4d4d4d;stroke-dasharray:0.75,0.75;stroke-dashoffset:0;stroke-width:0.5;"/>
   </g>
   <g id="line2d_28">
    <path clip-path="url(#pb8d1147b45)" d="M 175.5 88.06029 
L 195.234179 88.06029 
" style="fill:none;stroke:#4d4d4d;stroke-dasharray:0.375,0.375;stroke-dashoffset:0;stroke-width:0.5;"/>
   </g>
   <g id="line2d_29">
    <path clip-path="url(#pb8d1147b45)" d="M 214.250729 154.149852 
L 231.3 154.149852 
" style="fill:none;stroke:#4d4d4d;stroke-dasharray:0.375,0.375;stroke-dashoffset:0;stroke-width:0.5;"/>
   </g>
   <g id="line2d_30">
    <path clip-path="url(#pb8d1147b45)" d="M 222.413518 113.505658 
L 231.3 113.505658 
" style="fill:none;stroke:#4d4d4d;stroke-dasharray:0.75,0.75;stroke-dashoffset:0;stroke-width:0.5;"/>
   </g>
   <g id="line2d_31">
    <path clip-path="url(#pb8d1147b45)" d="M 214.219808 91.408849 
L 231.3 91.408849 
" style="fill:none;stroke:#4d4d4d;stroke-dasharray:0.375,0.375;stroke-dashoffset:0;stroke-width:0.5;"/>
   </g>
   <g id="line2d_32">
    <path clip-path="url(#pb8d1147b45)" d="M 231.3 157.166827 
L 253.3968 157.166827 
" style="fill:none;stroke:#4d4d4d;stroke-dasharray:0.375,0.375;stroke-dashoffset:0;stroke-width:0.5;"/>
   </g>
   <g id="line2d_33">
    <path clip-path="url(#pb8d1147b45)" d="M 231.3 113.505658 
L 240.795798 113.505658 
" style="fill:none;stroke:#4d4d4d;stroke-dasharray:0.75,0.75;stroke-dashoffset:0;stroke-width:0.5;"/>
   </g>
   <g id="line2d_34">
    <path clip-path="url(#pb8d1147b45)" d="M 231.3 92.834746 
L 247.013734 92.834746 
" style="fill:none;stroke:#4d4d4d;stroke-dasharray:0.375,0.375;stroke-dashoffset:0;stroke-width:0.5;"/>
   </g>
   <g id="patch_5">
    <path d="M 36 256.32 
L 36 34.56 
" style="fill:none;stroke:#000000;stroke-linecap:square;stroke-linejoin:miter;stroke-width:0.8;"/>
   </g>
   <g id="patch_6">
    <path d="M 259.2 256.32 
L 259.2 34.56 
" style="fill:none;stroke:#000000;stroke-linecap:square;stroke-linejoin:miter;stroke-width:0.8;"/>
   </g>
   <g id="patch_7">
    <path d="M 36 256.32 
L 259.2 256.32 
" style="fill:none;stroke:#000000;stroke-linecap:square;stroke-linejoin:miter;stroke-width:0.8;"/>
   </g>
   <g id="patch_8">
    <path d="M 36 34.56 
L 259.2 34.56 
" style="fill:none;stroke:#000000;stroke-linecap:square;stroke-linejoin:miter;stroke-width:0.8;"/>
   </g>
   <g id="text_13">
    <!-- Density at +1 nucleosome -->
    <g transform="translate(67.9275 28.56)scale(0.12 -0.12)">
     <defs>
      <path d="M 46 62.703125 
L 46 35.5 
L 73.1875 35.5 
L 73.1875 27.203125 
L 46 27.203125 
L 46 0 
L 37.796875 0 
L 37.796875 27.203125 
L 10.59375 27.203125 
L 10.59375 35.5 
L 37.796875 35.5 
L 37.796875 62.703125 
z
" id="DejaVuSans-43"/>
      <path d="M 8.5 21.578125 
L 8.5 54.6875 
L 17.484375 54.6875 
L 17.484375 21.921875 
Q 17.484375 14.15625 20.5 10.265625 
Q 23.53125 6.390625 29.59375 6.390625 
Q 36.859375 6.390625 41.078125 11.03125 
Q 45.3125 15.671875 45.3125 23.6875 
L 45.3125 54.6875 
L 54.296875 54.6875 
L 54.296875 0 
L 45.3125 0 
L 45.3125 8.40625 
Q 42.046875 3.421875 37.71875 1 
Q 33.40625 -1.421875 27.6875 -1.421875 
Q 18.265625 -1.421875 13.375 4.4375 
Q 8.5 10.296875 8.5 21.578125 
z
M 31.109375 56 
z
" id="DejaVuSans-117"/>
     </defs>
     <use xlink:href="#DejaVuSans-68"/>
     <use x="77.001953" xlink:href="#DejaVuSans-101"/>
     <use x="138.525391" xlink:href="#DejaVuSans-110"/>
     <use x="201.904297" xlink:href="#DejaVuSans-115"/>
     <use x="254.003906" xlink:href="#DejaVuSans-105"/>
     <use x="281.787109" xlink:href="#DejaVuSans-116"/>
     <use x="320.996094" xlink:href="#DejaVuSans-121"/>
     <use x="380.175781" xlink:href="#DejaVuSans-32"/>
     <use x="411.962891" xlink:href="#DejaVuSans-97"/>
     <use x="473.242188" xlink:href="#DejaVuSans-116"/>
     <use x="512.451172" xlink:href="#DejaVuSans-32"/>
     <use x="544.238281" xlink:href="#DejaVuSans-43"/>
     <use x="628.027344" xlink:href="#DejaVuSans-49"/>
     <use x="691.650391" xlink:href="#DejaVuSans-32"/>
     <use x="723.4375" xlink:href="#DejaVuSans-110"/>
     <use x="786.816406" xlink:href="#DejaVuSans-117"/>
     <use x="850.195312" xlink:href="#DejaVuSans-99"/>
     <use x="905.175781" xlink:href="#DejaVuSans-108"/>
     <use x="932.958984" xlink:href="#DejaVuSans-101"/>
     <use x="994.482422" xlink:href="#DejaVuSans-111"/>
     <use x="1055.664062" xlink:href="#DejaVuSans-115"/>
     <use x="1107.763672" xlink:href="#DejaVuSans-111"/>
     <use x="1168.945312" xlink:href="#DejaVuSans-109"/>
     <use x="1266.357422" xlink:href="#DejaVuSans-101"/>
    </g>
   </g>
   <g id="legend_1">
    <g id="patch_9">
     <path d="M 177.309375 86.594375 
L 252.2 86.594375 
Q 254.2 86.594375 254.2 84.594375 
L 254.2 41.56 
Q 254.2 39.56 252.2 39.56 
L 177.309375 39.56 
Q 175.309375 39.56 175.309375 41.56 
L 175.309375 84.594375 
Q 175.309375 86.594375 177.309375 86.594375 
z
" style="fill:#ffffff;opacity:0.8;stroke:#cccccc;stroke-linejoin:miter;"/>
    </g>
    <g id="text_14">
     <!-- split-category -->
     <g transform="translate(180.335156 51.158438)scale(0.1 -0.1)">
      <defs>
       <path d="M 18.109375 8.203125 
L 18.109375 -20.796875 
L 9.078125 -20.796875 
L 9.078125 54.6875 
L 18.109375 54.6875 
L 18.109375 46.390625 
Q 20.953125 51.265625 25.265625 53.625 
Q 29.59375 56 35.59375 56 
Q 45.5625 56 51.78125 48.09375 
Q 58.015625 40.1875 58.015625 27.296875 
Q 58.015625 14.40625 51.78125 6.484375 
Q 45.5625 -1.421875 35.59375 -1.421875 
Q 29.59375 -1.421875 25.265625 0.953125 
Q 20.953125 3.328125 18.109375 8.203125 
z
M 48.6875 27.296875 
Q 48.6875 37.203125 44.609375 42.84375 
Q 40.53125 48.484375 33.40625 48.484375 
Q 26.265625 48.484375 22.1875 42.84375 
Q 18.109375 37.203125 18.109375 27.296875 
Q 18.109375 17.390625 22.1875 11.75 
Q 26.265625 6.109375 33.40625 6.109375 
Q 40.53125 6.109375 44.609375 11.75 
Q 48.6875 17.390625 48.6875 27.296875 
z
" id="DejaVuSans-112"/>
       <path d="M 41.109375 46.296875 
Q 39.59375 47.171875 37.8125 47.578125 
Q 36.03125 48 33.890625 48 
Q 26.265625 48 22.1875 43.046875 
Q 18.109375 38.09375 18.109375 28.8125 
L 18.109375 0 
L 9.078125 0 
L 9.078125 54.6875 
L 18.109375 54.6875 
L 18.109375 46.1875 
Q 20.953125 51.171875 25.484375 53.578125 
Q 30.03125 56 36.53125 56 
Q 37.453125 56 38.578125 55.875 
Q 39.703125 55.765625 41.0625 55.515625 
z
" id="DejaVuSans-114"/>
      </defs>
      <use xlink:href="#DejaVuSans-115"/>
      <use x="52.099609" xlink:href="#DejaVuSans-112"/>
      <use x="115.576172" xlink:href="#DejaVuSans-108"/>
      <use x="143.359375" xlink:href="#DejaVuSans-105"/>
      <use x="171.142578" xlink:href="#DejaVuSans-116"/>
      <use x="210.351562" xlink:href="#DejaVuSans-45"/>
      <use x="246.435547" xlink:href="#DejaVuSans-99"/>
      <use x="301.416016" xlink:href="#DejaVuSans-97"/>
      <use x="362.695312" xlink:href="#DejaVuSans-116"/>
      <use x="401.904297" xlink:href="#DejaVuSans-101"/>
      <use x="463.427734" xlink:href="#DejaVuSans-103"/>
      <use x="526.904297" xlink:href="#DejaVuSans-111"/>
      <use x="588.085938" xlink:href="#DejaVuSans-114"/>
      <use x="629.199219" xlink:href="#DejaVuSans-121"/>
     </g>
    </g>
    <g id="patch_10">
     <path d="M 179.309375 65.836563 
L 199.309375 65.836563 
L 199.309375 58.836563 
L 179.309375 58.836563 
z
" style="fill:#808080;stroke:#4d4d4d;stroke-linejoin:miter;stroke-width:0.25;"/>
    </g>
    <g id="text_15">
     <!-- Proximal -->
     <g transform="translate(207.309375 65.836563)scale(0.1 -0.1)">
      <defs>
       <path d="M 19.671875 64.796875 
L 19.671875 37.40625 
L 32.078125 37.40625 
Q 38.96875 37.40625 42.71875 40.96875 
Q 46.484375 44.53125 46.484375 51.125 
Q 46.484375 57.671875 42.71875 61.234375 
Q 38.96875 64.796875 32.078125 64.796875 
z
M 9.8125 72.90625 
L 32.078125 72.90625 
Q 44.34375 72.90625 50.609375 67.359375 
Q 56.890625 61.8125 56.890625 51.125 
Q 56.890625 40.328125 50.609375 34.8125 
Q 44.34375 29.296875 32.078125 29.296875 
L 19.671875 29.296875 
L 19.671875 0 
L 9.8125 0 
z
" id="DejaVuSans-80"/>
       <path d="M 54.890625 54.6875 
L 35.109375 28.078125 
L 55.90625 0 
L 45.3125 0 
L 29.390625 21.484375 
L 13.484375 0 
L 2.875 0 
L 24.125 28.609375 
L 4.6875 54.6875 
L 15.28125 54.6875 
L 29.78125 35.203125 
L 44.28125 54.6875 
z
" id="DejaVuSans-120"/>
      </defs>
      <use xlink:href="#DejaVuSans-80"/>
      <use x="58.552734" xlink:href="#DejaVuSans-114"/>
      <use x="97.416016" xlink:href="#DejaVuSans-111"/>
      <use x="155.472656" xlink:href="#DejaVuSans-120"/>
      <use x="214.652344" xlink:href="#DejaVuSans-105"/>
      <use x="242.435547" xlink:href="#DejaVuSans-109"/>
      <use x="339.847656" xlink:href="#DejaVuSans-97"/>
      <use x="401.126953" xlink:href="#DejaVuSans-108"/>
     </g>
    </g>
    <g id="patch_11">
     <path d="M 179.309375 80.514688 
L 199.309375 80.514688 
L 199.309375 73.514688 
L 179.309375 73.514688 
z
" style="fill:#e6e6e6;stroke:#4d4d4d;stroke-linejoin:miter;stroke-width:0.25;"/>
    </g>
    <g id="text_16">
     <!-- Distal -->
     <g transform="translate(207.309375 80.514688)scale(0.1 -0.1)">
      <use xlink:href="#DejaVuSans-68"/>
      <use x="77.001953" xlink:href="#DejaVuSans-105"/>
      <use x="104.785156" xlink:href="#DejaVuSans-115"/>
      <use x="156.884766" xlink:href="#DejaVuSans-116"/>
      <use x="196.09375" xlink:href="#DejaVuSans-97"/>
      <use x="257.373047" xlink:href="#DejaVuSans-108"/>
     </g>
    </g>
   </g>
  </g>
 </g>
 <defs>
  <clipPath id="pb8d1147b45">
   <rect height="221.76" width="223.2" x="36" y="34.56"/>
  </clipPath>
 </defs>
</svg>
