<?xml version="1.0" encoding="utf-8" standalone="no"?>
<!DOCTYPE svg PUBLIC "-//W3C//DTD SVG 1.1//EN"
  "http://www.w3.org/Graphics/SVG/1.1/DTD/svg11.dtd">
<svg xmlns:xlink="http://www.w3.org/1999/xlink" width="576pt" height="288pt" viewBox="0 0 576 288" xmlns="http://www.w3.org/2000/svg" version="1.1">
 <metadata>
  <rdf:RDF xmlns:dc="http://purl.org/dc/elements/1.1/" xmlns:cc="http://creativecommons.org/ns#" xmlns:rdf="http://www.w3.org/1999/02/22-rdf-syntax-ns#">
   <cc:Work>
    <dc:type rdf:resource="http://purl.org/dc/dcmitype/StillImage"/>
    <dc:date>2024-11-20T12:41:39.548644</dc:date>
    <dc:format>image/svg+xml</dc:format>
    <dc:creator>
     <cc:Agent>
      <dc:title>Matplotlib v3.5.3, https://matplotlib.org/</dc:title>
     </cc:Agent>
    </dc:creator>
   </cc:Work>
  </rdf:RDF>
 </metadata>
 <defs>
  <style type="text/css">*{stroke-linejoin: round; stroke-linecap: butt}</style>
 </defs>
 <g id="figure_1">
  <g id="patch_1">
   <path d="M 0 288 
L 576 288 
L 576 0 
L 0 0 
L 0 288 
z
" style="fill: none"/>
  </g>
  <g id="axes_1">
   <g id="patch_2">
    <path d="M 72 256.32 
L 518.4 256.32 
L 518.4 34.56 
L 72 34.56 
L 72 256.32 
z
" style="fill: none"/>
   </g>
   <g id="PolyCollection_1">
    <defs>
     <path id="m1c9dc07da1" d="M 100.202539 -49.950817 
L 99.597461 -49.950817 
L 99.618137 -51.79449 
L 99.672066 -53.638162 
L 99.74001 -55.481834 
L 99.802526 -57.325507 
L 99.848454 -59.169179 
L 99.87634 -61.012851 
L 99.890573 -62.856524 
L 99.89674 -64.700196 
L 99.899021 -66.543868 
L 99.899745 -68.387541 
L 99.899942 -70.231213 
L 99.899989 -72.074885 
L 99.899998 -73.918558 
L 99.9 -75.76223 
L 99.9 -77.605902 
L 99.9 -79.449575 
L 99.9 -81.293247 
L 99.9 -83.136919 
L 99.899999 -84.980592 
L 99.899997 -86.824264 
L 99.899989 -88.667936 
L 99.89996 -90.511609 
L 99.899875 -92.355281 
L 99.899656 -94.198953 
L 99.899137 -96.042626 
L 99.89799 -97.886298 
L 99.895559 -99.72997 
L 99.890608 -101.573643 
L 99.88113 -103.417315 
L 99.86466 -105.260987 
L 99.83944 -107.10466 
L 99.805698 -108.948332 
L 99.76405 -110.792004 
L 99.705522 -112.635677 
L 99.586452 -114.479349 
L 99.284913 -116.323021 
L 98.550914 -118.166694 
L 96.998132 -120.010366 
L 94.220011 -121.854038 
L 90.079366 -123.697711 
L 85.060443 -125.541383 
L 80.379294 -127.385055 
L 77.58 -129.228728 
L 77.731906 -131.0724 
L 80.781016 -132.916072 
L 85.583307 -134.759745 
L 90.592308 -136.603417 
L 94.646191 -138.447089 
L 97.324943 -140.290762 
L 98.803823 -142.134434 
L 99.49454 -143.978106 
L 99.76958 -145.821779 
L 99.863465 -147.665451 
L 99.891063 -149.509124 
L 99.898082 -151.352796 
L 99.899636 -153.196468 
L 99.899938 -155.040141 
L 99.89999 -156.883813 
L 99.899999 -158.727485 
L 99.9 -160.571158 
L 99.9 -162.41483 
L 99.9 -164.258502 
L 99.899999 -166.102175 
L 99.899995 -167.945847 
L 99.899968 -169.789519 
L 99.899807 -171.633192 
L 99.898997 -173.476864 
L 99.895485 -175.320536 
L 99.88235 -177.164209 
L 99.84011 -179.007881 
L 99.723565 -180.851553 
L 99.448643 -182.695226 
L 98.896935 -184.538898 
L 97.962116 -186.38257 
L 96.64082 -188.226243 
L 95.116174 -190.069915 
L 93.743027 -191.913587 
L 92.892521 -193.75726 
L 92.743612 -195.600932 
L 93.189578 -197.444604 
L 93.941696 -199.288277 
L 94.731853 -201.131949 
L 95.440113 -202.975621 
L 96.075852 -204.819294 
L 96.684391 -206.662966 
L 97.281956 -208.506638 
L 97.850722 -210.350311 
L 98.362437 -212.193983 
L 98.796509 -214.037655 
L 99.144612 -215.881328 
L 99.408588 -217.725 
L 99.597308 -219.568672 
L 99.723824 -221.412345 
L 99.802819 -223.256017 
L 99.848449 -225.099689 
L 99.872775 -226.943362 
L 99.884891 -228.787034 
L 99.890801 -230.630706 
L 99.893919 -232.474379 
L 99.906081 -232.474379 
L 99.906081 -232.474379 
L 99.909199 -230.630706 
L 99.915109 -228.787034 
L 99.927225 -226.943362 
L 99.951551 -225.099689 
L 99.997181 -223.256017 
L 100.076176 -221.412345 
L 100.202692 -219.568672 
L 100.391412 -217.725 
L 100.655388 -215.881328 
L 101.003491 -214.037655 
L 101.437563 -212.193983 
L 101.949278 -210.350311 
L 102.518044 -208.506638 
L 103.115609 -206.662966 
L 103.724148 -204.819294 
L 104.359887 -202.975621 
L 105.068147 -201.131949 
L 105.858304 -199.288277 
L 106.610422 -197.444604 
L 107.056388 -195.600932 
L 106.907479 -193.75726 
L 106.056973 -191.913587 
L 104.683826 -190.069915 
L 103.15918 -188.226243 
L 101.837884 -186.38257 
L 100.903065 -184.538898 
L 100.351357 -182.695226 
L 100.076435 -180.851553 
L 99.95989 -179.007881 
L 99.91765 -177.164209 
L 99.904515 -175.320536 
L 99.901003 -173.476864 
L 99.900193 -171.633192 
L 99.900032 -169.789519 
L 99.900005 -167.945847 
L 99.900001 -166.102175 
L 99.9 -164.258502 
L 99.9 -162.41483 
L 99.9 -160.571158 
L 99.900001 -158.727485 
L 99.90001 -156.883813 
L 99.900062 -155.040141 
L 99.900364 -153.196468 
L 99.901918 -151.352796 
L 99.908937 -149.509124 
L 99.936535 -147.665451 
L 100.03042 -145.821779 
L 100.30546 -143.978106 
L 100.996177 -142.134434 
L 102.475057 -140.290762 
L 105.153809 -138.447089 
L 109.207692 -136.603417 
L 114.216693 -134.759745 
L 119.018984 -132.916072 
L 122.068094 -131.0724 
L 122.22 -129.228728 
L 119.420706 -127.385055 
L 114.739557 -125.541383 
L 109.720634 -123.697711 
L 105.579989 -121.854038 
L 102.801868 -120.010366 
L 101.249086 -118.166694 
L 100.515087 -116.323021 
L 100.213548 -114.479349 
L 100.094478 -112.635677 
L 100.03595 -110.792004 
L 99.994302 -108.948332 
L 99.96056 -107.10466 
L 99.93534 -105.260987 
L 99.91887 -103.417315 
L 99.909392 -101.573643 
L 99.904441 -99.72997 
L 99.90201 -97.886298 
L 99.900863 -96.042626 
L 99.900344 -94.198953 
L 99.900125 -92.355281 
L 99.90004 -90.511609 
L 99.900011 -88.667936 
L 99.900003 -86.824264 
L 99.900001 -84.980592 
L 99.9 -83.136919 
L 99.9 -81.293247 
L 99.9 -79.449575 
L 99.9 -77.605902 
L 99.9 -75.76223 
L 99.900002 -73.918558 
L 99.900011 -72.074885 
L 99.900058 -70.231213 
L 99.900255 -68.387541 
L 99.900979 -66.543868 
L 99.90326 -64.700196 
L 99.909427 -62.856524 
L 99.92366 -61.012851 
L 99.951546 -59.169179 
L 99.997474 -57.325507 
L 100.05999 -55.481834 
L 100.127934 -53.638162 
L 100.181863 -51.79449 
L 100.202539 -49.950817 
z
" style="stroke: #4c4c4c; stroke-width: 0.5"/>
    </defs>
    <g clip-path="url(#p3bb54f8dfe)">
     <use xlink:href="#m1c9dc07da1" x="0" y="288" style="fill: #2020df; stroke: #4c4c4c; stroke-width: 0.5"/>
    </g>
   </g>
   <g id="PolyCollection_2">
    <defs>
     <path id="m7e9941b59e" d="M 155.792342 -41.76 
L 155.607658 -41.76 
L 155.547694 -43.642488 
L 155.478065 -45.524977 
L 155.416103 -47.407465 
L 155.38238 -49.289954 
L 155.389864 -51.172442 
L 155.436014 -53.054931 
L 155.504244 -54.937419 
L 155.573586 -56.819908 
L 155.628921 -58.702396 
L 155.665206 -60.584885 
L 155.685173 -62.467373 
L 155.6945 -64.349862 
L 155.698224 -66.23235 
L 155.699501 -68.114839 
L 155.699878 -69.997327 
L 155.699974 -71.879816 
L 155.699995 -73.762304 
L 155.699999 -75.644793 
L 155.7 -77.527281 
L 155.7 -79.40977 
L 155.7 -81.292258 
L 155.7 -83.174747 
L 155.699999 -85.057235 
L 155.699995 -86.939724 
L 155.699982 -88.822212 
L 155.699938 -90.704701 
L 155.699811 -92.587189 
L 155.699475 -94.469678 
L 155.698637 -96.352166 
L 155.69664 -98.234655 
L 155.692114 -100.117143 
L 155.682574 -101.999632 
L 155.664404 -103.88212 
L 155.633939 -105.764609 
L 155.589672 -107.647097 
L 155.533477 -109.529586 
L 155.46567 -111.412074 
L 155.367049 -113.294563 
L 155.163352 -115.177051 
L 154.678046 -117.05954 
L 153.603859 -118.942028 
L 151.556344 -120.824517 
L 148.272915 -122.707005 
L 143.926104 -124.589494 
L 139.34588 -126.471982 
L 135.867358 -128.354471 
L 134.732701 -130.236959 
L 136.387669 -132.119448 
L 140.206955 -134.001936 
L 144.875316 -135.884424 
L 149.112647 -137.766913 
L 152.207197 -139.649401 
L 154.084975 -141.53189 
L 155.047439 -143.414378 
L 155.468451 -145.296867 
L 155.626998 -147.179355 
L 155.679003 -149.061844 
L 155.694199 -150.944332 
L 155.698346 -152.826821 
L 155.699491 -154.709309 
L 155.699836 -156.591798 
L 155.699948 -158.474286 
L 155.699985 -160.356775 
L 155.699996 -162.239263 
L 155.699999 -164.121752 
L 155.699998 -166.00424 
L 155.69999 -167.886729 
L 155.699934 -169.769217 
L 155.699633 -171.651706 
L 155.698226 -173.534194 
L 155.692526 -175.416683 
L 155.672586 -177.299171 
L 155.612453 -179.18166 
L 155.456534 -181.064148 
L 155.110219 -182.946637 
L 154.454787 -184.829125 
L 153.406248 -186.711614 
L 152.006673 -188.594102 
L 150.483971 -190.476591 
L 149.199344 -192.359079 
L 148.475016 -194.241568 
L 148.415506 -196.124056 
L 148.870132 -198.006545 
L 149.566646 -199.889033 
L 150.291416 -201.771522 
L 150.970056 -203.65401 
L 151.622577 -205.536499 
L 152.278237 -207.418987 
L 152.931839 -209.301476 
L 153.551343 -211.183964 
L 154.102301 -213.066453 
L 154.562717 -214.948941 
L 154.925501 -216.83143 
L 155.195446 -218.713918 
L 155.385218 -220.596407 
L 155.511424 -222.478895 
L 155.591081 -224.361383 
L 155.639055 -226.243872 
L 155.666826 -228.12636 
L 155.733174 -228.12636 
L 155.733174 -228.12636 
L 155.760945 -226.243872 
L 155.808919 -224.361383 
L 155.888576 -222.478895 
L 156.014782 -220.596407 
L 156.204554 -218.713918 
L 156.474499 -216.83143 
L 156.837283 -214.948941 
L 157.297699 -213.066453 
L 157.848657 -211.183964 
L 158.468161 -209.301476 
L 159.121763 -207.418987 
L 159.777423 -205.536499 
L 160.429944 -203.65401 
L 161.108584 -201.771522 
L 161.833354 -199.889033 
L 162.529868 -198.006545 
L 162.984494 -196.124056 
L 162.924984 -194.241568 
L 162.200656 -192.359079 
L 160.916029 -190.476591 
L 159.393327 -188.594102 
L 157.993752 -186.711614 
L 156.945213 -184.829125 
L 156.289781 -182.946637 
L 155.943466 -181.064148 
L 155.787547 -179.18166 
L 155.727414 -177.299171 
L 155.707474 -175.416683 
L 155.701774 -173.534194 
L 155.700367 -171.651706 
L 155.700066 -169.769217 
L 155.70001 -167.886729 
L 155.700002 -166.00424 
L 155.700001 -164.121752 
L 155.700004 -162.239263 
L 155.700015 -160.356775 
L 155.700052 -158.474286 
L 155.700164 -156.591798 
L 155.700509 -154.709309 
L 155.701654 -152.826821 
L 155.705801 -150.944332 
L 155.720997 -149.061844 
L 155.773002 -147.179355 
L 155.931549 -145.296867 
L 156.352561 -143.414378 
L 157.315025 -141.53189 
L 159.192803 -139.649401 
L 162.287353 -137.766913 
L 166.524684 -135.884424 
L 171.193045 -134.001936 
L 175.012331 -132.119448 
L 176.667299 -130.236959 
L 175.532642 -128.354471 
L 172.05412 -126.471982 
L 167.473896 -124.589494 
L 163.127085 -122.707005 
L 159.843656 -120.824517 
L 157.796141 -118.942028 
L 156.721954 -117.05954 
L 156.236648 -115.177051 
L 156.032951 -113.294563 
L 155.93433 -111.412074 
L 155.866523 -109.529586 
L 155.810328 -107.647097 
L 155.766061 -105.764609 
L 155.735596 -103.88212 
L 155.717426 -101.999632 
L 155.707886 -100.117143 
L 155.70336 -98.234655 
L 155.701363 -96.352166 
L 155.700525 -94.469678 
L 155.700189 -92.587189 
L 155.700062 -90.704701 
L 155.700018 -88.822212 
L 155.700005 -86.939724 
L 155.700001 -85.057235 
L 155.7 -83.174747 
L 155.7 -81.292258 
L 155.7 -79.40977 
L 155.7 -77.527281 
L 155.700001 -75.644793 
L 155.700005 -73.762304 
L 155.700026 -71.879816 
L 155.700122 -69.997327 
L 155.700499 -68.114839 
L 155.701776 -66.23235 
L 155.7055 -64.349862 
L 155.714827 -62.467373 
L 155.734794 -60.584885 
L 155.771079 -58.702396 
L 155.826414 -56.819908 
L 155.895756 -54.937419 
L 155.963986 -53.054931 
L 156.010136 -51.172442 
L 156.01762 -49.289954 
L 155.983897 -47.407465 
L 155.921935 -45.524977 
L 155.852306 -43.642488 
L 155.792342 -41.76 
z
" style="stroke: #4c4c4c; stroke-width: 0.5"/>
    </defs>
    <g clip-path="url(#p3bb54f8dfe)">
     <use xlink:href="#m7e9941b59e" x="0" y="288" style="fill: #df2020; stroke: #4c4c4c; stroke-width: 0.5"/>
    </g>
   </g>
   <g id="PolyCollection_3">
    <defs>
     <path id="m35feec2f4b" d="M 211.565369 -60.755528 
L 211.434631 -60.755528 
L 211.401133 -62.592433 
L 211.356868 -64.429337 
L 211.299706 -66.266242 
L 211.227912 -68.103147 
L 211.1427 -69.940052 
L 211.051797 -71.776956 
L 210.971154 -73.613861 
L 210.921653 -75.450766 
L 210.920651 -77.287671 
L 210.972856 -79.124575 
L 211.066769 -80.96148 
L 211.179559 -82.798385 
L 211.287167 -84.63529 
L 211.373234 -86.472194 
L 211.432338 -88.309099 
L 211.467615 -90.146004 
L 211.486004 -91.982909 
L 211.494288 -93.819813 
L 211.497247 -95.656718 
L 211.497512 -97.493623 
L 211.496184 -99.330528 
L 211.493512 -101.167432 
L 211.489359 -103.004337 
L 211.483421 -104.841242 
L 211.475205 -106.678147 
L 211.46363 -108.515051 
L 211.445862 -110.351956 
L 211.414754 -112.188861 
L 211.354442 -114.025766 
L 211.234981 -115.86267 
L 211.009746 -117.699575 
L 210.622446 -119.53648 
L 210.030077 -121.373385 
L 209.239597 -123.210289 
L 208.340801 -125.047194 
L 207.507224 -126.884099 
L 206.946682 -128.721004 
L 206.815628 -130.557908 
L 207.144287 -132.394813 
L 207.820991 -134.231718 
L 208.64655 -136.068623 
L 209.422483 -137.905527 
L 210.019794 -139.742432 
L 210.397869 -141.579337 
L 210.580599 -143.416242 
L 210.61789 -145.253146 
L 210.556557 -147.090051 
L 210.428333 -148.926956 
L 210.250357 -150.763861 
L 210.030491 -152.600765 
L 209.772695 -154.43767 
L 209.481162 -156.274575 
L 209.163494 -158.11148 
L 208.8329 -159.948384 
L 208.508583 -161.785289 
L 208.213286 -163.622194 
L 207.967972 -165.459099 
L 207.785759 -167.296003 
L 207.668982 -169.132908 
L 207.612586 -170.969813 
L 207.612756 -172.806717 
L 207.674189 -174.643622 
L 207.808253 -176.480527 
L 208.02079 -178.317432 
L 208.298226 -180.154336 
L 208.604128 -181.991241 
L 208.890518 -183.828146 
L 209.115937 -185.665051 
L 209.257422 -187.501955 
L 209.310274 -189.33886 
L 209.279844 -191.175765 
L 209.17368 -193.01267 
L 208.998623 -194.849574 
L 208.761711 -196.686479 
L 208.471457 -198.523384 
L 208.137454 -200.360289 
L 207.76868 -202.197193 
L 207.372067 -204.034098 
L 206.952637 -205.871003 
L 206.515504 -207.707908 
L 206.069045 -209.544812 
L 205.628058 -211.381717 
L 205.215905 -213.218622 
L 204.864889 -215.055527 
L 204.614276 -216.892431 
L 204.505389 -218.729336 
L 204.573875 -220.566241 
L 204.84068 -222.403146 
L 205.304701 -224.24005 
L 205.940099 -226.076955 
L 206.699576 -227.91386 
L 207.522484 -229.750765 
L 208.34513 -231.587669 
L 209.110634 -233.424574 
L 209.776472 -235.261479 
L 210.318645 -237.098384 
L 210.732025 -238.935288 
L 211.027112 -240.772193 
L 211.224368 -242.609098 
L 211.775632 -242.609098 
L 211.775632 -242.609098 
L 211.972888 -240.772193 
L 212.267975 -238.935288 
L 212.681355 -237.098384 
L 213.223528 -235.261479 
L 213.889366 -233.424574 
L 214.65487 -231.587669 
L 215.477516 -229.750765 
L 216.300424 -227.91386 
L 217.059901 -226.076955 
L 217.695299 -224.24005 
L 218.15932 -222.403146 
L 218.426125 -220.566241 
L 218.494611 -218.729336 
L 218.385724 -216.892431 
L 218.135111 -215.055527 
L 217.784095 -213.218622 
L 217.371942 -211.381717 
L 216.930955 -209.544812 
L 216.484496 -207.707908 
L 216.047363 -205.871003 
L 215.627933 -204.034098 
L 215.23132 -202.197193 
L 214.862546 -200.360289 
L 214.528543 -198.523384 
L 214.238289 -196.686479 
L 214.001377 -194.849574 
L 213.82632 -193.01267 
L 213.720156 -191.175765 
L 213.689726 -189.33886 
L 213.742578 -187.501955 
L 213.884063 -185.665051 
L 214.109482 -183.828146 
L 214.395872 -181.991241 
L 214.701774 -180.154336 
L 214.97921 -178.317432 
L 215.191747 -176.480527 
L 215.325811 -174.643622 
L 215.387244 -172.806717 
L 215.387414 -170.969813 
L 215.331018 -169.132908 
L 215.214241 -167.296003 
L 215.032028 -165.459099 
L 214.786714 -163.622194 
L 214.491417 -161.785289 
L 214.1671 -159.948384 
L 213.836506 -158.11148 
L 213.518838 -156.274575 
L 213.227305 -154.43767 
L 212.969509 -152.600765 
L 212.749643 -150.763861 
L 212.571667 -148.926956 
L 212.443443 -147.090051 
L 212.38211 -145.253146 
L 212.419401 -143.416242 
L 212.602131 -141.579337 
L 212.980206 -139.742432 
L 213.577517 -137.905527 
L 214.35345 -136.068623 
L 215.179009 -134.231718 
L 215.855713 -132.394813 
L 216.184372 -130.557908 
L 216.053318 -128.721004 
L 215.492776 -126.884099 
L 214.659199 -125.047194 
L 213.760403 -123.210289 
L 212.969923 -121.373385 
L 212.377554 -119.53648 
L 211.990254 -117.699575 
L 211.765019 -115.86267 
L 211.645558 -114.025766 
L 211.585246 -112.188861 
L 211.554138 -110.351956 
L 211.53637 -108.515051 
L 211.524795 -106.678147 
L 211.516579 -104.841242 
L 211.510641 -103.004337 
L 211.506488 -101.167432 
L 211.503816 -99.330528 
L 211.502488 -97.493623 
L 211.502753 -95.656718 
L 211.505712 -93.819813 
L 211.513996 -91.982909 
L 211.532385 -90.146004 
L 211.567662 -88.309099 
L 211.626766 -86.472194 
L 211.712833 -84.63529 
L 211.820441 -82.798385 
L 211.933231 -80.96148 
L 212.027144 -79.124575 
L 212.079349 -77.287671 
L 212.078347 -75.450766 
L 212.028846 -73.613861 
L 211.948203 -71.776956 
L 211.8573 -69.940052 
L 211.772088 -68.103147 
L 211.700294 -66.266242 
L 211.643132 -64.429337 
L 211.598867 -62.592433 
L 211.565369 -60.755528 
z
" style="stroke: #4c4c4c; stroke-width: 0.5"/>
    </defs>
    <g clip-path="url(#p3bb54f8dfe)">
     <use xlink:href="#m35feec2f4b" x="0" y="288" style="fill: #2020df; stroke: #4c4c4c; stroke-width: 0.5"/>
    </g>
   </g>
   <g id="PolyCollection_4">
    <defs>
     <path id="m2c09ce9d76" d="M 267.332917 -58.12319 
L 267.267083 -58.12319 
L 267.245786 -59.994269 
L 267.215091 -61.865348 
L 267.172856 -63.736426 
L 267.116745 -65.607505 
L 267.044707 -67.478584 
L 266.957056 -69.349663 
L 266.860087 -71.220742 
L 266.768852 -73.091821 
L 266.705303 -74.9629 
L 266.690255 -76.833979 
L 266.732812 -78.705058 
L 266.824371 -80.576136 
L 266.941923 -82.447215 
L 267.058612 -84.318294 
L 267.154525 -86.189373 
L 267.221699 -88.060452 
L 267.262375 -89.931531 
L 267.283844 -91.80261 
L 267.29374 -93.673689 
L 267.297651 -95.544768 
L 267.298779 -97.415846 
L 267.298565 -99.286925 
L 267.297425 -101.158004 
L 267.295228 -103.029083 
L 267.291497 -104.900162 
L 267.28536 -106.771241 
L 267.275106 -108.64232 
L 267.256926 -110.513399 
L 267.222048 -112.384478 
L 267.151734 -114.255556 
L 267.011334 -116.126635 
L 266.748202 -117.997714 
L 266.301806 -119.868793 
L 265.632563 -121.739872 
L 264.764158 -123.610951 
L 263.815706 -125.48203 
L 262.991197 -127.353109 
L 262.511597 -129.224188 
L 262.51624 -131.095267 
L 262.992432 -132.966345 
L 263.781087 -134.837424 
L 264.654752 -136.708503 
L 265.415759 -138.579582 
L 265.957193 -140.450661 
L 266.265513 -142.32174 
L 266.384103 -144.192819 
L 266.37125 -146.063898 
L 266.274055 -147.934977 
L 266.121096 -149.806055 
L 265.926212 -151.677134 
L 265.695362 -153.548213 
L 265.432418 -155.419292 
L 265.143023 -157.290371 
L 264.836758 -159.16145 
L 264.527658 -161.032529 
L 264.23263 -162.903608 
L 263.967765 -164.774687 
L 263.74404 -166.645765 
L 263.565452 -168.516844 
L 263.432374 -170.387923 
L 263.349293 -172.259002 
L 263.330965 -174.130081 
L 263.399294 -176.00116 
L 263.569048 -177.872239 
L 263.830851 -179.743318 
L 264.145145 -181.614397 
L 264.453862 -183.485475 
L 264.702608 -185.356554 
L 264.858458 -187.227633 
L 264.913868 -189.098712 
L 264.878933 -190.969791 
L 264.770631 -192.84087 
L 264.60532 -194.711949 
L 264.395396 -196.583028 
L 264.148502 -198.454107 
L 263.868275 -200.325185 
L 263.556268 -202.196264 
L 263.21434 -204.067343 
L 262.846462 -205.938422 
L 262.459614 -207.809501 
L 262.064445 -209.68058 
L 261.676554 -211.551659 
L 261.318215 -213.422738 
L 261.019224 -215.293817 
L 260.815188 -217.164896 
L 260.742598 -219.035974 
L 260.831598 -220.907053 
L 261.098612 -222.778132 
L 261.541162 -224.649211 
L 262.136298 -226.52029 
L 262.842979 -228.391369 
L 263.6078 -230.262448 
L 264.373044 -232.133527 
L 265.0856 -234.004606 
L 265.70491 -235.875684 
L 266.208002 -237.746763 
L 266.590316 -239.617842 
L 266.862402 -241.488921 
L 267.044047 -243.36 
L 267.555953 -243.36 
L 267.555953 -243.36 
L 267.737598 -241.488921 
L 268.009684 -239.617842 
L 268.391998 -237.746763 
L 268.89509 -235.875684 
L 269.5144 -234.004606 
L 270.226956 -232.133527 
L 270.9922 -230.262448 
L 271.757021 -228.391369 
L 272.463702 -226.52029 
L 273.058838 -224.649211 
L 273.501388 -222.778132 
L 273.768402 -220.907053 
L 273.857402 -219.035974 
L 273.784812 -217.164896 
L 273.580776 -215.293817 
L 273.281785 -213.422738 
L 272.923446 -211.551659 
L 272.535555 -209.68058 
L 272.140386 -207.809501 
L 271.753538 -205.938422 
L 271.38566 -204.067343 
L 271.043732 -202.196264 
L 270.731725 -200.325185 
L 270.451498 -198.454107 
L 270.204604 -196.583028 
L 269.99468 -194.711949 
L 269.829369 -192.84087 
L 269.721067 -190.969791 
L 269.686132 -189.098712 
L 269.741542 -187.227633 
L 269.897392 -185.356554 
L 270.146138 -183.485475 
L 270.454855 -181.614397 
L 270.769149 -179.743318 
L 271.030952 -177.872239 
L 271.200706 -176.00116 
L 271.269035 -174.130081 
L 271.250707 -172.259002 
L 271.167626 -170.387923 
L 271.034548 -168.516844 
L 270.85596 -166.645765 
L 270.632235 -164.774687 
L 270.36737 -162.903608 
L 270.072342 -161.032529 
L 269.763242 -159.16145 
L 269.456977 -157.290371 
L 269.167582 -155.419292 
L 268.904638 -153.548213 
L 268.673788 -151.677134 
L 268.478904 -149.806055 
L 268.325945 -147.934977 
L 268.22875 -146.063898 
L 268.215897 -144.192819 
L 268.334487 -142.32174 
L 268.642807 -140.450661 
L 269.184241 -138.579582 
L 269.945248 -136.708503 
L 270.818913 -134.837424 
L 271.607568 -132.966345 
L 272.08376 -131.095267 
L 272.088403 -129.224188 
L 271.608803 -127.353109 
L 270.784294 -125.48203 
L 269.835842 -123.610951 
L 268.967437 -121.739872 
L 268.298194 -119.868793 
L 267.851798 -117.997714 
L 267.588666 -116.126635 
L 267.448266 -114.255556 
L 267.377952 -112.384478 
L 267.343074 -110.513399 
L 267.324894 -108.64232 
L 267.31464 -106.771241 
L 267.308503 -104.900162 
L 267.304772 -103.029083 
L 267.302575 -101.158004 
L 267.301435 -99.286925 
L 267.301221 -97.415846 
L 267.302349 -95.544768 
L 267.30626 -93.673689 
L 267.316156 -91.80261 
L 267.337625 -89.931531 
L 267.378301 -88.060452 
L 267.445475 -86.189373 
L 267.541388 -84.318294 
L 267.658077 -82.447215 
L 267.775629 -80.576136 
L 267.867188 -78.705058 
L 267.909745 -76.833979 
L 267.894697 -74.9629 
L 267.831148 -73.091821 
L 267.739913 -71.220742 
L 267.642944 -69.349663 
L 267.555293 -67.478584 
L 267.483255 -65.607505 
L 267.427144 -63.736426 
L 267.384909 -61.865348 
L 267.354214 -59.994269 
L 267.332917 -58.12319 
z
" style="stroke: #4c4c4c; stroke-width: 0.5"/>
    </defs>
    <g clip-path="url(#p3bb54f8dfe)">
     <use xlink:href="#m2c09ce9d76" x="0" y="288" style="fill: #df2020; stroke: #4c4c4c; stroke-width: 0.5"/>
    </g>
   </g>
   <g id="PolyCollection_5">
    <defs>
     <path id="mfcc776c74a" d="M 323.142978 -58.12319 
L 323.057022 -58.12319 
L 323.03323 -59.930559 
L 323.000306 -61.737928 
L 322.955787 -63.545298 
L 322.896102 -65.352667 
L 322.816832 -67.160036 
L 322.715133 -68.967406 
L 322.594647 -70.774775 
L 322.470435 -72.582144 
L 322.369039 -74.389513 
L 322.320336 -76.196883 
L 322.343796 -78.004252 
L 322.437539 -79.811621 
L 322.578053 -81.618991 
L 322.731106 -83.42636 
L 322.866494 -85.233729 
L 322.967749 -87.041099 
L 323.033019 -88.848468 
L 323.069674 -90.655837 
L 323.087728 -92.463206 
L 323.09556 -94.270576 
L 323.098555 -96.077945 
L 323.099549 -97.885314 
L 323.099778 -99.692684 
L 323.099652 -101.500053 
L 323.099161 -103.307422 
L 323.098004 -105.114791 
L 323.095478 -106.922161 
L 323.090014 -108.72953 
L 323.077893 -110.536899 
L 323.050278 -112.344269 
L 322.987619 -114.151638 
L 322.851875 -115.959007 
L 322.580704 -117.766377 
L 322.093062 -119.573746 
L 321.317116 -121.381115 
L 320.241584 -123.188484 
L 318.969179 -124.995854 
L 317.730556 -126.803223 
L 316.824731 -128.610592 
L 316.497153 -130.417962 
L 316.820656 -132.225331 
L 317.656766 -134.0327 
L 318.724633 -135.84007 
L 319.730969 -137.647439 
L 320.479672 -139.454808 
L 320.908306 -141.262177 
L 321.056304 -143.069547 
L 321.006635 -144.876916 
L 320.83998 -146.684285 
L 320.615875 -148.491655 
L 320.374237 -150.299024 
L 320.144108 -152.106393 
L 319.950304 -153.913763 
L 319.815088 -155.721132 
L 319.756361 -157.528501 
L 319.785056 -159.33587 
L 319.903647 -161.14324 
L 320.106145 -162.950609 
L 320.378939 -164.757978 
L 320.701564 -166.565348 
L 321.046825 -168.372717 
L 321.380333 -170.180086 
L 321.660311 -171.987456 
L 321.839641 -173.794825 
L 321.873082 -175.602194 
L 321.731514 -177.409563 
L 321.419842 -179.216933 
L 320.987549 -181.024302 
L 320.518674 -182.831671 
L 320.098587 -184.639041 
L 319.774156 -186.44641 
L 319.534218 -188.253779 
L 319.324796 -190.061148 
L 319.086812 -191.868518 
L 318.788148 -193.675887 
L 318.431324 -195.483256 
L 318.040646 -197.290626 
L 317.645621 -199.097995 
L 317.272654 -200.905364 
L 316.945121 -202.712734 
L 316.685866 -204.520103 
L 316.517894 -206.327472 
L 316.462874 -208.134841 
L 316.538701 -209.942211 
L 316.75687 -211.74958 
L 317.119742 -213.556949 
L 317.617926 -215.364319 
L 318.228664 -217.171688 
L 318.916499 -218.979057 
L 319.636995 -220.786427 
L 320.343118 -222.593796 
L 320.992683 -224.401165 
L 321.554725 -226.208534 
L 322.013044 -228.015904 
L 322.366132 -229.823273 
L 322.623971 -231.630642 
L 322.803164 -233.438012 
L 322.922157 -235.245381 
L 322.997853 -237.05275 
L 323.202147 -237.05275 
L 323.202147 -237.05275 
L 323.277843 -235.245381 
L 323.396836 -233.438012 
L 323.576029 -231.630642 
L 323.833868 -229.823273 
L 324.186956 -228.015904 
L 324.645275 -226.208534 
L 325.207317 -224.401165 
L 325.856882 -222.593796 
L 326.563005 -220.786427 
L 327.283501 -218.979057 
L 327.971336 -217.171688 
L 328.582074 -215.364319 
L 329.080258 -213.556949 
L 329.44313 -211.74958 
L 329.661299 -209.942211 
L 329.737126 -208.134841 
L 329.682106 -206.327472 
L 329.514134 -204.520103 
L 329.254879 -202.712734 
L 328.927346 -200.905364 
L 328.554379 -199.097995 
L 328.159354 -197.290626 
L 327.768676 -195.483256 
L 327.411852 -193.675887 
L 327.113188 -191.868518 
L 326.875204 -190.061148 
L 326.665782 -188.253779 
L 326.425844 -186.44641 
L 326.101413 -184.639041 
L 325.681326 -182.831671 
L 325.212451 -181.024302 
L 324.780158 -179.216933 
L 324.468486 -177.409563 
L 324.326918 -175.602194 
L 324.360359 -173.794825 
L 324.539689 -171.987456 
L 324.819667 -170.180086 
L 325.153175 -168.372717 
L 325.498436 -166.565348 
L 325.821061 -164.757978 
L 326.093855 -162.950609 
L 326.296353 -161.14324 
L 326.414944 -159.33587 
L 326.443639 -157.528501 
L 326.384912 -155.721132 
L 326.249696 -153.913763 
L 326.055892 -152.106393 
L 325.825763 -150.299024 
L 325.584125 -148.491655 
L 325.36002 -146.684285 
L 325.193365 -144.876916 
L 325.143696 -143.069547 
L 325.291694 -141.262177 
L 325.720328 -139.454808 
L 326.469031 -137.647439 
L 327.475367 -135.84007 
L 328.543234 -134.0327 
L 329.379344 -132.225331 
L 329.702847 -130.417962 
L 329.375269 -128.610592 
L 328.469444 -126.803223 
L 327.230821 -124.995854 
L 325.958416 -123.188484 
L 324.882884 -121.381115 
L 324.106938 -119.573746 
L 323.619296 -117.766377 
L 323.348125 -115.959007 
L 323.212381 -114.151638 
L 323.149722 -112.344269 
L 323.122107 -110.536899 
L 323.109986 -108.72953 
L 323.104522 -106.922161 
L 323.101996 -105.114791 
L 323.100839 -103.307422 
L 323.100348 -101.500053 
L 323.100222 -99.692684 
L 323.100451 -97.885314 
L 323.101445 -96.077945 
L 323.10444 -94.270576 
L 323.112272 -92.463206 
L 323.130326 -90.655837 
L 323.166981 -88.848468 
L 323.232251 -87.041099 
L 323.333506 -85.233729 
L 323.468894 -83.42636 
L 323.621947 -81.618991 
L 323.762461 -79.811621 
L 323.856204 -78.004252 
L 323.879664 -76.196883 
L 323.830961 -74.389513 
L 323.729565 -72.582144 
L 323.605353 -70.774775 
L 323.484867 -68.967406 
L 323.383168 -67.160036 
L 323.303898 -65.352667 
L 323.244213 -63.545298 
L 323.199694 -61.737928 
L 323.16677 -59.930559 
L 323.142978 -58.12319 
z
" style="stroke: #4c4c4c; stroke-width: 0.5"/>
    </defs>
    <g clip-path="url(#p3bb54f8dfe)">
     <use xlink:href="#mfcc776c74a" x="0" y="288" style="fill: #2020df; stroke: #4c4c4c; stroke-width: 0.5"/>
    </g>
   </g>
   <g id="PolyCollection_6">
    <defs>
     <path id="mb93a8e3dbc" d="M 378.934523 -58.12319 
L 378.865477 -58.12319 
L 378.842733 -59.9619 
L 378.809294 -61.800611 
L 378.762254 -63.639322 
L 378.698214 -65.478033 
L 378.613634 -67.316743 
L 378.507163 -69.155454 
L 378.384388 -70.994165 
L 378.262411 -72.832875 
L 378.169077 -74.671586 
L 378.13363 -76.510297 
L 378.17233 -78.349008 
L 378.278478 -80.187718 
L 378.424502 -82.026429 
L 378.575017 -83.86514 
L 378.701898 -85.70385 
L 378.7924 -87.542561 
L 378.847955 -89.381272 
L 378.87759 -91.219983 
L 378.891411 -93.058693 
L 378.897066 -94.897404 
L 378.899092 -96.736115 
L 378.899695 -98.574825 
L 378.899749 -100.413536 
L 378.899464 -102.252247 
L 378.8987 -104.090957 
L 378.896995 -105.929668 
L 378.893318 -107.768379 
L 378.885206 -109.60709 
L 378.866515 -111.4458 
L 378.822594 -113.284511 
L 378.72229 -115.123222 
L 378.509183 -116.961932 
L 378.100271 -118.800643 
L 377.405317 -120.639354 
L 376.375431 -122.478065 
L 375.068258 -124.316775 
L 373.688226 -126.155486 
L 372.552465 -127.994197 
L 371.971128 -129.832907 
L 372.098828 -131.671618 
L 372.852551 -133.510329 
L 373.954575 -135.349039 
L 375.070498 -137.18775 
L 375.94991 -139.026461 
L 376.491543 -140.865172 
L 376.721474 -142.703882 
L 376.727975 -144.542593 
L 376.603507 -146.381304 
L 376.417086 -148.220014 
L 376.212399 -150.058725 
L 376.016736 -151.897436 
L 375.849712 -153.736147 
L 375.728017 -155.574857 
L 375.66663 -157.413568 
L 375.677882 -159.252279 
L 375.769395 -161.090989 
L 375.941798 -162.9297 
L 376.186998 -164.768411 
L 376.487483 -166.607122 
L 376.816443 -168.445832 
L 377.138065 -170.284543 
L 377.407827 -172.123254 
L 377.574616 -173.961964 
L 377.588711 -175.800675 
L 377.418577 -177.639386 
L 377.07223 -179.478096 
L 376.608839 -181.316807 
L 376.124429 -183.155518 
L 375.710742 -184.994229 
L 375.410203 -186.832939 
L 375.199222 -188.67165 
L 375.012493 -190.510361 
L 374.788405 -192.349071 
L 374.501616 -194.187782 
L 374.165293 -196.026493 
L 373.812311 -197.865204 
L 373.475674 -199.703914 
L 373.179756 -201.542625 
L 372.94106 -203.381336 
L 372.7724 -205.220046 
L 372.686652 -207.058757 
L 372.698747 -208.897468 
L 372.824918 -210.736179 
L 373.078555 -212.574889 
L 373.463817 -214.4136 
L 373.970198 -216.252311 
L 374.571254 -218.091021 
L 375.228353 -219.929732 
L 375.897616 -221.768443 
L 376.537275 -223.607153 
L 377.1135 -225.445864 
L 377.603949 -227.284575 
L 377.998919 -229.123286 
L 378.300205 -230.961996 
L 378.518134 -232.800707 
L 378.667747 -234.639418 
L 378.765246 -236.478128 
L 378.825498 -238.316839 
L 378.860743 -240.15555 
L 378.939257 -240.15555 
L 378.939257 -240.15555 
L 378.974502 -238.316839 
L 379.034754 -236.478128 
L 379.132253 -234.639418 
L 379.281866 -232.800707 
L 379.499795 -230.961996 
L 379.801081 -229.123286 
L 380.196051 -227.284575 
L 380.6865 -225.445864 
L 381.262725 -223.607153 
L 381.902384 -221.768443 
L 382.571647 -219.929732 
L 383.228746 -218.091021 
L 383.829802 -216.252311 
L 384.336183 -214.4136 
L 384.721445 -212.574889 
L 384.975082 -210.736179 
L 385.101253 -208.897468 
L 385.113348 -207.058757 
L 385.0276 -205.220046 
L 384.85894 -203.381336 
L 384.620244 -201.542625 
L 384.324326 -199.703914 
L 383.987689 -197.865204 
L 383.634707 -196.026493 
L 383.298384 -194.187782 
L 383.011595 -192.349071 
L 382.787507 -190.510361 
L 382.600778 -188.67165 
L 382.389797 -186.832939 
L 382.089258 -184.994229 
L 381.675571 -183.155518 
L 381.191161 -181.316807 
L 380.72777 -179.478096 
L 380.381423 -177.639386 
L 380.211289 -175.800675 
L 380.225384 -173.961964 
L 380.392173 -172.123254 
L 380.661935 -170.284543 
L 380.983557 -168.445832 
L 381.312517 -166.607122 
L 381.613002 -164.768411 
L 381.858202 -162.9297 
L 382.030605 -161.090989 
L 382.122118 -159.252279 
L 382.13337 -157.413568 
L 382.071983 -155.574857 
L 381.950288 -153.736147 
L 381.783264 -151.897436 
L 381.587601 -150.058725 
L 381.382914 -148.220014 
L 381.196493 -146.381304 
L 381.072025 -144.542593 
L 381.078526 -142.703882 
L 381.308457 -140.865172 
L 381.85009 -139.026461 
L 382.729502 -137.18775 
L 383.845425 -135.349039 
L 384.947449 -133.510329 
L 385.701172 -131.671618 
L 385.828872 -129.832907 
L 385.247535 -127.994197 
L 384.111774 -126.155486 
L 382.731742 -124.316775 
L 381.424569 -122.478065 
L 380.394683 -120.639354 
L 379.699729 -118.800643 
L 379.290817 -116.961932 
L 379.07771 -115.123222 
L 378.977406 -113.284511 
L 378.933485 -111.4458 
L 378.914794 -109.60709 
L 378.906682 -107.768379 
L 378.903005 -105.929668 
L 378.9013 -104.090957 
L 378.900536 -102.252247 
L 378.900251 -100.413536 
L 378.900305 -98.574825 
L 378.900908 -96.736115 
L 378.902934 -94.897404 
L 378.908589 -93.058693 
L 378.92241 -91.219983 
L 378.952045 -89.381272 
L 379.0076 -87.542561 
L 379.098102 -85.70385 
L 379.224983 -83.86514 
L 379.375498 -82.026429 
L 379.521522 -80.187718 
L 379.62767 -78.349008 
L 379.66637 -76.510297 
L 379.630923 -74.671586 
L 379.537589 -72.832875 
L 379.415612 -70.994165 
L 379.292837 -69.155454 
L 379.186366 -67.316743 
L 379.101786 -65.478033 
L 379.037746 -63.639322 
L 378.990706 -61.800611 
L 378.957267 -59.9619 
L 378.934523 -58.12319 
z
" style="stroke: #4c4c4c; stroke-width: 0.5"/>
    </defs>
    <g clip-path="url(#p3bb54f8dfe)">
     <use xlink:href="#mb93a8e3dbc" x="0" y="288" style="fill: #df2020; stroke: #4c4c4c; stroke-width: 0.5"/>
    </g>
   </g>
   <g id="PolyCollection_7">
    <defs>
     <path id="mf8fd4ae837" d="M 434.764223 -60.755528 
L 434.635777 -60.755528 
L 434.603693 -62.534718 
L 434.561 -64.313908 
L 434.504253 -66.093098 
L 434.429022 -67.872289 
L 434.332833 -69.651479 
L 434.220636 -71.430669 
L 434.109373 -73.209859 
L 434.026383 -74.989049 
L 433.999217 -76.76824 
L 434.041561 -78.54743 
L 434.144744 -80.32662 
L 434.28133 -82.10581 
L 434.418373 -83.885 
L 434.531216 -85.66419 
L 434.609943 -87.443381 
L 434.65723 -89.222571 
L 434.681893 -91.001761 
L 434.693073 -92.780951 
L 434.697357 -94.560141 
L 434.698421 -96.339332 
L 434.697824 -98.118522 
L 434.695896 -99.897712 
L 434.692339 -101.676902 
L 434.686562 -103.456092 
L 434.677848 -105.235282 
L 434.665386 -107.014473 
L 434.647953 -108.793663 
L 434.622705 -110.572853 
L 434.582109 -112.352043 
L 434.508 -114.131233 
L 434.363135 -115.910424 
L 434.084333 -117.689614 
L 433.586672 -119.468804 
L 432.790427 -121.247994 
L 431.673791 -123.027184 
L 430.331906 -124.806374 
L 428.999095 -126.585565 
L 427.993875 -128.364755 
L 427.591296 -130.143945 
L 427.888876 -131.923135 
L 428.753883 -133.702325 
L 429.889873 -135.481516 
L 430.976628 -137.260706 
L 431.79351 -139.039896 
L 432.264547 -140.819086 
L 432.428049 -142.598276 
L 432.375594 -144.377466 
L 432.202516 -146.156657 
L 431.984974 -147.935847 
L 431.776748 -149.715037 
L 431.61324 -151.494227 
L 431.515272 -153.273417 
L 431.491565 -155.052608 
L 431.541428 -156.831798 
L 431.658199 -158.610988 
L 431.831938 -160.390178 
L 432.049189 -162.169368 
L 432.289202 -163.948558 
L 432.518969 -165.727749 
L 432.692163 -167.506939 
L 432.757593 -169.286129 
L 432.678946 -171.065319 
L 432.458652 -172.844509 
L 432.14964 -174.6237 
L 431.839686 -176.40289 
L 431.610023 -178.18208 
L 431.492601 -179.96127 
L 431.456512 -181.74046 
L 431.433084 -183.51965 
L 431.358659 -185.298841 
L 431.203527 -187.078031 
L 430.97306 -188.857221 
L 430.691343 -190.636411 
L 430.385189 -192.415601 
L 430.076699 -194.194792 
L 429.781751 -195.973982 
L 429.510263 -197.753172 
L 429.267883 -199.532362 
L 429.060165 -201.311552 
L 428.897748 -203.090742 
L 428.798782 -204.869933 
L 428.786137 -206.649123 
L 428.880683 -208.428313 
L 429.094548 -210.207503 
L 429.427664 -211.986693 
L 429.868052 -213.765884 
L 430.394074 -215.545074 
L 430.976912 -217.324264 
L 431.583049 -219.103454 
L 432.177621 -220.882644 
L 432.728918 -222.661834 
L 433.212971 -224.441025 
L 433.61646 -226.220215 
L 433.936857 -227.999405 
L 434.180147 -229.778595 
L 434.357428 -231.557785 
L 434.48172 -233.336976 
L 434.565685 -235.116166 
L 434.620355 -236.895356 
L 434.779645 -236.895356 
L 434.779645 -236.895356 
L 434.834315 -235.116166 
L 434.91828 -233.336976 
L 435.042572 -231.557785 
L 435.219853 -229.778595 
L 435.463143 -227.999405 
L 435.78354 -226.220215 
L 436.187029 -224.441025 
L 436.671082 -222.661834 
L 437.222379 -220.882644 
L 437.816951 -219.103454 
L 438.423088 -217.324264 
L 439.005926 -215.545074 
L 439.531948 -213.765884 
L 439.972336 -211.986693 
L 440.305452 -210.207503 
L 440.519317 -208.428313 
L 440.613863 -206.649123 
L 440.601218 -204.869933 
L 440.502252 -203.090742 
L 440.339835 -201.311552 
L 440.132117 -199.532362 
L 439.889737 -197.753172 
L 439.618249 -195.973982 
L 439.323301 -194.194792 
L 439.014811 -192.415601 
L 438.708657 -190.636411 
L 438.42694 -188.857221 
L 438.196473 -187.078031 
L 438.041341 -185.298841 
L 437.966916 -183.51965 
L 437.943488 -181.74046 
L 437.907399 -179.96127 
L 437.789977 -178.18208 
L 437.560314 -176.40289 
L 437.25036 -174.6237 
L 436.941348 -172.844509 
L 436.721054 -171.065319 
L 436.642407 -169.286129 
L 436.707837 -167.506939 
L 436.881031 -165.727749 
L 437.110798 -163.948558 
L 437.350811 -162.169368 
L 437.568062 -160.390178 
L 437.741801 -158.610988 
L 437.858572 -156.831798 
L 437.908435 -155.052608 
L 437.884728 -153.273417 
L 437.78676 -151.494227 
L 437.623252 -149.715037 
L 437.415026 -147.935847 
L 437.197484 -146.156657 
L 437.024406 -144.377466 
L 436.971951 -142.598276 
L 437.135453 -140.819086 
L 437.60649 -139.039896 
L 438.423372 -137.260706 
L 439.510127 -135.481516 
L 440.646117 -133.702325 
L 441.511124 -131.923135 
L 441.808704 -130.143945 
L 441.406125 -128.364755 
L 440.400905 -126.585565 
L 439.068094 -124.806374 
L 437.726209 -123.027184 
L 436.609573 -121.247994 
L 435.813328 -119.468804 
L 435.315667 -117.689614 
L 435.036865 -115.910424 
L 434.892 -114.131233 
L 434.817891 -112.352043 
L 434.777295 -110.572853 
L 434.752047 -108.793663 
L 434.734614 -107.014473 
L 434.722152 -105.235282 
L 434.713438 -103.456092 
L 434.707661 -101.676902 
L 434.704104 -99.897712 
L 434.702176 -98.118522 
L 434.701579 -96.339332 
L 434.702643 -94.560141 
L 434.706927 -92.780951 
L 434.718107 -91.001761 
L 434.74277 -89.222571 
L 434.790057 -87.443381 
L 434.868784 -85.66419 
L 434.981627 -83.885 
L 435.11867 -82.10581 
L 435.255256 -80.32662 
L 435.358439 -78.54743 
L 435.400783 -76.76824 
L 435.373617 -74.989049 
L 435.290627 -73.209859 
L 435.179364 -71.430669 
L 435.067167 -69.651479 
L 434.970978 -67.872289 
L 434.895747 -66.093098 
L 434.839 -64.313908 
L 434.796307 -62.534718 
L 434.764223 -60.755528 
z
" style="stroke: #4c4c4c; stroke-width: 0.5"/>
    </defs>
    <g clip-path="url(#p3bb54f8dfe)">
     <use xlink:href="#mf8fd4ae837" x="0" y="288" style="fill: #2020df; stroke: #4c4c4c; stroke-width: 0.5"/>
    </g>
   </g>
   <g id="PolyCollection_8">
    <defs>
     <path id="mc094237dac" d="M 490.561901 -60.755528 
L 490.438099 -60.755528 
L 490.406189 -62.532201 
L 490.361882 -64.308874 
L 490.301191 -66.085547 
L 490.21973 -67.86222 
L 490.115637 -69.638893 
L 489.994869 -71.415565 
L 489.875663 -73.192238 
L 489.786802 -74.968911 
L 489.757147 -76.745584 
L 489.801065 -78.522257 
L 489.909534 -80.29893 
L 490.053768 -82.075603 
L 490.199004 -83.852276 
L 490.319027 -85.628949 
L 490.403087 -87.405622 
L 490.453798 -89.182295 
L 490.480393 -90.958968 
L 490.492585 -92.735641 
L 490.497465 -94.512314 
L 490.499101 -96.288987 
L 490.499348 -98.065659 
L 490.498756 -99.842332 
L 490.497118 -101.619005 
L 490.493706 -103.395678 
L 490.487331 -105.172351 
L 490.476364 -106.949024 
L 490.458557 -108.725697 
L 490.43011 -110.50237 
L 490.382846 -112.279043 
L 490.298267 -114.055716 
L 490.138702 -115.832389 
L 489.839723 -117.609062 
L 489.313689 -119.385735 
L 488.476795 -121.162408 
L 487.303437 -122.939081 
L 485.888539 -124.715753 
L 484.473396 -126.492426 
L 483.391729 -128.269099 
L 482.937909 -130.045772 
L 483.224444 -131.822445 
L 484.121538 -133.599118 
L 485.322476 -135.375791 
L 486.490176 -137.152464 
L 487.389931 -138.929137 
L 487.93985 -140.70581 
L 488.179059 -142.482483 
L 488.201196 -144.259156 
L 488.100068 -146.035829 
L 487.94541 -147.812502 
L 487.781835 -149.589175 
L 487.636713 -151.365847 
L 487.527525 -153.14252 
L 487.465983 -154.919193 
L 487.459813 -156.695866 
L 487.513401 -158.472539 
L 487.627278 -160.249212 
L 487.795605 -162.025885 
L 488.00149 -163.802558 
L 488.212007 -165.579231 
L 488.377435 -167.355904 
L 488.440282 -169.132577 
L 488.356457 -170.90925 
L 488.122 -172.685923 
L 487.788488 -174.462596 
L 487.449538 -176.239269 
L 487.197559 -178.015941 
L 487.075141 -179.792614 
L 487.055318 -181.569287 
L 487.065156 -183.34596 
L 487.033054 -185.122633 
L 486.924333 -186.899306 
L 486.745259 -188.675979 
L 486.523454 -190.452652 
L 486.285826 -192.229325 
L 486.047754 -194.005998 
L 485.813899 -195.782671 
L 485.58458 -197.559344 
L 485.362637 -199.336017 
L 485.158243 -201.11269 
L 484.990374 -202.889362 
L 484.8845 -204.666035 
L 484.8673 -206.442708 
L 484.960362 -208.219381 
L 485.174878 -209.996054 
L 485.508669 -211.772727 
L 485.946042 -213.5494 
L 486.460371 -215.326073 
L 487.018699 -217.102746 
L 487.587069 -218.879419 
L 488.135129 -220.656092 
L 488.639082 -222.432765 
L 489.082797 -224.209438 
L 489.457566 -225.986111 
L 489.761142 -227.762784 
L 489.99654 -229.539456 
L 490.170799 -231.316129 
L 490.293633 -233.092802 
L 490.375958 -234.869475 
L 490.42844 -236.646148 
L 490.57156 -236.646148 
L 490.57156 -236.646148 
L 490.624042 -234.869475 
L 490.706367 -233.092802 
L 490.829201 -231.316129 
L 491.00346 -229.539456 
L 491.238858 -227.762784 
L 491.542434 -225.986111 
L 491.917203 -224.209438 
L 492.360918 -222.432765 
L 492.864871 -220.656092 
L 493.412931 -218.879419 
L 493.981301 -217.102746 
L 494.539629 -215.326073 
L 495.053958 -213.5494 
L 495.491331 -211.772727 
L 495.825122 -209.996054 
L 496.039638 -208.219381 
L 496.1327 -206.442708 
L 496.1155 -204.666035 
L 496.009626 -202.889362 
L 495.841757 -201.11269 
L 495.637363 -199.336017 
L 495.41542 -197.559344 
L 495.186101 -195.782671 
L 494.952246 -194.005998 
L 494.714174 -192.229325 
L 494.476546 -190.452652 
L 494.254741 -188.675979 
L 494.075667 -186.899306 
L 493.966946 -185.122633 
L 493.934844 -183.34596 
L 493.944682 -181.569287 
L 493.924859 -179.792614 
L 493.802441 -178.015941 
L 493.550462 -176.239269 
L 493.211512 -174.462596 
L 492.878 -172.685923 
L 492.643543 -170.90925 
L 492.559718 -169.132577 
L 492.622565 -167.355904 
L 492.787993 -165.579231 
L 492.99851 -163.802558 
L 493.204395 -162.025885 
L 493.372722 -160.249212 
L 493.486599 -158.472539 
L 493.540187 -156.695866 
L 493.534017 -154.919193 
L 493.472475 -153.14252 
L 493.363287 -151.365847 
L 493.218165 -149.589175 
L 493.05459 -147.812502 
L 492.899932 -146.035829 
L 492.798804 -144.259156 
L 492.820941 -142.482483 
L 493.06015 -140.70581 
L 493.610069 -138.929137 
L 494.509824 -137.152464 
L 495.677524 -135.375791 
L 496.878462 -133.599118 
L 497.775556 -131.822445 
L 498.062091 -130.045772 
L 497.608271 -128.269099 
L 496.526604 -126.492426 
L 495.111461 -124.715753 
L 493.696563 -122.939081 
L 492.523205 -121.162408 
L 491.686311 -119.385735 
L 491.160277 -117.609062 
L 490.861298 -115.832389 
L 490.701733 -114.055716 
L 490.617154 -112.279043 
L 490.56989 -110.50237 
L 490.541443 -108.725697 
L 490.523636 -106.949024 
L 490.512669 -105.172351 
L 490.506294 -103.395678 
L 490.502882 -101.619005 
L 490.501244 -99.842332 
L 490.500652 -98.065659 
L 490.500899 -96.288987 
L 490.502535 -94.512314 
L 490.507415 -92.735641 
L 490.519607 -90.958968 
L 490.546202 -89.182295 
L 490.596913 -87.405622 
L 490.680973 -85.628949 
L 490.800996 -83.852276 
L 490.946232 -82.075603 
L 491.090466 -80.29893 
L 491.198935 -78.522257 
L 491.242853 -76.745584 
L 491.213198 -74.968911 
L 491.124337 -73.192238 
L 491.005131 -71.415565 
L 490.884363 -69.638893 
L 490.78027 -67.86222 
L 490.698809 -66.085547 
L 490.638118 -64.308874 
L 490.593811 -62.532201 
L 490.561901 -60.755528 
z
" style="stroke: #4c4c4c; stroke-width: 0.5"/>
    </defs>
    <g clip-path="url(#p3bb54f8dfe)">
     <use xlink:href="#mc094237dac" x="0" y="288" style="fill: #df2020; stroke: #4c4c4c; stroke-width: 0.5"/>
    </g>
   </g>
   <g id="matplotlib.axis_1">
    <g id="xtick_1">
     <g id="line2d_1">
      <defs>
       <path id="mb39fa1fd59" d="M 0 0 
L 0 3.5 
" style="stroke: #000000; stroke-width: 0.8"/>
      </defs>
      <g>
       <use xlink:href="#mb39fa1fd59" x="99.9" y="256.32" style="stroke: #000000; stroke-width: 0.8"/>
      </g>
     </g>
     <g id="text_1">
      <!-- H2AZ-H2B_Proximal -->
      <g transform="translate(102.520313 362.960625)rotate(-90)scale(0.1 -0.1)">
       <defs>
        <path id="DejaVuSans-48" d="M 628 4666 
L 1259 4666 
L 1259 2753 
L 3553 2753 
L 3553 4666 
L 4184 4666 
L 4184 0 
L 3553 0 
L 3553 2222 
L 1259 2222 
L 1259 0 
L 628 0 
L 628 4666 
z
" transform="scale(0.015625)"/>
        <path id="DejaVuSans-32" d="M 1228 531 
L 3431 531 
L 3431 0 
L 469 0 
L 469 531 
Q 828 903 1448 1529 
Q 2069 2156 2228 2338 
Q 2531 2678 2651 2914 
Q 2772 3150 2772 3378 
Q 2772 3750 2511 3984 
Q 2250 4219 1831 4219 
Q 1534 4219 1204 4116 
Q 875 4013 500 3803 
L 500 4441 
Q 881 4594 1212 4672 
Q 1544 4750 1819 4750 
Q 2544 4750 2975 4387 
Q 3406 4025 3406 3419 
Q 3406 3131 3298 2873 
Q 3191 2616 2906 2266 
Q 2828 2175 2409 1742 
Q 1991 1309 1228 531 
z
" transform="scale(0.015625)"/>
        <path id="DejaVuSans-41" d="M 2188 4044 
L 1331 1722 
L 3047 1722 
L 2188 4044 
z
M 1831 4666 
L 2547 4666 
L 4325 0 
L 3669 0 
L 3244 1197 
L 1141 1197 
L 716 0 
L 50 0 
L 1831 4666 
z
" transform="scale(0.015625)"/>
        <path id="DejaVuSans-5a" d="M 359 4666 
L 4025 4666 
L 4025 4184 
L 1075 531 
L 4097 531 
L 4097 0 
L 288 0 
L 288 481 
L 3238 4134 
L 359 4134 
L 359 4666 
z
" transform="scale(0.015625)"/>
        <path id="DejaVuSans-2d" d="M 313 2009 
L 1997 2009 
L 1997 1497 
L 313 1497 
L 313 2009 
z
" transform="scale(0.015625)"/>
        <path id="DejaVuSans-42" d="M 1259 2228 
L 1259 519 
L 2272 519 
Q 2781 519 3026 730 
Q 3272 941 3272 1375 
Q 3272 1813 3026 2020 
Q 2781 2228 2272 2228 
L 1259 2228 
z
M 1259 4147 
L 1259 2741 
L 2194 2741 
Q 2656 2741 2882 2914 
Q 3109 3088 3109 3444 
Q 3109 3797 2882 3972 
Q 2656 4147 2194 4147 
L 1259 4147 
z
M 628 4666 
L 2241 4666 
Q 2963 4666 3353 4366 
Q 3744 4066 3744 3513 
Q 3744 3084 3544 2831 
Q 3344 2578 2956 2516 
Q 3422 2416 3680 2098 
Q 3938 1781 3938 1306 
Q 3938 681 3513 340 
Q 3088 0 2303 0 
L 628 0 
L 628 4666 
z
" transform="scale(0.015625)"/>
        <path id="DejaVuSans-5f" d="M 3263 -1063 
L 3263 -1509 
L -63 -1509 
L -63 -1063 
L 3263 -1063 
z
" transform="scale(0.015625)"/>
        <path id="DejaVuSans-50" d="M 1259 4147 
L 1259 2394 
L 2053 2394 
Q 2494 2394 2734 2622 
Q 2975 2850 2975 3272 
Q 2975 3691 2734 3919 
Q 2494 4147 2053 4147 
L 1259 4147 
z
M 628 4666 
L 2053 4666 
Q 2838 4666 3239 4311 
Q 3641 3956 3641 3272 
Q 3641 2581 3239 2228 
Q 2838 1875 2053 1875 
L 1259 1875 
L 1259 0 
L 628 0 
L 628 4666 
z
" transform="scale(0.015625)"/>
        <path id="DejaVuSans-72" d="M 2631 2963 
Q 2534 3019 2420 3045 
Q 2306 3072 2169 3072 
Q 1681 3072 1420 2755 
Q 1159 2438 1159 1844 
L 1159 0 
L 581 0 
L 581 3500 
L 1159 3500 
L 1159 2956 
Q 1341 3275 1631 3429 
Q 1922 3584 2338 3584 
Q 2397 3584 2469 3576 
Q 2541 3569 2628 3553 
L 2631 2963 
z
" transform="scale(0.015625)"/>
        <path id="DejaVuSans-6f" d="M 1959 3097 
Q 1497 3097 1228 2736 
Q 959 2375 959 1747 
Q 959 1119 1226 758 
Q 1494 397 1959 397 
Q 2419 397 2687 759 
Q 2956 1122 2956 1747 
Q 2956 2369 2687 2733 
Q 2419 3097 1959 3097 
z
M 1959 3584 
Q 2709 3584 3137 3096 
Q 3566 2609 3566 1747 
Q 3566 888 3137 398 
Q 2709 -91 1959 -91 
Q 1206 -91 779 398 
Q 353 888 353 1747 
Q 353 2609 779 3096 
Q 1206 3584 1959 3584 
z
" transform="scale(0.015625)"/>
        <path id="DejaVuSans-78" d="M 3513 3500 
L 2247 1797 
L 3578 0 
L 2900 0 
L 1881 1375 
L 863 0 
L 184 0 
L 1544 1831 
L 300 3500 
L 978 3500 
L 1906 2253 
L 2834 3500 
L 3513 3500 
z
" transform="scale(0.015625)"/>
        <path id="DejaVuSans-69" d="M 603 3500 
L 1178 3500 
L 1178 0 
L 603 0 
L 603 3500 
z
M 603 4863 
L 1178 4863 
L 1178 4134 
L 603 4134 
L 603 4863 
z
" transform="scale(0.015625)"/>
        <path id="DejaVuSans-6d" d="M 3328 2828 
Q 3544 3216 3844 3400 
Q 4144 3584 4550 3584 
Q 5097 3584 5394 3201 
Q 5691 2819 5691 2113 
L 5691 0 
L 5113 0 
L 5113 2094 
Q 5113 2597 4934 2840 
Q 4756 3084 4391 3084 
Q 3944 3084 3684 2787 
Q 3425 2491 3425 1978 
L 3425 0 
L 2847 0 
L 2847 2094 
Q 2847 2600 2669 2842 
Q 2491 3084 2119 3084 
Q 1678 3084 1418 2786 
Q 1159 2488 1159 1978 
L 1159 0 
L 581 0 
L 581 3500 
L 1159 3500 
L 1159 2956 
Q 1356 3278 1631 3431 
Q 1906 3584 2284 3584 
Q 2666 3584 2933 3390 
Q 3200 3197 3328 2828 
z
" transform="scale(0.015625)"/>
        <path id="DejaVuSans-61" d="M 2194 1759 
Q 1497 1759 1228 1600 
Q 959 1441 959 1056 
Q 959 750 1161 570 
Q 1363 391 1709 391 
Q 2188 391 2477 730 
Q 2766 1069 2766 1631 
L 2766 1759 
L 2194 1759 
z
M 3341 1997 
L 3341 0 
L 2766 0 
L 2766 531 
Q 2569 213 2275 61 
Q 1981 -91 1556 -91 
Q 1019 -91 701 211 
Q 384 513 384 1019 
Q 384 1609 779 1909 
Q 1175 2209 1959 2209 
L 2766 2209 
L 2766 2266 
Q 2766 2663 2505 2880 
Q 2244 3097 1772 3097 
Q 1472 3097 1187 3025 
Q 903 2953 641 2809 
L 641 3341 
Q 956 3463 1253 3523 
Q 1550 3584 1831 3584 
Q 2591 3584 2966 3190 
Q 3341 2797 3341 1997 
z
" transform="scale(0.015625)"/>
        <path id="DejaVuSans-6c" d="M 603 4863 
L 1178 4863 
L 1178 0 
L 603 0 
L 603 4863 
z
" transform="scale(0.015625)"/>
       </defs>
       <use xlink:href="#DejaVuSans-48"/>
       <use xlink:href="#DejaVuSans-32" x="75.195312"/>
       <use xlink:href="#DejaVuSans-41" x="138.818359"/>
       <use xlink:href="#DejaVuSans-5a" x="207.226562"/>
       <use xlink:href="#DejaVuSans-2d" x="273.982422"/>
       <use xlink:href="#DejaVuSans-48" x="310.066406"/>
       <use xlink:href="#DejaVuSans-32" x="385.261719"/>
       <use xlink:href="#DejaVuSans-42" x="448.884766"/>
       <use xlink:href="#DejaVuSans-5f" x="517.488281"/>
       <use xlink:href="#DejaVuSans-50" x="567.488281"/>
       <use xlink:href="#DejaVuSans-72" x="626.041016"/>
       <use xlink:href="#DejaVuSans-6f" x="664.904297"/>
       <use xlink:href="#DejaVuSans-78" x="722.960938"/>
       <use xlink:href="#DejaVuSans-69" x="782.140625"/>
       <use xlink:href="#DejaVuSans-6d" x="809.923828"/>
       <use xlink:href="#DejaVuSans-61" x="907.335938"/>
       <use xlink:href="#DejaVuSans-6c" x="968.615234"/>
      </g>
     </g>
    </g>
    <g id="xtick_2">
     <g id="line2d_2">
      <g>
       <use xlink:href="#mb39fa1fd59" x="155.7" y="256.32" style="stroke: #000000; stroke-width: 0.8"/>
      </g>
     </g>
     <g id="text_2">
      <!-- H2AZ-H2B_Distal -->
      <g transform="translate(158.320312 348.584063)rotate(-90)scale(0.1 -0.1)">
       <defs>
        <path id="DejaVuSans-44" d="M 1259 4147 
L 1259 519 
L 2022 519 
Q 2988 519 3436 956 
Q 3884 1394 3884 2338 
Q 3884 3275 3436 3711 
Q 2988 4147 2022 4147 
L 1259 4147 
z
M 628 4666 
L 1925 4666 
Q 3281 4666 3915 4102 
Q 4550 3538 4550 2338 
Q 4550 1131 3912 565 
Q 3275 0 1925 0 
L 628 0 
L 628 4666 
z
" transform="scale(0.015625)"/>
        <path id="DejaVuSans-73" d="M 2834 3397 
L 2834 2853 
Q 2591 2978 2328 3040 
Q 2066 3103 1784 3103 
Q 1356 3103 1142 2972 
Q 928 2841 928 2578 
Q 928 2378 1081 2264 
Q 1234 2150 1697 2047 
L 1894 2003 
Q 2506 1872 2764 1633 
Q 3022 1394 3022 966 
Q 3022 478 2636 193 
Q 2250 -91 1575 -91 
Q 1294 -91 989 -36 
Q 684 19 347 128 
L 347 722 
Q 666 556 975 473 
Q 1284 391 1588 391 
Q 1994 391 2212 530 
Q 2431 669 2431 922 
Q 2431 1156 2273 1281 
Q 2116 1406 1581 1522 
L 1381 1569 
Q 847 1681 609 1914 
Q 372 2147 372 2553 
Q 372 3047 722 3315 
Q 1072 3584 1716 3584 
Q 2034 3584 2315 3537 
Q 2597 3491 2834 3397 
z
" transform="scale(0.015625)"/>
        <path id="DejaVuSans-74" d="M 1172 4494 
L 1172 3500 
L 2356 3500 
L 2356 3053 
L 1172 3053 
L 1172 1153 
Q 1172 725 1289 603 
Q 1406 481 1766 481 
L 2356 481 
L 2356 0 
L 1766 0 
Q 1100 0 847 248 
Q 594 497 594 1153 
L 594 3053 
L 172 3053 
L 172 3500 
L 594 3500 
L 594 4494 
L 1172 4494 
z
" transform="scale(0.015625)"/>
       </defs>
       <use xlink:href="#DejaVuSans-48"/>
       <use xlink:href="#DejaVuSans-32" x="75.195312"/>
       <use xlink:href="#DejaVuSans-41" x="138.818359"/>
       <use xlink:href="#DejaVuSans-5a" x="207.226562"/>
       <use xlink:href="#DejaVuSans-2d" x="273.982422"/>
       <use xlink:href="#DejaVuSans-48" x="310.066406"/>
       <use xlink:href="#DejaVuSans-32" x="385.261719"/>
       <use xlink:href="#DejaVuSans-42" x="448.884766"/>
       <use xlink:href="#DejaVuSans-5f" x="517.488281"/>
       <use xlink:href="#DejaVuSans-44" x="567.488281"/>
       <use xlink:href="#DejaVuSans-69" x="644.490234"/>
       <use xlink:href="#DejaVuSans-73" x="672.273438"/>
       <use xlink:href="#DejaVuSans-74" x="724.373047"/>
       <use xlink:href="#DejaVuSans-61" x="763.582031"/>
       <use xlink:href="#DejaVuSans-6c" x="824.861328"/>
      </g>
     </g>
    </g>
    <g id="xtick_3">
     <g id="line2d_3">
      <g>
       <use xlink:href="#mb39fa1fd59" x="211.5" y="256.32" style="stroke: #000000; stroke-width: 0.8"/>
      </g>
     </g>
     <g id="text_3">
      <!-- H3K4me3-H3_Proximal -->
      <g transform="translate(214.120313 377.760625)rotate(-90)scale(0.1 -0.1)">
       <defs>
        <path id="DejaVuSans-33" d="M 2597 2516 
Q 3050 2419 3304 2112 
Q 3559 1806 3559 1356 
Q 3559 666 3084 287 
Q 2609 -91 1734 -91 
Q 1441 -91 1130 -33 
Q 819 25 488 141 
L 488 750 
Q 750 597 1062 519 
Q 1375 441 1716 441 
Q 2309 441 2620 675 
Q 2931 909 2931 1356 
Q 2931 1769 2642 2001 
Q 2353 2234 1838 2234 
L 1294 2234 
L 1294 2753 
L 1863 2753 
Q 2328 2753 2575 2939 
Q 2822 3125 2822 3475 
Q 2822 3834 2567 4026 
Q 2313 4219 1838 4219 
Q 1578 4219 1281 4162 
Q 984 4106 628 3988 
L 628 4550 
Q 988 4650 1302 4700 
Q 1616 4750 1894 4750 
Q 2613 4750 3031 4423 
Q 3450 4097 3450 3541 
Q 3450 3153 3228 2886 
Q 3006 2619 2597 2516 
z
" transform="scale(0.015625)"/>
        <path id="DejaVuSans-4b" d="M 628 4666 
L 1259 4666 
L 1259 2694 
L 3353 4666 
L 4166 4666 
L 1850 2491 
L 4331 0 
L 3500 0 
L 1259 2247 
L 1259 0 
L 628 0 
L 628 4666 
z
" transform="scale(0.015625)"/>
        <path id="DejaVuSans-34" d="M 2419 4116 
L 825 1625 
L 2419 1625 
L 2419 4116 
z
M 2253 4666 
L 3047 4666 
L 3047 1625 
L 3713 1625 
L 3713 1100 
L 3047 1100 
L 3047 0 
L 2419 0 
L 2419 1100 
L 313 1100 
L 313 1709 
L 2253 4666 
z
" transform="scale(0.015625)"/>
        <path id="DejaVuSans-65" d="M 3597 1894 
L 3597 1613 
L 953 1613 
Q 991 1019 1311 708 
Q 1631 397 2203 397 
Q 2534 397 2845 478 
Q 3156 559 3463 722 
L 3463 178 
Q 3153 47 2828 -22 
Q 2503 -91 2169 -91 
Q 1331 -91 842 396 
Q 353 884 353 1716 
Q 353 2575 817 3079 
Q 1281 3584 2069 3584 
Q 2775 3584 3186 3129 
Q 3597 2675 3597 1894 
z
M 3022 2063 
Q 3016 2534 2758 2815 
Q 2500 3097 2075 3097 
Q 1594 3097 1305 2825 
Q 1016 2553 972 2059 
L 3022 2063 
z
" transform="scale(0.015625)"/>
       </defs>
       <use xlink:href="#DejaVuSans-48"/>
       <use xlink:href="#DejaVuSans-33" x="75.195312"/>
       <use xlink:href="#DejaVuSans-4b" x="138.818359"/>
       <use xlink:href="#DejaVuSans-34" x="204.394531"/>
       <use xlink:href="#DejaVuSans-6d" x="268.017578"/>
       <use xlink:href="#DejaVuSans-65" x="365.429688"/>
       <use xlink:href="#DejaVuSans-33" x="426.953125"/>
       <use xlink:href="#DejaVuSans-2d" x="490.576172"/>
       <use xlink:href="#DejaVuSans-48" x="526.660156"/>
       <use xlink:href="#DejaVuSans-33" x="601.855469"/>
       <use xlink:href="#DejaVuSans-5f" x="665.478516"/>
       <use xlink:href="#DejaVuSans-50" x="715.478516"/>
       <use xlink:href="#DejaVuSans-72" x="774.03125"/>
       <use xlink:href="#DejaVuSans-6f" x="812.894531"/>
       <use xlink:href="#DejaVuSans-78" x="870.951172"/>
       <use xlink:href="#DejaVuSans-69" x="930.130859"/>
       <use xlink:href="#DejaVuSans-6d" x="957.914062"/>
       <use xlink:href="#DejaVuSans-61" x="1055.326172"/>
       <use xlink:href="#DejaVuSans-6c" x="1116.605469"/>
      </g>
     </g>
    </g>
    <g id="xtick_4">
     <g id="line2d_4">
      <g>
       <use xlink:href="#mb39fa1fd59" x="267.3" y="256.32" style="stroke: #000000; stroke-width: 0.8"/>
      </g>
     </g>
     <g id="text_4">
      <!-- H3K4me3-H3_Distal -->
      <g transform="translate(269.920312 363.384063)rotate(-90)scale(0.1 -0.1)">
       <use xlink:href="#DejaVuSans-48"/>
       <use xlink:href="#DejaVuSans-33" x="75.195312"/>
       <use xlink:href="#DejaVuSans-4b" x="138.818359"/>
       <use xlink:href="#DejaVuSans-34" x="204.394531"/>
       <use xlink:href="#DejaVuSans-6d" x="268.017578"/>
       <use xlink:href="#DejaVuSans-65" x="365.429688"/>
       <use xlink:href="#DejaVuSans-33" x="426.953125"/>
       <use xlink:href="#DejaVuSans-2d" x="490.576172"/>
       <use xlink:href="#DejaVuSans-48" x="526.660156"/>
       <use xlink:href="#DejaVuSans-33" x="601.855469"/>
       <use xlink:href="#DejaVuSans-5f" x="665.478516"/>
       <use xlink:href="#DejaVuSans-44" x="715.478516"/>
       <use xlink:href="#DejaVuSans-69" x="792.480469"/>
       <use xlink:href="#DejaVuSans-73" x="820.263672"/>
       <use xlink:href="#DejaVuSans-74" x="872.363281"/>
       <use xlink:href="#DejaVuSans-61" x="911.572266"/>
       <use xlink:href="#DejaVuSans-6c" x="972.851562"/>
      </g>
     </g>
    </g>
    <g id="xtick_5">
     <g id="line2d_5">
      <g>
       <use xlink:href="#mb39fa1fd59" x="323.1" y="256.32" style="stroke: #000000; stroke-width: 0.8"/>
      </g>
     </g>
     <g id="text_5">
      <!-- H3K9ac-H3_Proximal -->
      <g transform="translate(325.720313 367.130938)rotate(-90)scale(0.1 -0.1)">
       <defs>
        <path id="DejaVuSans-39" d="M 703 97 
L 703 672 
Q 941 559 1184 500 
Q 1428 441 1663 441 
Q 2288 441 2617 861 
Q 2947 1281 2994 2138 
Q 2813 1869 2534 1725 
Q 2256 1581 1919 1581 
Q 1219 1581 811 2004 
Q 403 2428 403 3163 
Q 403 3881 828 4315 
Q 1253 4750 1959 4750 
Q 2769 4750 3195 4129 
Q 3622 3509 3622 2328 
Q 3622 1225 3098 567 
Q 2575 -91 1691 -91 
Q 1453 -91 1209 -44 
Q 966 3 703 97 
z
M 1959 2075 
Q 2384 2075 2632 2365 
Q 2881 2656 2881 3163 
Q 2881 3666 2632 3958 
Q 2384 4250 1959 4250 
Q 1534 4250 1286 3958 
Q 1038 3666 1038 3163 
Q 1038 2656 1286 2365 
Q 1534 2075 1959 2075 
z
" transform="scale(0.015625)"/>
        <path id="DejaVuSans-63" d="M 3122 3366 
L 3122 2828 
Q 2878 2963 2633 3030 
Q 2388 3097 2138 3097 
Q 1578 3097 1268 2742 
Q 959 2388 959 1747 
Q 959 1106 1268 751 
Q 1578 397 2138 397 
Q 2388 397 2633 464 
Q 2878 531 3122 666 
L 3122 134 
Q 2881 22 2623 -34 
Q 2366 -91 2075 -91 
Q 1284 -91 818 406 
Q 353 903 353 1747 
Q 353 2603 823 3093 
Q 1294 3584 2113 3584 
Q 2378 3584 2631 3529 
Q 2884 3475 3122 3366 
z
" transform="scale(0.015625)"/>
       </defs>
       <use xlink:href="#DejaVuSans-48"/>
       <use xlink:href="#DejaVuSans-33" x="75.195312"/>
       <use xlink:href="#DejaVuSans-4b" x="138.818359"/>
       <use xlink:href="#DejaVuSans-39" x="204.394531"/>
       <use xlink:href="#DejaVuSans-61" x="268.017578"/>
       <use xlink:href="#DejaVuSans-63" x="329.296875"/>
       <use xlink:href="#DejaVuSans-2d" x="384.277344"/>
       <use xlink:href="#DejaVuSans-48" x="420.361328"/>
       <use xlink:href="#DejaVuSans-33" x="495.556641"/>
       <use xlink:href="#DejaVuSans-5f" x="559.179688"/>
       <use xlink:href="#DejaVuSans-50" x="609.179688"/>
       <use xlink:href="#DejaVuSans-72" x="667.732422"/>
       <use xlink:href="#DejaVuSans-6f" x="706.595703"/>
       <use xlink:href="#DejaVuSans-78" x="764.652344"/>
       <use xlink:href="#DejaVuSans-69" x="823.832031"/>
       <use xlink:href="#DejaVuSans-6d" x="851.615234"/>
       <use xlink:href="#DejaVuSans-61" x="949.027344"/>
       <use xlink:href="#DejaVuSans-6c" x="1010.306641"/>
      </g>
     </g>
    </g>
    <g id="xtick_6">
     <g id="line2d_6">
      <g>
       <use xlink:href="#mb39fa1fd59" x="378.9" y="256.32" style="stroke: #000000; stroke-width: 0.8"/>
      </g>
     </g>
     <g id="text_6">
      <!-- H3K9ac-H3_Distal -->
      <g transform="translate(381.520312 352.754375)rotate(-90)scale(0.1 -0.1)">
       <use xlink:href="#DejaVuSans-48"/>
       <use xlink:href="#DejaVuSans-33" x="75.195312"/>
       <use xlink:href="#DejaVuSans-4b" x="138.818359"/>
       <use xlink:href="#DejaVuSans-39" x="204.394531"/>
       <use xlink:href="#DejaVuSans-61" x="268.017578"/>
       <use xlink:href="#DejaVuSans-63" x="329.296875"/>
       <use xlink:href="#DejaVuSans-2d" x="384.277344"/>
       <use xlink:href="#DejaVuSans-48" x="420.361328"/>
       <use xlink:href="#DejaVuSans-33" x="495.556641"/>
       <use xlink:href="#DejaVuSans-5f" x="559.179688"/>
       <use xlink:href="#DejaVuSans-44" x="609.179688"/>
       <use xlink:href="#DejaVuSans-69" x="686.181641"/>
       <use xlink:href="#DejaVuSans-73" x="713.964844"/>
       <use xlink:href="#DejaVuSans-74" x="766.064453"/>
       <use xlink:href="#DejaVuSans-61" x="805.273438"/>
       <use xlink:href="#DejaVuSans-6c" x="866.552734"/>
      </g>
     </g>
    </g>
    <g id="xtick_7">
     <g id="line2d_7">
      <g>
       <use xlink:href="#mb39fa1fd59" x="434.7" y="256.32" style="stroke: #000000; stroke-width: 0.8"/>
      </g>
     </g>
     <g id="text_7">
      <!-- H3K27ac-H3_Proximal -->
      <g transform="translate(437.320312 373.493438)rotate(-90)scale(0.1 -0.1)">
       <defs>
        <path id="DejaVuSans-37" d="M 525 4666 
L 3525 4666 
L 3525 4397 
L 1831 0 
L 1172 0 
L 2766 4134 
L 525 4134 
L 525 4666 
z
" transform="scale(0.015625)"/>
       </defs>
       <use xlink:href="#DejaVuSans-48"/>
       <use xlink:href="#DejaVuSans-33" x="75.195312"/>
       <use xlink:href="#DejaVuSans-4b" x="138.818359"/>
       <use xlink:href="#DejaVuSans-32" x="204.394531"/>
       <use xlink:href="#DejaVuSans-37" x="268.017578"/>
       <use xlink:href="#DejaVuSans-61" x="331.640625"/>
       <use xlink:href="#DejaVuSans-63" x="392.919922"/>
       <use xlink:href="#DejaVuSans-2d" x="447.900391"/>
       <use xlink:href="#DejaVuSans-48" x="483.984375"/>
       <use xlink:href="#DejaVuSans-33" x="559.179688"/>
       <use xlink:href="#DejaVuSans-5f" x="622.802734"/>
       <use xlink:href="#DejaVuSans-50" x="672.802734"/>
       <use xlink:href="#DejaVuSans-72" x="731.355469"/>
       <use xlink:href="#DejaVuSans-6f" x="770.21875"/>
       <use xlink:href="#DejaVuSans-78" x="828.275391"/>
       <use xlink:href="#DejaVuSans-69" x="887.455078"/>
       <use xlink:href="#DejaVuSans-6d" x="915.238281"/>
       <use xlink:href="#DejaVuSans-61" x="1012.650391"/>
       <use xlink:href="#DejaVuSans-6c" x="1073.929688"/>
      </g>
     </g>
    </g>
    <g id="xtick_8">
     <g id="line2d_8">
      <g>
       <use xlink:href="#mb39fa1fd59" x="490.5" y="256.32" style="stroke: #000000; stroke-width: 0.8"/>
      </g>
     </g>
     <g id="text_8">
      <!-- H3K27ac-H3_Distal -->
      <g transform="translate(493.120313 359.116875)rotate(-90)scale(0.1 -0.1)">
       <use xlink:href="#DejaVuSans-48"/>
       <use xlink:href="#DejaVuSans-33" x="75.195312"/>
       <use xlink:href="#DejaVuSans-4b" x="138.818359"/>
       <use xlink:href="#DejaVuSans-32" x="204.394531"/>
       <use xlink:href="#DejaVuSans-37" x="268.017578"/>
       <use xlink:href="#DejaVuSans-61" x="331.640625"/>
       <use xlink:href="#DejaVuSans-63" x="392.919922"/>
       <use xlink:href="#DejaVuSans-2d" x="447.900391"/>
       <use xlink:href="#DejaVuSans-48" x="483.984375"/>
       <use xlink:href="#DejaVuSans-33" x="559.179688"/>
       <use xlink:href="#DejaVuSans-5f" x="622.802734"/>
       <use xlink:href="#DejaVuSans-44" x="672.802734"/>
       <use xlink:href="#DejaVuSans-69" x="749.804688"/>
       <use xlink:href="#DejaVuSans-73" x="777.587891"/>
       <use xlink:href="#DejaVuSans-74" x="829.6875"/>
       <use xlink:href="#DejaVuSans-61" x="868.896484"/>
       <use xlink:href="#DejaVuSans-6c" x="930.175781"/>
      </g>
     </g>
    </g>
    <g id="text_9">
     <!-- modification -->
     <g transform="translate(264.167188 389.359063)scale(0.1 -0.1)">
      <defs>
       <path id="DejaVuSans-64" d="M 2906 2969 
L 2906 4863 
L 3481 4863 
L 3481 0 
L 2906 0 
L 2906 525 
Q 2725 213 2448 61 
Q 2172 -91 1784 -91 
Q 1150 -91 751 415 
Q 353 922 353 1747 
Q 353 2572 751 3078 
Q 1150 3584 1784 3584 
Q 2172 3584 2448 3432 
Q 2725 3281 2906 2969 
z
M 947 1747 
Q 947 1113 1208 752 
Q 1469 391 1925 391 
Q 2381 391 2643 752 
Q 2906 1113 2906 1747 
Q 2906 2381 2643 2742 
Q 2381 3103 1925 3103 
Q 1469 3103 1208 2742 
Q 947 2381 947 1747 
z
" transform="scale(0.015625)"/>
       <path id="DejaVuSans-66" d="M 2375 4863 
L 2375 4384 
L 1825 4384 
Q 1516 4384 1395 4259 
Q 1275 4134 1275 3809 
L 1275 3500 
L 2222 3500 
L 2222 3053 
L 1275 3053 
L 1275 0 
L 697 0 
L 697 3053 
L 147 3053 
L 147 3500 
L 697 3500 
L 697 3744 
Q 697 4328 969 4595 
Q 1241 4863 1831 4863 
L 2375 4863 
z
" transform="scale(0.015625)"/>
       <path id="DejaVuSans-6e" d="M 3513 2113 
L 3513 0 
L 2938 0 
L 2938 2094 
Q 2938 2591 2744 2837 
Q 2550 3084 2163 3084 
Q 1697 3084 1428 2787 
Q 1159 2491 1159 1978 
L 1159 0 
L 581 0 
L 581 3500 
L 1159 3500 
L 1159 2956 
Q 1366 3272 1645 3428 
Q 1925 3584 2291 3584 
Q 2894 3584 3203 3211 
Q 3513 2838 3513 2113 
z
" transform="scale(0.015625)"/>
      </defs>
      <use xlink:href="#DejaVuSans-6d"/>
      <use xlink:href="#DejaVuSans-6f" x="97.412109"/>
      <use xlink:href="#DejaVuSans-64" x="158.59375"/>
      <use xlink:href="#DejaVuSans-69" x="222.070312"/>
      <use xlink:href="#DejaVuSans-66" x="249.853516"/>
      <use xlink:href="#DejaVuSans-69" x="285.058594"/>
      <use xlink:href="#DejaVuSans-63" x="312.841797"/>
      <use xlink:href="#DejaVuSans-61" x="367.822266"/>
      <use xlink:href="#DejaVuSans-74" x="429.101562"/>
      <use xlink:href="#DejaVuSans-69" x="468.310547"/>
      <use xlink:href="#DejaVuSans-6f" x="496.09375"/>
      <use xlink:href="#DejaVuSans-6e" x="557.275391"/>
     </g>
    </g>
   </g>
   <g id="matplotlib.axis_2">
    <g id="ytick_1">
     <g id="line2d_9">
      <defs>
       <path id="m56148f78c4" d="M 0 0 
L -3.5 0 
" style="stroke: #000000; stroke-width: 0.8"/>
      </defs>
      <g>
       <use xlink:href="#m56148f78c4" x="72" y="239.901599" style="stroke: #000000; stroke-width: 0.8"/>
      </g>
     </g>
     <g id="text_10">
      <!-- 10 -->
      <g transform="translate(43.895313 243.700818)scale(0.1 -0.1)">
       <defs>
        <path id="DejaVuSans-2212" d="M 678 2272 
L 4684 2272 
L 4684 1741 
L 678 1741 
L 678 2272 
z
" transform="scale(0.015625)"/>
        <path id="DejaVuSans-31" d="M 794 531 
L 1825 531 
L 1825 4091 
L 703 3866 
L 703 4441 
L 1819 4666 
L 2450 4666 
L 2450 531 
L 3481 531 
L 3481 0 
L 794 0 
L 794 531 
z
" transform="scale(0.015625)"/>
        <path id="DejaVuSans-30" d="M 2034 4250 
Q 1547 4250 1301 3770 
Q 1056 3291 1056 2328 
Q 1056 1369 1301 889 
Q 1547 409 2034 409 
Q 2525 409 2770 889 
Q 3016 1369 3016 2328 
Q 3016 3291 2770 3770 
Q 2525 4250 2034 4250 
z
M 2034 4750 
Q 2819 4750 3233 4129 
Q 3647 3509 3647 2328 
Q 3647 1150 3233 529 
Q 2819 -91 2034 -91 
Q 1250 -91 836 529 
Q 422 1150 422 2328 
Q 422 3509 836 4129 
Q 1250 4750 2034 4750 
z
" transform="scale(0.015625)"/>
       </defs>
       <use xlink:href="#DejaVuSans-2212"/>
       <use xlink:href="#DejaVuSans-31" x="83.789062"/>
       <use xlink:href="#DejaVuSans-30" x="147.412109"/>
      </g>
     </g>
    </g>
    <g id="ytick_2">
     <g id="line2d_10">
      <g>
       <use xlink:href="#m56148f78c4" x="72" y="198.913493" style="stroke: #000000; stroke-width: 0.8"/>
      </g>
     </g>
     <g id="text_11">
      <!-- 5 -->
      <g transform="translate(50.257812 202.712712)scale(0.1 -0.1)">
       <defs>
        <path id="DejaVuSans-35" d="M 691 4666 
L 3169 4666 
L 3169 4134 
L 1269 4134 
L 1269 2991 
Q 1406 3038 1543 3061 
Q 1681 3084 1819 3084 
Q 2600 3084 3056 2656 
Q 3513 2228 3513 1497 
Q 3513 744 3044 326 
Q 2575 -91 1722 -91 
Q 1428 -91 1123 -41 
Q 819 9 494 109 
L 494 744 
Q 775 591 1075 516 
Q 1375 441 1709 441 
Q 2250 441 2565 725 
Q 2881 1009 2881 1497 
Q 2881 1984 2565 2268 
Q 2250 2553 1709 2553 
Q 1456 2553 1204 2497 
Q 953 2441 691 2322 
L 691 4666 
z
" transform="scale(0.015625)"/>
       </defs>
       <use xlink:href="#DejaVuSans-2212"/>
       <use xlink:href="#DejaVuSans-35" x="83.789062"/>
      </g>
     </g>
    </g>
    <g id="ytick_3">
     <g id="line2d_11">
      <g>
       <use xlink:href="#m56148f78c4" x="72" y="157.925387" style="stroke: #000000; stroke-width: 0.8"/>
      </g>
     </g>
     <g id="text_12">
      <!-- 0 -->
      <g transform="translate(58.6375 161.724606)scale(0.1 -0.1)">
       <use xlink:href="#DejaVuSans-30"/>
      </g>
     </g>
    </g>
    <g id="ytick_4">
     <g id="line2d_12">
      <g>
       <use xlink:href="#m56148f78c4" x="72" y="116.937281" style="stroke: #000000; stroke-width: 0.8"/>
      </g>
     </g>
     <g id="text_13">
      <!-- 5 -->
      <g transform="translate(58.6375 120.7365)scale(0.1 -0.1)">
       <use xlink:href="#DejaVuSans-35"/>
      </g>
     </g>
    </g>
    <g id="ytick_5">
     <g id="line2d_13">
      <g>
       <use xlink:href="#m56148f78c4" x="72" y="75.949175" style="stroke: #000000; stroke-width: 0.8"/>
      </g>
     </g>
     <g id="text_14">
      <!-- 10 -->
      <g transform="translate(52.275 79.748393)scale(0.1 -0.1)">
       <use xlink:href="#DejaVuSans-31"/>
       <use xlink:href="#DejaVuSans-30" x="63.623047"/>
      </g>
     </g>
    </g>
    <g id="ytick_6">
     <g id="line2d_14">
      <g>
       <use xlink:href="#m56148f78c4" x="72" y="34.961069" style="stroke: #000000; stroke-width: 0.8"/>
      </g>
     </g>
     <g id="text_15">
      <!-- 15 -->
      <g transform="translate(52.275 38.760287)scale(0.1 -0.1)">
       <use xlink:href="#DejaVuSans-31"/>
       <use xlink:href="#DejaVuSans-35" x="63.623047"/>
      </g>
     </g>
    </g>
    <g id="text_16">
     <!-- Density (log2) -->
     <g transform="translate(37.815625 180.743125)rotate(-90)scale(0.1 -0.1)">
      <defs>
       <path id="DejaVuSans-79" d="M 2059 -325 
Q 1816 -950 1584 -1140 
Q 1353 -1331 966 -1331 
L 506 -1331 
L 506 -850 
L 844 -850 
Q 1081 -850 1212 -737 
Q 1344 -625 1503 -206 
L 1606 56 
L 191 3500 
L 800 3500 
L 1894 763 
L 2988 3500 
L 3597 3500 
L 2059 -325 
z
" transform="scale(0.015625)"/>
       <path id="DejaVuSans-20" transform="scale(0.015625)"/>
       <path id="DejaVuSans-28" d="M 1984 4856 
Q 1566 4138 1362 3434 
Q 1159 2731 1159 2009 
Q 1159 1288 1364 580 
Q 1569 -128 1984 -844 
L 1484 -844 
Q 1016 -109 783 600 
Q 550 1309 550 2009 
Q 550 2706 781 3412 
Q 1013 4119 1484 4856 
L 1984 4856 
z
" transform="scale(0.015625)"/>
       <path id="DejaVuSans-67" d="M 2906 1791 
Q 2906 2416 2648 2759 
Q 2391 3103 1925 3103 
Q 1463 3103 1205 2759 
Q 947 2416 947 1791 
Q 947 1169 1205 825 
Q 1463 481 1925 481 
Q 2391 481 2648 825 
Q 2906 1169 2906 1791 
z
M 3481 434 
Q 3481 -459 3084 -895 
Q 2688 -1331 1869 -1331 
Q 1566 -1331 1297 -1286 
Q 1028 -1241 775 -1147 
L 775 -588 
Q 1028 -725 1275 -790 
Q 1522 -856 1778 -856 
Q 2344 -856 2625 -561 
Q 2906 -266 2906 331 
L 2906 616 
Q 2728 306 2450 153 
Q 2172 0 1784 0 
Q 1141 0 747 490 
Q 353 981 353 1791 
Q 353 2603 747 3093 
Q 1141 3584 1784 3584 
Q 2172 3584 2450 3431 
Q 2728 3278 2906 2969 
L 2906 3500 
L 3481 3500 
L 3481 434 
z
" transform="scale(0.015625)"/>
       <path id="DejaVuSans-29" d="M 513 4856 
L 1013 4856 
Q 1481 4119 1714 3412 
Q 1947 2706 1947 2009 
Q 1947 1309 1714 600 
Q 1481 -109 1013 -844 
L 513 -844 
Q 928 -128 1133 580 
Q 1338 1288 1338 2009 
Q 1338 2731 1133 3434 
Q 928 4138 513 4856 
z
" transform="scale(0.015625)"/>
      </defs>
      <use xlink:href="#DejaVuSans-44"/>
      <use xlink:href="#DejaVuSans-65" x="77.001953"/>
      <use xlink:href="#DejaVuSans-6e" x="138.525391"/>
      <use xlink:href="#DejaVuSans-73" x="201.904297"/>
      <use xlink:href="#DejaVuSans-69" x="254.003906"/>
      <use xlink:href="#DejaVuSans-74" x="281.787109"/>
      <use xlink:href="#DejaVuSans-79" x="320.996094"/>
      <use xlink:href="#DejaVuSans-20" x="380.175781"/>
      <use xlink:href="#DejaVuSans-28" x="411.962891"/>
      <use xlink:href="#DejaVuSans-6c" x="450.976562"/>
      <use xlink:href="#DejaVuSans-6f" x="478.759766"/>
      <use xlink:href="#DejaVuSans-67" x="539.941406"/>
      <use xlink:href="#DejaVuSans-32" x="603.417969"/>
      <use xlink:href="#DejaVuSans-29" x="667.041016"/>
     </g>
    </g>
   </g>
   <g id="line2d_15">
    <path d="M 99.9 238.049183 
L 99.9 55.525621 
" clip-path="url(#p3bb54f8dfe)" style="fill: none; stroke: #4c4c4c; stroke-width: 0.5; stroke-linecap: square"/>
   </g>
   <g id="line2d_16">
    <path d="M 99.9 157.925387 
L 99.9 94.007059 
" clip-path="url(#p3bb54f8dfe)" style="fill: none; stroke: #4c4c4c; stroke-width: 1.5; stroke-linecap: square"/>
   </g>
   <g id="line2d_17">
    <path d="M 155.7 246.24 
L 155.7 59.87364 
" clip-path="url(#p3bb54f8dfe)" style="fill: none; stroke: #4c4c4c; stroke-width: 0.5; stroke-linecap: square"/>
   </g>
   <g id="line2d_18">
    <path d="M 155.7 157.925387 
L 155.7 94.007059 
" clip-path="url(#p3bb54f8dfe)" style="fill: none; stroke: #4c4c4c; stroke-width: 1.5; stroke-linecap: square"/>
   </g>
   <g id="line2d_19">
    <path d="M 211.5 181.407637 
L 211.5 45.390902 
" clip-path="url(#p3bb54f8dfe)" style="fill: none; stroke: #4c4c4c; stroke-width: 0.5; stroke-linecap: square"/>
   </g>
   <g id="line2d_20">
    <path d="M 211.5 126.881139 
L 211.5 71.114218 
" clip-path="url(#p3bb54f8dfe)" style="fill: none; stroke: #4c4c4c; stroke-width: 1.5; stroke-linecap: square"/>
   </g>
   <g id="line2d_21">
    <path d="M 267.3 210.949814 
L 267.3 44.64 
" clip-path="url(#p3bb54f8dfe)" style="fill: none; stroke: #4c4c4c; stroke-width: 0.5; stroke-linecap: square"/>
   </g>
   <g id="line2d_22">
    <path d="M 267.3 128.098752 
L 267.3 71.577383 
" clip-path="url(#p3bb54f8dfe)" style="fill: none; stroke: #4c4c4c; stroke-width: 1.5; stroke-linecap: square"/>
   </g>
   <g id="line2d_23">
    <path d="M 323.1 229.87681 
L 323.1 50.94725 
" clip-path="url(#p3bb54f8dfe)" style="fill: none; stroke: #4c4c4c; stroke-width: 0.5; stroke-linecap: square"/>
   </g>
   <g id="line2d_24">
    <path d="M 323.1 147.544575 
L 323.1 81.564299 
" clip-path="url(#p3bb54f8dfe)" style="fill: none; stroke: #4c4c4c; stroke-width: 1.5; stroke-linecap: square"/>
   </g>
   <g id="line2d_25">
    <path d="M 378.9 229.87681 
L 378.9 47.84445 
" clip-path="url(#p3bb54f8dfe)" style="fill: none; stroke: #4c4c4c; stroke-width: 0.5; stroke-linecap: square"/>
   </g>
   <g id="line2d_26">
    <path d="M 378.9 155.683903 
L 378.9 81.564299 
" clip-path="url(#p3bb54f8dfe)" style="fill: none; stroke: #4c4c4c; stroke-width: 1.5; stroke-linecap: square"/>
   </g>
   <g id="line2d_27">
    <path d="M 434.7 227.244472 
L 434.7 51.104644 
" clip-path="url(#p3bb54f8dfe)" style="fill: none; stroke: #4c4c4c; stroke-width: 0.5; stroke-linecap: square"/>
   </g>
   <g id="line2d_28">
    <path d="M 434.7 154.591701 
L 434.7 85.264378 
" clip-path="url(#p3bb54f8dfe)" style="fill: none; stroke: #4c4c4c; stroke-width: 1.5; stroke-linecap: square"/>
   </g>
   <g id="line2d_29">
    <path d="M 490.5 227.244472 
L 490.5 51.353852 
" clip-path="url(#p3bb54f8dfe)" style="fill: none; stroke: #4c4c4c; stroke-width: 0.5; stroke-linecap: square"/>
   </g>
   <g id="line2d_30">
    <path d="M 490.5 157.925387 
L 490.5 86.83996 
" clip-path="url(#p3bb54f8dfe)" style="fill: none; stroke: #4c4c4c; stroke-width: 1.5; stroke-linecap: square"/>
   </g>
   <g id="patch_3">
    <path d="M 72 256.32 
L 72 34.56 
" style="fill: none; stroke: #000000; stroke-width: 0.8; stroke-linejoin: miter; stroke-linecap: square"/>
   </g>
   <g id="patch_4">
    <path d="M 518.4 256.32 
L 518.4 34.56 
" style="fill: none; stroke: #000000; stroke-width: 0.8; stroke-linejoin: miter; stroke-linecap: square"/>
   </g>
   <g id="patch_5">
    <path d="M 72 256.32 
L 518.4 256.32 
" style="fill: none; stroke: #000000; stroke-width: 0.8; stroke-linejoin: miter; stroke-linecap: square"/>
   </g>
   <g id="patch_6">
    <path d="M 72 34.56 
L 518.4 34.56 
" style="fill: none; stroke: #000000; stroke-width: 0.8; stroke-linejoin: miter; stroke-linecap: square"/>
   </g>
   <g id="PathCollection_1">
    <defs>
     <path id="m229271cfc9" d="M 0 0.5 
C 0.132602 0.5 0.25979 0.447317 0.353553 0.353553 
C 0.447317 0.25979 0.5 0.132602 0.5 0 
C 0.5 -0.132602 0.447317 -0.25979 0.353553 -0.353553 
C 0.25979 -0.447317 0.132602 -0.5 0 -0.5 
C -0.132602 -0.5 -0.25979 -0.447317 -0.353553 -0.353553 
C -0.447317 -0.25979 -0.5 -0.132602 -0.5 0 
C -0.5 0.132602 -0.447317 0.25979 -0.353553 0.353553 
C -0.25979 0.447317 -0.132602 0.5 0 0.5 
z
" style="stroke: #4c4c4c"/>
    </defs>
    <g clip-path="url(#p3bb54f8dfe)">
     <use xlink:href="#m229271cfc9" x="99.9" y="157.925387" style="fill: #ffffff; stroke: #4c4c4c"/>
    </g>
   </g>
   <g id="PathCollection_2">
    <g clip-path="url(#p3bb54f8dfe)">
     <use xlink:href="#m229271cfc9" x="155.7" y="157.925387" style="fill: #ffffff; stroke: #4c4c4c"/>
    </g>
   </g>
   <g id="PathCollection_3">
    <g clip-path="url(#p3bb54f8dfe)">
     <use xlink:href="#m229271cfc9" x="211.5" y="93.209184" style="fill: #ffffff; stroke: #4c4c4c"/>
    </g>
   </g>
   <g id="PathCollection_4">
    <g clip-path="url(#p3bb54f8dfe)">
     <use xlink:href="#m229271cfc9" x="267.3" y="96.594884" style="fill: #ffffff; stroke: #4c4c4c"/>
    </g>
   </g>
   <g id="PathCollection_5">
    <g clip-path="url(#p3bb54f8dfe)">
     <use xlink:href="#m229271cfc9" x="323.1" y="102.662353" style="fill: #ffffff; stroke: #4c4c4c"/>
    </g>
   </g>
   <g id="PathCollection_6">
    <g clip-path="url(#p3bb54f8dfe)">
     <use xlink:href="#m229271cfc9" x="378.9" y="102.662353" style="fill: #ffffff; stroke: #4c4c4c"/>
    </g>
   </g>
   <g id="PathCollection_7">
    <g clip-path="url(#p3bb54f8dfe)">
     <use xlink:href="#m229271cfc9" x="434.7" y="109.680829" style="fill: #ffffff; stroke: #4c4c4c"/>
    </g>
   </g>
   <g id="PathCollection_8">
    <g clip-path="url(#p3bb54f8dfe)">
     <use xlink:href="#m229271cfc9" x="490.5" y="109.680829" style="fill: #ffffff; stroke: #4c4c4c"/>
    </g>
   </g>
   <g id="text_17">
    <!-- Density at +1 nucleosome -->
    <g transform="translate(215.5275 28.56)scale(0.12 -0.12)">
     <defs>
      <path id="DejaVuSans-2b" d="M 2944 4013 
L 2944 2272 
L 4684 2272 
L 4684 1741 
L 2944 1741 
L 2944 0 
L 2419 0 
L 2419 1741 
L 678 1741 
L 678 2272 
L 2419 2272 
L 2419 4013 
L 2944 4013 
z
" transform="scale(0.015625)"/>
      <path id="DejaVuSans-75" d="M 544 1381 
L 544 3500 
L 1119 3500 
L 1119 1403 
Q 1119 906 1312 657 
Q 1506 409 1894 409 
Q 2359 409 2629 706 
Q 2900 1003 2900 1516 
L 2900 3500 
L 3475 3500 
L 3475 0 
L 2900 0 
L 2900 538 
Q 2691 219 2414 64 
Q 2138 -91 1772 -91 
Q 1169 -91 856 284 
Q 544 659 544 1381 
z
M 1991 3584 
L 1991 3584 
z
" transform="scale(0.015625)"/>
     </defs>
     <use xlink:href="#DejaVuSans-44"/>
     <use xlink:href="#DejaVuSans-65" x="77.001953"/>
     <use xlink:href="#DejaVuSans-6e" x="138.525391"/>
     <use xlink:href="#DejaVuSans-73" x="201.904297"/>
     <use xlink:href="#DejaVuSans-69" x="254.003906"/>
     <use xlink:href="#DejaVuSans-74" x="281.787109"/>
     <use xlink:href="#DejaVuSans-79" x="320.996094"/>
     <use xlink:href="#DejaVuSans-20" x="380.175781"/>
     <use xlink:href="#DejaVuSans-61" x="411.962891"/>
     <use xlink:href="#DejaVuSans-74" x="473.242188"/>
     <use xlink:href="#DejaVuSans-20" x="512.451172"/>
     <use xlink:href="#DejaVuSans-2b" x="544.238281"/>
     <use xlink:href="#DejaVuSans-31" x="628.027344"/>
     <use xlink:href="#DejaVuSans-20" x="691.650391"/>
     <use xlink:href="#DejaVuSans-6e" x="723.4375"/>
     <use xlink:href="#DejaVuSans-75" x="786.816406"/>
     <use xlink:href="#DejaVuSans-63" x="850.195312"/>
     <use xlink:href="#DejaVuSans-6c" x="905.175781"/>
     <use xlink:href="#DejaVuSans-65" x="932.958984"/>
     <use xlink:href="#DejaVuSans-6f" x="994.482422"/>
     <use xlink:href="#DejaVuSans-73" x="1055.664062"/>
     <use xlink:href="#DejaVuSans-6f" x="1107.763672"/>
     <use xlink:href="#DejaVuSans-6d" x="1168.945312"/>
     <use xlink:href="#DejaVuSans-65" x="1266.357422"/>
    </g>
   </g>
  </g>
 </g>
 <defs>
  <clipPath id="p3bb54f8dfe">
   <rect x="72" y="34.56" width="446.4" height="221.76"/>
  </clipPath>
 </defs>
</svg>
