<?xml version="1.0" encoding="utf-8" standalone="no"?>
<!DOCTYPE svg PUBLIC "-//W3C//DTD SVG 1.1//EN"
  "http://www.w3.org/Graphics/SVG/1.1/DTD/svg11.dtd">
<svg xmlns:xlink="http://www.w3.org/1999/xlink" width="576pt" height="288pt" viewBox="0 0 576 288" xmlns="http://www.w3.org/2000/svg" version="1.1">
 <metadata>
  <rdf:RDF xmlns:dc="http://purl.org/dc/elements/1.1/" xmlns:cc="http://creativecommons.org/ns#" xmlns:rdf="http://www.w3.org/1999/02/22-rdf-syntax-ns#">
   <cc:Work>
    <dc:type rdf:resource="http://purl.org/dc/dcmitype/StillImage"/>
    <dc:date>2024-11-18T21:57:16.918789</dc:date>
    <dc:format>image/svg+xml</dc:format>
    <dc:creator>
     <cc:Agent>
      <dc:title>Matplotlib v3.5.3, https://matplotlib.org/</dc:title>
     </cc:Agent>
    </dc:creator>
   </cc:Work>
  </rdf:RDF>
 </metadata>
 <defs>
  <style type="text/css">*{stroke-linejoin: round; stroke-linecap: butt}</style>
 </defs>
 <g id="figure_1">
  <g id="patch_1">
   <path d="M 0 288 
L 576 288 
L 576 0 
L 0 0 
L 0 288 
z
" style="fill: none"/>
  </g>
  <g id="axes_1">
   <g id="patch_2">
    <path d="M 72 256.32 
L 518.4 256.32 
L 518.4 34.56 
L 72 34.56 
L 72 256.32 
z
" style="fill: none"/>
   </g>
   <g id="PolyCollection_1">
    <defs>
     <path id="m09e0fa5f76" d="M 133.061839 -41.76 
L 122.538161 -41.76 
L 111.791984 -43.796364 
L 101.266982 -45.832727 
L 98.661096 -47.869091 
L 102.665202 -49.905455 
L 109.011086 -51.941818 
L 114.453942 -53.978182 
L 118.134289 -56.014545 
L 120.391796 -58.050909 
L 122.012157 -60.087273 
L 123.314923 -62.123636 
L 124.32949 -64.16 
L 125.030927 -66.196364 
L 125.554813 -68.232727 
L 126.021531 -70.269091 
L 126.408345 -72.305455 
L 126.717276 -74.341818 
L 126.94482 -76.378182 
L 127.100751 -78.414545 
L 127.203318 -80.450909 
L 127.257457 -82.487273 
L 127.272613 -84.523636 
L 127.377472 -86.56 
L 127.469292 -88.596364 
L 127.483255 -90.632727 
L 127.497385 -92.669091 
L 127.532833 -94.705455 
L 127.584122 -96.741818 
L 127.586298 -98.778182 
L 127.580834 -100.814545 
L 127.620336 -102.850909 
L 127.680749 -104.887273 
L 127.703576 -106.923636 
L 127.70268 -108.96 
L 127.704105 -110.996364 
L 127.709734 -113.032727 
L 127.711967 -115.069091 
L 127.730061 -117.105455 
L 127.754483 -119.141818 
L 127.756108 -121.178182 
L 127.758998 -123.214545 
L 127.770145 -125.250909 
L 127.77969 -127.287273 
L 127.778111 -129.323636 
L 127.759942 -131.36 
L 127.757107 -133.396364 
L 127.767941 -135.432727 
L 127.768089 -137.469091 
L 127.753198 -139.505455 
L 127.757266 -141.541818 
L 127.774632 -143.578182 
L 127.78432 -145.614545 
L 127.790151 -147.650909 
L 127.797066 -149.687273 
L 127.797116 -151.723636 
L 127.790817 -153.76 
L 127.788885 -155.796364 
L 127.789097 -157.832727 
L 127.790031 -159.869091 
L 127.796595 -161.905455 
L 127.79965 -163.941818 
L 127.799989 -165.978182 
L 127.8 -168.014545 
L 127.8 -170.050909 
L 127.8 -172.087273 
L 127.8 -174.123636 
L 127.8 -176.16 
L 127.8 -178.196364 
L 127.8 -180.232727 
L 127.8 -182.269091 
L 127.8 -184.305455 
L 127.8 -186.341818 
L 127.8 -188.378182 
L 127.8 -190.414545 
L 127.799999 -192.450909 
L 127.799942 -194.487273 
L 127.798872 -196.523636 
L 127.793233 -198.56 
L 127.785462 -200.596364 
L 127.7847 -202.632727 
L 127.791752 -204.669091 
L 127.798332 -206.705455 
L 127.799894 -208.741818 
L 127.799998 -210.778182 
L 127.8 -212.814545 
L 127.8 -214.850909 
L 127.8 -216.887273 
L 127.8 -218.923636 
L 127.8 -220.96 
L 127.8 -222.996364 
L 127.8 -225.032727 
L 127.8 -227.069091 
L 127.8 -229.105455 
L 127.8 -231.141818 
L 127.8 -233.178182 
L 127.799999 -235.214545 
L 127.799957 -237.250909 
L 127.799084 -239.287273 
L 127.794277 -241.323636 
L 127.789458 -243.36 
L 127.810542 -243.36 
L 127.810542 -243.36 
L 127.805723 -241.323636 
L 127.800916 -239.287273 
L 127.800043 -237.250909 
L 127.800001 -235.214545 
L 127.8 -233.178182 
L 127.8 -231.141818 
L 127.8 -229.105455 
L 127.8 -227.069091 
L 127.8 -225.032727 
L 127.8 -222.996364 
L 127.8 -220.96 
L 127.8 -218.923636 
L 127.8 -216.887273 
L 127.8 -214.850909 
L 127.8 -212.814545 
L 127.800002 -210.778182 
L 127.800106 -208.741818 
L 127.801668 -206.705455 
L 127.808248 -204.669091 
L 127.8153 -202.632727 
L 127.814538 -200.596364 
L 127.806767 -198.56 
L 127.801128 -196.523636 
L 127.800058 -194.487273 
L 127.800001 -192.450909 
L 127.8 -190.414545 
L 127.8 -188.378182 
L 127.8 -186.341818 
L 127.8 -184.305455 
L 127.8 -182.269091 
L 127.8 -180.232727 
L 127.8 -178.196364 
L 127.8 -176.16 
L 127.8 -174.123636 
L 127.8 -172.087273 
L 127.8 -170.050909 
L 127.8 -168.014545 
L 127.800011 -165.978182 
L 127.80035 -163.941818 
L 127.803405 -161.905455 
L 127.809969 -159.869091 
L 127.810903 -157.832727 
L 127.811115 -155.796364 
L 127.809183 -153.76 
L 127.802884 -151.723636 
L 127.802934 -149.687273 
L 127.809849 -147.650909 
L 127.81568 -145.614545 
L 127.825368 -143.578182 
L 127.842734 -141.541818 
L 127.846802 -139.505455 
L 127.831911 -137.469091 
L 127.832059 -135.432727 
L 127.842893 -133.396364 
L 127.840058 -131.36 
L 127.821889 -129.323636 
L 127.82031 -127.287273 
L 127.829855 -125.250909 
L 127.841002 -123.214545 
L 127.843892 -121.178182 
L 127.845517 -119.141818 
L 127.869939 -117.105455 
L 127.888033 -115.069091 
L 127.890266 -113.032727 
L 127.895895 -110.996364 
L 127.89732 -108.96 
L 127.896424 -106.923636 
L 127.919251 -104.887273 
L 127.979664 -102.850909 
L 128.019166 -100.814545 
L 128.013702 -98.778182 
L 128.015878 -96.741818 
L 128.067167 -94.705455 
L 128.102615 -92.669091 
L 128.116745 -90.632727 
L 128.130708 -88.596364 
L 128.222528 -86.56 
L 128.327387 -84.523636 
L 128.342543 -82.487273 
L 128.396682 -80.450909 
L 128.499249 -78.414545 
L 128.65518 -76.378182 
L 128.882724 -74.341818 
L 129.191655 -72.305455 
L 129.578469 -70.269091 
L 130.045187 -68.232727 
L 130.569073 -66.196364 
L 131.27051 -64.16 
L 132.285077 -62.123636 
L 133.587843 -60.087273 
L 135.208204 -58.050909 
L 137.465711 -56.014545 
L 141.146058 -53.978182 
L 146.588914 -51.941818 
L 152.934798 -49.905455 
L 156.938904 -47.869091 
L 154.333018 -45.832727 
L 143.808016 -43.796364 
L 133.061839 -41.76 
z
" style="stroke: #3d3d3d; stroke-width: 0.5"/>
    </defs>
    <g clip-path="url(#p6d09c735fd)">
     <use xlink:href="#m09e0fa5f76" x="0" y="288" style="fill: #3274a1; stroke: #3d3d3d; stroke-width: 0.5"/>
    </g>
   </g>
   <g id="PolyCollection_2">
    <defs>
     <path id="ma253fcc49a" d="M 254.221519 -41.76 
L 224.578481 -41.76 
L 204.357424 -43.14868 
L 194.76 -44.53736 
L 198.146969 -45.926039 
L 206.944705 -47.314719 
L 215.805639 -48.703399 
L 222.426392 -50.092079 
L 227.38875 -51.480759 
L 230.383075 -52.869439 
L 232.218359 -54.258118 
L 233.708436 -55.646798 
L 235.100281 -57.035478 
L 236.159755 -58.424158 
L 236.959563 -59.812838 
L 237.400395 -61.201517 
L 237.533773 -62.590197 
L 237.942374 -63.978877 
L 238.320237 -65.367557 
L 238.553627 -66.756237 
L 238.674355 -68.144916 
L 238.774128 -69.533596 
L 238.821131 -70.922276 
L 238.963997 -72.310956 
L 239.085434 -73.699636 
L 239.147193 -75.088316 
L 239.229955 -76.476995 
L 239.270639 -77.865675 
L 239.266002 -79.254355 
L 239.268911 -80.643035 
L 239.314268 -82.031715 
L 239.261184 -83.420394 
L 239.245687 -84.809074 
L 239.30882 -86.197754 
L 239.334798 -87.586434 
L 239.340171 -88.975114 
L 239.323801 -90.363793 
L 239.345101 -91.752473 
L 239.339163 -93.141153 
L 239.349372 -94.529833 
L 239.352212 -95.918513 
L 239.373564 -97.307193 
L 239.395749 -98.695872 
L 239.389427 -100.084552 
L 239.360255 -101.473232 
L 239.352253 -102.861912 
L 239.367861 -104.250592 
L 239.391055 -105.639271 
L 239.399414 -107.027951 
L 239.399979 -108.416631 
L 239.399125 -109.805311 
L 239.390447 -111.193991 
L 239.381796 -112.58267 
L 239.393942 -113.97135 
L 239.399648 -115.36003 
L 239.399996 -116.74871 
L 239.4 -118.13739 
L 239.4 -119.52607 
L 239.4 -120.914749 
L 239.4 -122.303429 
L 239.4 -123.692109 
L 239.4 -125.080789 
L 239.4 -126.469469 
L 239.4 -127.858148 
L 239.4 -129.246828 
L 239.4 -130.635508 
L 239.4 -132.024188 
L 239.4 -133.412868 
L 239.4 -134.801547 
L 239.4 -136.190227 
L 239.4 -137.578907 
L 239.4 -138.967587 
L 239.4 -140.356267 
L 239.4 -141.744947 
L 239.4 -143.133626 
L 239.4 -144.522306 
L 239.4 -145.910986 
L 239.4 -147.299666 
L 239.4 -148.688346 
L 239.4 -150.077025 
L 239.4 -151.465705 
L 239.4 -152.854385 
L 239.4 -154.243065 
L 239.4 -155.631745 
L 239.4 -157.020425 
L 239.4 -158.409104 
L 239.4 -159.797784 
L 239.4 -161.186464 
L 239.4 -162.575144 
L 239.4 -163.963824 
L 239.4 -165.352503 
L 239.4 -166.741183 
L 239.4 -168.129863 
L 239.4 -169.518543 
L 239.4 -170.907223 
L 239.4 -172.295902 
L 239.4 -173.684582 
L 239.399993 -175.073262 
L 239.399436 -176.461942 
L 239.392279 -177.850622 
L 239.381524 -179.239302 
L 239.418476 -179.239302 
L 239.418476 -179.239302 
L 239.407721 -177.850622 
L 239.400564 -176.461942 
L 239.400007 -175.073262 
L 239.4 -173.684582 
L 239.4 -172.295902 
L 239.4 -170.907223 
L 239.4 -169.518543 
L 239.4 -168.129863 
L 239.4 -166.741183 
L 239.4 -165.352503 
L 239.4 -163.963824 
L 239.4 -162.575144 
L 239.4 -161.186464 
L 239.4 -159.797784 
L 239.4 -158.409104 
L 239.4 -157.020425 
L 239.4 -155.631745 
L 239.4 -154.243065 
L 239.4 -152.854385 
L 239.4 -151.465705 
L 239.4 -150.077025 
L 239.4 -148.688346 
L 239.4 -147.299666 
L 239.4 -145.910986 
L 239.4 -144.522306 
L 239.4 -143.133626 
L 239.4 -141.744947 
L 239.4 -140.356267 
L 239.4 -138.967587 
L 239.4 -137.578907 
L 239.4 -136.190227 
L 239.4 -134.801547 
L 239.4 -133.412868 
L 239.4 -132.024188 
L 239.4 -130.635508 
L 239.4 -129.246828 
L 239.4 -127.858148 
L 239.4 -126.469469 
L 239.4 -125.080789 
L 239.4 -123.692109 
L 239.4 -122.303429 
L 239.4 -120.914749 
L 239.4 -119.52607 
L 239.4 -118.13739 
L 239.400004 -116.74871 
L 239.400352 -115.36003 
L 239.406058 -113.97135 
L 239.418204 -112.58267 
L 239.409553 -111.193991 
L 239.400875 -109.805311 
L 239.400021 -108.416631 
L 239.400586 -107.027951 
L 239.408945 -105.639271 
L 239.432139 -104.250592 
L 239.447747 -102.861912 
L 239.439745 -101.473232 
L 239.410573 -100.084552 
L 239.404251 -98.695872 
L 239.426436 -97.307193 
L 239.447788 -95.918513 
L 239.450628 -94.529833 
L 239.460837 -93.141153 
L 239.454899 -91.752473 
L 239.476199 -90.363793 
L 239.459829 -88.975114 
L 239.465202 -87.586434 
L 239.49118 -86.197754 
L 239.554313 -84.809074 
L 239.538816 -83.420394 
L 239.485732 -82.031715 
L 239.531089 -80.643035 
L 239.533998 -79.254355 
L 239.529361 -77.865675 
L 239.570045 -76.476995 
L 239.652807 -75.088316 
L 239.714566 -73.699636 
L 239.836003 -72.310956 
L 239.978869 -70.922276 
L 240.025872 -69.533596 
L 240.125645 -68.144916 
L 240.246373 -66.756237 
L 240.479763 -65.367557 
L 240.857626 -63.978877 
L 241.266227 -62.590197 
L 241.399605 -61.201517 
L 241.840437 -59.812838 
L 242.640245 -58.424158 
L 243.699719 -57.035478 
L 245.091564 -55.646798 
L 246.581641 -54.258118 
L 248.416925 -52.869439 
L 251.41125 -51.480759 
L 256.373608 -50.092079 
L 262.994361 -48.703399 
L 271.855295 -47.314719 
L 280.653031 -45.926039 
L 284.04 -44.53736 
L 274.442576 -43.14868 
L 254.221519 -41.76 
z
" style="stroke: #3d3d3d; stroke-width: 0.5"/>
    </defs>
    <g clip-path="url(#p6d09c735fd)">
     <use xlink:href="#ma253fcc49a" x="0" y="288" style="fill: #e1812c; stroke: #3d3d3d; stroke-width: 0.5"/>
    </g>
   </g>
   <g id="PolyCollection_3">
    <defs>
     <path id="mda06c7ce9a" d="M 361.138881 -41.76 
L 340.861119 -41.76 
L 327.659536 -43.390189 
L 318.11585 -45.020378 
L 317.790957 -46.650567 
L 323.156399 -48.280756 
L 329.142526 -49.910945 
L 334.625877 -51.541134 
L 338.8736 -53.171323 
L 341.864729 -54.801512 
L 343.918004 -56.431701 
L 345.266777 -58.06189 
L 346.370556 -59.692079 
L 347.360058 -61.322268 
L 348.165631 -62.952457 
L 348.772573 -64.582646 
L 349.108869 -66.212836 
L 349.412081 -67.843025 
L 349.724469 -69.473214 
L 349.942322 -71.103403 
L 350.158219 -72.733592 
L 350.397627 -74.363781 
L 350.548813 -75.99397 
L 350.597792 -77.624159 
L 350.632075 -79.254348 
L 350.69977 -80.884537 
L 350.726786 -82.514726 
L 350.688872 -84.144915 
L 350.724028 -85.775104 
L 350.788665 -87.405293 
L 350.807065 -89.035482 
L 350.812354 -90.665671 
L 350.801982 -92.29586 
L 350.812569 -93.926049 
L 350.86499 -95.556238 
L 350.894059 -97.186427 
L 350.884551 -98.816616 
L 350.884211 -100.446805 
L 350.88269 -102.076994 
L 350.897873 -103.707183 
L 350.943015 -105.337372 
L 350.964889 -106.967561 
L 350.955483 -108.59775 
L 350.95062 -110.227939 
L 350.950043 -111.858129 
L 350.940933 -113.488318 
L 350.953728 -115.118507 
L 350.981724 -116.748696 
L 350.993682 -118.378885 
L 350.982823 -120.009074 
L 350.96525 -121.639263 
L 350.96837 -123.269452 
L 350.972546 -124.899641 
L 350.974892 -126.52983 
L 350.990459 -128.160019 
L 350.993993 -129.790208 
L 350.983273 -131.420397 
L 350.977818 -133.050586 
L 350.987537 -134.680775 
L 350.99734 -136.310964 
L 350.999794 -137.941153 
L 350.999494 -139.571342 
L 350.9955 -141.201531 
L 350.987807 -142.83172 
L 350.990011 -144.461909 
L 350.997526 -146.092098 
L 350.999815 -147.722287 
L 350.999996 -149.352476 
L 351 -150.982665 
L 351 -152.612854 
L 351 -154.243043 
L 351 -155.873232 
L 351 -157.503422 
L 351 -159.133611 
L 351 -160.7638 
L 351 -162.393989 
L 351 -164.024178 
L 351 -165.654367 
L 351 -167.284556 
L 351 -168.914745 
L 351 -170.544934 
L 351 -172.175123 
L 351 -173.805312 
L 351 -175.435501 
L 351 -177.06569 
L 351 -178.695879 
L 351 -180.326068 
L 351 -181.956257 
L 351 -183.586446 
L 351 -185.216635 
L 351 -186.846824 
L 351 -188.477013 
L 351 -190.107202 
L 351 -191.737391 
L 351 -193.36758 
L 350.999983 -194.997769 
L 350.999497 -196.627958 
L 350.99544 -198.258147 
L 350.986615 -199.888336 
L 350.982847 -201.518525 
L 350.984495 -203.148715 
L 351.015505 -203.148715 
L 351.015505 -203.148715 
L 351.017153 -201.518525 
L 351.013385 -199.888336 
L 351.00456 -198.258147 
L 351.000503 -196.627958 
L 351.000017 -194.997769 
L 351 -193.36758 
L 351 -191.737391 
L 351 -190.107202 
L 351 -188.477013 
L 351 -186.846824 
L 351 -185.216635 
L 351 -183.586446 
L 351 -181.956257 
L 351 -180.326068 
L 351 -178.695879 
L 351 -177.06569 
L 351 -175.435501 
L 351 -173.805312 
L 351 -172.175123 
L 351 -170.544934 
L 351 -168.914745 
L 351 -167.284556 
L 351 -165.654367 
L 351 -164.024178 
L 351 -162.393989 
L 351 -160.7638 
L 351 -159.133611 
L 351 -157.503422 
L 351 -155.873232 
L 351 -154.243043 
L 351 -152.612854 
L 351 -150.982665 
L 351.000004 -149.352476 
L 351.000185 -147.722287 
L 351.002474 -146.092098 
L 351.009989 -144.461909 
L 351.012193 -142.83172 
L 351.0045 -141.201531 
L 351.000506 -139.571342 
L 351.000206 -137.941153 
L 351.00266 -136.310964 
L 351.012463 -134.680775 
L 351.022182 -133.050586 
L 351.016727 -131.420397 
L 351.006007 -129.790208 
L 351.009541 -128.160019 
L 351.025108 -126.52983 
L 351.027454 -124.899641 
L 351.03163 -123.269452 
L 351.03475 -121.639263 
L 351.017177 -120.009074 
L 351.006318 -118.378885 
L 351.018276 -116.748696 
L 351.046272 -115.118507 
L 351.059067 -113.488318 
L 351.049957 -111.858129 
L 351.04938 -110.227939 
L 351.044517 -108.59775 
L 351.035111 -106.967561 
L 351.056985 -105.337372 
L 351.102127 -103.707183 
L 351.11731 -102.076994 
L 351.115789 -100.446805 
L 351.115449 -98.816616 
L 351.105941 -97.186427 
L 351.13501 -95.556238 
L 351.187431 -93.926049 
L 351.198018 -92.29586 
L 351.187646 -90.665671 
L 351.192935 -89.035482 
L 351.211335 -87.405293 
L 351.275972 -85.775104 
L 351.311128 -84.144915 
L 351.273214 -82.514726 
L 351.30023 -80.884537 
L 351.367925 -79.254348 
L 351.402208 -77.624159 
L 351.451187 -75.99397 
L 351.602373 -74.363781 
L 351.841781 -72.733592 
L 352.057678 -71.103403 
L 352.275531 -69.473214 
L 352.587919 -67.843025 
L 352.891131 -66.212836 
L 353.227427 -64.582646 
L 353.834369 -62.952457 
L 354.639942 -61.322268 
L 355.629444 -59.692079 
L 356.733223 -58.06189 
L 358.081996 -56.431701 
L 360.135271 -54.801512 
L 363.1264 -53.171323 
L 367.374123 -51.541134 
L 372.857474 -49.910945 
L 378.843601 -48.280756 
L 384.209043 -46.650567 
L 383.88415 -45.020378 
L 374.340464 -43.390189 
L 361.138881 -41.76 
z
" style="stroke: #3d3d3d; stroke-width: 0.5"/>
    </defs>
    <g clip-path="url(#p6d09c735fd)">
     <use xlink:href="#mda06c7ce9a" x="0" y="288" style="fill: #3a923a; stroke: #3d3d3d; stroke-width: 0.5"/>
    </g>
   </g>
   <g id="PolyCollection_4">
    <defs>
     <path id="m37fcba7602" d="M 473.719302 -41.76 
L 451.480698 -41.76 
L 436.018966 -43.785386 
L 429.258886 -45.810772 
L 432.896201 -47.836158 
L 440.538538 -49.861544 
L 447.6358 -51.88693 
L 452.249123 -53.912316 
L 455.160802 -55.937702 
L 457.266562 -57.963088 
L 458.695525 -59.988474 
L 459.458984 -62.013859 
L 460.117714 -64.039245 
L 460.708475 -66.064631 
L 461.092486 -68.090017 
L 461.401349 -70.115403 
L 461.694292 -72.140789 
L 461.839762 -74.166175 
L 461.977106 -76.191561 
L 462.141577 -78.216947 
L 462.199509 -80.242333 
L 462.196239 -82.267719 
L 462.191343 -84.293105 
L 462.330521 -86.318491 
L 462.438538 -88.343877 
L 462.402818 -90.369263 
L 462.414749 -92.394649 
L 462.435903 -94.420035 
L 462.46116 -96.445421 
L 462.492701 -98.470806 
L 462.46758 -100.496192 
L 462.489776 -102.521578 
L 462.534521 -104.546964 
L 462.530014 -106.57235 
L 462.536328 -108.597736 
L 462.556358 -110.623122 
L 462.55914 -112.648508 
L 462.552767 -114.673894 
L 462.543526 -116.69928 
L 462.567883 -118.724666 
L 462.589324 -120.750052 
L 462.587751 -122.775438 
L 462.594729 -124.800824 
L 462.598817 -126.82621 
L 462.591094 -128.851596 
L 462.574938 -130.876982 
L 462.576271 -132.902368 
L 462.577007 -134.927753 
L 462.571144 -136.953139 
L 462.558974 -138.978525 
L 462.555287 -141.003911 
L 462.581618 -143.029297 
L 462.594875 -145.054683 
L 462.588796 -147.080069 
L 462.591634 -149.105455 
L 462.597805 -151.130841 
L 462.592722 -153.156227 
L 462.587697 -155.181613 
L 462.590212 -157.206999 
L 462.587687 -159.232385 
L 462.594946 -161.257771 
L 462.599566 -163.283157 
L 462.599992 -165.308543 
L 462.6 -167.333929 
L 462.6 -169.359315 
L 462.6 -171.3847 
L 462.599983 -173.410086 
L 462.599261 -175.435472 
L 462.593446 -177.460858 
L 462.588071 -179.486244 
L 462.595546 -181.51163 
L 462.599659 -183.537016 
L 462.599995 -185.562402 
L 462.6 -187.587788 
L 462.6 -189.613174 
L 462.6 -191.63856 
L 462.6 -193.663946 
L 462.6 -195.689332 
L 462.6 -197.714718 
L 462.6 -199.740104 
L 462.6 -201.76549 
L 462.6 -203.790876 
L 462.6 -205.816262 
L 462.6 -207.841647 
L 462.6 -209.867033 
L 462.6 -211.892419 
L 462.6 -213.917805 
L 462.6 -215.943191 
L 462.6 -217.968577 
L 462.6 -219.993963 
L 462.6 -222.019349 
L 462.6 -224.044735 
L 462.6 -226.070121 
L 462.6 -228.095507 
L 462.6 -230.120893 
L 462.6 -232.146279 
L 462.6 -234.171665 
L 462.59999 -236.197051 
L 462.599492 -238.222437 
L 462.594534 -240.247823 
L 462.58793 -242.273209 
L 462.61207 -242.273209 
L 462.61207 -242.273209 
L 462.605466 -240.247823 
L 462.600508 -238.222437 
L 462.60001 -236.197051 
L 462.6 -234.171665 
L 462.6 -232.146279 
L 462.6 -230.120893 
L 462.6 -228.095507 
L 462.6 -226.070121 
L 462.6 -224.044735 
L 462.6 -222.019349 
L 462.6 -219.993963 
L 462.6 -217.968577 
L 462.6 -215.943191 
L 462.6 -213.917805 
L 462.6 -211.892419 
L 462.6 -209.867033 
L 462.6 -207.841647 
L 462.6 -205.816262 
L 462.6 -203.790876 
L 462.6 -201.76549 
L 462.6 -199.740104 
L 462.6 -197.714718 
L 462.6 -195.689332 
L 462.6 -193.663946 
L 462.6 -191.63856 
L 462.6 -189.613174 
L 462.6 -187.587788 
L 462.600005 -185.562402 
L 462.600341 -183.537016 
L 462.604454 -181.51163 
L 462.611929 -179.486244 
L 462.606554 -177.460858 
L 462.600739 -175.435472 
L 462.600017 -173.410086 
L 462.6 -171.3847 
L 462.6 -169.359315 
L 462.6 -167.333929 
L 462.600008 -165.308543 
L 462.600434 -163.283157 
L 462.605054 -161.257771 
L 462.612313 -159.232385 
L 462.609788 -157.206999 
L 462.612303 -155.181613 
L 462.607278 -153.156227 
L 462.602195 -151.130841 
L 462.608366 -149.105455 
L 462.611204 -147.080069 
L 462.605125 -145.054683 
L 462.618382 -143.029297 
L 462.644713 -141.003911 
L 462.641026 -138.978525 
L 462.628856 -136.953139 
L 462.622993 -134.927753 
L 462.623729 -132.902368 
L 462.625062 -130.876982 
L 462.608906 -128.851596 
L 462.601183 -126.82621 
L 462.605271 -124.800824 
L 462.612249 -122.775438 
L 462.610676 -120.750052 
L 462.632117 -118.724666 
L 462.656474 -116.69928 
L 462.647233 -114.673894 
L 462.64086 -112.648508 
L 462.643642 -110.623122 
L 462.663672 -108.597736 
L 462.669986 -106.57235 
L 462.665479 -104.546964 
L 462.710224 -102.521578 
L 462.73242 -100.496192 
L 462.707299 -98.470806 
L 462.73884 -96.445421 
L 462.764097 -94.420035 
L 462.785251 -92.394649 
L 462.797182 -90.369263 
L 462.761462 -88.343877 
L 462.869479 -86.318491 
L 463.008657 -84.293105 
L 463.003761 -82.267719 
L 463.000491 -80.242333 
L 463.058423 -78.216947 
L 463.222894 -76.191561 
L 463.360238 -74.166175 
L 463.505708 -72.140789 
L 463.798651 -70.115403 
L 464.107514 -68.090017 
L 464.491525 -66.064631 
L 465.082286 -64.039245 
L 465.741016 -62.013859 
L 466.504475 -59.988474 
L 467.933438 -57.963088 
L 470.039198 -55.937702 
L 472.950877 -53.912316 
L 477.5642 -51.88693 
L 484.661462 -49.861544 
L 492.303799 -47.836158 
L 495.941114 -45.810772 
L 489.181034 -43.785386 
L 473.719302 -41.76 
z
" style="stroke: #3d3d3d; stroke-width: 0.5"/>
    </defs>
    <g clip-path="url(#p6d09c735fd)">
     <use xlink:href="#m37fcba7602" x="0" y="288" style="fill: #c03d3e; stroke: #3d3d3d; stroke-width: 0.5"/>
    </g>
   </g>
   <g id="matplotlib.axis_1">
    <g id="xtick_1">
     <g id="line2d_1">
      <defs>
       <path id="mf89910c5fc" d="M 0 0 
L 0 3.5 
" style="stroke: #000000; stroke-width: 0.8"/>
      </defs>
      <g>
       <use xlink:href="#mf89910c5fc" x="127.8" y="256.32" style="stroke: #000000; stroke-width: 0.8"/>
      </g>
     </g>
     <g id="text_1">
      <!-- Oriented_Downstream -->
      <g transform="translate(71.777344 270.918437)scale(0.1 -0.1)">
       <defs>
        <path id="DejaVuSans-4f" d="M 2522 4238 
Q 1834 4238 1429 3725 
Q 1025 3213 1025 2328 
Q 1025 1447 1429 934 
Q 1834 422 2522 422 
Q 3209 422 3611 934 
Q 4013 1447 4013 2328 
Q 4013 3213 3611 3725 
Q 3209 4238 2522 4238 
z
M 2522 4750 
Q 3503 4750 4090 4092 
Q 4678 3434 4678 2328 
Q 4678 1225 4090 567 
Q 3503 -91 2522 -91 
Q 1538 -91 948 565 
Q 359 1222 359 2328 
Q 359 3434 948 4092 
Q 1538 4750 2522 4750 
z
" transform="scale(0.015625)"/>
        <path id="DejaVuSans-72" d="M 2631 2963 
Q 2534 3019 2420 3045 
Q 2306 3072 2169 3072 
Q 1681 3072 1420 2755 
Q 1159 2438 1159 1844 
L 1159 0 
L 581 0 
L 581 3500 
L 1159 3500 
L 1159 2956 
Q 1341 3275 1631 3429 
Q 1922 3584 2338 3584 
Q 2397 3584 2469 3576 
Q 2541 3569 2628 3553 
L 2631 2963 
z
" transform="scale(0.015625)"/>
        <path id="DejaVuSans-69" d="M 603 3500 
L 1178 3500 
L 1178 0 
L 603 0 
L 603 3500 
z
M 603 4863 
L 1178 4863 
L 1178 4134 
L 603 4134 
L 603 4863 
z
" transform="scale(0.015625)"/>
        <path id="DejaVuSans-65" d="M 3597 1894 
L 3597 1613 
L 953 1613 
Q 991 1019 1311 708 
Q 1631 397 2203 397 
Q 2534 397 2845 478 
Q 3156 559 3463 722 
L 3463 178 
Q 3153 47 2828 -22 
Q 2503 -91 2169 -91 
Q 1331 -91 842 396 
Q 353 884 353 1716 
Q 353 2575 817 3079 
Q 1281 3584 2069 3584 
Q 2775 3584 3186 3129 
Q 3597 2675 3597 1894 
z
M 3022 2063 
Q 3016 2534 2758 2815 
Q 2500 3097 2075 3097 
Q 1594 3097 1305 2825 
Q 1016 2553 972 2059 
L 3022 2063 
z
" transform="scale(0.015625)"/>
        <path id="DejaVuSans-6e" d="M 3513 2113 
L 3513 0 
L 2938 0 
L 2938 2094 
Q 2938 2591 2744 2837 
Q 2550 3084 2163 3084 
Q 1697 3084 1428 2787 
Q 1159 2491 1159 1978 
L 1159 0 
L 581 0 
L 581 3500 
L 1159 3500 
L 1159 2956 
Q 1366 3272 1645 3428 
Q 1925 3584 2291 3584 
Q 2894 3584 3203 3211 
Q 3513 2838 3513 2113 
z
" transform="scale(0.015625)"/>
        <path id="DejaVuSans-74" d="M 1172 4494 
L 1172 3500 
L 2356 3500 
L 2356 3053 
L 1172 3053 
L 1172 1153 
Q 1172 725 1289 603 
Q 1406 481 1766 481 
L 2356 481 
L 2356 0 
L 1766 0 
Q 1100 0 847 248 
Q 594 497 594 1153 
L 594 3053 
L 172 3053 
L 172 3500 
L 594 3500 
L 594 4494 
L 1172 4494 
z
" transform="scale(0.015625)"/>
        <path id="DejaVuSans-64" d="M 2906 2969 
L 2906 4863 
L 3481 4863 
L 3481 0 
L 2906 0 
L 2906 525 
Q 2725 213 2448 61 
Q 2172 -91 1784 -91 
Q 1150 -91 751 415 
Q 353 922 353 1747 
Q 353 2572 751 3078 
Q 1150 3584 1784 3584 
Q 2172 3584 2448 3432 
Q 2725 3281 2906 2969 
z
M 947 1747 
Q 947 1113 1208 752 
Q 1469 391 1925 391 
Q 2381 391 2643 752 
Q 2906 1113 2906 1747 
Q 2906 2381 2643 2742 
Q 2381 3103 1925 3103 
Q 1469 3103 1208 2742 
Q 947 2381 947 1747 
z
" transform="scale(0.015625)"/>
        <path id="DejaVuSans-5f" d="M 3263 -1063 
L 3263 -1509 
L -63 -1509 
L -63 -1063 
L 3263 -1063 
z
" transform="scale(0.015625)"/>
        <path id="DejaVuSans-44" d="M 1259 4147 
L 1259 519 
L 2022 519 
Q 2988 519 3436 956 
Q 3884 1394 3884 2338 
Q 3884 3275 3436 3711 
Q 2988 4147 2022 4147 
L 1259 4147 
z
M 628 4666 
L 1925 4666 
Q 3281 4666 3915 4102 
Q 4550 3538 4550 2338 
Q 4550 1131 3912 565 
Q 3275 0 1925 0 
L 628 0 
L 628 4666 
z
" transform="scale(0.015625)"/>
        <path id="DejaVuSans-6f" d="M 1959 3097 
Q 1497 3097 1228 2736 
Q 959 2375 959 1747 
Q 959 1119 1226 758 
Q 1494 397 1959 397 
Q 2419 397 2687 759 
Q 2956 1122 2956 1747 
Q 2956 2369 2687 2733 
Q 2419 3097 1959 3097 
z
M 1959 3584 
Q 2709 3584 3137 3096 
Q 3566 2609 3566 1747 
Q 3566 888 3137 398 
Q 2709 -91 1959 -91 
Q 1206 -91 779 398 
Q 353 888 353 1747 
Q 353 2609 779 3096 
Q 1206 3584 1959 3584 
z
" transform="scale(0.015625)"/>
        <path id="DejaVuSans-77" d="M 269 3500 
L 844 3500 
L 1563 769 
L 2278 3500 
L 2956 3500 
L 3675 769 
L 4391 3500 
L 4966 3500 
L 4050 0 
L 3372 0 
L 2619 2869 
L 1863 0 
L 1184 0 
L 269 3500 
z
" transform="scale(0.015625)"/>
        <path id="DejaVuSans-73" d="M 2834 3397 
L 2834 2853 
Q 2591 2978 2328 3040 
Q 2066 3103 1784 3103 
Q 1356 3103 1142 2972 
Q 928 2841 928 2578 
Q 928 2378 1081 2264 
Q 1234 2150 1697 2047 
L 1894 2003 
Q 2506 1872 2764 1633 
Q 3022 1394 3022 966 
Q 3022 478 2636 193 
Q 2250 -91 1575 -91 
Q 1294 -91 989 -36 
Q 684 19 347 128 
L 347 722 
Q 666 556 975 473 
Q 1284 391 1588 391 
Q 1994 391 2212 530 
Q 2431 669 2431 922 
Q 2431 1156 2273 1281 
Q 2116 1406 1581 1522 
L 1381 1569 
Q 847 1681 609 1914 
Q 372 2147 372 2553 
Q 372 3047 722 3315 
Q 1072 3584 1716 3584 
Q 2034 3584 2315 3537 
Q 2597 3491 2834 3397 
z
" transform="scale(0.015625)"/>
        <path id="DejaVuSans-61" d="M 2194 1759 
Q 1497 1759 1228 1600 
Q 959 1441 959 1056 
Q 959 750 1161 570 
Q 1363 391 1709 391 
Q 2188 391 2477 730 
Q 2766 1069 2766 1631 
L 2766 1759 
L 2194 1759 
z
M 3341 1997 
L 3341 0 
L 2766 0 
L 2766 531 
Q 2569 213 2275 61 
Q 1981 -91 1556 -91 
Q 1019 -91 701 211 
Q 384 513 384 1019 
Q 384 1609 779 1909 
Q 1175 2209 1959 2209 
L 2766 2209 
L 2766 2266 
Q 2766 2663 2505 2880 
Q 2244 3097 1772 3097 
Q 1472 3097 1187 3025 
Q 903 2953 641 2809 
L 641 3341 
Q 956 3463 1253 3523 
Q 1550 3584 1831 3584 
Q 2591 3584 2966 3190 
Q 3341 2797 3341 1997 
z
" transform="scale(0.015625)"/>
        <path id="DejaVuSans-6d" d="M 3328 2828 
Q 3544 3216 3844 3400 
Q 4144 3584 4550 3584 
Q 5097 3584 5394 3201 
Q 5691 2819 5691 2113 
L 5691 0 
L 5113 0 
L 5113 2094 
Q 5113 2597 4934 2840 
Q 4756 3084 4391 3084 
Q 3944 3084 3684 2787 
Q 3425 2491 3425 1978 
L 3425 0 
L 2847 0 
L 2847 2094 
Q 2847 2600 2669 2842 
Q 2491 3084 2119 3084 
Q 1678 3084 1418 2786 
Q 1159 2488 1159 1978 
L 1159 0 
L 581 0 
L 581 3500 
L 1159 3500 
L 1159 2956 
Q 1356 3278 1631 3431 
Q 1906 3584 2284 3584 
Q 2666 3584 2933 3390 
Q 3200 3197 3328 2828 
z
" transform="scale(0.015625)"/>
       </defs>
       <use xlink:href="#DejaVuSans-4f"/>
       <use xlink:href="#DejaVuSans-72" x="78.710938"/>
       <use xlink:href="#DejaVuSans-69" x="119.824219"/>
       <use xlink:href="#DejaVuSans-65" x="147.607422"/>
       <use xlink:href="#DejaVuSans-6e" x="209.130859"/>
       <use xlink:href="#DejaVuSans-74" x="272.509766"/>
       <use xlink:href="#DejaVuSans-65" x="311.71875"/>
       <use xlink:href="#DejaVuSans-64" x="373.242188"/>
       <use xlink:href="#DejaVuSans-5f" x="436.71875"/>
       <use xlink:href="#DejaVuSans-44" x="486.71875"/>
       <use xlink:href="#DejaVuSans-6f" x="563.720703"/>
       <use xlink:href="#DejaVuSans-77" x="624.902344"/>
       <use xlink:href="#DejaVuSans-6e" x="706.689453"/>
       <use xlink:href="#DejaVuSans-73" x="770.068359"/>
       <use xlink:href="#DejaVuSans-74" x="822.167969"/>
       <use xlink:href="#DejaVuSans-72" x="861.376953"/>
       <use xlink:href="#DejaVuSans-65" x="900.240234"/>
       <use xlink:href="#DejaVuSans-61" x="961.763672"/>
       <use xlink:href="#DejaVuSans-6d" x="1023.042969"/>
      </g>
     </g>
    </g>
    <g id="xtick_2">
     <g id="line2d_2">
      <g>
       <use xlink:href="#mf89910c5fc" x="239.4" y="256.32" style="stroke: #000000; stroke-width: 0.8"/>
      </g>
     </g>
     <g id="text_2">
      <!-- Oriented_Upstream -->
      <g transform="translate(190.710937 270.918437)scale(0.1 -0.1)">
       <defs>
        <path id="DejaVuSans-55" d="M 556 4666 
L 1191 4666 
L 1191 1831 
Q 1191 1081 1462 751 
Q 1734 422 2344 422 
Q 2950 422 3222 751 
Q 3494 1081 3494 1831 
L 3494 4666 
L 4128 4666 
L 4128 1753 
Q 4128 841 3676 375 
Q 3225 -91 2344 -91 
Q 1459 -91 1007 375 
Q 556 841 556 1753 
L 556 4666 
z
" transform="scale(0.015625)"/>
        <path id="DejaVuSans-70" d="M 1159 525 
L 1159 -1331 
L 581 -1331 
L 581 3500 
L 1159 3500 
L 1159 2969 
Q 1341 3281 1617 3432 
Q 1894 3584 2278 3584 
Q 2916 3584 3314 3078 
Q 3713 2572 3713 1747 
Q 3713 922 3314 415 
Q 2916 -91 2278 -91 
Q 1894 -91 1617 61 
Q 1341 213 1159 525 
z
M 3116 1747 
Q 3116 2381 2855 2742 
Q 2594 3103 2138 3103 
Q 1681 3103 1420 2742 
Q 1159 2381 1159 1747 
Q 1159 1113 1420 752 
Q 1681 391 2138 391 
Q 2594 391 2855 752 
Q 3116 1113 3116 1747 
z
" transform="scale(0.015625)"/>
       </defs>
       <use xlink:href="#DejaVuSans-4f"/>
       <use xlink:href="#DejaVuSans-72" x="78.710938"/>
       <use xlink:href="#DejaVuSans-69" x="119.824219"/>
       <use xlink:href="#DejaVuSans-65" x="147.607422"/>
       <use xlink:href="#DejaVuSans-6e" x="209.130859"/>
       <use xlink:href="#DejaVuSans-74" x="272.509766"/>
       <use xlink:href="#DejaVuSans-65" x="311.71875"/>
       <use xlink:href="#DejaVuSans-64" x="373.242188"/>
       <use xlink:href="#DejaVuSans-5f" x="436.71875"/>
       <use xlink:href="#DejaVuSans-55" x="486.71875"/>
       <use xlink:href="#DejaVuSans-70" x="559.912109"/>
       <use xlink:href="#DejaVuSans-73" x="623.388672"/>
       <use xlink:href="#DejaVuSans-74" x="675.488281"/>
       <use xlink:href="#DejaVuSans-72" x="714.697266"/>
       <use xlink:href="#DejaVuSans-65" x="753.560547"/>
       <use xlink:href="#DejaVuSans-61" x="815.083984"/>
       <use xlink:href="#DejaVuSans-6d" x="876.363281"/>
      </g>
     </g>
    </g>
    <g id="xtick_3">
     <g id="line2d_3">
      <g>
       <use xlink:href="#mf89910c5fc" x="351" y="256.32" style="stroke: #000000; stroke-width: 0.8"/>
      </g>
     </g>
     <g id="text_3">
      <!-- Random_Downstream -->
      <g transform="translate(296.115625 270.918437)scale(0.1 -0.1)">
       <defs>
        <path id="DejaVuSans-52" d="M 2841 2188 
Q 3044 2119 3236 1894 
Q 3428 1669 3622 1275 
L 4263 0 
L 3584 0 
L 2988 1197 
Q 2756 1666 2539 1819 
Q 2322 1972 1947 1972 
L 1259 1972 
L 1259 0 
L 628 0 
L 628 4666 
L 2053 4666 
Q 2853 4666 3247 4331 
Q 3641 3997 3641 3322 
Q 3641 2881 3436 2590 
Q 3231 2300 2841 2188 
z
M 1259 4147 
L 1259 2491 
L 2053 2491 
Q 2509 2491 2742 2702 
Q 2975 2913 2975 3322 
Q 2975 3731 2742 3939 
Q 2509 4147 2053 4147 
L 1259 4147 
z
" transform="scale(0.015625)"/>
       </defs>
       <use xlink:href="#DejaVuSans-52"/>
       <use xlink:href="#DejaVuSans-61" x="67.232422"/>
       <use xlink:href="#DejaVuSans-6e" x="128.511719"/>
       <use xlink:href="#DejaVuSans-64" x="191.890625"/>
       <use xlink:href="#DejaVuSans-6f" x="255.367188"/>
       <use xlink:href="#DejaVuSans-6d" x="316.548828"/>
       <use xlink:href="#DejaVuSans-5f" x="413.960938"/>
       <use xlink:href="#DejaVuSans-44" x="463.960938"/>
       <use xlink:href="#DejaVuSans-6f" x="540.962891"/>
       <use xlink:href="#DejaVuSans-77" x="602.144531"/>
       <use xlink:href="#DejaVuSans-6e" x="683.931641"/>
       <use xlink:href="#DejaVuSans-73" x="747.310547"/>
       <use xlink:href="#DejaVuSans-74" x="799.410156"/>
       <use xlink:href="#DejaVuSans-72" x="838.619141"/>
       <use xlink:href="#DejaVuSans-65" x="877.482422"/>
       <use xlink:href="#DejaVuSans-61" x="939.005859"/>
       <use xlink:href="#DejaVuSans-6d" x="1000.285156"/>
      </g>
     </g>
    </g>
    <g id="xtick_4">
     <g id="line2d_4">
      <g>
       <use xlink:href="#mf89910c5fc" x="462.6" y="256.32" style="stroke: #000000; stroke-width: 0.8"/>
      </g>
     </g>
     <g id="text_4">
      <!-- Random_Upstream -->
      <g transform="translate(415.049219 270.918437)scale(0.1 -0.1)">
       <use xlink:href="#DejaVuSans-52"/>
       <use xlink:href="#DejaVuSans-61" x="67.232422"/>
       <use xlink:href="#DejaVuSans-6e" x="128.511719"/>
       <use xlink:href="#DejaVuSans-64" x="191.890625"/>
       <use xlink:href="#DejaVuSans-6f" x="255.367188"/>
       <use xlink:href="#DejaVuSans-6d" x="316.548828"/>
       <use xlink:href="#DejaVuSans-5f" x="413.960938"/>
       <use xlink:href="#DejaVuSans-55" x="463.960938"/>
       <use xlink:href="#DejaVuSans-70" x="537.154297"/>
       <use xlink:href="#DejaVuSans-73" x="600.630859"/>
       <use xlink:href="#DejaVuSans-74" x="652.730469"/>
       <use xlink:href="#DejaVuSans-72" x="691.939453"/>
       <use xlink:href="#DejaVuSans-65" x="730.802734"/>
       <use xlink:href="#DejaVuSans-61" x="792.326172"/>
       <use xlink:href="#DejaVuSans-6d" x="853.605469"/>
      </g>
     </g>
    </g>
    <g id="text_5">
     <!-- category -->
     <g transform="translate(273.101562 284.874687)scale(0.1 -0.1)">
      <defs>
       <path id="DejaVuSans-63" d="M 3122 3366 
L 3122 2828 
Q 2878 2963 2633 3030 
Q 2388 3097 2138 3097 
Q 1578 3097 1268 2742 
Q 959 2388 959 1747 
Q 959 1106 1268 751 
Q 1578 397 2138 397 
Q 2388 397 2633 464 
Q 2878 531 3122 666 
L 3122 134 
Q 2881 22 2623 -34 
Q 2366 -91 2075 -91 
Q 1284 -91 818 406 
Q 353 903 353 1747 
Q 353 2603 823 3093 
Q 1294 3584 2113 3584 
Q 2378 3584 2631 3529 
Q 2884 3475 3122 3366 
z
" transform="scale(0.015625)"/>
       <path id="DejaVuSans-67" d="M 2906 1791 
Q 2906 2416 2648 2759 
Q 2391 3103 1925 3103 
Q 1463 3103 1205 2759 
Q 947 2416 947 1791 
Q 947 1169 1205 825 
Q 1463 481 1925 481 
Q 2391 481 2648 825 
Q 2906 1169 2906 1791 
z
M 3481 434 
Q 3481 -459 3084 -895 
Q 2688 -1331 1869 -1331 
Q 1566 -1331 1297 -1286 
Q 1028 -1241 775 -1147 
L 775 -588 
Q 1028 -725 1275 -790 
Q 1522 -856 1778 -856 
Q 2344 -856 2625 -561 
Q 2906 -266 2906 331 
L 2906 616 
Q 2728 306 2450 153 
Q 2172 0 1784 0 
Q 1141 0 747 490 
Q 353 981 353 1791 
Q 353 2603 747 3093 
Q 1141 3584 1784 3584 
Q 2172 3584 2450 3431 
Q 2728 3278 2906 2969 
L 2906 3500 
L 3481 3500 
L 3481 434 
z
" transform="scale(0.015625)"/>
       <path id="DejaVuSans-79" d="M 2059 -325 
Q 1816 -950 1584 -1140 
Q 1353 -1331 966 -1331 
L 506 -1331 
L 506 -850 
L 844 -850 
Q 1081 -850 1212 -737 
Q 1344 -625 1503 -206 
L 1606 56 
L 191 3500 
L 800 3500 
L 1894 763 
L 2988 3500 
L 3597 3500 
L 2059 -325 
z
" transform="scale(0.015625)"/>
      </defs>
      <use xlink:href="#DejaVuSans-63"/>
      <use xlink:href="#DejaVuSans-61" x="54.980469"/>
      <use xlink:href="#DejaVuSans-74" x="116.259766"/>
      <use xlink:href="#DejaVuSans-65" x="155.46875"/>
      <use xlink:href="#DejaVuSans-67" x="216.992188"/>
      <use xlink:href="#DejaVuSans-6f" x="280.46875"/>
      <use xlink:href="#DejaVuSans-72" x="341.650391"/>
      <use xlink:href="#DejaVuSans-79" x="382.763672"/>
     </g>
    </g>
   </g>
   <g id="matplotlib.axis_2">
    <g id="ytick_1">
     <g id="line2d_5">
      <defs>
       <path id="m5ce0314b95" d="M 0 0 
L -3.5 0 
" style="stroke: #000000; stroke-width: 0.8"/>
      </defs>
      <g>
       <use xlink:href="#m5ce0314b95" x="72" y="246.24" style="stroke: #000000; stroke-width: 0.8"/>
      </g>
     </g>
     <g id="text_6">
      <!-- 0 -->
      <g transform="translate(58.6375 250.039219)scale(0.1 -0.1)">
       <defs>
        <path id="DejaVuSans-30" d="M 2034 4250 
Q 1547 4250 1301 3770 
Q 1056 3291 1056 2328 
Q 1056 1369 1301 889 
Q 1547 409 2034 409 
Q 2525 409 2770 889 
Q 3016 1369 3016 2328 
Q 3016 3291 2770 3770 
Q 2525 4250 2034 4250 
z
M 2034 4750 
Q 2819 4750 3233 4129 
Q 3647 3509 3647 2328 
Q 3647 1150 3233 529 
Q 2819 -91 2034 -91 
Q 1250 -91 836 529 
Q 422 1150 422 2328 
Q 422 3509 836 4129 
Q 1250 4750 2034 4750 
z
" transform="scale(0.015625)"/>
       </defs>
       <use xlink:href="#DejaVuSans-30"/>
      </g>
     </g>
    </g>
    <g id="ytick_2">
     <g id="line2d_6">
      <g>
       <use xlink:href="#m5ce0314b95" x="72" y="210.874185" style="stroke: #000000; stroke-width: 0.8"/>
      </g>
     </g>
     <g id="text_7">
      <!-- 100 -->
      <g transform="translate(45.9125 214.673404)scale(0.1 -0.1)">
       <defs>
        <path id="DejaVuSans-31" d="M 794 531 
L 1825 531 
L 1825 4091 
L 703 3866 
L 703 4441 
L 1819 4666 
L 2450 4666 
L 2450 531 
L 3481 531 
L 3481 0 
L 794 0 
L 794 531 
z
" transform="scale(0.015625)"/>
       </defs>
       <use xlink:href="#DejaVuSans-31"/>
       <use xlink:href="#DejaVuSans-30" x="63.623047"/>
       <use xlink:href="#DejaVuSans-30" x="127.246094"/>
      </g>
     </g>
    </g>
    <g id="ytick_3">
     <g id="line2d_7">
      <g>
       <use xlink:href="#m5ce0314b95" x="72" y="175.50837" style="stroke: #000000; stroke-width: 0.8"/>
      </g>
     </g>
     <g id="text_8">
      <!-- 200 -->
      <g transform="translate(45.9125 179.307588)scale(0.1 -0.1)">
       <defs>
        <path id="DejaVuSans-32" d="M 1228 531 
L 3431 531 
L 3431 0 
L 469 0 
L 469 531 
Q 828 903 1448 1529 
Q 2069 2156 2228 2338 
Q 2531 2678 2651 2914 
Q 2772 3150 2772 3378 
Q 2772 3750 2511 3984 
Q 2250 4219 1831 4219 
Q 1534 4219 1204 4116 
Q 875 4013 500 3803 
L 500 4441 
Q 881 4594 1212 4672 
Q 1544 4750 1819 4750 
Q 2544 4750 2975 4387 
Q 3406 4025 3406 3419 
Q 3406 3131 3298 2873 
Q 3191 2616 2906 2266 
Q 2828 2175 2409 1742 
Q 1991 1309 1228 531 
z
" transform="scale(0.015625)"/>
       </defs>
       <use xlink:href="#DejaVuSans-32"/>
       <use xlink:href="#DejaVuSans-30" x="63.623047"/>
       <use xlink:href="#DejaVuSans-30" x="127.246094"/>
      </g>
     </g>
    </g>
    <g id="ytick_4">
     <g id="line2d_8">
      <g>
       <use xlink:href="#m5ce0314b95" x="72" y="140.142555" style="stroke: #000000; stroke-width: 0.8"/>
      </g>
     </g>
     <g id="text_9">
      <!-- 300 -->
      <g transform="translate(45.9125 143.941773)scale(0.1 -0.1)">
       <defs>
        <path id="DejaVuSans-33" d="M 2597 2516 
Q 3050 2419 3304 2112 
Q 3559 1806 3559 1356 
Q 3559 666 3084 287 
Q 2609 -91 1734 -91 
Q 1441 -91 1130 -33 
Q 819 25 488 141 
L 488 750 
Q 750 597 1062 519 
Q 1375 441 1716 441 
Q 2309 441 2620 675 
Q 2931 909 2931 1356 
Q 2931 1769 2642 2001 
Q 2353 2234 1838 2234 
L 1294 2234 
L 1294 2753 
L 1863 2753 
Q 2328 2753 2575 2939 
Q 2822 3125 2822 3475 
Q 2822 3834 2567 4026 
Q 2313 4219 1838 4219 
Q 1578 4219 1281 4162 
Q 984 4106 628 3988 
L 628 4550 
Q 988 4650 1302 4700 
Q 1616 4750 1894 4750 
Q 2613 4750 3031 4423 
Q 3450 4097 3450 3541 
Q 3450 3153 3228 2886 
Q 3006 2619 2597 2516 
z
" transform="scale(0.015625)"/>
       </defs>
       <use xlink:href="#DejaVuSans-33"/>
       <use xlink:href="#DejaVuSans-30" x="63.623047"/>
       <use xlink:href="#DejaVuSans-30" x="127.246094"/>
      </g>
     </g>
    </g>
    <g id="ytick_5">
     <g id="line2d_9">
      <g>
       <use xlink:href="#m5ce0314b95" x="72" y="104.776739" style="stroke: #000000; stroke-width: 0.8"/>
      </g>
     </g>
     <g id="text_10">
      <!-- 400 -->
      <g transform="translate(45.9125 108.575958)scale(0.1 -0.1)">
       <defs>
        <path id="DejaVuSans-34" d="M 2419 4116 
L 825 1625 
L 2419 1625 
L 2419 4116 
z
M 2253 4666 
L 3047 4666 
L 3047 1625 
L 3713 1625 
L 3713 1100 
L 3047 1100 
L 3047 0 
L 2419 0 
L 2419 1100 
L 313 1100 
L 313 1709 
L 2253 4666 
z
" transform="scale(0.015625)"/>
       </defs>
       <use xlink:href="#DejaVuSans-34"/>
       <use xlink:href="#DejaVuSans-30" x="63.623047"/>
       <use xlink:href="#DejaVuSans-30" x="127.246094"/>
      </g>
     </g>
    </g>
    <g id="ytick_6">
     <g id="line2d_10">
      <g>
       <use xlink:href="#m5ce0314b95" x="72" y="69.410924" style="stroke: #000000; stroke-width: 0.8"/>
      </g>
     </g>
     <g id="text_11">
      <!-- 500 -->
      <g transform="translate(45.9125 73.210143)scale(0.1 -0.1)">
       <defs>
        <path id="DejaVuSans-35" d="M 691 4666 
L 3169 4666 
L 3169 4134 
L 1269 4134 
L 1269 2991 
Q 1406 3038 1543 3061 
Q 1681 3084 1819 3084 
Q 2600 3084 3056 2656 
Q 3513 2228 3513 1497 
Q 3513 744 3044 326 
Q 2575 -91 1722 -91 
Q 1428 -91 1123 -41 
Q 819 9 494 109 
L 494 744 
Q 775 591 1075 516 
Q 1375 441 1709 441 
Q 2250 441 2565 725 
Q 2881 1009 2881 1497 
Q 2881 1984 2565 2268 
Q 2250 2553 1709 2553 
Q 1456 2553 1204 2497 
Q 953 2441 691 2322 
L 691 4666 
z
" transform="scale(0.015625)"/>
       </defs>
       <use xlink:href="#DejaVuSans-35"/>
       <use xlink:href="#DejaVuSans-30" x="63.623047"/>
       <use xlink:href="#DejaVuSans-30" x="127.246094"/>
      </g>
     </g>
    </g>
    <g id="text_12">
     <!-- y -->
     <g transform="translate(39.832812 148.399375)rotate(-90)scale(0.1 -0.1)">
      <use xlink:href="#DejaVuSans-79"/>
     </g>
    </g>
   </g>
   <g id="line2d_11">
    <path d="M 127.8 246.24 
L 127.8 221.243796 
" clip-path="url(#p6d09c735fd)" style="fill: none; stroke: #3d3d3d; stroke-width: 0.5; stroke-linecap: square"/>
   </g>
   <g id="line2d_12">
    <path d="M 127.8 241.349438 
L 127.8 233.198502 
" clip-path="url(#p6d09c735fd)" style="fill: none; stroke: #3d3d3d; stroke-width: 1.5; stroke-linecap: square"/>
   </g>
   <g id="line2d_13">
    <path d="M 239.4 246.24 
L 239.4 229.938128 
" clip-path="url(#p6d09c735fd)" style="fill: none; stroke: #3d3d3d; stroke-width: 0.5; stroke-linecap: square"/>
   </g>
   <g id="line2d_14">
    <path d="M 239.4 243.523021 
L 239.4 238.089064 
" clip-path="url(#p6d09c735fd)" style="fill: none; stroke: #3d3d3d; stroke-width: 1.5; stroke-linecap: square"/>
   </g>
   <g id="line2d_15">
    <path d="M 351 246.24 
L 351 225.047566 
" clip-path="url(#p6d09c735fd)" style="fill: none; stroke: #3d3d3d; stroke-width: 0.5; stroke-linecap: square"/>
   </g>
   <g id="line2d_16">
    <path d="M 351 242.43623 
L 351 235.372085 
" clip-path="url(#p6d09c735fd)" style="fill: none; stroke: #3d3d3d; stroke-width: 1.5; stroke-linecap: square"/>
   </g>
   <g id="line2d_17">
    <path d="M 462.6 246.24 
L 462.6 225.590962 
" clip-path="url(#p6d09c735fd)" style="fill: none; stroke: #3d3d3d; stroke-width: 0.5; stroke-linecap: square"/>
   </g>
   <g id="line2d_18">
    <path d="M 462.6 242.979622 
L 462.6 235.915481 
" clip-path="url(#p6d09c735fd)" style="fill: none; stroke: #3d3d3d; stroke-width: 1.5; stroke-linecap: square"/>
   </g>
   <g id="patch_3">
    <path d="M 72 256.32 
L 72 34.56 
" style="fill: none; stroke: #000000; stroke-width: 0.8; stroke-linejoin: miter; stroke-linecap: square"/>
   </g>
   <g id="patch_4">
    <path d="M 518.4 256.32 
L 518.4 34.56 
" style="fill: none; stroke: #000000; stroke-width: 0.8; stroke-linejoin: miter; stroke-linecap: square"/>
   </g>
   <g id="patch_5">
    <path d="M 72 256.32 
L 518.4 256.32 
" style="fill: none; stroke: #000000; stroke-width: 0.8; stroke-linejoin: miter; stroke-linecap: square"/>
   </g>
   <g id="patch_6">
    <path d="M 72 34.56 
L 518.4 34.56 
" style="fill: none; stroke: #000000; stroke-width: 0.8; stroke-linejoin: miter; stroke-linecap: square"/>
   </g>
   <g id="PathCollection_1">
    <defs>
     <path id="me43b321797" d="M 0 0.5 
C 0.132602 0.5 0.25979 0.447317 0.353553 0.353553 
C 0.447317 0.25979 0.5 0.132602 0.5 0 
C 0.5 -0.132602 0.447317 -0.25979 0.353553 -0.353553 
C 0.25979 -0.447317 0.132602 -0.5 0 -0.5 
C -0.132602 -0.5 -0.25979 -0.447317 -0.353553 -0.353553 
C -0.447317 -0.25979 -0.5 -0.132602 -0.5 0 
C -0.5 0.132602 -0.447317 0.25979 -0.353553 0.353553 
C -0.25979 0.447317 -0.132602 0.5 0 0.5 
z
" style="stroke: #3d3d3d"/>
    </defs>
    <g clip-path="url(#p6d09c735fd)">
     <use xlink:href="#me43b321797" x="127.8" y="238.089064" style="fill: #ffffff; stroke: #3d3d3d"/>
    </g>
   </g>
   <g id="PathCollection_2">
    <g clip-path="url(#p6d09c735fd)">
     <use xlink:href="#me43b321797" x="239.4" y="241.892834" style="fill: #ffffff; stroke: #3d3d3d"/>
    </g>
   </g>
   <g id="PathCollection_3">
    <g clip-path="url(#p6d09c735fd)">
     <use xlink:href="#me43b321797" x="351" y="240.262647" style="fill: #ffffff; stroke: #3d3d3d"/>
    </g>
   </g>
   <g id="PathCollection_4">
    <g clip-path="url(#p6d09c735fd)">
     <use xlink:href="#me43b321797" x="462.6" y="240.262647" style="fill: #ffffff; stroke: #3d3d3d"/>
    </g>
   </g>
  </g>
 </g>
 <defs>
  <clipPath id="p6d09c735fd">
   <rect x="72" y="34.56" width="446.4" height="221.76"/>
  </clipPath>
 </defs>
</svg>
